<?xml version="1.0" encoding="UTF-8" standalone="no"?>
<svg
   xmlns:dc="http://purl.org/dc/elements/1.1/"
   xmlns:cc="http://creativecommons.org/ns#"
   xmlns:rdf="http://www.w3.org/1999/02/22-rdf-syntax-ns#"
   xmlns:svg="http://www.w3.org/2000/svg"
   xmlns="http://www.w3.org/2000/svg"
   viewBox="0 0 393.21332 93.537331"
   height="93.537331"
   width="393.21332"
   xml:space="preserve"
   id="svg2"
   version="1.1"><metadata
     id="metadata8"><rdf:RDF><cc:Work
         rdf:about=""><dc:format>image/svg+xml</dc:format><dc:type
           rdf:resource="http://purl.org/dc/dcmitype/StillImage" /></cc:Work></rdf:RDF></metadata><defs
     id="defs6" /><g
     transform="matrix(1.3333333,0,0,-1.3333333,0,93.537333)"
     id="g10"><g
       transform="translate(8.501,6.73)"
       id="g12"><g
         id="g14"><g
           id="g16" /><g
           id="g18"><g
             id="g20"><g
               id="g22" /><g
               id="g24"><path
                 id="path26"
                 style="fill:#ff8000;fill-opacity:1;fill-rule:nonzero;stroke:#000000;stroke-width:0.3985;stroke-linecap:butt;stroke-linejoin:miter;stroke-miterlimit:10;stroke-dasharray:none;stroke-opacity:1"
                 d="m 180.05865,63.22441 h -59.64097 c -2.20094,0 -3.98511,-1.78416 -3.98511,-3.98511 v -5.09137 c 0,-2.20094 1.78417,-3.9851 3.98511,-3.9851 h 59.64097 c 2.20095,0 3.98511,1.78416 3.98511,3.9851 v 5.09137 c 0,2.20095 -1.78416,3.98511 -3.98511,3.98511 z m -46.82293,0 V 50.16283 m 17.00242,13.06158 V 50.16283 m 17.00243,13.06158 V 50.16283" /></g><g
               transform="translate(119.752,53.483)"
               id="g28"><g
                 id="g30"><g
                   transform="translate(-128.253,-60.213)"
                   id="g32"><text
                     id="text36"
                     style="font-variant:normal;font-weight:normal;font-size:9.96259975px;font-family:CMR10;-inkscape-font-specification:CMR10;writing-mode:lr-tb;fill:#000000;fill-opacity:1;fill-rule:nonzero;stroke:none"
                     transform="matrix(1,0,0,-1,130.743,60.213)"><tspan
                       id="tspan34"
                       y="0"
                       x="0">7</tspan></text>
<g
                     transform="translate(128.253,60.213)"
                     id="g38" /></g></g><g
                 transform="translate(-119.752,-53.483)"
                 id="g40" /></g><g
               transform="translate(136.754,53.483)"
               id="g42"><g
                 id="g44"><g
                   transform="translate(-145.255,-60.213)"
                   id="g46"><text
                     id="text50"
                     style="font-variant:normal;font-weight:normal;font-size:9.96259975px;font-family:CMR10;-inkscape-font-specification:CMR10;writing-mode:lr-tb;fill:#000000;fill-opacity:1;fill-rule:nonzero;stroke:none"
                     transform="matrix(1,0,0,-1,145.255,60.213)"><tspan
                       id="tspan48"
                       y="0"
                       x="0 4.9812999">31</tspan></text>
<g
                     transform="translate(145.255,60.213)"
                     id="g52" /></g></g><g
                 transform="translate(-136.754,-53.483)"
                 id="g54" /></g><g
               transform="translate(153.756,53.483)"
               id="g56"><g
                 id="g58"><g
                   transform="translate(-162.257,-60.213)"
                   id="g60"><text
                     id="text64"
                     style="font-variant:normal;font-weight:normal;font-size:9.96259975px;font-family:CMR10;-inkscape-font-specification:CMR10;writing-mode:lr-tb;fill:#000000;fill-opacity:1;fill-rule:nonzero;stroke:none"
                     transform="matrix(1,0,0,-1,162.257,60.213)"><tspan
                       id="tspan62"
                       y="0"
                       x="0 4.9812999">53</tspan></text>
<g
                     transform="translate(162.257,60.213)"
                     id="g66" /></g></g><g
                 transform="translate(-153.756,-53.483)"
                 id="g68" /></g><g
               transform="translate(170.758,53.483)"
               id="g70"><g
                 id="g72"><g
                   transform="translate(-179.259,-60.213)"
                   id="g74"><text
                     id="text78"
                     style="font-variant:normal;font-weight:normal;font-size:9.96259975px;font-family:CMR10;-inkscape-font-specification:CMR10;writing-mode:lr-tb;fill:#000000;fill-opacity:1;fill-rule:nonzero;stroke:none"
                     transform="matrix(1,0,0,-1,179.259,60.213)"><tspan
                       id="tspan76"
                       y="0"
                       x="0 4.9812999">67</tspan></text>
<g
                     transform="translate(179.259,60.213)"
                     id="g80" /></g></g><g
                 transform="translate(-170.758,-53.483)"
                 id="g82" /></g></g><g
             id="g84"><g
               id="g86" /><path
               id="path88"
               style="fill:none;stroke:#000000;stroke-width:0.3985;stroke-linecap:butt;stroke-linejoin:miter;stroke-miterlimit:10;stroke-dasharray:none;stroke-opacity:1"
               d="m 18.49025,34.87761 h -8.6337 c -2.20094,0 -3.98511,-1.78417 -3.98511,-3.98511 v -5.09138 c 0,-2.20093 1.78417,-3.98511 3.98511,-3.98511 h 8.6337 c 2.20095,0 3.98511,1.78418 3.98511,3.98511 v 5.09138 c 0,2.20094 -1.78416,3.98511 -3.98511,3.98511 z" /><g
               transform="translate(9.192,25.136)"
               id="g90"><g
                 id="g92"><g
                   transform="translate(-17.693,-31.866)"
                   id="g94"><text
                     id="text98"
                     style="font-variant:normal;font-weight:normal;font-size:9.96259975px;font-family:CMR10;-inkscape-font-specification:CMR10;writing-mode:lr-tb;fill:#000000;fill-opacity:1;fill-rule:nonzero;stroke:none"
                     transform="matrix(1,0,0,-1,20.184,31.866)"><tspan
                       id="tspan96"
                       y="0"
                       x="0">3</tspan></text>
<g
                     transform="translate(17.693,31.866)"
                     id="g100" /></g></g><g
                 transform="translate(-9.192,-25.136)"
                 id="g102" /></g></g><g
             id="g104"><g
               id="g106" /><g
               id="g108"><path
                 id="path110"
                 style="fill:#ec008c;fill-opacity:1;fill-rule:nonzero;stroke:#000000;stroke-width:0.3985;stroke-linecap:butt;stroke-linejoin:miter;stroke-miterlimit:10;stroke-dasharray:none;stroke-opacity:1"
                 d="M 129.03723,34.87761 H 86.39867 c -2.20095,0 -3.98511,-1.78417 -3.98511,-3.98511 v -5.09138 c 0,-2.20093 1.78416,-3.98511 3.98511,-3.98511 h 42.63856 c 2.20094,0 3.98511,1.78418 3.98511,3.98511 v 5.09138 c 0,2.20094 -1.78417,3.98511 -3.98511,3.98511 z m -29.82051,0 v -13.0616 m 17.00243,13.0616 v -13.0616" /></g><g
               transform="translate(85.733,25.136)"
               id="g112"><g
                 id="g114"><g
                   transform="translate(-94.234,-31.866)"
                   id="g116"><text
                     id="text120"
                     style="font-variant:normal;font-weight:normal;font-size:9.96259975px;font-family:CMR10;-inkscape-font-specification:CMR10;writing-mode:lr-tb;fill:#000000;fill-opacity:1;fill-rule:nonzero;stroke:none"
                     transform="matrix(1,0,0,-1,94.234,31.866)"><tspan
                       id="tspan118"
                       y="0"
                       x="0 4.9812999">13</tspan></text>
<g
                     transform="translate(94.234,31.866)"
                     id="g122" /></g></g><g
                 transform="translate(-85.733,-25.136)"
                 id="g124" /></g><g
               transform="translate(102.735,25.136)"
               id="g126"><g
                 id="g128"><g
                   transform="translate(-111.236,-31.866)"
                   id="g130"><text
                     id="text134"
                     style="font-variant:normal;font-weight:normal;font-size:9.96259975px;font-family:CMR10;-inkscape-font-specification:CMR10;writing-mode:lr-tb;fill:#000000;fill-opacity:1;fill-rule:nonzero;stroke:none"
                     transform="matrix(1,0,0,-1,111.236,31.866)"><tspan
                       id="tspan132"
                       y="0"
                       x="0 4.9812999">23</tspan></text>
<g
                     transform="translate(111.236,31.866)"
                     id="g136" /></g></g><g
                 transform="translate(-102.735,-25.136)"
                 id="g138" /></g><g
               transform="translate(119.737,25.136)"
               id="g140"><g
                 id="g142"><g
                   transform="translate(-128.238,-31.866)"
                   id="g144"><text
                     id="text148"
                     style="font-variant:normal;font-weight:normal;font-size:9.96259975px;font-family:CMR10;-inkscape-font-specification:CMR10;writing-mode:lr-tb;fill:#000000;fill-opacity:1;fill-rule:nonzero;stroke:none"
                     transform="matrix(1,0,0,-1,128.238,31.866)"><tspan
                       id="tspan146"
                       y="0"
                       x="0 4.9812999">29</tspan></text>
<g
                     transform="translate(128.238,31.866)"
                     id="g150" /></g></g><g
                 transform="translate(-119.737,-25.136)"
                 id="g152" /></g></g><g
             id="g154"><g
               id="g156" /><g
               id="g158"><path
                 id="path160"
                 style="fill:#00adef;fill-opacity:1;fill-rule:nonzero;stroke:#000000;stroke-width:0.3985;stroke-linecap:butt;stroke-linejoin:miter;stroke-miterlimit:10;stroke-dasharray:none;stroke-opacity:1"
                 d="m 177.22963,34.87761 h -25.63614 c -2.20094,0 -3.98511,-1.78417 -3.98511,-3.98511 v -5.09138 c 0,-2.20093 1.78417,-3.98511 3.98511,-3.98511 h 25.63614 c 2.20094,0 3.98511,1.78418 3.98511,3.98511 v 5.09138 c 0,2.20094 -1.78417,3.98511 -3.98511,3.98511 z m -12.81809,0 v -13.0616" /></g><g
               transform="translate(150.927,25.136)"
               id="g162"><g
                 id="g164"><g
                   transform="translate(-159.428,-31.866)"
                   id="g166"><text
                     id="text170"
                     style="font-variant:normal;font-weight:normal;font-size:9.96259975px;font-family:CMR10;-inkscape-font-specification:CMR10;writing-mode:lr-tb;fill:#000000;fill-opacity:1;fill-rule:nonzero;stroke:none"
                     transform="matrix(1,0,0,-1,159.428,31.866)"><tspan
                       id="tspan168"
                       y="0"
                       x="0 4.9812999">41</tspan></text>
<g
                     transform="translate(159.428,31.866)"
                     id="g172" /></g></g><g
                 transform="translate(-150.927,-25.136)"
                 id="g174" /></g><g
               transform="translate(167.929,25.136)"
               id="g176"><g
                 id="g178"><g
                   transform="translate(-176.43,-31.866)"
                   id="g180"><text
                     id="text184"
                     style="font-variant:normal;font-weight:normal;font-size:9.96259975px;font-family:CMR10;-inkscape-font-specification:CMR10;writing-mode:lr-tb;fill:#000000;fill-opacity:1;fill-rule:nonzero;stroke:none"
                     transform="matrix(1,0,0,-1,176.43,31.866)"><tspan
                       id="tspan182"
                       y="0"
                       x="0 4.9812999">43</tspan></text>
<g
                     transform="translate(176.43,31.866)"
                     id="g186" /></g></g><g
                 transform="translate(-167.929,-25.136)"
                 id="g188" /></g></g><g
             id="g190"><g
               id="g192" /><path
               id="path194"
               style="fill:none;stroke:#000000;stroke-width:0.3985;stroke-linecap:butt;stroke-linejoin:miter;stroke-miterlimit:10;stroke-dasharray:none;stroke-opacity:1"
               d="m 231.09132,34.87761 h -8.63369 c -2.20095,0 -3.98511,-1.78417 -3.98511,-3.98511 v -5.09138 c 0,-2.20093 1.78416,-3.98511 3.98511,-3.98511 h 8.63369 c 2.20095,0 3.98511,1.78418 3.98511,3.98511 v 5.09138 c 0,2.20094 -1.78416,3.98511 -3.98511,3.98511 z" /><g
               transform="translate(221.79,25.136)"
               id="g196"><g
                 id="g198"><g
                   transform="translate(-230.291,-31.866)"
                   id="g200"><text
                     id="text204"
                     style="font-variant:normal;font-weight:normal;font-size:9.96259975px;font-family:CMR10;-inkscape-font-specification:CMR10;writing-mode:lr-tb;fill:#000000;fill-opacity:1;fill-rule:nonzero;stroke:none"
                     transform="matrix(1,0,0,-1,230.291,31.866)"><tspan
                       id="tspan202"
                       y="0"
                       x="0 4.9812999">61</tspan></text>
<g
                     transform="translate(230.291,31.866)"
                     id="g206" /></g></g><g
                 transform="translate(-221.79,-25.136)"
                 id="g208" /></g></g><g
             id="g210"><g
               id="g212" /><path
               id="path214"
               style="fill:none;stroke:#000000;stroke-width:0.3985;stroke-linecap:butt;stroke-linejoin:miter;stroke-miterlimit:10;stroke-dasharray:none;stroke-opacity:1"
               d="m 259.43814,34.87761 h -8.6337 c -2.20094,0 -3.9851,-1.78417 -3.9851,-3.98511 v -5.09138 c 0,-2.20093 1.78416,-3.98511 3.9851,-3.98511 h 8.6337 c 2.20094,0 3.98511,1.78418 3.98511,3.98511 v 5.09138 c 0,2.20094 -1.78417,3.98511 -3.98511,3.98511 z" /><g
               transform="translate(250.137,25.136)"
               id="g216"><g
                 id="g218"><g
                   transform="translate(-258.638,-31.866)"
                   id="g220"><text
                     id="text224"
                     style="font-variant:normal;font-weight:normal;font-size:9.96259975px;font-family:CMR10;-inkscape-font-specification:CMR10;writing-mode:lr-tb;fill:#000000;fill-opacity:1;fill-rule:nonzero;stroke:none"
                     transform="matrix(1,0,0,-1,258.638,31.866)"><tspan
                       id="tspan222"
                       y="0"
                       x="0 4.9812999">71</tspan></text>
<g
                     transform="translate(258.638,31.866)"
                     id="g226" /></g></g><g
                 transform="translate(-250.137,-25.136)"
                 id="g228" /></g></g><g
             id="g230"><g
               id="g232" /><path
               id="path234"
               style="fill:none;stroke:#000000;stroke-width:0.3985;stroke-linecap:butt;stroke-linejoin:miter;stroke-miterlimit:10;stroke-dasharray:none;stroke-opacity:1"
               d="m 4.31685,6.53079 h -8.63368 c -2.20095,0 -3.98511,-1.78416 -3.98511,-3.98511 v -5.09135 c 0,-2.20094 1.78416,-3.98511 3.98511,-3.98511 h 8.63368 c 2.20094,0 3.98511,1.78417 3.98511,3.98511 v 5.09135 c 0,2.20095 -1.78417,3.98511 -3.98511,3.98511 z" /><g
               transform="translate(-4.981,-3.21)"
               id="g236"><g
                 id="g238"><g
                   transform="translate(-3.52,-3.52)"
                   id="g240"><text
                     id="text244"
                     style="font-variant:normal;font-weight:normal;font-size:9.96259975px;font-family:CMR10;-inkscape-font-specification:CMR10;writing-mode:lr-tb;fill:#000000;fill-opacity:1;fill-rule:nonzero;stroke:none"
                     transform="matrix(1,0,0,-1,6.01,3.52)"><tspan
                       id="tspan242"
                       y="0"
                       x="0">2</tspan></text>
<g
                     transform="translate(3.52,3.52)"
                     id="g246" /></g></g><g
                 transform="translate(4.981,3.21)"
                 id="g248" /></g></g><g
             id="g250"><g
               id="g252" /><path
               id="path254"
               style="fill:none;stroke:#000000;stroke-width:0.3985;stroke-linecap:butt;stroke-linejoin:miter;stroke-miterlimit:10;stroke-dasharray:none;stroke-opacity:1"
               d="m 32.66367,6.53079 h -8.63372 c -2.20094,0 -3.9851,-1.78416 -3.9851,-3.98511 v -5.09135 c 0,-2.20094 1.78416,-3.98511 3.9851,-3.98511 h 8.63372 c 2.20094,0 3.9851,1.78417 3.9851,3.98511 v 5.09135 c 0,2.20095 -1.78416,3.98511 -3.9851,3.98511 z" /><g
               transform="translate(23.365,-3.21)"
               id="g256"><g
                 id="g258"><g
                   transform="translate(-31.866,-3.52)"
                   id="g260"><text
                     id="text264"
                     style="font-variant:normal;font-weight:normal;font-size:9.96259975px;font-family:CMR10;-inkscape-font-specification:CMR10;writing-mode:lr-tb;fill:#000000;fill-opacity:1;fill-rule:nonzero;stroke:none"
                     transform="matrix(1,0,0,-1,34.357,3.52)"><tspan
                       id="tspan262"
                       y="0"
                       x="0">5</tspan></text>
<g
                     transform="translate(31.866,3.52)"
                     id="g266" /></g></g><g
                 transform="translate(-23.365,3.21)"
                 id="g268" /></g></g><g
             id="g270"><g
               id="g272" /><path
               id="path274"
               style="fill:none;stroke:#000000;stroke-width:0.3985;stroke-linecap:butt;stroke-linejoin:miter;stroke-miterlimit:10;stroke-dasharray:none;stroke-opacity:1"
               d="m 61.01047,6.53079 h -8.6337 c -2.20094,0 -3.98511,-1.78416 -3.98511,-3.98511 v -5.09135 c 0,-2.20094 1.78417,-3.98511 3.98511,-3.98511 h 8.6337 c 2.20094,0 3.9851,1.78417 3.9851,3.98511 v 5.09135 c 0,2.20095 -1.78416,3.98511 -3.9851,3.98511 z" /><g
               transform="translate(51.712,-3.21)"
               id="g276"><g
                 id="g278"><g
                   transform="translate(-60.213,-3.52)"
                   id="g280"><text
                     id="text284"
                     style="font-variant:normal;font-weight:normal;font-size:9.96259975px;font-family:CMR10;-inkscape-font-specification:CMR10;writing-mode:lr-tb;fill:#000000;fill-opacity:1;fill-rule:nonzero;stroke:none"
                     transform="matrix(1,0,0,-1,60.213,3.52)"><tspan
                       id="tspan282"
                       y="0"
                       x="0 4.9812999">11</tspan></text>
<g
                     transform="translate(60.213,3.52)"
                     id="g286" /></g></g><g
                 transform="translate(-51.712,3.21)"
                 id="g288" /></g></g><g
             id="g290"><g
               id="g292" /><g
               id="g294"><path
                 id="path296"
                 style="fill:#ffbfbf;fill-opacity:1;fill-rule:nonzero;stroke:#000000;stroke-width:0.3985;stroke-linecap:butt;stroke-linejoin:miter;stroke-miterlimit:10;stroke-dasharray:none;stroke-opacity:1"
                 d="M 106.36261,6.53079 H 80.72649 c -2.20095,0 -3.98511,-1.78416 -3.98511,-3.98511 v -5.09135 c 0,-2.20094 1.78416,-3.98511 3.98511,-3.98511 h 25.63612 c 2.20094,0 3.98511,1.78417 3.98511,3.98511 v 5.09135 c 0,2.20095 -1.78417,3.98511 -3.98511,3.98511 z m -12.81808,0 V -6.53078" /></g><g
               transform="translate(80.061,-3.21)"
               id="g298"><g
                 id="g300"><g
                   transform="translate(-88.562,-3.52)"
                   id="g302"><text
                     id="text306"
                     style="font-variant:normal;font-weight:normal;font-size:9.96259975px;font-family:CMR10;-inkscape-font-specification:CMR10;writing-mode:lr-tb;fill:#000000;fill-opacity:1;fill-rule:nonzero;stroke:none"
                     transform="matrix(1,0,0,-1,88.562,3.52)"><tspan
                       id="tspan304"
                       y="0"
                       x="0 4.9812999">17</tspan></text>
<g
                     transform="translate(88.562,3.52)"
                     id="g308" /></g></g><g
                 transform="translate(-80.061,3.21)"
                 id="g310" /></g><g
               transform="translate(97.063,-3.21)"
               id="g312"><g
                 id="g314"><g
                   transform="translate(-105.564,-3.52)"
                   id="g316"><text
                     id="text320"
                     style="font-variant:normal;font-weight:normal;font-size:9.96259975px;font-family:CMR10;-inkscape-font-specification:CMR10;writing-mode:lr-tb;fill:#000000;fill-opacity:1;fill-rule:nonzero;stroke:none"
                     transform="matrix(1,0,0,-1,105.564,3.52)"><tspan
                       id="tspan318"
                       y="0"
                       x="0 4.9812999">19</tspan></text>
<g
                     transform="translate(105.564,3.52)"
                     id="g322" /></g></g><g
                 transform="translate(-97.063,3.21)"
                 id="g324" /></g></g><g
             id="g326"><g
               id="g328" /><path
               id="path330"
               style="fill:none;stroke:#000000;stroke-width:0.3985;stroke-linecap:butt;stroke-linejoin:miter;stroke-miterlimit:10;stroke-dasharray:none;stroke-opacity:1"
               d="m 146.0509,6.53079 h -8.63371 c -2.20094,0 -3.98511,-1.78416 -3.98511,-3.98511 v -5.09135 c 0,-2.20094 1.78417,-3.98511 3.98511,-3.98511 h 8.63371 c 2.20095,0 3.98511,1.78417 3.98511,3.98511 v 5.09135 c 0,2.20095 -1.78416,3.98511 -3.98511,3.98511 z" /><g
               transform="translate(136.751,-3.21)"
               id="g332"><g
                 id="g334"><g
                   transform="translate(-145.252,-3.52)"
                   id="g336"><text
                     id="text340"
                     style="font-variant:normal;font-weight:normal;font-size:9.96259975px;font-family:CMR10;-inkscape-font-specification:CMR10;writing-mode:lr-tb;fill:#000000;fill-opacity:1;fill-rule:nonzero;stroke:none"
                     transform="matrix(1,0,0,-1,145.252,3.52)"><tspan
                       id="tspan338"
                       y="0"
                       x="0 4.9812999">37</tspan></text>
<g
                     transform="translate(145.252,3.52)"
                     id="g342" /></g></g><g
                 transform="translate(-136.751,3.21)"
                 id="g344" /></g></g><g
             id="g346"><g
               id="g348" /><path
               id="path350"
               style="fill:none;stroke:#000000;stroke-width:0.3985;stroke-linecap:butt;stroke-linejoin:miter;stroke-miterlimit:10;stroke-dasharray:none;stroke-opacity:1"
               d="m 191.40596,6.53079 h -8.63371 c -2.20095,0 -3.98511,-1.78416 -3.98511,-3.98511 v -5.09135 c 0,-2.20094 1.78416,-3.98511 3.98511,-3.98511 h 8.63371 c 2.20094,0 3.98511,1.78417 3.98511,3.98511 v 5.09135 c 0,2.20095 -1.78417,3.98511 -3.98511,3.98511 z" /><g
               transform="translate(182.105,-3.21)"
               id="g352"><g
                 id="g354"><g
                   transform="translate(-190.606,-3.52)"
                   id="g356"><text
                     id="text360"
                     style="font-variant:normal;font-weight:normal;font-size:9.96259975px;font-family:CMR10;-inkscape-font-specification:CMR10;writing-mode:lr-tb;fill:#000000;fill-opacity:1;fill-rule:nonzero;stroke:none"
                     transform="matrix(1,0,0,-1,190.606,3.52)"><tspan
                       id="tspan358"
                       y="0"
                       x="0 4.9812999">47</tspan></text>
<g
                     transform="translate(190.606,3.52)"
                     id="g362" /></g></g><g
                 transform="translate(-182.105,3.21)"
                 id="g364" /></g></g><g
             id="g366"><g
               id="g368" /><path
               id="path370"
               style="fill:none;stroke:#000000;stroke-width:0.3985;stroke-linecap:butt;stroke-linejoin:miter;stroke-miterlimit:10;stroke-dasharray:none;stroke-opacity:1"
               d="m 219.75276,6.53079 h -8.6337 c -2.20094,0 -3.9851,-1.78416 -3.9851,-3.98511 v -5.09135 c 0,-2.20094 1.78416,-3.98511 3.9851,-3.98511 h 8.6337 c 2.20094,0 3.98511,1.78417 3.98511,3.98511 v 5.09135 c 0,2.20095 -1.78417,3.98511 -3.98511,3.98511 z" /><g
               transform="translate(210.452,-3.21)"
               id="g372"><g
                 id="g374"><g
                   transform="translate(-218.953,-3.52)"
                   id="g376"><text
                     id="text380"
                     style="font-variant:normal;font-weight:normal;font-size:9.96259975px;font-family:CMR10;-inkscape-font-specification:CMR10;writing-mode:lr-tb;fill:#000000;fill-opacity:1;fill-rule:nonzero;stroke:none"
                     transform="matrix(1,0,0,-1,218.953,3.52)"><tspan
                       id="tspan378"
                       y="0"
                       x="0 4.9812999">59</tspan></text>
<g
                     transform="translate(218.953,3.52)"
                     id="g382" /></g></g><g
                 transform="translate(-210.452,3.21)"
                 id="g384" /></g></g><g
             id="g386"><path
               id="path388"
               style="fill:none;stroke:#000000;stroke-width:0.59776002;stroke-linecap:butt;stroke-linejoin:miter;stroke-miterlimit:10;stroke-dasharray:none;stroke-opacity:1"
               d="M 116.23332,49.96358 14.75008,35.16095" /><g
               transform="matrix(-0.98949,-0.14432,0.14432,-0.98949,14.75009,35.16096)"
               id="g390"><g
                 id="g392"><path
                   id="path394"
                   style="fill:none;stroke:#000000;stroke-width:0.47819999;stroke-linecap:round;stroke-linejoin:round;stroke-miterlimit:10;stroke-dasharray:none;stroke-opacity:1"
                   d="M -1.37483,1.83311 C -1.26025,1.14569 0,0.11455 0.34369,0 0,-0.11455 -1.26025,-1.14569 -1.37483,-1.83311" /></g></g></g><g
             id="g396"><path
               id="path398"
               style="fill:none;stroke:#000000;stroke-width:0.59776002;stroke-linecap:butt;stroke-linejoin:miter;stroke-miterlimit:10;stroke-dasharray:none;stroke-opacity:1"
               d="M 133.23572,49.96358 108.22133,35.37053" /><g
               transform="matrix(-0.86371,-0.50389,0.50389,-0.86371,108.22133,35.37053)"
               id="g400"><g
                 id="g402"><path
                   id="path404"
                   style="fill:none;stroke:#000000;stroke-width:0.47819999;stroke-linecap:round;stroke-linejoin:round;stroke-miterlimit:10;stroke-dasharray:none;stroke-opacity:1"
                   d="M -1.37483,1.83311 C -1.26025,1.14569 0,0.11455 0.34369,0 0,-0.11455 -1.26025,-1.14569 -1.37483,-1.83311" /></g></g></g><g
             id="g406"><path
               id="path408"
               style="fill:none;stroke:#000000;stroke-width:0.59776002;stroke-linecap:butt;stroke-linejoin:miter;stroke-miterlimit:10;stroke-dasharray:none;stroke-opacity:1"
               d="M 150.23814,49.96358 164.00969,35.49893" /><g
               transform="matrix(0.68951,-0.72421,0.72421,0.68951,164.00969,35.49893)"
               id="g410"><g
                 id="g412"><path
                   id="path414"
                   style="fill:none;stroke:#000000;stroke-width:0.47819999;stroke-linecap:round;stroke-linejoin:round;stroke-miterlimit:10;stroke-dasharray:none;stroke-opacity:1"
                   d="M -1.37483,1.83311 C -1.26025,1.14569 0,0.11455 0.34369,0 0,-0.11455 -1.26025,-1.14569 -1.37483,-1.83311" /></g></g></g><g
             id="g416"><path
               id="path418"
               style="fill:none;stroke:#000000;stroke-width:0.59776002;stroke-linecap:butt;stroke-linejoin:miter;stroke-miterlimit:10;stroke-dasharray:none;stroke-opacity:1"
               d="M 167.24057,49.96358 226.20908,35.21822" /><g
               transform="matrix(0.97011,-0.24257,0.24257,0.97011,226.20906,35.21822)"
               id="g420"><g
                 id="g422"><path
                   id="path424"
                   style="fill:none;stroke:#000000;stroke-width:0.47819999;stroke-linecap:round;stroke-linejoin:round;stroke-miterlimit:10;stroke-dasharray:none;stroke-opacity:1"
                   d="M -1.37483,1.83311 C -1.26025,1.14569 0,0.11455 0.34369,0 0,-0.11455 -1.26025,-1.14569 -1.37483,-1.83311" /></g></g></g><g
             id="g426"><path
               id="path428"
               style="fill:none;stroke:#000000;stroke-width:0.59776002;stroke-linecap:butt;stroke-linejoin:miter;stroke-miterlimit:10;stroke-dasharray:none;stroke-opacity:1"
               d="M 184.24301,49.96358 254.55093,35.19664" /><g
               transform="matrix(0.9786,-0.20554,0.20554,0.9786,254.55092,35.19664)"
               id="g430"><g
                 id="g432"><path
                   id="path434"
                   style="fill:none;stroke:#000000;stroke-width:0.47819999;stroke-linecap:round;stroke-linejoin:round;stroke-miterlimit:10;stroke-dasharray:none;stroke-opacity:1"
                   d="M -1.37483,1.83311 C -1.26025,1.14569 0,0.11455 0.34369,0 0,-0.11455 -1.26025,-1.14569 -1.37483,-1.83311" /></g></g></g><g
             id="g436"><path
               id="path438"
               style="fill:none;stroke:#000000;stroke-width:0.59776002;stroke-linecap:butt;stroke-linejoin:miter;stroke-miterlimit:10;stroke-dasharray:none;stroke-opacity:1"
               d="M 5.67218,21.61676 0.20749,7.27466" /><g
               transform="matrix(-0.35603,-0.93443,0.93443,-0.35603,0.2075,7.27467)"
               id="g440"><g
                 id="g442"><path
                   id="path444"
                   style="fill:none;stroke:#000000;stroke-width:0.47819999;stroke-linecap:round;stroke-linejoin:round;stroke-miterlimit:10;stroke-dasharray:none;stroke-opacity:1"
                   d="M -1.37483,1.83311 C -1.26025,1.14569 0,0.11455 0.34369,0 0,-0.11455 -1.26025,-1.14569 -1.37483,-1.83311" /></g></g></g><g
             id="g446"><path
               id="path448"
               style="fill:none;stroke:#000000;stroke-width:0.59776002;stroke-linecap:butt;stroke-linejoin:miter;stroke-miterlimit:10;stroke-dasharray:none;stroke-opacity:1"
               d="M 22.6746,21.61676 28.13931,7.27466" /><g
               transform="matrix(0.35603,-0.93443,0.93443,0.35603,28.1393,7.27467)"
               id="g450"><g
                 id="g452"><path
                   id="path454"
                   style="fill:none;stroke:#000000;stroke-width:0.47819999;stroke-linecap:round;stroke-linejoin:round;stroke-miterlimit:10;stroke-dasharray:none;stroke-opacity:1"
                   d="M -1.37483,1.83311 C -1.26025,1.14569 0,0.11455 0.34369,0 0,-0.11455 -1.26025,-1.14569 -1.37483,-1.83311" /></g></g></g><g
             id="g456"><path
               id="path458"
               style="fill:none;stroke:#000000;stroke-width:0.59776002;stroke-linecap:butt;stroke-linejoin:miter;stroke-miterlimit:10;stroke-dasharray:none;stroke-opacity:1"
               d="M 82.21431,21.61676 57.197,7.02368" /><g
               transform="matrix(-0.86374,-0.50383,0.50383,-0.86374,57.19702,7.02368)"
               id="g460"><g
                 id="g462"><path
                   id="path464"
                   style="fill:none;stroke:#000000;stroke-width:0.47819999;stroke-linecap:round;stroke-linejoin:round;stroke-miterlimit:10;stroke-dasharray:none;stroke-opacity:1"
                   d="M -1.37483,1.83311 C -1.26025,1.14569 0,0.11455 0.34369,0 0,-0.11455 -1.26025,-1.14569 -1.37483,-1.83311" /></g></g></g><g
             id="g466"><path
               id="path468"
               style="fill:none;stroke:#000000;stroke-width:0.59776002;stroke-linecap:butt;stroke-linejoin:miter;stroke-miterlimit:10;stroke-dasharray:none;stroke-opacity:1"
               d="M 99.21672,21.61676 93.75203,7.27466" /><g
               transform="matrix(-0.35603,-0.93443,0.93443,-0.35603,93.75204,7.27467)"
               id="g470"><g
                 id="g472"><path
                   id="path474"
                   style="fill:none;stroke:#000000;stroke-width:0.47819999;stroke-linecap:round;stroke-linejoin:round;stroke-miterlimit:10;stroke-dasharray:none;stroke-opacity:1"
                   d="M -1.37483,1.83311 C -1.26025,1.14569 0,0.11455 0.34369,0 0,-0.11455 -1.26025,-1.14569 -1.37483,-1.83311" /></g></g></g><g
             id="g476"><path
               id="path478"
               style="fill:none;stroke:#000000;stroke-width:0.59776002;stroke-linecap:butt;stroke-linejoin:miter;stroke-miterlimit:10;stroke-dasharray:none;stroke-opacity:1"
               d="M 147.40913,21.61676 141.94162,7.27461" /><g
               transform="matrix(-0.35619,-0.93437,0.93437,-0.35619,141.94164,7.27463)"
               id="g480"><g
                 id="g482"><path
                   id="path484"
                   style="fill:none;stroke:#000000;stroke-width:0.47819999;stroke-linecap:round;stroke-linejoin:round;stroke-miterlimit:10;stroke-dasharray:none;stroke-opacity:1"
                   d="M -1.37483,1.83311 C -1.26025,1.14569 0,0.11455 0.34369,0 0,-0.11455 -1.26025,-1.14569 -1.37483,-1.83311" /></g></g></g><g
             id="g486"><path
               id="path488"
               style="fill:none;stroke:#000000;stroke-width:0.59776002;stroke-linecap:butt;stroke-linejoin:miter;stroke-miterlimit:10;stroke-dasharray:none;stroke-opacity:1"
               d="M 181.41399,21.61676 186.88152,7.27461" /><g
               transform="matrix(0.35619,-0.93437,0.93437,0.35619,186.8815,7.27463)"
               id="g490"><g
                 id="g492"><path
                   id="path494"
                   style="fill:none;stroke:#000000;stroke-width:0.47819999;stroke-linecap:round;stroke-linejoin:round;stroke-miterlimit:10;stroke-dasharray:none;stroke-opacity:1"
                   d="M -1.37483,1.83311 C -1.26025,1.14569 0,0.11455 0.34369,0 0,-0.11455 -1.26025,-1.14569 -1.37483,-1.83311" /></g></g></g><g
             id="g496"><path
               id="path498"
               style="fill:none;stroke:#000000;stroke-width:0.59776002;stroke-linecap:butt;stroke-linejoin:miter;stroke-miterlimit:10;stroke-dasharray:none;stroke-opacity:1"
               d="M 218.27327,21.61676 215.54501,7.30254" /><g
               transform="matrix(-0.18721,-0.98228,0.98228,-0.18721,215.54503,7.30254)"
               id="g500"><g
                 id="g502"><path
                   id="path504"
                   style="fill:none;stroke:#000000;stroke-width:0.47819999;stroke-linecap:round;stroke-linejoin:round;stroke-miterlimit:10;stroke-dasharray:none;stroke-opacity:1"
                   d="M -1.37483,1.83311 C -1.26025,1.14569 0,0.11455 0.34369,0 0,-0.11455 -1.26025,-1.14569 -1.37483,-1.83311" /></g></g></g><g
             id="g506"><g
               id="g508" /><g
               transform="translate(278.48,53.804)"
               id="g510"><g
                 id="g512"><g
                   transform="translate(-286.981,-60.534)"
                   id="g514"><text
                     id="text518"
                     style="font-variant:normal;font-weight:normal;font-size:8.96640015px;font-family:CMR9;-inkscape-font-specification:CMR9;writing-mode:lr-tb;fill:#808080;fill-opacity:1;fill-rule:nonzero;stroke:none"
                     transform="matrix(1,0,0,-1,286.981,60.534)"><tspan
                       id="tspan516"
                       y="0"
                       x="0">3</tspan></text>
<g
                     transform="translate(286.981,60.534)"
                     id="g520" /></g></g><g
                 transform="translate(-278.48,-53.804)"
                 id="g522" /></g></g><g
             id="g524"><g
               id="g526" /><g
               transform="translate(278.48,25.457)"
               id="g528"><g
                 id="g530"><g
                   transform="translate(-286.981,-32.187)"
                   id="g532"><text
                     id="text536"
                     style="font-variant:normal;font-weight:normal;font-size:8.96640015px;font-family:CMR9;-inkscape-font-specification:CMR9;writing-mode:lr-tb;fill:#808080;fill-opacity:1;fill-rule:nonzero;stroke:none"
                     transform="matrix(1,0,0,-1,286.981,32.187)"><tspan
                       id="tspan534"
                       y="0"
                       x="0">2</tspan></text>
<g
                     transform="translate(286.981,32.187)"
                     id="g538" /></g></g><g
                 transform="translate(-278.48,-25.457)"
                 id="g540" /></g></g><g
             id="g542"><g
               id="g544" /><g
               transform="translate(278.48,-2.889)"
               id="g546"><g
                 id="g548"><g
                   transform="translate(-286.981,-3.841)"
                   id="g550"><text
                     id="text554"
                     style="font-variant:normal;font-weight:normal;font-size:8.96640015px;font-family:CMR9;-inkscape-font-specification:CMR9;writing-mode:lr-tb;fill:#808080;fill-opacity:1;fill-rule:nonzero;stroke:none"
                     transform="matrix(1,0,0,-1,286.981,3.841)"><tspan
                       id="tspan552"
                       y="0"
                       x="0">1</tspan></text>
<g
                     transform="translate(286.981,3.841)"
                     id="g556" /></g></g><g
                 transform="translate(-278.48,2.889)"
                 id="g558" /></g></g></g></g></g></g></svg>