<svg xmlns="http://www.w3.org/2000/svg" xmlns:xlink="http://www.w3.org/1999/xlink" version="1.1" width="269.219" height="360.258" viewBox="0 0 269.219 360.258">
<defs>
<path id="font_0_5" d="M.47599793 .609375C.4850006 .6213684 .4850006 .62338259 .4850006 .64437869H.24198914C.11999512 .64437869 .117996219 .65737918 .11399841 .67637637H.08898926L.055999757 .4702301H.08099365C.083999637 .48625184 .09298706 .5493469 .10598755 .56137087 .11299133 .5673828 .19099427 .5673828 .20399475 .5673828H.41099549C.3999939 .5513611 .32099916 .4421997 .29899598 .40914918 .20899964 .27394105 .17599488 .1347351 .17599488 .032577516 .17599488 .022567749 .17599488-.022460938 .22200012-.022460938 .2679901-.022460938 .2679901 .022567749 .2679901 .032577516V.08366394C.2679901 .13873291 .2709961 .19381714 .2789917 .24790955 .2829895 .27093507 .29699708 .35707093 .34098817 .41915895L.47599793 .609375Z"/>
<path id="font_0_3" d="M.2899933 .35191346C.37199403 .37893678 .42999269 .4490509 .42999269 .52809146 .42999269 .6100464 .34199525 .6660156 .24598694 .6660156 .14498902 .6660156 .068984989 .60606387 .068984989 .53009036 .068984989 .49710084 .09098816 .47808839 .11999512 .47808839 .15098572 .47808839 .17098999 .50009158 .17098999 .5290985 .17098999 .57910159 .12399292 .57910159 .10899353 .57910159 .13999939 .62802127 .20599365 .64100649 .24198914 .64100649 .2829895 .64100649 .33799745 .6190338 .33799745 .5290985 .33799745 .51708987 .33599855 .45906068 .30999757 .4149933 .27999879 .36691285 .24598694 .36390687 .22099304 .36291505 .21299744 .36190797 .18899536 .35990907 .18199158 .35990907 .17399597 .35890199 .16699219 .35791017 .16699219 .3479004 .16699219 .33691407 .17399597 .33691407 .19099427 .33691407H.23498535C.31698609 .33691407 .35398866 .2686615 .35398866 .17037964 .35398866 .034469606 .2849884 .0055389406 .24099732 .0055389406 .19799805 .0055389406 .12298584 .022491456 .08799744 .08137512 .12298584 .07637024 .1539917 .09837341 .1539917 .1363678 .1539917 .17237854 .1269989 .19238281 .09799194 .19238281 .07398987 .19238281 .041992189 .17837525 .041992189 .1343689 .041992189 .043441774 .1349945-.022460938 .24398804-.022460938 .3659973-.022460938 .45700074 .06838989 .45700074 .17037964 .45700074 .252594 .3939972 .33088685 .2899933 .35191346Z"/>
<path id="font_0_1" d="M.2939911 .64004519C.2939911 .66400149 .2939911 .6660156 .2709961 .6660156 .20899964 .60227969 .12098694 .60227969 .08898926 .60227969V.57128909C.10899353 .57128909 .16799927 .57128909 .21998596 .5972748V.07902527C.21998596 .042999269 .21699524 .0309906 .1269989 .0309906H.09498596V0C.12998963 .0029907227 .21699524 .0029907227 .25698854 .0029907227 .29699708 .0029907227 .38398744 .0029907227 .4189911 0V.0309906H.3869934C.29699708 .0309906 .2939911 .041992189 .2939911 .07902527V.64004519Z"/>
<path id="font_0_4" d="M.44898988 .20022583C.44898988 .3193512 .36698915 .41944886 .25898744 .41944886 .21099854 .41944886 .16799927 .40345765 .13198853 .36842347V.5637665C.1519928 .5577698 .18499756 .55078127 .21699524 .55078127 .33999635 .55078127 .4099884 .6417694 .4099884 .6547699 .4099884 .6607666 .40699769 .6657715 .3999939 .6657715 .39898683 .6657715 .39698792 .6657715 .3919983 .66278079 .37199403 .6537781 .32299806 .6337738 .2559967 .6337738 .21598816 .6337738 .16999817 .6407776 .12298584 .6617737 .114990238 .66477969 .11299133 .66477969 .11099243 .66477969 .100997928 .66477969 .100997928 .6567688 .100997928 .6407776V.34439088C.100997928 .32637025 .100997928 .31835938 .114990238 .31835938 .12199402 .31835938 .12399292 .32136537 .12799073 .32736207 .13899231 .3433838 .17599488 .39746095 .25698854 .39746095 .30899049 .39746095 .33399964 .35139466 .34199525 .33337403 .35798646 .29632569 .3600006 .25727845 .3600006 .20722962 .3600006 .17222595 .3600006 .11222839 .33599855 .07035828 .31199647 .031463624 .2749939 .0055389406 .22898865 .0055389406 .1559906 .0055389406 .09899902 .058380128 .08198547 .11723328 .084991458 .1162262 .08799744 .115234378 .09899902 .115234378 .13198853 .115234378 .14898682 .14022827 .14898682 .16423035 .14898682 .18823242 .13198853 .21322632 .09899902 .21322632 .084991458 .21322632 .049987794 .20622254 .049987794 .16023255 .049987794 .07434082 .11898804-.022460938 .23098755-.022460938 .34700013-.022460938 .44898988 .073349 .44898988 .20022583Z"/>
<path id="font_0_2" d="M.1269989 .07699585 .23298645 .18003845C.3889923 .31811524 .44898988 .3721466 .44898988 .47216798 .44898988 .5860901 .35899354 .6660156 .23699951 .6660156 .12399292 .6660156 .049987794 .57411196 .049987794 .48516847 .049987794 .4291687 .099990848 .4291687 .102996829 .4291687 .11999512 .4291687 .15499878 .44117738 .15499878 .48217774 .15499878 .5081787 .13699341 .5341797 .101989749 .5341797 .09399414 .5341797 .09199524 .5341797 .08898926 .5331726 .11199951 .59806826 .1659851 .63500979 .22399903 .63500979 .31498719 .63500979 .35798646 .5541382 .35798646 .47216798 .35798646 .39215089 .30799867 .31311036 .25299073 .25108338L.06098938 .036987306C.049987794 .025985718 .049987794 .023986817 .049987794 0H.42099L.44898988 .17404175H.42399598C.4189911 .14402771 .4119873 .1000061 .4019928 .084991458 .394989 .07699585 .32899476 .07699585 .30699159 .07699585H.1269989Z"/>
<path id="font_0_7" d="M.36698915 .31781007V.28579713C.36698915 .05178833 .2630005 .0055389406 .20498657 .0055389406 .18798828 .0055389406 .13398743 .007537842 .10699463 .041778566 .15098572 .041778566 .15899658 .07078552 .15899658 .08778381 .15899658 .118774417 .1349945 .13378906 .11299133 .13378906 .09700012 .13378906 .066986087 .12478638 .066986087 .08578491 .066986087 .018615723 .12098694-.022460938 .20599365-.022460938 .33499146-.022460938 .45700074 .11378479 .45700074 .32881166 .45700074 .5979767 .34199525 .6660156 .25299073 .6660156 .19799805 .6660156 .14898682 .64801028 .10598755 .60298159 .06498718 .5579529 .041992189 .5159302 .041992189 .44088746 .041992189 .31581117 .12998963 .21777344 .24198914 .21777344 .30299378 .21777344 .34399415 .25978089 .36698915 .31781007M.24299622 .24076844C.22698975 .24076844 .18099976 .24076844 .1499939 .3038025 .13198853 .3408203 .13198853 .39085389 .13198853 .43988038 .13198853 .49391175 .13198853 .54093936 .15299988 .5779724 .17999268 .6279907 .21798706 .64100649 .25299073 .64100649 .29899598 .64100649 .33198548 .60697939 .34899903 .5619507 .36099244 .52993777 .36499024 .4669037 .36499024 .42086793 .36499024 .3378296 .33099366 .24076844 .24299622 .24076844Z"/>
<path id="font_0_6" d="M.16299439 .4569702C.116989139 .486969 .11299133 .52098086 .11299133 .5379791 .11299133 .598999 .17799378 .64100649 .24899292 .64100649 .32199098 .64100649 .38598634 .58898928 .38598634 .51698306 .38598634 .45996095 .34700013 .4119568 .2869873 .37695313L.16299439 .4569702M.30899049 .36193849C.3809967 .3989563 .42999269 .45095826 .42999269 .51698306 .42999269 .6090088 .34098817 .6660156 .25 .6660156 .1499939 .6660156 .068984989 .59199526 .068984989 .49897767 .068984989 .4809723 .070999149 .43595887 .11299133 .38894654 .12399292 .37695313 .16099549 .35194398 .18598938 .33494569 .12799073 .30592347 .041992189 .24984741 .041992189 .15072632 .041992189 .04458618 .14399719-.022460938 .24899292-.022460938 .3619995-.022460938 .45700074 .06060791 .45700074 .16773987 .45700074 .20379639 .44599916 .24885559 .4079895 .2909088 .3889923 .31193543 .37298585 .3219452 .30899049 .36193849M.20899964 .3199463 .33198548 .24183655C.3600006 .2228241 .40699769 .19277954 .40699769 .13169861 .40699769 .05760193 .33198548 .0055389406 .25 .0055389406 .1639862 .0055389406 .09199524 .067611698 .09199524 .15072632 .09199524 .20880127 .12399292 .27288819 .20899964 .3199463Z"/>
<path id="font_1_12" d="M.44898988 .5503235H.47898866C.49499513 .5503235 .519989 .5503235 .519989 .5813141 .519989 .6113281 .49398805 .6113281 .47898866 .6113281H.34999085C.33499146 .6113281 .30899049 .6113281 .30899049 .5813141 .30899049 .5503235 .33499146 .5503235 .34999085 .5503235H.37998963V.20927429C.37998963 .102264408 .31399537 .050247194 .2619934 .050247194 .20899964 .050247194 .14399719 .102264408 .14399719 .20927429V.5503235H.17399597C.18899536 .5503235 .21499634 .5503235 .21499634 .5813141 .21499634 .6113281 .18899536 .6113281 .17399597 .6113281H.04499817C.02999878 .6113281 .0039978029 .6113281 .0039978029 .5813141 .0039978029 .5503235 .02999878 .5503235 .04499817 .5503235H.07499695V.20426941C.07499695 .08125305 .1619873-.0107421879 .2619934-.0107421879 .3619995-.0107421879 .44898988 .08125305 .44898988 .20426941V.5503235Z"/>
<path id="font_1_7" d="M.18998719 .5753174C.17799378 .60832217 .16299439 .6113281 .13598633 .6113281H.067993167C.052993776 .6113281 .027999878 .6113281 .027999878 .5813141 .027999878 .5503235 .051986696 .5503235 .067993167 .5503235H.09298706V.06098938H.067993167C.052993776 .06098938 .027999878 .06098938 .027999878 .0309906 .027999878 0 .051986696 0 .067993167 0H.17399597C.18899536 0 .21398926 0 .21398926 .02999878 .21398926 .06098938 .18998719 .06098938 .17399597 .06098938H.14898682V.5363159H.1499939L.33399964 .035995485C.34700013 .0009918213 .36299134 0 .3889923 0 .4189911 0 .43099977 .0029907227 .43099977 .040985109V.5503235H.45599366C.47099305 .5503235 .49598695 .5503235 .49598695 .58032229 .49598695 .6113281 .47200013 .6113281 .45599366 .6113281H.34999085C.33399964 .6113281 .30999757 .6113281 .30999757 .58032229 .30999757 .5503235 .33499146 .5503235 .34999085 .5503235H.375V.07499695H.37399293L.18998719 .5753174Z"/>
<path id="font_1_13" d="M.46598817 .5463257C.47599793 .5613251 .47599793 .5673218 .47599793 .5773163 .47599793 .6113281 .45399476 .6113281 .43499757 .6113281H.100997928C.067993167 .6113281 .05999756 .60331729 .05999756 .57032778V.49728395C.05999756 .47827149 .05999756 .45625306 .09399414 .45625306 .1289978 .45625306 .1289978 .47727967 .1289978 .49728395V.5503235H.3869934L.057998659 .06500244C.04798889 .049987794 .04798889 .04399109 .04798889 .033996583 .04798889 0 .069992069 0 .08898926 0H.44099427C.47399903 0 .48098756 .008987427 .48098756 .040985109V.13304138C.48098756 .15205384 .48098756 .17407227 .44699098 .17407227 .4119873 .17407227 .4119873 .15306092 .4119873 .13304138V.06098938H.13699341L.46598817 .5463257Z"/>
<path id="font_1_5" d="M.29699708 .5503235H.40499879C.41999818 .5503235 .44599916 .5503235 .44599916 .58032229 .44599916 .6113281 .41999818 .6113281 .40499879 .6113281H.11999512C.10499573 .6113281 .07899475 .6113281 .07899475 .5813141 .07899475 .5503235 .10499573 .5503235 .11999512 .5503235H.22799683V.06098938H.11999512C.10499573 .06098938 .07899475 .06098938 .07899475 .0309906 .07899475 0 .10499573 0 .11999512 0H.40499879C.41999818 0 .44599916 0 .44599916 .02999878 .44599916 .06098938 .41999818 .06098938 .40499879 .06098938H.29699708V.5503235Z"/>
<path id="font_1_8" d="M.1659851 .24511719H.29100038C.40699769 .24511719 .47999574 .33512879 .47999574 .42822267 .47999574 .52130129 .4059906 .6113281 .29100038 .6113281H.066986087C.051986696 .6113281 .025985718 .6113281 .025985718 .5813141 .025985718 .5503235 .051986696 .5503235 .066986087 .5503235H.09700012V.06098938H.066986087C.050994874 .06098938 .025985718 .06098938 .025985718 .02999878 .025985718 0 .051986696 0 .066986087 0H.19599915C.21099854 0 .23699951 0 .23699951 .02999878 .23699951 .06098938 .21099854 .06098938 .19599915 .06098938H.1659851V.24511719M.1659851 .5503235H.27198792C.36799623 .5503235 .41099549 .4812622 .41099549 .42822267 .41099549 .37516786 .36799623 .30610658 .27198792 .30610658H.1659851V.5503235Z"/>
<path id="font_1_1" d="M.066986087 .057998659C.057998659 .049987794 .051986696 .04499817 .051986696 .0309906 .051986696 0 .07699585 0 .09298706 0H.43199159C.46499635 0 .47200013 .008987427 .47200013 .040985109V.066986087C.47200013 .085998538 .47200013 .10800171 .43798829 .10800171 .40299989 .10800171 .40299989 .08898926 .40299989 .06098938H.16499329C.22399903 .11199951 .31999208 .18701172 .36299134 .22702027 .42599488 .28302003 .47200013 .34703065 .47200013 .42704774 .47200013 .5470581 .37098695 .6220703 .24899292 .6220703 .1309967 .6220703 .051986696 .5400543 .051986696 .4550476 .051986696 .41804505 .07998657 .40704347 .09700012 .40704347 .117996219 .40704347 .14099121 .42404176 .14099121 .45204164 .14099121 .4640503 .13598633 .47705079 .1269989 .48405458 .14199829 .5300598 .18899536 .5610657 .24398804 .5610657 .32598878 .5610657 .40299989 .5150604 .40299989 .42704774 .40299989 .3570404 .35398866 .2990265 .28799439 .24401856L.066986087 .057998659Z"/>
<path id="font_1_2" d="M.36698915 .33436585C.4229889 .37034608 .45098878 .42726136 .45098878 .4811859 .45098878 .55506899 .37799073 .6220703 .2630005 .6220703 .14299011 .6220703 .07299805 .57406619 .07299805 .5051422 .07299805 .4721985 .09799194 .45822145 .117996219 .45822145 .13899231 .45822145 .1619873 .4751892 .1619873 .50315859 .1619873 .5171356 .1559906 .52711489 .15299988 .5301056 .18399048 .5610657 .25498963 .5610657 .2639923 .5610657 .33198548 .5610657 .38198854 .52511599 .38198854 .48017884 .38198854 .45022584 .36698915 .4152832 .33999635 .39331056 .30799867 .36735536 .2829895 .36535646 .24699402 .36335755 .18998719 .359375 .1749878 .359375 .1749878 .33036805 .1749878 .29936219 .19898987 .29936219 .21499634 .29936219H.26098634C.3600006 .29936219 .41099549 .23233032 .41099549 .17430115 .41099549 .11328125 .35499574 .050247194 .2639923 .050247194 .22399903 .050247194 .14698792 .06124878 .12098694 .10827637 .12599182 .11328125 .1329956 .119277957 .1329956 .13929749 .1329956 .16329956 .11399841 .18331909 .08898926 .18331909 .06599426 .18331909 .04399109 .16830445 .04399109 .1362915 .04399109 .04725647 .14099121-.0107421879 .2639923-.0107421879 .394989-.0107421879 .47999574 .08126831 .47999574 .17430115 .47999574 .24534607 .43299867 .30436708 .36698915 .33436585Z"/>
<path id="font_1_10" d="M.29599 .27416993C.32398988 .26817323 .40699769 .2481842 .40699769 .1612091 .40699769 .10922241 .3639984 .050247194 .2849884 .050247194 .25698854 .050247194 .20799256 .054244996 .16799927 .08123779 .12599182 .10823059 .12199402 .15020752 .12098694 .16821289 .11999512 .18519593 .11898804 .20318604 .08699036 .20318604 .051986696 .20318604 .051986696 .1822052 .051986696 .16221619V.03024292C.051986696 .014251709 .051986696-.0107421879 .08198547-.0107421879 .10398865-.0107421879 .10998535 .003250122 .11898804 .035247804 .15899658 .0052490236 .21998596-.0107421879 .28399659-.0107421879 .3999939-.0107421879 .47200013 .07723999 .47200013 .16621399 .47200013 .23017884 .43598939 .27217103 .42399598 .28515626 .3829956 .32514955 .35598756 .33215333 .27799989 .35014344L.19699097 .36813355C.15499878 .38012696 .116989139 .41511537 .116989139 .46209718 .116989139 .5130768 .1659851 .5610657 .23699951 .5610657 .35499574 .5610657 .36999513 .46710206 .37599183 .43611146 .3789978 .41410829 .3899994 .40811158 .4099884 .40811158 .44499208 .40811158 .44499208 .42910768 .44499208 .44909669V.58106997C.44499208 .59706118 .44499208 .6220703 .4149933 .6220703 .3909912 .6220703 .38598634 .60505679 .37799073 .575058 .33699037 .61006167 .2829895 .6220703 .23799134 .6220703 .1269989 .6220703 .051986696 .5430603 .051986696 .45809938 .051986696 .39112855 .09799194 .32514955 .18099976 .30116273 .18499756 .30015565 .28199769 .27716065 .29599 .27416993Z"/>
<path id="font_1_4" d="M.09700012 .06098938H.066986087C.050994874 .06098938 .025985718 .06098938 .025985718 .02999878 .025985718 0 .051986696 0 .066986087 0H.46199037C.49499513 0 .5019989 .008987427 .5019989 .040985109V.1300354C.5019989 .14904785 .5019989 .17105103 .46798707 .17105103 .43299867 .17105103 .43299867 .15003968 .43299867 .1300354V.06098938H.1659851V.2861328H.29699708C.29699708 .24510193 .29699708 .22909546 .33198548 .22909546 .3659973 .22909546 .3659973 .25109864 .3659973 .27011109V.36314393C.3659973 .38215638 .3659973 .4041748 .33198548 .4041748 .29699708 .4041748 .29699708 .38816834 .29699708 .3471222H.1659851V.5503235H.41099549V.49726869C.41099549 .47825624 .41099549 .45622254 .44499208 .45622254 .47999574 .45622254 .47999574 .47724916 .47999574 .49726869V.57032778C.47999574 .60131838 .47399903 .6113281 .43998719 .6113281H.066986087C.051986696 .6113281 .025985718 .6113281 .025985718 .5813141 .025985718 .5503235 .051986696 .5503235 .066986087 .5503235H.09700012V.06098938Z"/>
<path id="font_1_9" d="M.1559906 .5503235H.22799683C.31999208 .5503235 .3639984 .491333 .3639984 .44334413 .3639984 .3943634 .31900025 .33638 .22799683 .33638H.1559906V.5503235M.34799195 .30438233C.4139862 .3413849 .43299867 .402359 .43299867 .44334413 .43299867 .5293274 .35699464 .6113281 .23899842 .6113281H.06199646C.04598999 .6113281 .021987915 .6113281 .021987915 .58032229 .021987915 .5503235 .04699707 .5503235 .06199646 .5503235H.08699036V.06098938H.06199646C.04598999 .06098938 .021987915 .06098938 .021987915 .02999878 .021987915 0 .04699707 0 .06199646 0H.18099976C.19599915 0 .22099304 0 .22099304 .02999878 .22099304 .06098938 .19699097 .06098938 .18099976 .06098938H.1559906V.27539063H.23399353C.25299073 .27539063 .2829895 .27539063 .31498719 .24736023 .33699037 .22634888 .33699037 .2043457 .33699037 .162323 .33699037 .09727478 .33699037 .06726074 .35598756 .035247804 .37298585 .0052490236 .40098573-.0107421879 .43499757-.0107421879 .49798585-.0107421879 .5219879 .055252077 .5219879 .09327698 .5219879 .12528992 .49798585 .12528992 .4869995 .12528992 .47698976 .12528992 .45399476 .12528992 .45298768 .09527588 .45298768 .087265018 .45098878 .050247194 .43399049 .050247194 .4059906 .050247194 .4059906 .09628296 .4059906 .14930725 .4059906 .21234131 .4059906 .22035218 .39698792 .24336243 .3849945 .27238465 .3619995 .29338075 .34799195 .30438233Z"/>
<path id="font_1_11" d="M.29699708 .5503235H.42900086V.49728395C.42900086 .47827149 .42900086 .45625306 .46299745 .45625306 .49798585 .45625306 .49798585 .47727967 .49798585 .49728395V.57032778C.49798585 .60131838 .49198915 .6113281 .45799256 .6113281H.066986087C.033996583 .6113281 .025985718 .60331729 .025985718 .57032778V.49728395C.025985718 .47827149 .025985718 .45625306 .05999756 .45625306 .09498596 .45625306 .09498596 .47727967 .09498596 .49728395V.5503235H.22799683V.06098938H.17599488C.16099549 .06098938 .13598633 .06098938 .13598633 .0309906 .13598633 0 .1599884 0 .17599488 0H.34899903C.3639984 0 .3889923 0 .3889923 .02999878 .3889923 .06098938 .36499024 .06098938 .34899903 .06098938H.29699708V.5503235Z"/>
<path id="font_2_2" d="M.7220001 .33418275C.7220001 .3561859 .71598818 .36618043 .70799258 .36618043 .7029877 .36618043 .69499209 .35917665 .69400027 .34017945 .6899872 .24397278 .6239929 .18881226 .55400088 .18881226 .4909973 .18881226 .44299317 .2319336 .3939972 .2750702 .34298707 .32118226 .29100038 .3671875 .22299195 .3671875 .11399841 .3671875 .054992677 .25701905 .054992677 .165802 .054992677 .13380432 .067993167 .13380432 .068984989 .13380432 .07998657 .13380432 .08299255 .1538086 .08299255 .15679932 .08699036 .26704408 .1619873 .3111725 .22299195 .3111725 .28599549 .3111725 .33399964 .26805116 .3829956 .22491455 .43399049 .17880249 .48599244 .1328125 .55400088 .1328125 .6629944 .1328125 .7220001 .2429657 .7220001 .33418275Z"/>
<path id="font_0_8" d="M.68699648 .32714845C.70199587 .32714845 .72099307 .32714845 .72099307 .34713746 .72099307 .36714173 .70199587 .36714173 .6879883 .36714173H.08898926C.07499695 .36714173 .055999757 .36714173 .055999757 .34713746 .055999757 .32714845 .07499695 .32714845 .08999634 .32714845H.68699648M.6879883 .13284302C.70199587 .13284302 .72099307 .13284302 .72099307 .15284729 .72099307 .17285156 .70199587 .17285156 .68699648 .17285156H.08999634C.07499695 .17285156 .055999757 .17285156 .055999757 .15284729 .055999757 .13284302 .07499695 .13284302 .08898926 .13284302H.6879883Z"/>
<path id="font_2_1" d="M.44400025 .24998474C.44400025 .357193 .35499574 .44429017 .25 .44429017 .14199829 .44429017 .054992677 .3551941 .054992677 .24998474 .054992677 .14378357 .14199829 .05569458 .25 .05569458 .35499574 .05569458 .44400025 .14279175 .44400025 .24998474M.25 .095703128C.16299439 .095703128 .09498596 .16583252 .09498596 .24998474 .09498596 .33415223 .1639862 .40429688 .25 .40429688 .33299256 .40429688 .4039917 .33615113 .4039917 .24998474 .4039917 .16383362 .33299256 .095703128 .25 .095703128Z"/>
<path id="font_1_3" d="M.05999756 .6113281C.04399109 .6113281 .018997193 .6113281 .018997193 .58032229 .018997193 .5503235 .04499817 .5503235 .05999756 .5503235H.08198547V.06098938H.05999756C.04399109 .06098938 .018997193 .06098938 .018997193 .02999878 .018997193 0 .04499817 0 .05999756 0H.2659912C.39698792 0 .4850006 .14004517 .4850006 .30114747 .4850006 .46125794 .39898683 .6113281 .2659912 .6113281H.05999756M.15098572 .06098938V.5503235H.24699402C.3600006 .5503235 .41600038 .41723634 .41600038 .30114747 .41600038 .18408203 .35798646 .06098938 .24699402 .06098938H.15098572Z"/>
<path id="font_1_6" d="M.17799378 .5503235H.23399353C.24798584 .5503235 .2749939 .5503235 .2749939 .58032229 .2749939 .6113281 .24899292 .6113281 .23399353 .6113281H.07199097C.055999757 .6113281 .03199768 .6113281 .03199768 .58032229 .03199768 .5503235 .056991579 .5503235 .07199097 .5503235H.10899353V.06098938H.07199097C.055999757 .06098938 .03199768 .06098938 .03199768 .02999878 .03199768 0 .056991579 0 .07199097 0H.44799806C.48098756 0 .48799134 .008987427 .48799134 .040985109V.1300354C.48799134 .15005493 .48799134 .17106629 .45399476 .17106629 .4189911 .17106629 .4189911 .15104676 .4189911 .1300354V.06098938H.17799378V.5503235Z"/>
</defs>
<path transform="matrix(1,0,0,-1,76.502,66.743)" d="M75.17804 63.22441H32.53947C30.33853 63.22441 28.55437 61.44025 28.55437 59.2393V54.14793C28.55437 51.94699 30.33853 50.16283 32.53947 50.16283H75.17804C77.37897 50.16283 79.16315 51.94699 79.16315 54.14793V59.2393C79.16315 61.44025 77.37897 63.22441 75.17804 63.22441ZM45.35753 63.22441V50.16283M62.35995 63.22441V50.16283" fill="#ff8000"/>
<path transform="matrix(1,0,0,-1,76.502,66.743)" stroke-width=".3985" stroke-linecap="butt" stroke-miterlimit="10" stroke-linejoin="miter" fill="none" stroke="#000000" d="M75.17804 63.22441H32.53947C30.33853 63.22441 28.55437 61.44025 28.55437 59.2393V54.14793C28.55437 51.94699 30.33853 50.16283 32.53947 50.16283H75.17804C77.37897 50.16283 79.16315 51.94699 79.16315 54.14793V59.2393C79.16315 61.44025 77.37897 63.22441 75.17804 63.22441ZM45.35753 63.22441V50.16283M62.35995 63.22441V50.16283"/>
<use data-text="7" xlink:href="#font_0_5" transform="matrix(9.9626,0,0,-9.9626,110.867,13.26001)"/>
<use data-text="3" xlink:href="#font_0_3" transform="matrix(9.9626,0,0,-9.9626,125.379,13.26001)"/>
<use data-text="1" xlink:href="#font_0_1" transform="matrix(9.9626,0,0,-9.9626,130.36029,13.26001)"/>
<use data-text="5" xlink:href="#font_0_4" transform="matrix(9.9626,0,0,-9.9626,142.381,13.26001)"/>
<use data-text="3" xlink:href="#font_0_3" transform="matrix(9.9626,0,0,-9.9626,147.36229,13.26001)"/>
<path transform="matrix(1,0,0,-1,76.502,66.743)" stroke-width=".3985" stroke-linecap="butt" stroke-miterlimit="10" stroke-linejoin="miter" fill="none" stroke="#000000" d="M18.49025 34.87761H9.85655C7.65561 34.87761 5.87144 33.09344 5.87144 30.8925V25.80112C5.87144 23.60019 7.65561 21.81601 9.85655 21.81601H18.49025C20.6912 21.81601 22.47536 23.60019 22.47536 25.80112V30.8925C22.47536 33.09344 20.6912 34.87761 18.49025 34.87761ZM5.87144 21.81601"/>
<use data-text="3" xlink:href="#font_0_3" transform="matrix(9.9626,0,0,-9.9626,88.185,41.606996)"/>
<path transform="matrix(1,0,0,-1,76.502,66.743)" d="M106.35971 34.87761H63.72115C61.5202 34.87761 59.73604 33.09344 59.73604 30.8925V25.80112C59.73604 23.60019 61.5202 21.81601 63.72115 21.81601H106.35971C108.56065 21.81601 110.34482 23.60019 110.34482 25.80112V30.8925C110.34482 33.09344 108.56065 34.87761 106.35971 34.87761ZM76.5392 34.87761V21.81601M93.54163 34.87761V21.81601" fill="#ec008c"/>
<path transform="matrix(1,0,0,-1,76.502,66.743)" stroke-width=".3985" stroke-linecap="butt" stroke-miterlimit="10" stroke-linejoin="miter" fill="none" stroke="#000000" d="M106.35971 34.87761H63.72115C61.5202 34.87761 59.73604 33.09344 59.73604 30.8925V25.80112C59.73604 23.60019 61.5202 21.81601 63.72115 21.81601H106.35971C108.56065 21.81601 110.34482 23.60019 110.34482 25.80112V30.8925C110.34482 33.09344 108.56065 34.87761 106.35971 34.87761ZM76.5392 34.87761V21.81601M93.54163 34.87761V21.81601"/>
<use data-text="1" xlink:href="#font_0_1" transform="matrix(9.9626,0,0,-9.9626,139.558,41.606996)"/>
<use data-text="3" xlink:href="#font_0_3" transform="matrix(9.9626,0,0,-9.9626,144.53929,41.606996)"/>
<use data-text="2" xlink:href="#font_0_2" transform="matrix(9.9626,0,0,-9.9626,156.56,41.606996)"/>
<use data-text="3" xlink:href="#font_0_3" transform="matrix(9.9626,0,0,-9.9626,161.54129,41.606996)"/>
<use data-text="2" xlink:href="#font_0_2" transform="matrix(9.9626,0,0,-9.9626,173.562,41.606996)"/>
<use data-text="9" xlink:href="#font_0_7" transform="matrix(9.9626,0,0,-9.9626,178.54329,41.606996)"/>
<path transform="matrix(1,0,0,-1,76.502,66.743)" stroke-width=".3985" stroke-linecap="butt" stroke-miterlimit="10" stroke-linejoin="miter" fill="none" stroke="#000000" d="M32.66367 6.53079H24.02995C21.82901 6.53079 20.04485 4.74663 20.04485 2.54568V-2.54567C20.04485-4.74661 21.82901-6.53078 24.02995-6.53078H32.66367C34.86461-6.53078 36.64877-4.74661 36.64877-2.54567V2.54568C36.64877 4.74663 34.86461 6.53079 32.66367 6.53079ZM20.04485-6.53078"/>
<use data-text="5" xlink:href="#font_0_4" transform="matrix(9.9626,0,0,-9.9626,102.358,69.953)"/>
<path transform="matrix(1,0,0,-1,76.502,66.743)" stroke-width=".3985" stroke-linecap="butt" stroke-miterlimit="10" stroke-linejoin="miter" fill="none" stroke="#000000" d="M58.17561 6.53079H49.5419C47.34096 6.53079 45.5568 4.74663 45.5568 2.54568V-2.54567C45.5568-4.74661 47.34096-6.53078 49.5419-6.53078H58.17561C60.37656-6.53078 62.16072-4.74661 62.16072-2.54567V2.54568C62.16072 4.74663 60.37656 6.53079 58.17561 6.53079ZM45.5568-6.53078"/>
<use data-text="1" xlink:href="#font_0_1" transform="matrix(9.9626,0,0,-9.9626,125.379,69.953)"/>
<use data-text="1" xlink:href="#font_0_1" transform="matrix(9.9626,0,0,-9.9626,130.36029,69.953)"/>
<path transform="matrix(1,0,0,-1,76.502,66.743)" d="M97.85849 6.53079H72.22235C70.02141 6.53079 68.23724 4.74663 68.23724 2.54568V-2.54567C68.23724-4.74661 70.02141-6.53078 72.22235-6.53078H97.85849C100.05943-6.53078 101.8436-4.74661 101.8436-2.54567V2.54568C101.8436 4.74663 100.05943 6.53079 97.85849 6.53079ZM85.0404 6.53079V-6.53078" fill="#ffbfbf"/>
<path transform="matrix(1,0,0,-1,76.502,66.743)" stroke-width=".3985" stroke-linecap="butt" stroke-miterlimit="10" stroke-linejoin="miter" fill="none" stroke="#000000" d="M97.85849 6.53079H72.22235C70.02141 6.53079 68.23724 4.74663 68.23724 2.54568V-2.54567C68.23724-4.74661 70.02141-6.53078 72.22235-6.53078H97.85849C100.05943-6.53078 101.8436-4.74661 101.8436-2.54567V2.54568C101.8436 4.74663 100.05943 6.53079 97.85849 6.53079ZM85.0404 6.53079V-6.53078"/>
<use data-text="1" xlink:href="#font_0_1" transform="matrix(9.9626,0,0,-9.9626,148.05899,69.953)"/>
<use data-text="7" xlink:href="#font_0_5" transform="matrix(9.9626,0,0,-9.9626,153.04029,69.953)"/>
<use data-text="1" xlink:href="#font_0_1" transform="matrix(9.9626,0,0,-9.9626,165.061,69.953)"/>
<use data-text="9" xlink:href="#font_0_7" transform="matrix(9.9626,0,0,-9.9626,170.0423,69.953)"/>
<path transform="matrix(1,0,0,-1,76.502,66.743)" stroke-width=".59776" stroke-linecap="butt" stroke-miterlimit="10" stroke-linejoin="miter" fill="none" stroke="#000000" d="M28.35512 49.96358 14.58566 35.50964"/>
<path transform="matrix(-.68971,.72401,.72401,.68971,90.88153,31.449738)" stroke-width=".59776" stroke-linecap="round" stroke-linejoin="round" fill="none" stroke="#000000" d="M-2.31136 2.751C-1.88908 1.10037-.94807 .32094 0 0-.94807-.32094-1.88908-1.10037-2.31136-2.751"/>
<path transform="matrix(1,0,0,-1,76.502,66.743)" stroke-width=".59776" stroke-linecap="butt" stroke-miterlimit="10" stroke-linejoin="miter" fill="none" stroke="#000000" d="M45.35753 49.96358 84.48077 35.28679"/>
<path transform="matrix(.93623,.35121,.35121,-.93623,161.26259,31.561177)" stroke-width=".59776" stroke-linecap="round" stroke-linejoin="round" fill="none" stroke="#000000" d="M-2.31136 2.751C-1.88908 1.10037-.94807 .32094 0 0-.94807-.32094-1.88908-1.10037-2.31136-2.751"/>
<path transform="matrix(1,0,0,-1,76.502,66.743)" stroke-width=".59776" stroke-linecap="butt" stroke-miterlimit="10" stroke-linejoin="miter" fill="none" stroke="#000000" d="M22.6746 21.61676 28.13399 7.2886"/>
<path transform="matrix(.35603,.93443,.93443,-.35603,104.742389,59.733659)" stroke-width=".59776" stroke-linecap="round" stroke-linejoin="round" fill="none" stroke="#000000" d="M-2.31136 2.751C-1.88908 1.10037-.94807 .32094 0 0-.94807-.32094-1.88908-1.10037-2.31136-2.751"/>
<path transform="matrix(1,0,0,-1,76.502,66.743)" stroke-width=".59776" stroke-linecap="butt" stroke-miterlimit="10" stroke-linejoin="miter" fill="none" stroke="#000000" d="M59.53679 21.61676 54.07176 7.28853"/>
<path transform="matrix(-.35635,.93431,.93431,.35635,130.46726,59.73369)" stroke-width=".59776" stroke-linecap="round" stroke-linejoin="round" fill="none" stroke="#000000" d="M-2.31136 2.751C-1.88908 1.10037-.94807 .32094 0 0-.94807-.32094-1.88908-1.10037-2.31136-2.751"/>
<path transform="matrix(1,0,0,-1,76.502,66.743)" stroke-width=".59776" stroke-linecap="butt" stroke-miterlimit="10" stroke-linejoin="miter" fill="none" stroke="#000000" d="M76.5392 21.61676 84.744 7.24911"/>
<path transform="matrix(.49586,.86835,.86835,-.49586,161.3942,59.753396)" stroke-width=".59776" stroke-linecap="round" stroke-linejoin="round" fill="none" stroke="#000000" d="M-2.31136 2.751C-1.88908 1.10037-.94807 .32094 0 0-.94807-.32094-1.88908-1.10037-2.31136-2.751"/>
<path transform="matrix(1,0,0,-1,49.572004,215.562)" d="M96.44397 77.39781H87.81027C85.60933 77.39781 83.82516 75.61365 83.82516 73.4127V68.32133C83.82516 66.12039 85.60933 64.33623 87.81027 64.33623H96.44397C98.64491 64.33623 100.42908 66.12039 100.42908 68.32133V73.4127C100.42908 75.61365 98.64491 77.39781 96.44397 77.39781ZM83.82516 64.33623" fill="#ff8000"/>
<path transform="matrix(1,0,0,-1,49.572004,215.562)" stroke-width=".3985" stroke-linecap="butt" stroke-miterlimit="10" stroke-linejoin="miter" fill="none" stroke="#000000" d="M96.44397 77.39781H87.81027C85.60933 77.39781 83.82516 75.61365 83.82516 73.4127V68.32133C83.82516 66.12039 85.60933 64.33623 87.81027 64.33623H96.44397C98.64491 64.33623 100.42908 66.12039 100.42908 68.32133V73.4127C100.42908 75.61365 98.64491 77.39781 96.44397 77.39781ZM83.82516 64.33623"/>
<use data-text="1" xlink:href="#font_0_1" transform="matrix(9.9626,0,0,-9.9626,136.716,147.90599)"/>
<use data-text="8" xlink:href="#font_0_6" transform="matrix(9.9626,0,0,-9.9626,141.6973,147.90599)"/>
<path transform="matrix(1,0,0,-1,49.572004,215.562)" d="M38.33293 63.22441H29.69923C27.49829 63.22441 25.71413 61.44025 25.71413 59.2393V54.14793C25.71413 51.94699 27.49829 50.16283 29.69923 50.16283H38.33293C40.53387 50.16283 42.31804 51.94699 42.31804 54.14793V59.2393C42.31804 61.44025 40.53387 63.22441 38.33293 63.22441ZM25.71413 50.16283" fill="#ff8000"/>
<path transform="matrix(1,0,0,-1,49.572004,215.562)" stroke-width=".3985" stroke-linecap="butt" stroke-miterlimit="10" stroke-linejoin="miter" fill="none" stroke="#000000" d="M38.33293 63.22441H29.69923C27.49829 63.22441 25.71413 61.44025 25.71413 59.2393V54.14793C25.71413 51.94699 27.49829 50.16283 29.69923 50.16283H38.33293C40.53387 50.16283 42.31804 51.94699 42.31804 54.14793V59.2393C42.31804 61.44025 40.53387 63.22441 38.33293 63.22441ZM25.71413 50.16283"/>
<use data-text="7" xlink:href="#font_0_5" transform="matrix(9.9626,0,0,-9.9626,81.097,162.079)"/>
<path transform="matrix(1,0,0,-1,49.572004,215.562)" stroke-width=".3985" stroke-linecap="butt" stroke-miterlimit="10" stroke-linejoin="miter" fill="none" stroke="#000000" d="M18.49025 34.87761H9.85655C7.65561 34.87761 5.87144 33.09344 5.87144 30.8925V25.80112C5.87144 23.60019 7.65561 21.81601 9.85655 21.81601H18.49025C20.6912 21.81601 22.47536 23.60019 22.47536 25.80112V30.8925C22.47536 33.09344 20.6912 34.87761 18.49025 34.87761ZM5.87144 21.81601"/>
<use data-text="3" xlink:href="#font_0_3" transform="matrix(9.9626,0,0,-9.9626,61.254007,190.426)"/>
<path transform="matrix(1,0,0,-1,49.572004,215.562)" stroke-width=".3985" stroke-linecap="butt" stroke-miterlimit="10" stroke-linejoin="miter" fill="none" stroke="#000000" d="M32.66367 6.53079H24.02995C21.82901 6.53079 20.04485 4.74663 20.04485 2.54568V-2.54567C20.04485-4.74661 21.82901-6.53078 24.02995-6.53078H32.66367C34.86461-6.53078 36.64877-4.74661 36.64877-2.54567V2.54568C36.64877 4.74663 34.86461 6.53079 32.66367 6.53079ZM20.04485-6.53078"/>
<use data-text="5" xlink:href="#font_0_4" transform="matrix(9.9626,0,0,-9.9626,75.42801,218.772)"/>
<path transform="matrix(1,0,0,-1,49.572004,215.562)" stroke-width=".59776" stroke-linecap="butt" stroke-miterlimit="10" stroke-linejoin="miter" fill="none" stroke="#000000" d="M25.51488 49.96358 14.53564 35.55232"/>
<path transform="matrix(-.606,.79541,.79541,.606,63.92652,180.24739)" stroke-width=".59776" stroke-linecap="round" stroke-linejoin="round" fill="none" stroke="#000000" d="M-2.31136 2.751C-1.88908 1.10037-.94807 .32094 0 0-.94807-.32094-1.88908-1.10037-2.31136-2.751"/>
<path transform="matrix(1,0,0,-1,49.572004,215.562)" stroke-width=".59776" stroke-linecap="butt" stroke-miterlimit="10" stroke-linejoin="miter" fill="none" stroke="#000000" d="M22.6746 21.61676 28.13399 7.2886"/>
<path transform="matrix(.35603,.93443,.93443,-.35603,77.81239,208.55266)" stroke-width=".59776" stroke-linecap="round" stroke-linejoin="round" fill="none" stroke="#000000" d="M-2.31136 2.751C-1.88908 1.10037-.94807 .32094 0 0-.94807-.32094-1.88908-1.10037-2.31136-2.751"/>
<path transform="matrix(1,0,0,-1,49.572004,215.562)" d="M160.22138 63.22441H134.58525C132.38431 63.22441 130.60015 61.44025 130.60015 59.2393V54.14793C130.60015 51.94699 132.38431 50.16283 134.58525 50.16283H160.22138C162.42232 50.16283 164.20648 51.94699 164.20648 54.14793V59.2393C164.20648 61.44025 162.42232 63.22441 160.22138 63.22441ZM147.4033 63.22441V50.16283" fill="#ff8000"/>
<path transform="matrix(1,0,0,-1,49.572004,215.562)" stroke-width=".3985" stroke-linecap="butt" stroke-miterlimit="10" stroke-linejoin="miter" fill="none" stroke="#000000" d="M160.22138 63.22441H134.58525C132.38431 63.22441 130.60015 61.44025 130.60015 59.2393V54.14793C130.60015 51.94699 132.38431 50.16283 134.58525 50.16283H160.22138C162.42232 50.16283 164.20648 51.94699 164.20648 54.14793V59.2393C164.20648 61.44025 162.42232 63.22441 160.22138 63.22441ZM147.4033 63.22441V50.16283"/>
<use data-text="3" xlink:href="#font_0_3" transform="matrix(9.9626,0,0,-9.9626,183.49102,162.079)"/>
<use data-text="1" xlink:href="#font_0_1" transform="matrix(9.9626,0,0,-9.9626,188.4723,162.079)"/>
<use data-text="5" xlink:href="#font_0_4" transform="matrix(9.9626,0,0,-9.9626,200.49301,162.079)"/>
<use data-text="3" xlink:href="#font_0_3" transform="matrix(9.9626,0,0,-9.9626,205.4743,162.079)"/>
<path transform="matrix(1,0,0,-1,49.572004,215.562)" d="M69.5146 34.87761H60.88089C58.67995 34.87761 56.89578 33.09344 56.89578 30.8925V25.80112C56.89578 23.60019 58.67995 21.81601 60.88089 21.81601H69.5146C71.71555 21.81601 73.49971 23.60019 73.49971 25.80112V30.8925C73.49971 33.09344 71.71555 34.87761 69.5146 34.87761ZM56.89578 21.81601" fill="#ec008c"/>
<path transform="matrix(1,0,0,-1,49.572004,215.562)" stroke-width=".3985" stroke-linecap="butt" stroke-miterlimit="10" stroke-linejoin="miter" fill="none" stroke="#000000" d="M69.5146 34.87761H60.88089C58.67995 34.87761 56.89578 33.09344 56.89578 30.8925V25.80112C56.89578 23.60019 58.67995 21.81601 60.88089 21.81601H69.5146C71.71555 21.81601 73.49971 23.60019 73.49971 25.80112V30.8925C73.49971 33.09344 71.71555 34.87761 69.5146 34.87761ZM56.89578 21.81601"/>
<use data-text="1" xlink:href="#font_0_1" transform="matrix(9.9626,0,0,-9.9626,109.787,190.426)"/>
<use data-text="3" xlink:href="#font_0_3" transform="matrix(9.9626,0,0,-9.9626,114.7683,190.426)"/>
<path transform="matrix(1,0,0,-1,49.572004,215.562)" d="M137.54384 34.87761H111.90771C109.70677 34.87761 107.9226 33.09344 107.9226 30.8925V25.80112C107.9226 23.60019 109.70677 21.81601 111.90771 21.81601H137.54384C139.74478 21.81601 141.52895 23.60019 141.52895 25.80112V30.8925C141.52895 33.09344 139.74478 34.87761 137.54384 34.87761ZM124.72577 34.87761V21.81601" fill="#ec008c"/>
<path transform="matrix(1,0,0,-1,49.572004,215.562)" stroke-width=".3985" stroke-linecap="butt" stroke-miterlimit="10" stroke-linejoin="miter" fill="none" stroke="#000000" d="M137.54384 34.87761H111.90771C109.70677 34.87761 107.9226 33.09344 107.9226 30.8925V25.80112C107.9226 23.60019 109.70677 21.81601 111.90771 21.81601H137.54384C139.74478 21.81601 141.52895 23.60019 141.52895 25.80112V30.8925C141.52895 33.09344 139.74478 34.87761 137.54384 34.87761ZM124.72577 34.87761V21.81601"/>
<use data-text="2" xlink:href="#font_0_2" transform="matrix(9.9626,0,0,-9.9626,160.814,190.426)"/>
<use data-text="3" xlink:href="#font_0_3" transform="matrix(9.9626,0,0,-9.9626,165.79529,190.426)"/>
<use data-text="2" xlink:href="#font_0_2" transform="matrix(9.9626,0,0,-9.9626,177.81601,190.426)"/>
<use data-text="9" xlink:href="#font_0_7" transform="matrix(9.9626,0,0,-9.9626,182.7973,190.426)"/>
<path transform="matrix(1,0,0,-1,49.572004,215.562)" stroke-width=".3985" stroke-linecap="butt" stroke-miterlimit="10" stroke-linejoin="miter" fill="none" stroke="#000000" d="M55.34119 6.53079H46.70747C44.50653 6.53079 42.72237 4.74663 42.72237 2.54568V-2.54567C42.72237-4.74661 44.50653-6.53078 46.70747-6.53078H55.34119C57.54213-6.53078 59.3263-4.74661 59.3263-2.54567V2.54568C59.3263 4.74663 57.54213 6.53079 55.34119 6.53079ZM42.72237-6.53078"/>
<use data-text="1" xlink:href="#font_0_1" transform="matrix(9.9626,0,0,-9.9626,95.614,218.772)"/>
<use data-text="1" xlink:href="#font_0_1" transform="matrix(9.9626,0,0,-9.9626,100.5953,218.772)"/>
<path transform="matrix(1,0,0,-1,49.572004,215.562)" d="M83.68799 6.53079H75.05429C72.85335 6.53079 71.06918 4.74663 71.06918 2.54568V-2.54567C71.06918-4.74661 72.85335-6.53078 75.05429-6.53078H83.68799C85.88893-6.53078 87.6731-4.74661 87.6731-2.54567V2.54568C87.6731 4.74663 85.88893 6.53079 83.68799 6.53079ZM71.06918-6.53078" fill="#ffbfbf"/>
<path transform="matrix(1,0,0,-1,49.572004,215.562)" stroke-width=".3985" stroke-linecap="butt" stroke-miterlimit="10" stroke-linejoin="miter" fill="none" stroke="#000000" d="M83.68799 6.53079H75.05429C72.85335 6.53079 71.06918 4.74663 71.06918 2.54568V-2.54567C71.06918-4.74661 72.85335-6.53078 75.05429-6.53078H83.68799C85.88893-6.53078 87.6731-4.74661 87.6731-2.54567V2.54568C87.6731 4.74663 85.88893 6.53079 83.68799 6.53079ZM71.06918-6.53078"/>
<use data-text="1" xlink:href="#font_0_1" transform="matrix(9.9626,0,0,-9.9626,123.961,218.772)"/>
<use data-text="7" xlink:href="#font_0_5" transform="matrix(9.9626,0,0,-9.9626,128.94229,218.772)"/>
<path transform="matrix(1,0,0,-1,49.572004,215.562)" d="M109.19995 6.53079H100.56625C98.36531 6.53079 96.58115 4.74663 96.58115 2.54568V-2.54567C96.58115-4.74661 98.36531-6.53078 100.56625-6.53078H109.19995C111.4009-6.53078 113.18506-4.74661 113.18506-2.54567V2.54568C113.18506 4.74663 111.4009 6.53079 109.19995 6.53079ZM96.58115-6.53078" fill="#ffbfbf"/>
<path transform="matrix(1,0,0,-1,49.572004,215.562)" stroke-width=".3985" stroke-linecap="butt" stroke-miterlimit="10" stroke-linejoin="miter" fill="none" stroke="#000000" d="M109.19995 6.53079H100.56625C98.36531 6.53079 96.58115 4.74663 96.58115 2.54568V-2.54567C96.58115-4.74661 98.36531-6.53078 100.56625-6.53078H109.19995C111.4009-6.53078 113.18506-4.74661 113.18506-2.54567V2.54568C113.18506 4.74663 111.4009 6.53079 109.19995 6.53079ZM96.58115-6.53078"/>
<use data-text="1" xlink:href="#font_0_1" transform="matrix(9.9626,0,0,-9.9626,149.472,218.772)"/>
<use data-text="9" xlink:href="#font_0_7" transform="matrix(9.9626,0,0,-9.9626,154.4533,218.772)"/>
<path transform="matrix(1,0,0,-1,49.572004,215.562)" stroke-width=".59776" stroke-linecap="butt" stroke-miterlimit="10" stroke-linejoin="miter" fill="none" stroke="#000000" d="M42.5173 49.96358 64.69803 35.40485"/>
<path transform="matrix(.83597,.5487,.5487,-.83597,114.51988,180.32114)" stroke-width=".59776" stroke-linecap="round" stroke-linejoin="round" fill="none" stroke="#000000" d="M-2.31136 2.751C-1.88908 1.10037-.94807 .32094 0 0-.94807-.32094-1.88908-1.10037-2.31136-2.751"/>
<path transform="matrix(1,0,0,-1,49.572004,215.562)" stroke-width=".59776" stroke-linecap="butt" stroke-miterlimit="10" stroke-linejoin="miter" fill="none" stroke="#000000" d="M130.4009 49.96358 124.93867 35.63539"/>
<path transform="matrix(-.35619,.93437,.93437,.35619,174.40424,180.20587)" stroke-width=".59776" stroke-linecap="round" stroke-linejoin="round" fill="none" stroke="#000000" d="M-2.31136 2.751C-1.88908 1.10037-.94807 .32094 0 0-.94807-.32094-1.88908-1.10037-2.31136-2.751"/>
<path transform="matrix(1,0,0,-1,49.572004,215.562)" stroke-width=".59776" stroke-linecap="butt" stroke-miterlimit="10" stroke-linejoin="miter" fill="none" stroke="#000000" d="M56.69653 21.61676 51.23714 7.2886"/>
<path transform="matrix(-.35603,.93443,.93443,.35603,100.70274,208.55266)" stroke-width=".59776" stroke-linecap="round" stroke-linejoin="round" fill="none" stroke="#000000" d="M-2.31136 2.751C-1.88908 1.10037-.94807 .32094 0 0-.94807-.32094-1.88908-1.10037-2.31136-2.751"/>
<path transform="matrix(1,0,0,-1,49.572004,215.562)" stroke-width=".59776" stroke-linecap="butt" stroke-miterlimit="10" stroke-linejoin="miter" fill="none" stroke="#000000" d="M73.69896 21.61676 79.15833 7.2886"/>
<path transform="matrix(.35603,.93443,.93443,-.35603,128.83672,208.55266)" stroke-width=".59776" stroke-linecap="round" stroke-linejoin="round" fill="none" stroke="#000000" d="M-2.31136 2.751C-1.88908 1.10037-.94807 .32094 0 0-.94807-.32094-1.88908-1.10037-2.31136-2.751"/>
<path transform="matrix(1,0,0,-1,49.572004,215.562)" stroke-width=".59776" stroke-linecap="butt" stroke-miterlimit="10" stroke-linejoin="miter" fill="none" stroke="#000000" d="M107.72336 21.61676 104.9951 7.3172"/>
<path transform="matrix(-.18738,.98225,.98225,.18738,154.51111,208.53836)" stroke-width=".59776" stroke-linecap="round" stroke-linejoin="round" fill="none" stroke="#000000" d="M-2.31136 2.751C-1.88908 1.10037-.94807 .32094 0 0-.94807-.32094-1.88908-1.10037-2.31136-2.751"/>
<path transform="matrix(1,0,0,-1,49.572004,215.562)" stroke-width=".59776" stroke-linecap="butt" stroke-dasharray=".59776,1.99255" stroke-miterlimit="10" stroke-linejoin="miter" fill="none" stroke="#000000" d="M43.11507 56.69362H129.80312"/>
<path transform="matrix(-1,-0,0,1,92.38818,158.86838)" stroke-width=".59776" stroke-linecap="round" stroke-linejoin="round" fill="none" stroke="#000000" d="M-2.31136 2.751C-1.88908 1.10037-.94807 .32094 0 0-.94807-.32094-1.88908-1.10037-2.31136-2.751"/>
<path transform="matrix(1,0,0,-1,179.67401,158.86838)" stroke-width=".59776" stroke-linecap="round" stroke-linejoin="round" fill="none" stroke="#000000" d="M-2.31136 2.751C-1.88908 1.10037-.94807 .32094 0 0-.94807-.32094-1.88908-1.10037-2.31136-2.751"/>
<path transform="matrix(1,0,0,-1,49.572004,215.562)" stroke-width=".59776" stroke-linecap="butt" stroke-dasharray=".59776,1.99255" stroke-miterlimit="10" stroke-linejoin="miter" fill="none" stroke="#000000" d="M74.29672 28.3468H107.12558"/>
<path transform="matrix(-1,-0,0,1,123.569858,187.2152)" stroke-width=".59776" stroke-linecap="round" stroke-linejoin="round" fill="none" stroke="#000000" d="M-2.31136 2.751C-1.88908 1.10037-.94807 .32094 0 0-.94807-.32094-1.88908-1.10037-2.31136-2.751"/>
<path transform="matrix(1,0,0,-1,156.99648,187.2152)" stroke-width=".59776" stroke-linecap="round" stroke-linejoin="round" fill="none" stroke="#000000" d="M-2.31136 2.751C-1.88908 1.10037-.94807 .32094 0 0-.94807-.32094-1.88908-1.10037-2.31136-2.751"/>
<path transform="matrix(1,0,0,-1,49.572004,215.562)" stroke-width=".59776" stroke-linecap="butt" stroke-dasharray=".59776,1.99255" stroke-miterlimit="10" stroke-linejoin="miter" fill="none" stroke="#000000" d="M88.47012 0H95.78412"/>
<path transform="matrix(-1,-0,0,1,137.74323,215.562)" stroke-width=".59776" stroke-linecap="round" stroke-linejoin="round" fill="none" stroke="#000000" d="M-2.31136 2.751C-1.88908 1.10037-.94807 .32094 0 0-.94807-.32094-1.88908-1.10037-2.31136-2.751"/>
<path transform="matrix(1,0,0,-1,145.65502,215.562)" stroke-width=".59776" stroke-linecap="round" stroke-linejoin="round" fill="none" stroke="#000000" d="M-2.31136 2.751C-1.88908 1.10037-.94807 .32094 0 0-.94807-.32094-1.88908-1.10037-2.31136-2.751"/>
<path transform="matrix(1,0,0,-1,60.91,350.208)" d="M112.02605 63.22441H52.38507C50.18413 63.22441 48.39996 61.44025 48.39996 59.2393V54.14793C48.39996 51.94699 50.18413 50.16283 52.38507 50.16283H112.02605C114.22699 50.16283 116.01115 51.94699 116.01115 54.14793V59.2393C116.01115 61.44025 114.22699 63.22441 112.02605 63.22441ZM65.20311 63.22441V50.16283M82.20554 63.22441V50.16283M99.20796 63.22441V50.16283" fill="#ff8000"/>
<path transform="matrix(1,0,0,-1,60.91,350.208)" stroke-width=".3985" stroke-linecap="butt" stroke-miterlimit="10" stroke-linejoin="miter" fill="none" stroke="#000000" d="M112.02605 63.22441H52.38507C50.18413 63.22441 48.39996 61.44025 48.39996 59.2393V54.14793C48.39996 51.94699 50.18413 50.16283 52.38507 50.16283H112.02605C114.22699 50.16283 116.01115 51.94699 116.01115 54.14793V59.2393C116.01115 61.44025 114.22699 63.22441 112.02605 63.22441ZM65.20311 63.22441V50.16283M82.20554 63.22441V50.16283M99.20796 63.22441V50.16283"/>
<use data-text="7" xlink:href="#font_0_5" transform="matrix(9.9626,0,0,-9.9626,115.12101,296.725)"/>
<use data-text="1" xlink:href="#font_0_1" transform="matrix(9.9626,0,0,-9.9626,129.632,296.725)"/>
<use data-text="8" xlink:href="#font_0_6" transform="matrix(9.9626,0,0,-9.9626,134.6133,296.725)"/>
<use data-text="3" xlink:href="#font_0_3" transform="matrix(9.9626,0,0,-9.9626,146.635,296.725)"/>
<use data-text="1" xlink:href="#font_0_1" transform="matrix(9.9626,0,0,-9.9626,151.61629,296.725)"/>
<use data-text="5" xlink:href="#font_0_4" transform="matrix(9.9626,0,0,-9.9626,163.637,296.725)"/>
<use data-text="3" xlink:href="#font_0_3" transform="matrix(9.9626,0,0,-9.9626,168.61829,296.725)"/>
<path transform="matrix(1,0,0,-1,60.91,350.208)" stroke-width=".3985" stroke-linecap="butt" stroke-miterlimit="10" stroke-linejoin="miter" fill="none" stroke="#000000" d="M18.49025 34.87761H9.85655C7.65561 34.87761 5.87144 33.09344 5.87144 30.8925V25.80112C5.87144 23.60019 7.65561 21.81601 9.85655 21.81601H18.49025C20.6912 21.81601 22.47536 23.60019 22.47536 25.80112V30.8925C22.47536 33.09344 20.6912 34.87761 18.49025 34.87761ZM5.87144 21.81601"/>
<use data-text="3" xlink:href="#font_0_3" transform="matrix(9.9626,0,0,-9.9626,72.593,325.071)"/>
<path transform="matrix(1,0,0,-1,60.91,350.208)" d="M72.34901 34.87761H63.71532C61.51437 34.87761 59.73021 33.09344 59.73021 30.8925V25.80112C59.73021 23.60019 61.51437 21.81601 63.71532 21.81601H72.34901C74.54996 21.81601 76.33412 23.60019 76.33412 25.80112V30.8925C76.33412 33.09344 74.54996 34.87761 72.34901 34.87761ZM59.73021 21.81601" fill="#ec008c"/>
<path transform="matrix(1,0,0,-1,60.91,350.208)" stroke-width=".3985" stroke-linecap="butt" stroke-miterlimit="10" stroke-linejoin="miter" fill="none" stroke="#000000" d="M72.34901 34.87761H63.71532C61.51437 34.87761 59.73021 33.09344 59.73021 30.8925V25.80112C59.73021 23.60019 61.51437 21.81601 63.71532 21.81601H72.34901C74.54996 21.81601 76.33412 23.60019 76.33412 25.80112V30.8925C76.33412 33.09344 74.54996 34.87761 72.34901 34.87761ZM59.73021 21.81601"/>
<use data-text="1" xlink:href="#font_0_1" transform="matrix(9.9626,0,0,-9.9626,123.96,325.071)"/>
<use data-text="3" xlink:href="#font_0_3" transform="matrix(9.9626,0,0,-9.9626,128.9413,325.071)"/>
<path transform="matrix(1,0,0,-1,60.91,350.208)" d="M137.54384 34.87761H111.90771C109.70677 34.87761 107.9226 33.09344 107.9226 30.8925V25.80112C107.9226 23.60019 109.70677 21.81601 111.90771 21.81601H137.54384C139.74478 21.81601 141.52895 23.60019 141.52895 25.80112V30.8925C141.52895 33.09344 139.74478 34.87761 137.54384 34.87761ZM124.72577 34.87761V21.81601" fill="#ec008c"/>
<path transform="matrix(1,0,0,-1,60.91,350.208)" stroke-width=".3985" stroke-linecap="butt" stroke-miterlimit="10" stroke-linejoin="miter" fill="none" stroke="#000000" d="M137.54384 34.87761H111.90771C109.70677 34.87761 107.9226 33.09344 107.9226 30.8925V25.80112C107.9226 23.60019 109.70677 21.81601 111.90771 21.81601H137.54384C139.74478 21.81601 141.52895 23.60019 141.52895 25.80112V30.8925C141.52895 33.09344 139.74478 34.87761 137.54384 34.87761ZM124.72577 34.87761V21.81601"/>
<use data-text="2" xlink:href="#font_0_2" transform="matrix(9.9626,0,0,-9.9626,172.152,325.071)"/>
<use data-text="3" xlink:href="#font_0_3" transform="matrix(9.9626,0,0,-9.9626,177.13329,325.071)"/>
<use data-text="2" xlink:href="#font_0_2" transform="matrix(9.9626,0,0,-9.9626,189.154,325.071)"/>
<use data-text="9" xlink:href="#font_0_7" transform="matrix(9.9626,0,0,-9.9626,194.1353,325.071)"/>
<path transform="matrix(1,0,0,-1,60.91,350.208)" stroke-width=".3985" stroke-linecap="butt" stroke-miterlimit="10" stroke-linejoin="miter" fill="none" stroke="#000000" d="M32.66367 6.53079H24.02995C21.82901 6.53079 20.04485 4.74663 20.04485 2.54568V-2.54567C20.04485-4.74661 21.82901-6.53078 24.02995-6.53078H32.66367C34.86461-6.53078 36.64877-4.74661 36.64877-2.54567V2.54568C36.64877 4.74663 34.86461 6.53079 32.66367 6.53079ZM20.04485-6.53078"/>
<use data-text="5" xlink:href="#font_0_4" transform="matrix(9.9626,0,0,-9.9626,86.766,353.418)"/>
<path transform="matrix(1,0,0,-1,60.91,350.208)" stroke-width=".3985" stroke-linecap="butt" stroke-miterlimit="10" stroke-linejoin="miter" fill="none" stroke="#000000" d="M61.01047 6.53079H52.37677C50.17583 6.53079 48.39166 4.74663 48.39166 2.54568V-2.54567C48.39166-4.74661 50.17583-6.53078 52.37677-6.53078H61.01047C63.21141-6.53078 64.99557-4.74661 64.99557-2.54567V2.54568C64.99557 4.74663 63.21141 6.53079 61.01047 6.53079ZM48.39166-6.53078"/>
<use data-text="1" xlink:href="#font_0_1" transform="matrix(9.9626,0,0,-9.9626,112.622,353.418)"/>
<use data-text="1" xlink:href="#font_0_1" transform="matrix(9.9626,0,0,-9.9626,117.6033,353.418)"/>
<path transform="matrix(1,0,0,-1,60.91,350.208)" d="M83.68799 6.53079H75.05429C72.85335 6.53079 71.06918 4.74663 71.06918 2.54568V-2.54567C71.06918-4.74661 72.85335-6.53078 75.05429-6.53078H83.68799C85.88893-6.53078 87.6731-4.74661 87.6731-2.54567V2.54568C87.6731 4.74663 85.88893 6.53079 83.68799 6.53079ZM71.06918-6.53078" fill="#ffbfbf"/>
<path transform="matrix(1,0,0,-1,60.91,350.208)" stroke-width=".3985" stroke-linecap="butt" stroke-miterlimit="10" stroke-linejoin="miter" fill="none" stroke="#000000" d="M83.68799 6.53079H75.05429C72.85335 6.53079 71.06918 4.74663 71.06918 2.54568V-2.54567C71.06918-4.74661 72.85335-6.53078 75.05429-6.53078H83.68799C85.88893-6.53078 87.6731-4.74661 87.6731-2.54567V2.54568C87.6731 4.74663 85.88893 6.53079 83.68799 6.53079ZM71.06918-6.53078"/>
<use data-text="1" xlink:href="#font_0_1" transform="matrix(9.9626,0,0,-9.9626,135.299,353.418)"/>
<use data-text="7" xlink:href="#font_0_5" transform="matrix(9.9626,0,0,-9.9626,140.28029,353.418)"/>
<path transform="matrix(1,0,0,-1,60.91,350.208)" d="M106.36552 6.53079H97.73183C95.53088 6.53079 93.74672 4.74663 93.74672 2.54568V-2.54567C93.74672-4.74661 95.53088-6.53078 97.73183-6.53078H106.36552C108.56647-6.53078 110.35063-4.74661 110.35063-2.54567V2.54568C110.35063 4.74663 108.56647 6.53079 106.36552 6.53079ZM93.74672-6.53078" fill="#ffbfbf"/>
<path transform="matrix(1,0,0,-1,60.91,350.208)" stroke-width=".3985" stroke-linecap="butt" stroke-miterlimit="10" stroke-linejoin="miter" fill="none" stroke="#000000" d="M106.36552 6.53079H97.73183C95.53088 6.53079 93.74672 4.74663 93.74672 2.54568V-2.54567C93.74672-4.74661 95.53088-6.53078 97.73183-6.53078H106.36552C108.56647-6.53078 110.35063-4.74661 110.35063-2.54567V2.54568C110.35063 4.74663 108.56647 6.53079 106.36552 6.53079ZM93.74672-6.53078"/>
<use data-text="1" xlink:href="#font_0_1" transform="matrix(9.9626,0,0,-9.9626,157.976,353.418)"/>
<use data-text="9" xlink:href="#font_0_7" transform="matrix(9.9626,0,0,-9.9626,162.95729,353.418)"/>
<path transform="matrix(1,0,0,-1,60.91,350.208)" stroke-width=".59776" stroke-linecap="butt" stroke-miterlimit="10" stroke-linejoin="miter" fill="none" stroke="#000000" d="M48.20071 49.96358 14.72101 35.31642"/>
<path transform="matrix(-.9161,.40079,.40079,.9161,75.35719,315.01136)" stroke-width=".59776" stroke-linecap="round" stroke-linejoin="round" fill="none" stroke="#000000" d="M-2.31136 2.751C-1.88908 1.10037-.94807 .32094 0 0-.94807-.32094-1.88908-1.10037-2.31136-2.751"/>
<path transform="matrix(1,0,0,-1,60.91,350.208)" stroke-width=".59776" stroke-linecap="butt" stroke-miterlimit="10" stroke-linejoin="miter" fill="none" stroke="#000000" d="M65.20311 49.96358 67.9206 35.66408"/>
<path transform="matrix(.18666,.98238,.98238,-.18666,128.88636,314.83753)" stroke-width=".59776" stroke-linecap="round" stroke-linejoin="round" fill="none" stroke="#000000" d="M-2.31136 2.751C-1.88908 1.10037-.94807 .32094 0 0-.94807-.32094-1.88908-1.10037-2.31136-2.751"/>
<path transform="matrix(1,0,0,-1,60.91,350.208)" stroke-width=".59776" stroke-linecap="butt" stroke-miterlimit="10" stroke-linejoin="miter" fill="none" stroke="#000000" d="M82.20554 49.96358 124.1616 35.27435"/>
<path transform="matrix(.94379,.33041,.33041,-.94379,185.35369,315.0324)" stroke-width=".59776" stroke-linecap="round" stroke-linejoin="round" fill="none" stroke="#000000" d="M-2.31136 2.751C-1.88908 1.10037-.94807 .32094 0 0-.94807-.32094-1.88908-1.10037-2.31136-2.751"/>
<path transform="matrix(1,0,0,-1,60.91,350.208)" stroke-width=".59776" stroke-linecap="butt" stroke-miterlimit="10" stroke-linejoin="miter" fill="none" stroke="#000000" d="M22.6746 21.61676 28.13399 7.2886"/>
<path transform="matrix(.35603,.93443,.93443,-.35603,89.15039,343.19868)" stroke-width=".59776" stroke-linecap="round" stroke-linejoin="round" fill="none" stroke="#000000" d="M-2.31136 2.751C-1.88908 1.10037-.94807 .32094 0 0-.94807-.32094-1.88908-1.10037-2.31136-2.751"/>
<path transform="matrix(1,0,0,-1,60.91,350.208)" stroke-width=".59776" stroke-linecap="butt" stroke-miterlimit="10" stroke-linejoin="miter" fill="none" stroke="#000000" d="M59.53096 21.61676 56.80551 7.31721"/>
<path transform="matrix(-.18721,.98228,.98228,.18721,117.65957,343.1844)" stroke-width=".59776" stroke-linecap="round" stroke-linejoin="round" fill="none" stroke="#000000" d="M-2.31136 2.751C-1.88908 1.10037-.94807 .32094 0 0-.94807-.32094-1.88908-1.10037-2.31136-2.751"/>
<path transform="matrix(1,0,0,-1,60.91,350.208)" stroke-width=".59776" stroke-linecap="butt" stroke-miterlimit="10" stroke-linejoin="miter" fill="none" stroke="#000000" d="M76.53339 21.61676 79.25922 7.3172"/>
<path transform="matrix(.18723,.98227,.98227,-.18723,140.22518,343.1844)" stroke-width=".59776" stroke-linecap="round" stroke-linejoin="round" fill="none" stroke="#000000" d="M-2.31136 2.751C-1.88908 1.10037-.94807 .32094 0 0-.94807-.32094-1.88908-1.10037-2.31136-2.751"/>
<path transform="matrix(1,0,0,-1,60.91,350.208)" stroke-width=".59776" stroke-linecap="butt" stroke-miterlimit="10" stroke-linejoin="miter" fill="none" stroke="#000000" d="M107.72336 21.61676 102.26155 7.28857"/>
<path transform="matrix(-.35616,.93439,.93439,.35616,163.06513,343.1987)" stroke-width=".59776" stroke-linecap="round" stroke-linejoin="round" fill="none" stroke="#000000" d="M-2.31136 2.751C-1.88908 1.10037-.94807 .32094 0 0-.94807-.32094-1.88908-1.10037-2.31136-2.751"/>
<path transform="matrix(1,0,0,-1,134.61,180.129)" stroke-width="1.59404" stroke-linecap="butt" stroke-miterlimit="10" stroke-linejoin="miter" fill="none" stroke="#000000" d="M28.3468 103.13737V50.69176"/>
<path transform="matrix(0,1,1,0,162.9568,129.10334)" d="M4.30344 0 .66777 3.18477V0-3.18477Z"/>
<path transform="matrix(0,1,1,0,162.9568,129.10334)" stroke-width="1.33556" stroke-linecap="butt" stroke-miterlimit="10" stroke-linejoin="miter" fill="none" stroke="#000000" d="M4.30344 0 .66777 3.18477V0-3.18477Z"/>
<use data-text="U" xlink:href="#font_1_12" transform="matrix(0,9.9626,9.9626,0,174.047,92.644)"/>
<use data-text="N" xlink:href="#font_1_7" transform="matrix(0,9.9626,9.9626,0,174.047,97.87436)"/>
<use data-text="Z" xlink:href="#font_1_13" transform="matrix(0,9.9626,9.9626,0,174.047,103.10472)"/>
<use data-text="I" xlink:href="#font_1_5" transform="matrix(0,9.9626,9.9626,0,174.047,108.33508)"/>
<use data-text="P" xlink:href="#font_1_8" transform="matrix(0,9.9626,9.9626,0,174.047,113.565448)"/>
<path transform="matrix(1,0,0,-1,134.61,180.129)" stroke-width="1.59404" stroke-linecap="butt" stroke-miterlimit="10" stroke-linejoin="miter" fill="none" stroke="#000000" d="M-28.3468 45.68336V98.12898"/>
<path transform="matrix(0,-1,-1,-0,106.2632,82.33393)" d="M4.30344 0 .66777 3.18477V0-3.18477Z"/>
<path transform="matrix(0,-1,-1,-0,106.2632,82.33393)" stroke-width="1.33556" stroke-linecap="butt" stroke-miterlimit="10" stroke-linejoin="miter" fill="none" stroke="#000000" d="M4.30344 0 .66777 3.18477V0-3.18477Z"/>
<use data-text="Z" xlink:href="#font_1_13" transform="matrix(0,-9.9626,-9.9626,-0,95.172,116.17999)"/>
<use data-text="I" xlink:href="#font_1_5" transform="matrix(0,-9.9626,-9.9626,-0,95.172,110.94963)"/>
<use data-text="P" xlink:href="#font_1_8" transform="matrix(0,-9.9626,-9.9626,-0,95.172,105.71927)"/>
<use data-text="2" xlink:href="#font_1_1" transform="matrix(0,-9.9626,-9.9626,-0,95.172,100.48891)"/>
<path transform="matrix(1,0,0,-1,134.61,180.129)" stroke-width="1.59404" stroke-linecap="butt" stroke-miterlimit="10" stroke-linejoin="miter" fill="none" stroke="#000000" d="M28.3468-45.68336V-98.12898"/>
<path transform="matrix(0,1,1,0,162.9568,277.92408)" d="M4.30344 0 .66777 3.18477V0-3.18477Z"/>
<path transform="matrix(0,1,1,0,162.9568,277.92408)" stroke-width="1.33556" stroke-linecap="butt" stroke-miterlimit="10" stroke-linejoin="miter" fill="none" stroke="#000000" d="M4.30344 0 .66777 3.18477V0-3.18477Z"/>
<use data-text="Z" xlink:href="#font_1_13" transform="matrix(0,9.9626,9.9626,0,174.047,244.078)"/>
<use data-text="I" xlink:href="#font_1_5" transform="matrix(0,9.9626,9.9626,0,174.047,249.30837)"/>
<use data-text="P" xlink:href="#font_1_8" transform="matrix(0,9.9626,9.9626,0,174.047,254.53873)"/>
<use data-text="3" xlink:href="#font_1_2" transform="matrix(0,9.9626,9.9626,0,174.047,259.7691)"/>
<path transform="matrix(1,0,0,-1,134.61,180.129)" stroke-width="1.59404" stroke-linecap="butt" stroke-miterlimit="10" stroke-linejoin="miter" fill="none" stroke="#000000" d="M-28.3468-103.13737V-50.69176"/>
<path transform="matrix(0,-1,-1,-0,106.2632,231.15467)" d="M4.30344 0 .66777 3.18477V0-3.18477Z"/>
<path transform="matrix(0,-1,-1,-0,106.2632,231.15467)" stroke-width="1.33556" stroke-linecap="butt" stroke-miterlimit="10" stroke-linejoin="miter" fill="none" stroke="#000000" d="M4.30344 0 .66777 3.18477V0-3.18477Z"/>
<use data-text="U" xlink:href="#font_1_12" transform="matrix(0,-9.9626,-9.9626,-0,95.172,267.614)"/>
<use data-text="N" xlink:href="#font_1_7" transform="matrix(0,-9.9626,-9.9626,-0,95.172,262.38368)"/>
<use data-text="Z" xlink:href="#font_1_13" transform="matrix(0,-9.9626,-9.9626,-0,95.172,257.1533)"/>
<use data-text="I" xlink:href="#font_1_5" transform="matrix(0,-9.9626,-9.9626,-0,95.172,251.92293)"/>
<use data-text="P" xlink:href="#font_1_8" transform="matrix(0,-9.9626,-9.9626,-0,95.172,246.69257)"/>
<path transform="matrix(1,0,0,-1,134.61,180.129)" stroke-width="1.59404" stroke-linecap="butt" stroke-miterlimit="10" stroke-linejoin="miter" fill="none" stroke="#000000" d="M113.38724 141.73404V-136.72565"/>
<path transform="matrix(0,1,1,0,247.99724,316.52076)" d="M4.30344 0 .66777 3.18477V0-3.18477Z"/>
<path transform="matrix(0,1,1,0,247.99724,316.52076)" stroke-width="1.33556" stroke-linecap="butt" stroke-miterlimit="10" stroke-linejoin="miter" fill="none" stroke="#000000" d="M4.30344 0 .66777 3.18477V0-3.18477Z"/>
<use data-text="I" xlink:href="#font_1_5" transform="matrix(0,9.9626,9.9626,0,259.585,124.07599)"/>
<use data-text="N" xlink:href="#font_1_7" transform="matrix(0,9.9626,9.9626,0,259.585,129.30637)"/>
<use data-text="S" xlink:href="#font_1_10" transform="matrix(0,9.9626,9.9626,0,259.585,134.53675)"/>
<use data-text="E" xlink:href="#font_1_4" transform="matrix(0,9.9626,9.9626,0,259.585,139.76712)"/>
<use data-text="R" xlink:href="#font_1_9" transform="matrix(0,9.9626,9.9626,0,259.585,144.9975)"/>
<use data-text="T" xlink:href="#font_1_11" transform="matrix(0,9.9626,9.9626,0,259.585,150.22788)"/>
<use data-text="&#x223c;" xlink:href="#font_2_2" transform="matrix(0,9.9626,9.9626,0,262.244,160.68799)"/>
<use data-text="=" xlink:href="#font_0_8" transform="matrix(0,9.9626,9.9626,0,259.08699,160.68799)"/>
<use data-text="Z" xlink:href="#font_1_13" transform="matrix(0,9.9626,9.9626,0,259.585,173.66699)"/>
<use data-text="I" xlink:href="#font_1_5" transform="matrix(0,9.9626,9.9626,0,259.585,178.89737)"/>
<use data-text="P" xlink:href="#font_1_8" transform="matrix(0,9.9626,9.9626,0,259.585,184.12775)"/>
<use data-text="3" xlink:href="#font_1_2" transform="matrix(0,9.9626,9.9626,0,259.585,189.35813)"/>
<use data-text="&#x25e6;" xlink:href="#font_2_1" transform="matrix(0,9.9626,9.9626,0,259.585,199.819)"/>
<use data-text="U" xlink:href="#font_1_12" transform="matrix(0,9.9626,9.9626,0,259.585,210.031)"/>
<use data-text="N" xlink:href="#font_1_7" transform="matrix(0,9.9626,9.9626,0,259.585,215.26139)"/>
<use data-text="Z" xlink:href="#font_1_13" transform="matrix(0,9.9626,9.9626,0,259.585,220.49176)"/>
<use data-text="I" xlink:href="#font_1_5" transform="matrix(0,9.9626,9.9626,0,259.585,225.72214)"/>
<use data-text="P" xlink:href="#font_1_8" transform="matrix(0,9.9626,9.9626,0,259.585,230.95252)"/>
<path transform="matrix(1,0,0,-1,134.61,180.129)" stroke-width="1.59404" stroke-linecap="butt" stroke-miterlimit="10" stroke-linejoin="miter" fill="none" stroke="#000000" d="M-113.38724-141.73404V136.72565"/>
<path transform="matrix(0,-1,-1,-0,21.222764,43.737245)" d="M4.30344 0 .66777 3.18477V0-3.18477Z"/>
<path transform="matrix(0,-1,-1,-0,21.222764,43.737245)" stroke-width="1.33556" stroke-linecap="butt" stroke-miterlimit="10" stroke-linejoin="miter" fill="none" stroke="#000000" d="M4.30344 0 .66777 3.18477V0-3.18477Z"/>
<use data-text="D" xlink:href="#font_1_3" transform="matrix(0,-9.9626,-9.9626,-0,9.633995,236.182)"/>
<use data-text="E" xlink:href="#font_1_4" transform="matrix(0,-9.9626,-9.9626,-0,9.633995,230.95165)"/>
<use data-text="L" xlink:href="#font_1_6" transform="matrix(0,-9.9626,-9.9626,-0,9.633995,225.72129)"/>
<use data-text="E" xlink:href="#font_1_4" transform="matrix(0,-9.9626,-9.9626,-0,9.633995,220.4909)"/>
<use data-text="T" xlink:href="#font_1_11" transform="matrix(0,-9.9626,-9.9626,-0,9.633995,215.26055)"/>
<use data-text="E" xlink:href="#font_1_4" transform="matrix(0,-9.9626,-9.9626,-0,9.633995,210.03018)"/>
<use data-text="&#x223c;" xlink:href="#font_2_2" transform="matrix(0,-9.9626,-9.9626,-0,6.9749987,199.56902)"/>
<use data-text="=" xlink:href="#font_0_8" transform="matrix(0,-9.9626,-9.9626,-0,10.131996,199.56902)"/>
<use data-text="Z" xlink:href="#font_1_13" transform="matrix(0,-9.9626,-9.9626,-0,9.633995,186.59001)"/>
<use data-text="I" xlink:href="#font_1_5" transform="matrix(0,-9.9626,-9.9626,-0,9.633995,181.35965)"/>
<use data-text="P" xlink:href="#font_1_8" transform="matrix(0,-9.9626,-9.9626,-0,9.633995,176.12929)"/>
<use data-text="2" xlink:href="#font_1_1" transform="matrix(0,-9.9626,-9.9626,-0,9.633995,170.89893)"/>
<use data-text="&#x25e6;" xlink:href="#font_2_1" transform="matrix(0,-9.9626,-9.9626,-0,9.633995,160.43802)"/>
<use data-text="U" xlink:href="#font_1_12" transform="matrix(0,-9.9626,-9.9626,-0,9.633995,150.22702)"/>
<use data-text="N" xlink:href="#font_1_7" transform="matrix(0,-9.9626,-9.9626,-0,9.633995,144.99665)"/>
<use data-text="Z" xlink:href="#font_1_13" transform="matrix(0,-9.9626,-9.9626,-0,9.633995,139.7663)"/>
<use data-text="I" xlink:href="#font_1_5" transform="matrix(0,-9.9626,-9.9626,-0,9.633995,134.53592)"/>
<use data-text="P" xlink:href="#font_1_8" transform="matrix(0,-9.9626,-9.9626,-0,9.633995,129.30558)"/>
</svg>
