<svg xmlns="http://www.w3.org/2000/svg" xmlns:xlink="http://www.w3.org/1999/xlink" version="1.1" width="574.324" height="106.585" viewBox="0 0 574.324 106.585">
<path transform="matrix(1,0,0,-1,10.12,95.812)" stroke-width=".3985" stroke-linecap="butt" stroke-miterlimit="10" stroke-linejoin="miter" fill="none" stroke="#000000" d="M9.92134 0C9.92134 5.47948 5.47948 9.92134 0 9.92134-5.47948 9.92134-9.92134 5.47948-9.92134 0-9.92134-5.47948-5.47948-9.92134 0-9.92134 5.47948-9.92134 9.92134-5.47948 9.92134 0ZM0 0"/>
<text xml:space="preserve" transform="matrix(1 0 -0 1 0 106.58499)" font-size="9.9626" font-family="CMR10"><tspan y="-7.562" x="7.63">2</tspan></text>
<path transform="matrix(1,0,0,-1,10.12,95.812)" d="M38.26814 0C38.26814 5.47948 33.82628 9.92134 28.3468 9.92134 22.86732 9.92134 18.42546 5.47948 18.42546 0 18.42546-5.47948 22.86732-9.92134 28.3468-9.92134 33.82628-9.92134 38.26814-5.47948 38.26814 0ZM28.3468 0" fill="#ccfc88"/>
<path transform="matrix(1,0,0,-1,10.12,95.812)" stroke-width=".3985" stroke-linecap="butt" stroke-miterlimit="10" stroke-linejoin="miter" fill="none" stroke="#000000" d="M38.26814 0C38.26814 5.47948 33.82628 9.92134 28.3468 9.92134 22.86732 9.92134 18.42546 5.47948 18.42546 0 18.42546-5.47948 22.86732-9.92134 28.3468-9.92134 33.82628-9.92134 38.26814-5.47948 38.26814 0ZM28.3468 0"/>
<text xml:space="preserve" transform="matrix(1 0 -0 1 0 106.58499)" font-size="9.9626" font-family="CMR10"><tspan y="-7.562" x="35.976">3</tspan></text>
<path transform="matrix(1,0,0,-1,10.12,95.812)" d="M66.61496 0C66.61496 5.47948 62.1731 9.92134 56.69362 9.92134 51.21414 9.92134 46.77226 5.47948 46.77226 0 46.77226-5.47948 51.21414-9.92134 56.69362-9.92134 62.1731-9.92134 66.61496-5.47948 66.61496 0ZM56.69362 0" fill="#ccfc88"/>
<path transform="matrix(1,0,0,-1,10.12,95.812)" stroke-width=".3985" stroke-linecap="butt" stroke-miterlimit="10" stroke-linejoin="miter" fill="none" stroke="#000000" d="M66.61496 0C66.61496 5.47948 62.1731 9.92134 56.69362 9.92134 51.21414 9.92134 46.77226 5.47948 46.77226 0 46.77226-5.47948 51.21414-9.92134 56.69362-9.92134 62.1731-9.92134 66.61496-5.47948 66.61496 0ZM56.69362 0"/>
<text xml:space="preserve" transform="matrix(1 0 -0 1 0 106.58499)" font-size="9.9626" font-family="CMR10"><tspan y="-7.562" x="64.323">5</tspan></text>
<path transform="matrix(1,0,0,-1,10.12,95.812)" d="M94.96176 0C94.96176 5.47948 90.5199 9.92134 85.04042 9.92134 79.56094 9.92134 75.11908 5.47948 75.11908 0 75.11908-5.47948 79.56094-9.92134 85.04042-9.92134 90.5199-9.92134 94.96176-5.47948 94.96176 0ZM85.04042 0" fill="#a189fa"/>
<path transform="matrix(1,0,0,-1,10.12,95.812)" stroke-width=".3985" stroke-linecap="butt" stroke-miterlimit="10" stroke-linejoin="miter" fill="none" stroke="#000000" d="M94.96176 0C94.96176 5.47948 90.5199 9.92134 85.04042 9.92134 79.56094 9.92134 75.11908 5.47948 75.11908 0 75.11908-5.47948 79.56094-9.92134 85.04042-9.92134 90.5199-9.92134 94.96176-5.47948 94.96176 0ZM85.04042 0"/>
<text xml:space="preserve" transform="matrix(1 0 -0 1 .0000076293949 106.58499)" font-size="9.9626" font-family="CMR10"><tspan y="-7.562" x="92.669">7</tspan></text>
<path transform="matrix(1,0,0,-1,10.12,95.812)" d="M123.96075 0C123.96075 5.83965 119.22688 10.57352 113.38724 10.57352 107.54758 10.57352 102.8137 5.83965 102.8137 0 102.8137-5.83965 107.54758-10.57352 113.38724-10.57352 119.22688-10.57352 123.96075-5.83965 123.96075 0ZM113.38724 0" fill="#a189fa"/>
<path transform="matrix(1,0,0,-1,10.12,95.812)" stroke-width=".3985" stroke-linecap="butt" stroke-miterlimit="10" stroke-linejoin="miter" fill="none" stroke="#000000" d="M123.96075 0C123.96075 5.83965 119.22688 10.57352 113.38724 10.57352 107.54758 10.57352 102.8137 5.83965 102.8137 0 102.8137-5.83965 107.54758-10.57352 113.38724-10.57352 119.22688-10.57352 123.96075-5.83965 123.96075 0ZM113.38724 0"/>
<text xml:space="preserve" transform="matrix(1 0 -0 1 0 106.58499)" font-size="9.9626" font-family="CMR10"><tspan y="-7.562" x="118.525 123.5063">11</tspan></text>
<path transform="matrix(1,0,0,-1,10.12,95.812)" d="M152.30757 0C152.30757 5.83965 147.5737 10.57352 141.73404 10.57352 135.89438 10.57352 131.16053 5.83965 131.16053 0 131.16053-5.83965 135.89438-10.57352 141.73404-10.57352 147.5737-10.57352 152.30757-5.83965 152.30757 0ZM141.73404 0" fill="#ffbfbf"/>
<path transform="matrix(1,0,0,-1,10.12,95.812)" stroke-width=".3985" stroke-linecap="butt" stroke-miterlimit="10" stroke-linejoin="miter" fill="none" stroke="#000000" d="M152.30757 0C152.30757 5.83965 147.5737 10.57352 141.73404 10.57352 135.89438 10.57352 131.16053 5.83965 131.16053 0 131.16053-5.83965 135.89438-10.57352 141.73404-10.57352 147.5737-10.57352 152.30757-5.83965 152.30757 0ZM141.73404 0"/>
<text xml:space="preserve" transform="matrix(1 0 -0 1 0 106.58499)" font-size="9.9626" font-family="CMR10"><tspan y="-7.562" x="146.871 151.8523">13</tspan></text>
<path transform="matrix(1,0,0,-1,10.12,95.812)" d="M180.65438 0C180.65438 5.83965 175.9205 10.57352 170.08086 10.57352 164.2412 10.57352 159.50733 5.83965 159.50733 0 159.50733-5.83965 164.2412-10.57352 170.08086-10.57352 175.9205-10.57352 180.65438-5.83965 180.65438 0ZM170.08086 0" fill="#ffbfbf"/>
<path transform="matrix(1,0,0,-1,10.12,95.812)" stroke-width=".3985" stroke-linecap="butt" stroke-miterlimit="10" stroke-linejoin="miter" fill="none" stroke="#000000" d="M180.65438 0C180.65438 5.83965 175.9205 10.57352 170.08086 10.57352 164.2412 10.57352 159.50733 5.83965 159.50733 0 159.50733-5.83965 164.2412-10.57352 170.08086-10.57352 175.9205-10.57352 180.65438-5.83965 180.65438 0ZM170.08086 0"/>
<text xml:space="preserve" transform="matrix(1 0 -0 1 0 106.58499)" font-size="9.9626" font-family="CMR10"><tspan y="-7.562" x="175.218 180.1993">17</tspan></text>
<path transform="matrix(1,0,0,-1,10.12,95.812)" d="M209.00119 0C209.00119 5.83965 204.26732 10.57352 198.42766 10.57352 192.588 10.57352 187.85414 5.83965 187.85414 0 187.85414-5.83965 192.588-10.57352 198.42766-10.57352 204.26732-10.57352 209.00119-5.83965 209.00119 0ZM198.42766 0" fill="#ffbfbf"/>
<path transform="matrix(1,0,0,-1,10.12,95.812)" stroke-width=".3985" stroke-linecap="butt" stroke-miterlimit="10" stroke-linejoin="miter" fill="none" stroke="#000000" d="M209.00119 0C209.00119 5.83965 204.26732 10.57352 198.42766 10.57352 192.588 10.57352 187.85414 5.83965 187.85414 0 187.85414-5.83965 192.588-10.57352 198.42766-10.57352 204.26732-10.57352 209.00119-5.83965 209.00119 0ZM198.42766 0"/>
<text xml:space="preserve" transform="matrix(1 0 -0 1 0 106.58499)" font-size="9.9626" font-family="CMR10"><tspan y="-7.562" x="203.564 208.54529">19</tspan></text>
<path transform="matrix(1,0,0,-1,10.12,95.812)" stroke-width=".3985" stroke-linecap="butt" stroke-miterlimit="10" stroke-linejoin="miter" fill="none" stroke="#000000" d="M237.34799 0C237.34799 5.83965 232.61414 10.57352 226.77448 10.57352 220.93482 10.57352 216.20095 5.83965 216.20095 0 216.20095-5.83965 220.93482-10.57352 226.77448-10.57352 232.61414-10.57352 237.34799-5.83965 237.34799 0ZM226.77448 0"/>
<text xml:space="preserve" transform="matrix(1 0 -0 1 0 106.58499)" font-size="9.9626" font-family="CMR10"><tspan y="-7.562" x="231.911 236.89229">23</tspan></text>
<path transform="matrix(1,0,0,-1,10.12,95.812)" stroke-width=".3985" stroke-linecap="butt" stroke-miterlimit="10" stroke-linejoin="miter" fill="none" stroke="#000000" d="M265.69483 0C265.69483 5.83965 260.96095 10.57352 255.12128 10.57352 249.28162 10.57352 244.54776 5.83965 244.54776 0 244.54776-5.83965 249.28162-10.57352 255.12128-10.57352 260.96095-10.57352 265.69483-5.83965 265.69483 0ZM255.12128 0"/>
<text xml:space="preserve" transform="matrix(1 0 -0 1 0 106.58499)" font-size="9.9626" font-family="CMR10"><tspan y="-7.562" x="260.257 265.23829">29</tspan></text>
<path transform="matrix(1,0,0,-1,10.12,95.812)" d="M294.0416 0C294.0416 5.83965 289.30775 10.57352 283.4681 10.57352 277.62843 10.57352 272.89457 5.83965 272.89457 0 272.89457-5.83965 277.62843-10.57352 283.4681-10.57352 289.30775-10.57352 294.0416-5.83965 294.0416 0ZM283.4681 0" fill="#92f7b7"/>
<path transform="matrix(1,0,0,-1,10.12,95.812)" stroke-width=".3985" stroke-linecap="butt" stroke-miterlimit="10" stroke-linejoin="miter" fill="none" stroke="#000000" d="M294.0416 0C294.0416 5.83965 289.30775 10.57352 283.4681 10.57352 277.62843 10.57352 272.89457 5.83965 272.89457 0 272.89457-5.83965 277.62843-10.57352 283.4681-10.57352 289.30775-10.57352 294.0416-5.83965 294.0416 0ZM283.4681 0"/>
<text xml:space="preserve" transform="matrix(1 0 -0 1 0 106.58499)" font-size="9.9626" font-family="CMR10"><tspan y="-7.562" x="288.604 293.5853">31</tspan></text>
<path transform="matrix(1,0,0,-1,10.12,95.812)" d="M322.38844 0C322.38844 5.83965 317.65458 10.57352 311.8149 10.57352 305.97526 10.57352 301.2414 5.83965 301.2414 0 301.2414-5.83965 305.97526-10.57352 311.8149-10.57352 317.65458-10.57352 322.38844-5.83965 322.38844 0ZM311.8149 0" fill="#92f7b7"/>
<path transform="matrix(1,0,0,-1,10.12,95.812)" stroke-width=".3985" stroke-linecap="butt" stroke-miterlimit="10" stroke-linejoin="miter" fill="none" stroke="#000000" d="M322.38844 0C322.38844 5.83965 317.65458 10.57352 311.8149 10.57352 305.97526 10.57352 301.2414 5.83965 301.2414 0 301.2414-5.83965 305.97526-10.57352 311.8149-10.57352 317.65458-10.57352 322.38844-5.83965 322.38844 0ZM311.8149 0"/>
<text xml:space="preserve" transform="matrix(1 0 -0 1 -.000030517579 106.58499)" font-size="9.9626" font-family="CMR10"><tspan y="-7.562" x="316.95 321.9313">37</tspan></text>
<path transform="matrix(1,0,0,-1,10.12,95.812)" stroke-width=".3985" stroke-linecap="butt" stroke-miterlimit="10" stroke-linejoin="miter" fill="none" stroke="#000000" d="M350.73524 0C350.73524 5.83965 346.00138 10.57352 340.1617 10.57352 334.32206 10.57352 329.58818 5.83965 329.58818 0 329.58818-5.83965 334.32206-10.57352 340.1617-10.57352 346.00138-10.57352 350.73524-5.83965 350.73524 0ZM340.1617 0"/>
<text xml:space="preserve" transform="matrix(1 0 -0 1 0 106.58499)" font-size="9.9626" font-family="CMR10"><tspan y="-7.562" x="345.296 350.27729">41</tspan></text>
<path transform="matrix(1,0,0,-1,10.12,95.812)" d="M379.08207 0C379.08207 5.83965 374.34819 10.57352 368.5085 10.57352 362.66889 10.57352 357.935 5.83965 357.935 0 357.935-5.83965 362.66889-10.57352 368.5085-10.57352 374.34819-10.57352 379.08207-5.83965 379.08207 0ZM368.5085 0" fill="#f79297"/>
<path transform="matrix(1,0,0,-1,10.12,95.812)" stroke-width=".3985" stroke-linecap="butt" stroke-miterlimit="10" stroke-linejoin="miter" fill="none" stroke="#000000" d="M379.08207 0C379.08207 5.83965 374.34819 10.57352 368.5085 10.57352 362.66889 10.57352 357.935 5.83965 357.935 0 357.935-5.83965 362.66889-10.57352 368.5085-10.57352 374.34819-10.57352 379.08207-5.83965 379.08207 0ZM368.5085 0"/>
<text xml:space="preserve" transform="matrix(1 0 -0 1 0 106.58499)" font-size="9.9626" font-family="CMR10"><tspan y="-7.562" x="373.643 378.6243">43</tspan></text>
<path transform="matrix(1,0,0,-1,10.12,95.812)" d="M407.42887 0C407.42887 5.83965 402.69499 10.57352 396.85533 10.57352 391.01567 10.57352 386.2818 5.83965 386.2818 0 386.2818-5.83965 391.01567-10.57352 396.85533-10.57352 402.69499-10.57352 407.42887-5.83965 407.42887 0ZM396.85533 0" fill="#f79297"/>
<path transform="matrix(1,0,0,-1,10.12,95.812)" stroke-width=".3985" stroke-linecap="butt" stroke-miterlimit="10" stroke-linejoin="miter" fill="none" stroke="#000000" d="M407.42887 0C407.42887 5.83965 402.69499 10.57352 396.85533 10.57352 391.01567 10.57352 386.2818 5.83965 386.2818 0 386.2818-5.83965 391.01567-10.57352 396.85533-10.57352 402.69499-10.57352 407.42887-5.83965 407.42887 0ZM396.85533 0"/>
<text xml:space="preserve" transform="matrix(1 0 -0 1 -.000030517579 106.58499)" font-size="9.9626" font-family="CMR10"><tspan y="-7.562" x="401.989 406.9703">47</tspan></text>
<path transform="matrix(1,0,0,-1,10.12,95.812)" d="M435.77568 0C435.77568 5.83965 431.0418 10.57352 425.20213 10.57352 419.3625 10.57352 414.62864 5.83965 414.62864 0 414.62864-5.83965 419.3625-10.57352 425.20213-10.57352 431.0418-10.57352 435.77568-5.83965 435.77568 0ZM425.20213 0" fill="#b5bfff"/>
<path transform="matrix(1,0,0,-1,10.12,95.812)" stroke-width=".3985" stroke-linecap="butt" stroke-miterlimit="10" stroke-linejoin="miter" fill="none" stroke="#000000" d="M435.77568 0C435.77568 5.83965 431.0418 10.57352 425.20213 10.57352 419.3625 10.57352 414.62864 5.83965 414.62864 0 414.62864-5.83965 419.3625-10.57352 425.20213-10.57352 431.0418-10.57352 435.77568-5.83965 435.77568 0ZM425.20213 0"/>
<text xml:space="preserve" transform="matrix(1 0 -0 1 0 106.58499)" font-size="9.9626" font-family="CMR10"><tspan y="-7.562" x="430.336 435.3173">53</tspan></text>
<path transform="matrix(1,0,0,-1,10.12,95.812)" d="M464.12248 0C464.12248 5.83965 459.3886 10.57352 453.54896 10.57352 447.7093 10.57352 442.97544 5.83965 442.97544 0 442.97544-5.83965 447.7093-10.57352 453.54896-10.57352 459.3886-10.57352 464.12248-5.83965 464.12248 0ZM453.54896 0" fill="#b5bfff"/>
<path transform="matrix(1,0,0,-1,10.12,95.812)" stroke-width=".3985" stroke-linecap="butt" stroke-miterlimit="10" stroke-linejoin="miter" fill="none" stroke="#000000" d="M464.12248 0C464.12248 5.83965 459.3886 10.57352 453.54896 10.57352 447.7093 10.57352 442.97544 5.83965 442.97544 0 442.97544-5.83965 447.7093-10.57352 453.54896-10.57352 459.3886-10.57352 464.12248-5.83965 464.12248 0ZM453.54896 0"/>
<text xml:space="preserve" transform="matrix(1 0 -0 1 0 106.58499)" font-size="9.9626" font-family="CMR10"><tspan y="-7.562" x="458.682 463.6633">59</tspan></text>
<path transform="matrix(1,0,0,-1,10.12,95.812)" stroke-width=".3985" stroke-linecap="butt" stroke-miterlimit="10" stroke-linejoin="miter" fill="none" stroke="#000000" d="M492.46928 0C492.46928 5.83965 487.7354 10.57352 481.89579 10.57352 476.0561 10.57352 471.32225 5.83965 471.32225 0 471.32225-5.83965 476.0561-10.57352 481.89579-10.57352 487.7354-10.57352 492.46928-5.83965 492.46928 0ZM481.89579 0"/>
<text xml:space="preserve" transform="matrix(1 0 -0 1 0 106.58499)" font-size="9.9626" font-family="CMR10"><tspan y="-7.562" x="487.029 492.01029">61</tspan></text>
<path transform="matrix(1,0,0,-1,10.12,95.812)" stroke-width=".3985" stroke-linecap="butt" stroke-miterlimit="10" stroke-linejoin="miter" fill="none" stroke="#000000" d="M520.8161 0C520.8161 5.83965 516.0822 10.57352 510.24259 10.57352 504.40293 10.57352 499.66905 5.83965 499.66905 0 499.66905-5.83965 504.40293-10.57352 510.24259-10.57352 516.0822-10.57352 520.8161-5.83965 520.8161 0ZM510.24259 0"/>
<text xml:space="preserve" transform="matrix(1 0 -0 1 0 106.58499)" font-size="9.9626" font-family="CMR10"><tspan y="-7.562" x="515.375 520.3563">67</tspan></text>
<path transform="matrix(1,0,0,-1,10.12,95.812)" stroke-width=".3985" stroke-linecap="butt" stroke-miterlimit="10" stroke-linejoin="miter" fill="none" stroke="#000000" d="M549.1629 0C549.1629 5.83965 544.429 10.57352 538.5894 10.57352 532.74978 10.57352 528.01589 5.83965 528.01589 0 528.01589-5.83965 532.74978-10.57352 538.5894-10.57352 544.429-10.57352 549.1629-5.83965 549.1629 0ZM538.5894 0"/>
<text xml:space="preserve" transform="matrix(1 0 -0 1 0 106.58499)" font-size="9.9626" font-family="CMR10"><tspan y="-7.562" x="543.722 548.7033">71</tspan></text>
<path transform="matrix(1,0,0,-1,10.12,95.812)" stroke-width=".3985" stroke-linecap="butt" stroke-miterlimit="10" stroke-linejoin="miter" fill="none" stroke="#000000" d="M38.26814 42.5202C38.26814 47.99968 33.82628 52.44154 28.3468 52.44154 22.86732 52.44154 18.42546 47.99968 18.42546 42.5202 18.42546 37.04073 22.86732 32.59886 28.3468 32.59886 33.82628 32.59886 38.26814 37.04073 38.26814 42.5202ZM28.3468 42.5202"/>
<text xml:space="preserve" transform="matrix(1 0 -0 1 0 106.585)" font-size="9.9626" font-family="CMR10"><tspan y="-50.082" x="35.976">3</tspan></text>
<path transform="matrix(1,0,0,-1,10.12,95.812)" d="M94.96176 42.5202C94.96176 47.99968 90.5199 52.44154 85.04042 52.44154 79.56094 52.44154 75.11908 47.99968 75.11908 42.5202 75.11908 37.04073 79.56094 32.59886 85.04042 32.59886 90.5199 32.59886 94.96176 37.04073 94.96176 42.5202ZM85.04042 42.5202" fill="#ec008c"/>
<path transform="matrix(1,0,0,-1,10.12,95.812)" stroke-width=".3985" stroke-linecap="butt" stroke-miterlimit="10" stroke-linejoin="miter" fill="none" stroke="#000000" d="M94.96176 42.5202C94.96176 47.99968 90.5199 52.44154 85.04042 52.44154 79.56094 52.44154 75.11908 47.99968 75.11908 42.5202 75.11908 37.04073 79.56094 32.59886 85.04042 32.59886 90.5199 32.59886 94.96176 37.04073 94.96176 42.5202ZM85.04042 42.5202"/>
<text xml:space="preserve" transform="matrix(1 0 -0 1 .0000076293949 106.585)" font-size="9.9626" font-family="CMR10"><tspan y="-50.082" x="92.669">7</tspan></text>
<path transform="matrix(1,0,0,-1,10.12,95.812)" d="M152.30757 42.5202C152.30757 48.35986 147.5737 53.09372 141.73404 53.09372 135.89438 53.09372 131.16053 48.35986 131.16053 42.5202 131.16053 36.68054 135.89438 31.94667 141.73404 31.94667 147.5737 31.94667 152.30757 36.68054 152.30757 42.5202ZM141.73404 42.5202" fill="#ec008c"/>
<path transform="matrix(1,0,0,-1,10.12,95.812)" stroke-width=".3985" stroke-linecap="butt" stroke-miterlimit="10" stroke-linejoin="miter" fill="none" stroke="#000000" d="M152.30757 42.5202C152.30757 48.35986 147.5737 53.09372 141.73404 53.09372 135.89438 53.09372 131.16053 48.35986 131.16053 42.5202 131.16053 36.68054 135.89438 31.94667 141.73404 31.94667 147.5737 31.94667 152.30757 36.68054 152.30757 42.5202ZM141.73404 42.5202"/>
<text xml:space="preserve" transform="matrix(1 0 -0 1 0 106.585)" font-size="9.9626" font-family="CMR10"><tspan y="-50.082" x="146.871 151.8523">13</tspan></text>
<path transform="matrix(1,0,0,-1,10.12,95.812)" d="M237.34799 42.5202C237.34799 48.35986 232.61414 53.09372 226.77448 53.09372 220.93482 53.09372 216.20095 48.35986 216.20095 42.5202 216.20095 36.68054 220.93482 31.94667 226.77448 31.94667 232.61414 31.94667 237.34799 36.68054 237.34799 42.5202ZM226.77448 42.5202" fill="#ec008c"/>
<path transform="matrix(1,0,0,-1,10.12,95.812)" stroke-width=".3985" stroke-linecap="butt" stroke-miterlimit="10" stroke-linejoin="miter" fill="none" stroke="#000000" d="M237.34799 42.5202C237.34799 48.35986 232.61414 53.09372 226.77448 53.09372 220.93482 53.09372 216.20095 48.35986 216.20095 42.5202 216.20095 36.68054 220.93482 31.94667 226.77448 31.94667 232.61414 31.94667 237.34799 36.68054 237.34799 42.5202ZM226.77448 42.5202"/>
<text xml:space="preserve" transform="matrix(1 0 -0 1 0 106.585)" font-size="9.9626" font-family="CMR10"><tspan y="-50.082" x="231.911 236.89229">23</tspan></text>
<path transform="matrix(1,0,0,-1,10.12,95.812)" d="M265.69483 42.5202C265.69483 48.35986 260.96095 53.09372 255.12128 53.09372 249.28162 53.09372 244.54776 48.35986 244.54776 42.5202 244.54776 36.68054 249.28162 31.94667 255.12128 31.94667 260.96095 31.94667 265.69483 36.68054 265.69483 42.5202ZM255.12128 42.5202" fill="#ec008c"/>
<path transform="matrix(1,0,0,-1,10.12,95.812)" stroke-width=".3985" stroke-linecap="butt" stroke-miterlimit="10" stroke-linejoin="miter" fill="none" stroke="#000000" d="M265.69483 42.5202C265.69483 48.35986 260.96095 53.09372 255.12128 53.09372 249.28162 53.09372 244.54776 48.35986 244.54776 42.5202 244.54776 36.68054 249.28162 31.94667 255.12128 31.94667 260.96095 31.94667 265.69483 36.68054 265.69483 42.5202ZM255.12128 42.5202"/>
<text xml:space="preserve" transform="matrix(1 0 -0 1 0 106.585)" font-size="9.9626" font-family="CMR10"><tspan y="-50.082" x="260.257 265.23829">29</tspan></text>
<path transform="matrix(1,0,0,-1,10.12,95.812)" d="M294.0416 42.5202C294.0416 48.35986 289.30775 53.09372 283.4681 53.09372 277.62843 53.09372 272.89457 48.35986 272.89457 42.5202 272.89457 36.68054 277.62843 31.94667 283.4681 31.94667 289.30775 31.94667 294.0416 36.68054 294.0416 42.5202ZM283.4681 42.5202" fill="#00aeef"/>
<path transform="matrix(1,0,0,-1,10.12,95.812)" stroke-width=".3985" stroke-linecap="butt" stroke-miterlimit="10" stroke-linejoin="miter" fill="none" stroke="#000000" d="M294.0416 42.5202C294.0416 48.35986 289.30775 53.09372 283.4681 53.09372 277.62843 53.09372 272.89457 48.35986 272.89457 42.5202 272.89457 36.68054 277.62843 31.94667 283.4681 31.94667 289.30775 31.94667 294.0416 36.68054 294.0416 42.5202ZM283.4681 42.5202"/>
<text xml:space="preserve" transform="matrix(1 0 -0 1 0 106.585)" font-size="9.9626" font-family="CMR10"><tspan y="-50.082" x="288.604 293.5853">31</tspan></text>
<path transform="matrix(1,0,0,-1,10.12,95.812)" d="M350.73524 42.5202C350.73524 48.35986 346.00138 53.09372 340.1617 53.09372 334.32206 53.09372 329.58818 48.35986 329.58818 42.5202 329.58818 36.68054 334.32206 31.94667 340.1617 31.94667 346.00138 31.94667 350.73524 36.68054 350.73524 42.5202ZM340.1617 42.5202" fill="#00aeef"/>
<path transform="matrix(1,0,0,-1,10.12,95.812)" stroke-width=".3985" stroke-linecap="butt" stroke-miterlimit="10" stroke-linejoin="miter" fill="none" stroke="#000000" d="M350.73524 42.5202C350.73524 48.35986 346.00138 53.09372 340.1617 53.09372 334.32206 53.09372 329.58818 48.35986 329.58818 42.5202 329.58818 36.68054 334.32206 31.94667 340.1617 31.94667 346.00138 31.94667 350.73524 36.68054 350.73524 42.5202ZM340.1617 42.5202"/>
<text xml:space="preserve" transform="matrix(1 0 -0 1 0 106.585)" font-size="9.9626" font-family="CMR10"><tspan y="-50.082" x="345.296 350.27729">41</tspan></text>
<path transform="matrix(1,0,0,-1,10.12,95.812)" d="M379.08207 42.5202C379.08207 48.35986 374.34819 53.09372 368.5085 53.09372 362.66889 53.09372 357.935 48.35986 357.935 42.5202 357.935 36.68054 362.66889 31.94667 368.5085 31.94667 374.34819 31.94667 379.08207 36.68054 379.08207 42.5202ZM368.5085 42.5202" fill="#00aeef"/>
<path transform="matrix(1,0,0,-1,10.12,95.812)" stroke-width=".3985" stroke-linecap="butt" stroke-miterlimit="10" stroke-linejoin="miter" fill="none" stroke="#000000" d="M379.08207 42.5202C379.08207 48.35986 374.34819 53.09372 368.5085 53.09372 362.66889 53.09372 357.935 48.35986 357.935 42.5202 357.935 36.68054 362.66889 31.94667 368.5085 31.94667 374.34819 31.94667 379.08207 36.68054 379.08207 42.5202ZM368.5085 42.5202"/>
<text xml:space="preserve" transform="matrix(1 0 -0 1 0 106.585)" font-size="9.9626" font-family="CMR10"><tspan y="-50.082" x="373.643 378.6243">43</tspan></text>
<path transform="matrix(1,0,0,-1,10.12,95.812)" d="M435.77568 42.5202C435.77568 48.35986 431.0418 53.09372 425.20213 53.09372 419.3625 53.09372 414.62864 48.35986 414.62864 42.5202 414.62864 36.68054 419.3625 31.94667 425.20213 31.94667 431.0418 31.94667 435.77568 36.68054 435.77568 42.5202ZM425.20213 42.5202" fill="#ffdd88"/>
<path transform="matrix(1,0,0,-1,10.12,95.812)" stroke-width=".3985" stroke-linecap="butt" stroke-miterlimit="10" stroke-linejoin="miter" fill="none" stroke="#000000" d="M435.77568 42.5202C435.77568 48.35986 431.0418 53.09372 425.20213 53.09372 419.3625 53.09372 414.62864 48.35986 414.62864 42.5202 414.62864 36.68054 419.3625 31.94667 425.20213 31.94667 431.0418 31.94667 435.77568 36.68054 435.77568 42.5202ZM425.20213 42.5202"/>
<text xml:space="preserve" transform="matrix(1 0 -0 1 0 106.585)" font-size="9.9626" font-family="CMR10"><tspan y="-50.082" x="430.336 435.3173">53</tspan></text>
<path transform="matrix(1,0,0,-1,10.12,95.812)" d="M492.46928 42.5202C492.46928 48.35986 487.7354 53.09372 481.89579 53.09372 476.0561 53.09372 471.32225 48.35986 471.32225 42.5202 471.32225 36.68054 476.0561 31.94667 481.89579 31.94667 487.7354 31.94667 492.46928 36.68054 492.46928 42.5202ZM481.89579 42.5202" fill="#ffdd88"/>
<path transform="matrix(1,0,0,-1,10.12,95.812)" stroke-width=".3985" stroke-linecap="butt" stroke-miterlimit="10" stroke-linejoin="miter" fill="none" stroke="#000000" d="M492.46928 42.5202C492.46928 48.35986 487.7354 53.09372 481.89579 53.09372 476.0561 53.09372 471.32225 48.35986 471.32225 42.5202 471.32225 36.68054 476.0561 31.94667 481.89579 31.94667 487.7354 31.94667 492.46928 36.68054 492.46928 42.5202ZM481.89579 42.5202"/>
<text xml:space="preserve" transform="matrix(1 0 -0 1 0 106.585)" font-size="9.9626" font-family="CMR10"><tspan y="-50.082" x="487.029 492.01029">61</tspan></text>
<path transform="matrix(1,0,0,-1,10.12,95.812)" d="M520.8161 42.5202C520.8161 48.35986 516.0822 53.09372 510.24259 53.09372 504.40293 53.09372 499.66905 48.35986 499.66905 42.5202 499.66905 36.68054 504.40293 31.94667 510.24259 31.94667 516.0822 31.94667 520.8161 36.68054 520.8161 42.5202ZM510.24259 42.5202" fill="#99f7f1"/>
<path transform="matrix(1,0,0,-1,10.12,95.812)" stroke-width=".3985" stroke-linecap="butt" stroke-miterlimit="10" stroke-linejoin="miter" fill="none" stroke="#000000" d="M520.8161 42.5202C520.8161 48.35986 516.0822 53.09372 510.24259 53.09372 504.40293 53.09372 499.66905 48.35986 499.66905 42.5202 499.66905 36.68054 504.40293 31.94667 510.24259 31.94667 516.0822 31.94667 520.8161 36.68054 520.8161 42.5202ZM510.24259 42.5202"/>
<text xml:space="preserve" transform="matrix(1 0 -0 1 0 106.585)" font-size="9.9626" font-family="CMR10"><tspan y="-50.082" x="515.375 520.3563">67</tspan></text>
<path transform="matrix(1,0,0,-1,10.12,95.812)" d="M549.1629 42.5202C549.1629 48.35986 544.429 53.09372 538.5894 53.09372 532.74978 53.09372 528.01589 48.35986 528.01589 42.5202 528.01589 36.68054 532.74978 31.94667 538.5894 31.94667 544.429 31.94667 549.1629 36.68054 549.1629 42.5202ZM538.5894 42.5202" fill="#99f7f1"/>
<path transform="matrix(1,0,0,-1,10.12,95.812)" stroke-width=".3985" stroke-linecap="butt" stroke-miterlimit="10" stroke-linejoin="miter" fill="none" stroke="#000000" d="M549.1629 42.5202C549.1629 48.35986 544.429 53.09372 538.5894 53.09372 532.74978 53.09372 528.01589 48.35986 528.01589 42.5202 528.01589 36.68054 532.74978 31.94667 538.5894 31.94667 544.429 31.94667 549.1629 36.68054 549.1629 42.5202ZM538.5894 42.5202"/>
<text xml:space="preserve" transform="matrix(1 0 -0 1 0 106.585)" font-size="9.9626" font-family="CMR10"><tspan y="-50.082" x="543.722 548.7033">71</tspan></text>
<path transform="matrix(1,0,0,-1,10.12,95.812)" d="M94.96176 85.04042C94.96176 90.5199 90.5199 94.96176 85.04042 94.96176 79.56094 94.96176 75.11908 90.5199 75.11908 85.04042 75.11908 79.56094 79.56094 75.11908 85.04042 75.11908 90.5199 75.11908 94.96176 79.56094 94.96176 85.04042ZM85.04042 85.04042" fill="#ff8000"/>
<path transform="matrix(1,0,0,-1,10.12,95.812)" stroke-width=".3985" stroke-linecap="butt" stroke-miterlimit="10" stroke-linejoin="miter" fill="none" stroke="#000000" d="M94.96176 85.04042C94.96176 90.5199 90.5199 94.96176 85.04042 94.96176 79.56094 94.96176 75.11908 90.5199 75.11908 85.04042 75.11908 79.56094 79.56094 75.11908 85.04042 75.11908 90.5199 75.11908 94.96176 79.56094 94.96176 85.04042ZM85.04042 85.04042"/>
<text xml:space="preserve" transform="matrix(1 0 -0 1 .0000076293949 106.58499)" font-size="9.9626" font-family="CMR10"><tspan y="-92.602" x="92.669">7</tspan></text>
<path transform="matrix(1,0,0,-1,10.12,95.812)" d="M294.0416 85.04042C294.0416 90.88008 289.30775 95.61395 283.4681 95.61395 277.62843 95.61395 272.89457 90.88008 272.89457 85.04042 272.89457 79.20076 277.62843 74.4669 283.4681 74.4669 289.30775 74.4669 294.0416 79.20076 294.0416 85.04042ZM283.4681 85.04042" fill="#ff8000"/>
<path transform="matrix(1,0,0,-1,10.12,95.812)" stroke-width=".3985" stroke-linecap="butt" stroke-miterlimit="10" stroke-linejoin="miter" fill="none" stroke="#000000" d="M294.0416 85.04042C294.0416 90.88008 289.30775 95.61395 283.4681 95.61395 277.62843 95.61395 272.89457 90.88008 272.89457 85.04042 272.89457 79.20076 277.62843 74.4669 283.4681 74.4669 289.30775 74.4669 294.0416 79.20076 294.0416 85.04042ZM283.4681 85.04042"/>
<text xml:space="preserve" transform="matrix(1 0 -0 1 0 106.58499)" font-size="9.9626" font-family="CMR10"><tspan y="-92.602" x="288.604 293.5853">31</tspan></text>
<path transform="matrix(1,0,0,-1,10.12,95.812)" d="M435.77568 85.04042C435.77568 90.88008 431.0418 95.61395 425.20213 95.61395 419.3625 95.61395 414.62864 90.88008 414.62864 85.04042 414.62864 79.20076 419.3625 74.4669 425.20213 74.4669 431.0418 74.4669 435.77568 79.20076 435.77568 85.04042ZM425.20213 85.04042" fill="#ff8000"/>
<path transform="matrix(1,0,0,-1,10.12,95.812)" stroke-width=".3985" stroke-linecap="butt" stroke-miterlimit="10" stroke-linejoin="miter" fill="none" stroke="#000000" d="M435.77568 85.04042C435.77568 90.88008 431.0418 95.61395 425.20213 95.61395 419.3625 95.61395 414.62864 90.88008 414.62864 85.04042 414.62864 79.20076 419.3625 74.4669 425.20213 74.4669 431.0418 74.4669 435.77568 79.20076 435.77568 85.04042ZM425.20213 85.04042"/>
<text xml:space="preserve" transform="matrix(1 0 -0 1 0 106.58499)" font-size="9.9626" font-family="CMR10"><tspan y="-92.602" x="430.336 435.3173">53</tspan></text>
<path transform="matrix(1,0,0,-1,10.12,95.812)" d="M520.8161 85.04042C520.8161 90.88008 516.0822 95.61395 510.24259 95.61395 504.40293 95.61395 499.66905 90.88008 499.66905 85.04042 499.66905 79.20076 504.40293 74.4669 510.24259 74.4669 516.0822 74.4669 520.8161 79.20076 520.8161 85.04042ZM510.24259 85.04042" fill="#ff8000"/>
<path transform="matrix(1,0,0,-1,10.12,95.812)" stroke-width=".3985" stroke-linecap="butt" stroke-miterlimit="10" stroke-linejoin="miter" fill="none" stroke="#000000" d="M520.8161 85.04042C520.8161 90.88008 516.0822 95.61395 510.24259 95.61395 504.40293 95.61395 499.66905 90.88008 499.66905 85.04042 499.66905 79.20076 504.40293 74.4669 510.24259 74.4669 516.0822 74.4669 520.8161 79.20076 520.8161 85.04042ZM510.24259 85.04042"/>
<text xml:space="preserve" transform="matrix(1 0 -0 1 0 106.58499)" font-size="9.9626" font-family="CMR10"><tspan y="-92.602" x="515.375 520.3563">67</tspan></text>
<path transform="matrix(1,0,0,-1,10.12,95.812)" stroke-width=".59776" stroke-linecap="butt" stroke-dasharray="2.98883,2.98883" stroke-miterlimit="10" stroke-linejoin="miter" fill="none" stroke="#929292" d="M38.46739 0H45.99019"/>
<path transform="matrix(1,0,0,-1,56.110189,95.812)" stroke-width=".4782" stroke-linecap="round" stroke-linejoin="round" fill="none" stroke="#929292" d="M-1.37483 1.83311C-1.26025 1.14569 0 .11455 .34369 0 0-.11455-1.26025-1.14569-1.37483-1.83311"/>
<path transform="matrix(1,0,0,-1,10.12,95.812)" stroke-width=".59776" stroke-linecap="butt" stroke-dasharray="2.98883,2.98883" stroke-miterlimit="10" stroke-linejoin="miter" fill="none" stroke="#929292" d="M95.16101 0H102.03163"/>
<path transform="matrix(1,0,0,-1,112.151638,95.812)" stroke-width=".4782" stroke-linecap="round" stroke-linejoin="round" fill="none" stroke="#929292" d="M-1.37483 1.83311C-1.26025 1.14569 0 .11455 .34369 0 0-.11455-1.26025-1.14569-1.37483-1.83311"/>
<path transform="matrix(1,0,0,-1,10.12,95.812)" stroke-width=".59776" stroke-linecap="butt" stroke-dasharray="2.98883,2.98883" stroke-miterlimit="10" stroke-linejoin="miter" fill="none" stroke="#929292" d="M152.50682 0H158.72525"/>
<path transform="matrix(1,0,0,-1,168.84525,95.812)" stroke-width=".4782" stroke-linecap="round" stroke-linejoin="round" fill="none" stroke="#929292" d="M-1.37483 1.83311C-1.26025 1.14569 0 .11455 .34369 0 0-.11455-1.26025-1.14569-1.37483-1.83311"/>
<path transform="matrix(1,0,0,-1,10.12,95.812)" stroke-width=".59776" stroke-linecap="butt" stroke-dasharray="2.98883,2.98883" stroke-miterlimit="10" stroke-linejoin="miter" fill="none" stroke="#929292" d="M180.85363 0H187.07205"/>
<path transform="matrix(1,0,0,-1,197.19205,95.812)" stroke-width=".4782" stroke-linecap="round" stroke-linejoin="round" fill="none" stroke="#929292" d="M-1.37483 1.83311C-1.26025 1.14569 0 .11455 .34369 0 0-.11455-1.26025-1.14569-1.37483-1.83311"/>
<path transform="matrix(1,0,0,-1,10.12,95.812)" stroke-width=".59776" stroke-linecap="butt" stroke-dasharray="2.98883,2.98883" stroke-miterlimit="10" stroke-linejoin="miter" fill="none" stroke="#929292" d="M294.24089 0H300.4593"/>
<path transform="matrix(1,0,0,-1,310.57929,95.812)" stroke-width=".4782" stroke-linecap="round" stroke-linejoin="round" fill="none" stroke="#929292" d="M-1.37483 1.83311C-1.26025 1.14569 0 .11455 .34369 0 0-.11455-1.26025-1.14569-1.37483-1.83311"/>
<path transform="matrix(1,0,0,-1,10.12,95.812)" stroke-width=".59776" stroke-linecap="butt" stroke-dasharray="2.98883,2.98883" stroke-miterlimit="10" stroke-linejoin="miter" fill="none" stroke="#929292" d="M379.2813 0H385.49974"/>
<path transform="matrix(1,0,0,-1,395.61973,95.812)" stroke-width=".4782" stroke-linecap="round" stroke-linejoin="round" fill="none" stroke="#929292" d="M-1.37483 1.83311C-1.26025 1.14569 0 .11455 .34369 0 0-.11455-1.26025-1.14569-1.37483-1.83311"/>
<path transform="matrix(1,0,0,-1,10.12,95.812)" stroke-width=".59776" stroke-linecap="butt" stroke-dasharray="2.98883,2.98883" stroke-miterlimit="10" stroke-linejoin="miter" fill="none" stroke="#929292" d="M435.9749 0H442.19334"/>
<path transform="matrix(1,0,0,-1,452.31333,95.812)" stroke-width=".4782" stroke-linecap="round" stroke-linejoin="round" fill="none" stroke="#929292" d="M-1.37483 1.83311C-1.26025 1.14569 0 .11455 .34369 0 0-.11455-1.26025-1.14569-1.37483-1.83311"/>
<path transform="matrix(1,0,0,-1,10.12,95.812)" stroke-width=".59776" stroke-linecap="butt" stroke-dasharray="2.98883,2.98883" stroke-miterlimit="10" stroke-linejoin="miter" fill="none" stroke="#929292" d="M95.16084 42.52675 130.3786 42.5262"/>
<path transform="matrix(1,0,0,-1,140.4986,53.285799)" stroke-width=".4782" stroke-linecap="round" stroke-linejoin="round" fill="none" stroke="#929292" d="M-1.37483 1.83311C-1.26025 1.14569 0 .11455 .34369 0 0-.11455-1.26025-1.14569-1.37483-1.83311"/>
<path transform="matrix(1,0,0,-1,10.12,95.812)" stroke-width=".59776" stroke-linecap="butt" stroke-dasharray="2.98883,2.98883" stroke-miterlimit="10" stroke-linejoin="miter" fill="none" stroke="#929292" d="M152.50666 42.5262 215.41904 42.52585"/>
<path transform="matrix(1,0,0,-1,225.53903,53.286149)" stroke-width=".4782" stroke-linecap="round" stroke-linejoin="round" fill="none" stroke="#929292" d="M-1.37483 1.83311C-1.26025 1.14569 0 .11455 .34369 0 0-.11455-1.26025-1.14569-1.37483-1.83311"/>
<path transform="matrix(1,0,0,-1,10.12,95.812)" stroke-width=".59776" stroke-linecap="butt" stroke-dasharray="2.98883,2.98883" stroke-miterlimit="10" stroke-linejoin="miter" fill="none" stroke="#929292" d="M237.54708 42.52963 243.76586 42.52734"/>
<path transform="matrix(.99998,.00034,.00034,-.99998,253.88585,53.284639)" stroke-width=".4782" stroke-linecap="round" stroke-linejoin="round" fill="none" stroke="#929292" d="M-1.37483 1.83311C-1.26025 1.14569 0 .11455 .34369 0 0-.11455-1.26025-1.14569-1.37483-1.83311"/>
<path transform="matrix(1,0,0,-1,10.12,95.812)" stroke-width=".59776" stroke-linecap="butt" stroke-dasharray="2.98883,2.98883" stroke-miterlimit="10" stroke-linejoin="miter" fill="none" stroke="#929292" d="M294.2407 42.52684 328.80628 42.5262"/>
<path transform="matrix(1,0,0,-1,338.92628,53.285799)" stroke-width=".4782" stroke-linecap="round" stroke-linejoin="round" fill="none" stroke="#929292" d="M-1.37483 1.83311C-1.26025 1.14569 0 .11455 .34369 0 0-.11455-1.26025-1.14569-1.37483-1.83311"/>
<path transform="matrix(1,0,0,-1,10.12,95.812)" stroke-width=".59776" stroke-linecap="butt" stroke-dasharray="2.98883,2.98883" stroke-miterlimit="10" stroke-linejoin="miter" fill="none" stroke="#929292" d="M350.93434 42.52963 357.15309 42.52734"/>
<path transform="matrix(.99998,.00034,.00034,-.99998,367.27308,53.284639)" stroke-width=".4782" stroke-linecap="round" stroke-linejoin="round" fill="none" stroke="#929292" d="M-1.37483 1.83311C-1.26025 1.14569 0 .11455 .34369 0 0-.11455-1.26025-1.14569-1.37483-1.83311"/>
<path transform="matrix(1,0,0,-1,10.12,95.812)" stroke-width=".59776" stroke-linecap="butt" stroke-dasharray="2.98883,2.98883" stroke-miterlimit="10" stroke-linejoin="miter" fill="none" stroke="#929292" d="M435.97477 42.52684 470.54035 42.5262"/>
<path transform="matrix(1,0,0,-1,480.66035,53.285799)" stroke-width=".4782" stroke-linecap="round" stroke-linejoin="round" fill="none" stroke="#929292" d="M-1.37483 1.83311C-1.26025 1.14569 0 .11455 .34369 0 0-.11455-1.26025-1.14569-1.37483-1.83311"/>
<path transform="matrix(1,0,0,-1,10.12,95.812)" stroke-width=".59776" stroke-linecap="butt" stroke-dasharray="2.98883,2.98883" stroke-miterlimit="10" stroke-linejoin="miter" fill="none" stroke="#929292" d="M521.0152 42.52963 527.23397 42.52734"/>
<path transform="matrix(.99998,.00034,.00034,-.99998,537.35397,53.284639)" stroke-width=".4782" stroke-linecap="round" stroke-linejoin="round" fill="none" stroke="#929292" d="M-1.37483 1.83311C-1.26025 1.14569 0 .11455 .34369 0 0-.11455-1.26025-1.14569-1.37483-1.83311"/>
<path transform="matrix(1,0,0,-1,10.12,95.812)" stroke-width=".59776" stroke-linecap="butt" stroke-dasharray="2.98883,2.98883" stroke-miterlimit="10" stroke-linejoin="miter" fill="none" stroke="#929292" d="M95.16084 85.05124 272.11268 85.05127"/>
<path transform="matrix(1,0,0,-1,282.23268,10.760727)" stroke-width=".4782" stroke-linecap="round" stroke-linejoin="round" fill="none" stroke="#929292" d="M-1.37483 1.83311C-1.26025 1.14569 0 .11455 .34369 0 0-.11455-1.26025-1.14569-1.37483-1.83311"/>
<path transform="matrix(1,0,0,-1,10.12,95.812)" stroke-width=".59776" stroke-linecap="butt" stroke-dasharray="2.98883,2.98883" stroke-miterlimit="10" stroke-linejoin="miter" fill="none" stroke="#929292" d="M294.2407 85.0516H413.8467"/>
<path transform="matrix(1,0,0,-1,423.9667,10.760399)" stroke-width=".4782" stroke-linecap="round" stroke-linejoin="round" fill="none" stroke="#929292" d="M-1.37483 1.83311C-1.26025 1.14569 0 .11455 .34369 0 0-.11455-1.26025-1.14569-1.37483-1.83311"/>
<path transform="matrix(1,0,0,-1,10.12,95.812)" stroke-width=".59776" stroke-linecap="butt" stroke-dasharray="2.98883,2.98883" stroke-miterlimit="10" stroke-linejoin="miter" fill="none" stroke="#929292" d="M435.97477 85.05225 498.88713 85.05193"/>
<path transform="matrix(1,0,0,-1,509.0071,10.760063)" stroke-width=".4782" stroke-linecap="round" stroke-linejoin="round" fill="none" stroke="#929292" d="M-1.37483 1.83311C-1.26025 1.14569 0 .11455 .34369 0 0-.11455-1.26025-1.14569-1.37483-1.83311"/>
<path transform="matrix(1,0,0,-1,10.12,95.812)" stroke-width=".59776" stroke-linecap="butt" stroke-miterlimit="10" stroke-linejoin="miter" fill="none" stroke="#000000" d="M22.73305 34.10417 5.93622 8.90674"/>
<path transform="matrix(-.55463,.83203,.83203,.55463,16.05623,86.90526)" stroke-width=".4782" stroke-linecap="round" stroke-linejoin="round" fill="none" stroke="#000000" d="M-1.37483 1.83311C-1.26025 1.14569 0 .11455 .34369 0 0-.11455-1.26025-1.14569-1.37483-1.83311"/>
<path transform="matrix(1,0,0,-1,10.12,95.812)" stroke-width=".59776" stroke-linecap="butt" stroke-miterlimit="10" stroke-linejoin="miter" fill="none" stroke="#000000" d="M28.3468 32.40355V10.70465"/>
<path transform="matrix(0,1,1,0,38.4668,85.107349)" stroke-width=".4782" stroke-linecap="round" stroke-linejoin="round" fill="none" stroke="#000000" d="M-1.37483 1.83311C-1.26025 1.14569 0 .11455 .34369 0 0-.11455-1.26025-1.14569-1.37483-1.83311"/>
<path transform="matrix(1,0,0,-1,10.12,95.812)" stroke-width=".59776" stroke-linecap="butt" stroke-miterlimit="10" stroke-linejoin="miter" fill="none" stroke="#000000" d="M85.04042 32.40355V10.70465"/>
<path transform="matrix(0,1,1,0,95.16042,85.107349)" stroke-width=".4782" stroke-linecap="round" stroke-linejoin="round" fill="none" stroke="#000000" d="M-1.37483 1.83311C-1.26025 1.14569 0 .11455 .34369 0 0-.11455-1.26025-1.14569-1.37483-1.83311"/>
<path transform="matrix(1,0,0,-1,10.12,95.812)" stroke-width=".59776" stroke-linecap="butt" stroke-miterlimit="10" stroke-linejoin="miter" fill="none" stroke="#000000" d="M141.73404 31.75127V11.3569"/>
<path transform="matrix(0,1,1,0,151.85404,84.45509)" stroke-width=".4782" stroke-linecap="round" stroke-linejoin="round" fill="none" stroke="#000000" d="M-1.37483 1.83311C-1.26025 1.14569 0 .11455 .34369 0 0-.11455-1.26025-1.14569-1.37483-1.83311"/>
<path transform="matrix(1,0,0,-1,10.12,95.812)" stroke-width=".59776" stroke-linecap="butt" stroke-miterlimit="10" stroke-linejoin="miter" fill="none" stroke="#000000" d="M226.77448 31.75127V11.3569"/>
<path transform="matrix(0,1,1,0,236.89447,84.45509)" stroke-width=".4782" stroke-linecap="round" stroke-linejoin="round" fill="none" stroke="#000000" d="M-1.37483 1.83311C-1.26025 1.14569 0 .11455 .34369 0 0-.11455-1.26025-1.14569-1.37483-1.83311"/>
<path transform="matrix(1,0,0,-1,10.12,95.812)" stroke-width=".59776" stroke-linecap="butt" stroke-miterlimit="10" stroke-linejoin="miter" fill="none" stroke="#000000" d="M255.12128 31.75127V11.3569"/>
<path transform="matrix(0,1,1,0,265.24128,84.45509)" stroke-width=".4782" stroke-linecap="round" stroke-linejoin="round" fill="none" stroke="#000000" d="M-1.37483 1.83311C-1.26025 1.14569 0 .11455 .34369 0 0-.11455-1.26025-1.14569-1.37483-1.83311"/>
<path transform="matrix(1,0,0,-1,10.12,95.812)" stroke-width=".59776" stroke-linecap="butt" stroke-miterlimit="10" stroke-linejoin="miter" fill="none" stroke="#000000" d="M283.4681 31.75127V11.3569"/>
<path transform="matrix(0,1,1,0,293.5881,84.45509)" stroke-width=".4782" stroke-linecap="round" stroke-linejoin="round" fill="none" stroke="#000000" d="M-1.37483 1.83311C-1.26025 1.14569 0 .11455 .34369 0 0-.11455-1.26025-1.14569-1.37483-1.83311"/>
<path transform="matrix(1,0,0,-1,10.12,95.812)" stroke-width=".59776" stroke-linecap="butt" stroke-miterlimit="10" stroke-linejoin="miter" fill="none" stroke="#000000" d="M340.1617 31.75127V11.3569"/>
<path transform="matrix(0,1,1,0,350.2817,84.45509)" stroke-width=".4782" stroke-linecap="round" stroke-linejoin="round" fill="none" stroke="#000000" d="M-1.37483 1.83311C-1.26025 1.14569 0 .11455 .34369 0 0-.11455-1.26025-1.14569-1.37483-1.83311"/>
<path transform="matrix(1,0,0,-1,10.12,95.812)" stroke-width=".59776" stroke-linecap="butt" stroke-miterlimit="10" stroke-linejoin="miter" fill="none" stroke="#000000" d="M368.5085 31.75127V11.3569"/>
<path transform="matrix(0,1,1,0,378.6285,84.45509)" stroke-width=".4782" stroke-linecap="round" stroke-linejoin="round" fill="none" stroke="#000000" d="M-1.37483 1.83311C-1.26025 1.14569 0 .11455 .34369 0 0-.11455-1.26025-1.14569-1.37483-1.83311"/>
<path transform="matrix(1,0,0,-1,10.12,95.812)" stroke-width=".59776" stroke-linecap="butt" stroke-miterlimit="10" stroke-linejoin="miter" fill="none" stroke="#000000" d="M425.20213 31.75127V11.3569"/>
<path transform="matrix(0,1,1,0,435.3221,84.45509)" stroke-width=".4782" stroke-linecap="round" stroke-linejoin="round" fill="none" stroke="#000000" d="M-1.37483 1.83311C-1.26025 1.14569 0 .11455 .34369 0 0-.11455-1.26025-1.14569-1.37483-1.83311"/>
<path transform="matrix(1,0,0,-1,10.12,95.812)" stroke-width=".59776" stroke-linecap="butt" stroke-miterlimit="10" stroke-linejoin="miter" fill="none" stroke="#000000" d="M481.89579 31.75127V11.3569"/>
<path transform="matrix(0,1,1,0,492.01579,84.45509)" stroke-width=".4782" stroke-linecap="round" stroke-linejoin="round" fill="none" stroke="#000000" d="M-1.37483 1.83311C-1.26025 1.14569 0 .11455 .34369 0 0-.11455-1.26025-1.14569-1.37483-1.83311"/>
<path transform="matrix(1,0,0,-1,10.12,95.812)" stroke-width=".59776" stroke-linecap="butt" stroke-miterlimit="10" stroke-linejoin="miter" fill="none" stroke="#000000" d="M510.24259 31.75127V11.3569"/>
<path transform="matrix(0,1,1,0,520.3626,84.45509)" stroke-width=".4782" stroke-linecap="round" stroke-linejoin="round" fill="none" stroke="#000000" d="M-1.37483 1.83311C-1.26025 1.14569 0 .11455 .34369 0 0-.11455-1.26025-1.14569-1.37483-1.83311"/>
<path transform="matrix(1,0,0,-1,10.12,95.812)" stroke-width=".59776" stroke-linecap="butt" stroke-miterlimit="10" stroke-linejoin="miter" fill="none" stroke="#000000" d="M538.5894 31.75127V11.3569"/>
<path transform="matrix(0,1,1,0,548.7094,84.45509)" stroke-width=".4782" stroke-linecap="round" stroke-linejoin="round" fill="none" stroke="#000000" d="M-1.37483 1.83311C-1.26025 1.14569 0 .11455 .34369 0 0-.11455-1.26025-1.14569-1.37483-1.83311"/>
<path transform="matrix(1,0,0,-1,10.12,95.812)" stroke-width=".59776" stroke-linecap="butt" stroke-miterlimit="10" stroke-linejoin="miter" fill="none" stroke="#000000" d="M76.94362 78.97858 36.9086 48.94902"/>
<path transform="matrix(-.79996,.60002,.60002,.79996,47.028619,46.862977)" stroke-width=".4782" stroke-linecap="round" stroke-linejoin="round" fill="none" stroke="#000000" d="M-1.37483 1.83311C-1.26025 1.14569 0 .11455 .34369 0 0-.11455-1.26025-1.14569-1.37483-1.83311"/>
<path transform="matrix(1,0,0,-1,10.12,95.812)" stroke-width=".59776" stroke-linecap="butt" stroke-miterlimit="10" stroke-linejoin="miter" fill="none" stroke="#000000" d="M85.04042 74.92897V53.23004"/>
<path transform="matrix(0,1,1,0,95.16042,42.581956)" stroke-width=".4782" stroke-linecap="round" stroke-linejoin="round" fill="none" stroke="#000000" d="M-1.37483 1.83311C-1.26025 1.14569 0 .11455 .34369 0 0-.11455-1.26025-1.14569-1.37483-1.83311"/>
<path transform="matrix(1,0,0,-1,10.12,95.812)" stroke-width=".59776" stroke-linecap="butt" stroke-miterlimit="10" stroke-linejoin="miter" fill="none" stroke="#000000" d="M283.4681 74.27669V53.8823"/>
<path transform="matrix(0,1,1,0,293.5881,41.929697)" stroke-width=".4782" stroke-linecap="round" stroke-linejoin="round" fill="none" stroke="#000000" d="M-1.37483 1.83311C-1.26025 1.14569 0 .11455 .34369 0 0-.11455-1.26025-1.14569-1.37483-1.83311"/>
<path transform="matrix(1,0,0,-1,10.12,95.812)" stroke-width=".59776" stroke-linecap="butt" stroke-miterlimit="10" stroke-linejoin="miter" fill="none" stroke="#000000" d="M425.20213 74.27669V53.8823"/>
<path transform="matrix(0,1,1,0,435.3221,41.929697)" stroke-width=".4782" stroke-linecap="round" stroke-linejoin="round" fill="none" stroke="#000000" d="M-1.37483 1.83311C-1.26025 1.14569 0 .11455 .34369 0 0-.11455-1.26025-1.14569-1.37483-1.83311"/>
<path transform="matrix(1,0,0,-1,10.12,95.812)" stroke-width=".59776" stroke-linecap="butt" stroke-miterlimit="10" stroke-linejoin="miter" fill="none" stroke="#000000" d="M510.24259 74.27669V53.8823"/>
<path transform="matrix(0,1,1,0,520.3626,41.929697)" stroke-width=".4782" stroke-linecap="round" stroke-linejoin="round" fill="none" stroke="#000000" d="M-1.37483 1.83311C-1.26025 1.14569 0 .11455 .34369 0 0-.11455-1.26025-1.14569-1.37483-1.83311"/>
<text fill="#929292" xml:space="preserve" transform="matrix(1 0 -0 1 0 106.58499)" font-size="8.9664" font-family="CMR9"><tspan y="-92.923" x="566.396">3</tspan></text>
<text fill="#929292" xml:space="preserve" transform="matrix(1 0 -0 1 0 106.58499)" font-size="8.9664" font-family="CMR9"><tspan y="-50.403" x="566.396">2</tspan></text>
<text fill="#929292" xml:space="preserve" transform="matrix(1 0 -0 1 0 106.585)" font-size="8.9664" font-family="CMR9"><tspan y="-7.884" x="566.396">1</tspan></text>
</svg>
