<svg xmlns="http://www.w3.org/2000/svg" xmlns:xlink="http://www.w3.org/1999/xlink" version="1.1" width="470.657" height="70.153" viewBox="0 0 470.657 70.153">
<path transform="matrix(1,0,0,-1,8.501,63.423)" d="M256.59498 63.22441H196.95398C194.75304 63.22441 192.96887 61.44025 192.96887 59.2393V54.14793C192.96887 51.94699 194.75304 50.16283 196.95398 50.16283H256.59498C258.7959 50.16283 260.58006 51.94699 260.58006 54.14793V59.2393C260.58006 61.44025 258.7959 63.22441 256.59498 63.22441ZM209.77204 63.22441V50.16283M226.77446 63.22441V50.16283M243.77689 63.22441V50.16283" fill="#ff8000"/>
<path transform="matrix(1,0,0,-1,8.501,63.423)" stroke-width=".3985" stroke-linecap="butt" stroke-miterlimit="10" stroke-linejoin="miter" fill="none" stroke="#000000" d="M256.59498 63.22441H196.95398C194.75304 63.22441 192.96887 61.44025 192.96887 59.2393V54.14793C192.96887 51.94699 194.75304 50.16283 196.95398 50.16283H256.59498C258.7959 50.16283 260.58006 51.94699 260.58006 54.14793V59.2393C260.58006 61.44025 258.7959 63.22441 256.59498 63.22441ZM209.77204 63.22441V50.16283M226.77446 63.22441V50.16283M243.77689 63.22441V50.16283"/>
<text xml:space="preserve" transform="matrix(1 0 -0 1 .000015258789 70.153)" font-size="9.9626" font-family="CMR10"><tspan y="-60.213" x="207.279">7</tspan></text>
<text xml:space="preserve" transform="matrix(1 0 -0 1 .000015258789 70.153)" font-size="9.9626" font-family="CMR10"><tspan y="-60.213" x="221.79 226.77129">31</tspan></text>
<text xml:space="preserve" transform="matrix(1 0 -0 1 0 70.153)" font-size="9.9626" font-family="CMR10"><tspan y="-60.213" x="238.792 243.7733">53</tspan></text>
<text xml:space="preserve" transform="matrix(1 0 -0 1 .000015258789 70.153)" font-size="9.9626" font-family="CMR10"><tspan y="-60.213" x="255.795 260.7763">67</tspan></text>
<path transform="matrix(1,0,0,-1,8.501,63.423)" stroke-width=".3985" stroke-linecap="butt" stroke-miterlimit="10" stroke-linejoin="miter" fill="none" stroke="#000000" d="M24.15953 34.87761H15.52582C13.32487 34.87761 11.54071 33.09344 11.54071 30.8925V25.80112C11.54071 23.60019 13.32487 21.81601 15.52582 21.81601H24.15953C26.36047 21.81601 28.14464 23.60019 28.14464 25.80112V30.8925C28.14464 33.09344 26.36047 34.87761 24.15953 34.87761ZM11.54071 21.81601"/>
<text xml:space="preserve" transform="matrix(1 0 -0 1 0 70.153)" font-size="9.9626" font-family="CMR10"><tspan y="-31.866" x="25.853">3</tspan></text>
<path transform="matrix(1,0,0,-1,8.501,63.423)" d="M168.71967 34.87761H109.07869C106.87775 34.87761 105.09358 33.09344 105.09358 30.8925V25.80112C105.09358 23.60019 106.87775 21.81601 109.07869 21.81601H168.71967C170.92061 21.81601 172.70478 23.60019 172.70478 25.80112V30.8925C172.70478 33.09344 170.92061 34.87761 168.71967 34.87761ZM121.89674 34.87761V21.81601M138.89916 34.87761V21.81601M155.90158 34.87761V21.81601" fill="#ec008c"/>
<path transform="matrix(1,0,0,-1,8.501,63.423)" stroke-width=".3985" stroke-linecap="butt" stroke-miterlimit="10" stroke-linejoin="miter" fill="none" stroke="#000000" d="M168.71967 34.87761H109.07869C106.87775 34.87761 105.09358 33.09344 105.09358 30.8925V25.80112C105.09358 23.60019 106.87775 21.81601 109.07869 21.81601H168.71967C170.92061 21.81601 172.70478 23.60019 172.70478 25.80112V30.8925C172.70478 33.09344 170.92061 34.87761 168.71967 34.87761ZM121.89674 34.87761V21.81601M138.89916 34.87761V21.81601M155.90158 34.87761V21.81601"/>
<text xml:space="preserve" transform="matrix(1 0 -0 1 0 70.153)" font-size="9.9626" font-family="CMR10"><tspan y="-31.866" x="119.404">7</tspan></text>
<text xml:space="preserve" transform="matrix(1 0 -0 1 0 70.153)" font-size="9.9626" font-family="CMR10"><tspan y="-31.866" x="133.916 138.8973">13</tspan></text>
<text xml:space="preserve" transform="matrix(1 0 -0 1 .000015258789 70.153)" font-size="9.9626" font-family="CMR10"><tspan y="-31.866" x="150.918 155.89929">23</tspan></text>
<text xml:space="preserve" transform="matrix(1 0 -0 1 .000015258789 70.153)" font-size="9.9626" font-family="CMR10"><tspan y="-31.866" x="167.92 172.90129">29</tspan></text>
<path transform="matrix(1,0,0,-1,8.501,63.423)" d="M282.10984 34.87761H239.47129C237.27034 34.87761 235.48618 33.09344 235.48618 30.8925V25.80112C235.48618 23.60019 237.27034 21.81601 239.47129 21.81601H282.10984C284.3108 21.81601 286.09495 23.60019 286.09495 25.80112V30.8925C286.09495 33.09344 284.3108 34.87761 282.10984 34.87761ZM252.28934 34.87761V21.81601M269.29176 34.87761V21.81601" fill="#00aeef"/>
<path transform="matrix(1,0,0,-1,8.501,63.423)" stroke-width=".3985" stroke-linecap="butt" stroke-miterlimit="10" stroke-linejoin="miter" fill="none" stroke="#000000" d="M282.10984 34.87761H239.47129C237.27034 34.87761 235.48618 33.09344 235.48618 30.8925V25.80112C235.48618 23.60019 237.27034 21.81601 239.47129 21.81601H282.10984C284.3108 21.81601 286.09495 23.60019 286.09495 25.80112V30.8925C286.09495 33.09344 284.3108 34.87761 282.10984 34.87761ZM252.28934 34.87761V21.81601M269.29176 34.87761V21.81601"/>
<text xml:space="preserve" transform="matrix(1 0 -0 1 .000015258789 70.153)" font-size="9.9626" font-family="CMR10"><tspan y="-31.866" x="247.305 252.28629">31</tspan></text>
<text xml:space="preserve" transform="matrix(1 0 -0 1 0 70.153)" font-size="9.9626" font-family="CMR10"><tspan y="-31.866" x="264.307 269.2883">41</tspan></text>
<text xml:space="preserve" transform="matrix(1 0 -0 1 .000030517579 70.153)" font-size="9.9626" font-family="CMR10"><tspan y="-31.866" x="281.309 286.29029">43</tspan></text>
<path transform="matrix(1,0,0,-1,8.501,63.423)" d="M367.15318 34.87761H341.51704C339.3161 34.87761 337.53196 33.09344 337.53196 30.8925V25.80112C337.53196 23.60019 339.3161 21.81601 341.51704 21.81601H367.15318C369.3541 21.81601 371.13829 23.60019 371.13829 25.80112V30.8925C371.13829 33.09344 369.3541 34.87761 367.15318 34.87761ZM354.3351 34.87761V21.81601" fill="#ffdd88"/>
<path transform="matrix(1,0,0,-1,8.501,63.423)" stroke-width=".3985" stroke-linecap="butt" stroke-miterlimit="10" stroke-linejoin="miter" fill="none" stroke="#000000" d="M367.15318 34.87761H341.51704C339.3161 34.87761 337.53196 33.09344 337.53196 30.8925V25.80112C337.53196 23.60019 339.3161 21.81601 341.51704 21.81601H367.15318C369.3541 21.81601 371.13829 23.60019 371.13829 25.80112V30.8925C371.13829 33.09344 369.3541 34.87761 367.15318 34.87761ZM354.3351 34.87761V21.81601"/>
<text xml:space="preserve" transform="matrix(1 0 -0 1 0 70.153)" font-size="9.9626" font-family="CMR10"><tspan y="-31.866" x="349.349 354.3303">53</tspan></text>
<text xml:space="preserve" transform="matrix(1 0 -0 1 0 70.153)" font-size="9.9626" font-family="CMR10"><tspan y="-31.866" x="366.351 371.3323">61</tspan></text>
<path transform="matrix(1,0,0,-1,8.501,63.423)" d="M429.51609 34.87761H403.87995C401.679 34.87761 399.89485 33.09344 399.89485 30.8925V25.80112C399.89485 23.60019 401.679 21.81601 403.87995 21.81601H429.51609C431.717 21.81601 433.50117 23.60019 433.50117 25.80112V30.8925C433.50117 33.09344 431.717 34.87761 429.51609 34.87761ZM416.69798 34.87761V21.81601" fill="#99f7f1"/>
<path transform="matrix(1,0,0,-1,8.501,63.423)" stroke-width=".3985" stroke-linecap="butt" stroke-miterlimit="10" stroke-linejoin="miter" fill="none" stroke="#000000" d="M429.51609 34.87761H403.87995C401.679 34.87761 399.89485 33.09344 399.89485 30.8925V25.80112C399.89485 23.60019 401.679 21.81601 403.87995 21.81601H429.51609C431.717 21.81601 433.50117 23.60019 433.50117 25.80112V30.8925C433.50117 33.09344 431.717 34.87761 429.51609 34.87761ZM416.69798 34.87761V21.81601"/>
<text xml:space="preserve" transform="matrix(1 0 -0 1 0 70.153)" font-size="9.9626" font-family="CMR10"><tspan y="-31.866" x="411.711 416.6923">67</tspan></text>
<text xml:space="preserve" transform="matrix(1 0 -0 1 0 70.153)" font-size="9.9626" font-family="CMR10"><tspan y="-31.866" x="428.713 433.6943">71</tspan></text>
<path transform="matrix(1,0,0,-1,8.501,63.423)" stroke-width=".3985" stroke-linecap="butt" stroke-miterlimit="10" stroke-linejoin="miter" fill="none" stroke="#000000" d="M4.31685 6.53079H-4.31683C-6.51778 6.53079-8.30194 4.74663-8.30194 2.54568V-2.54567C-8.30194-4.74661-6.51778-6.53078-4.31683-6.53078H4.31685C6.51779-6.53078 8.30196-4.74661 8.30196-2.54567V2.54568C8.30196 4.74663 6.51779 6.53079 4.31685 6.53079ZM-8.30194-6.53078"/>
<text xml:space="preserve" transform="matrix(1 0 -0 1 .00000047683718 70.153)" font-size="9.9626" font-family="CMR10"><tspan y="-3.52" x="6.01">2</tspan></text>
<path transform="matrix(1,0,0,-1,8.501,63.423)" d="M48.25156 6.53079H22.61543C20.41449 6.53079 18.63033 4.74663 18.63033 2.54568V-2.54567C18.63033-4.74661 20.41449-6.53078 22.61543-6.53078H48.25156C50.4525-6.53078 52.23666-4.74661 52.23666-2.54567V2.54568C52.23666 4.74663 50.4525 6.53079 48.25156 6.53079ZM35.43347 6.53079V-6.53078" fill="#ccfc88"/>
<path transform="matrix(1,0,0,-1,8.501,63.423)" stroke-width=".3985" stroke-linecap="butt" stroke-miterlimit="10" stroke-linejoin="miter" fill="none" stroke="#000000" d="M48.25156 6.53079H22.61543C20.41449 6.53079 18.63033 4.74663 18.63033 2.54568V-2.54567C18.63033-4.74661 20.41449-6.53078 22.61543-6.53078H48.25156C50.4525-6.53078 52.23666-4.74661 52.23666-2.54567V2.54568C52.23666 4.74663 50.4525 6.53079 48.25156 6.53079ZM35.43347 6.53079V-6.53078"/>
<text xml:space="preserve" transform="matrix(1 0 -0 1 0 70.153)" font-size="9.9626" font-family="CMR10"><tspan y="-3.52" x="32.942">3</tspan></text>
<text xml:space="preserve" transform="matrix(1 0 -0 1 0 70.153)" font-size="9.9626" font-family="CMR10"><tspan y="-3.52" x="49.945">5</tspan></text>
<path transform="matrix(1,0,0,-1,8.501,63.423)" d="M90.77177 6.53079H65.13565C62.93471 6.53079 61.15054 4.74663 61.15054 2.54568V-2.54567C61.15054-4.74661 62.93471-6.53078 65.13565-6.53078H90.77177C92.97272-6.53078 94.75688-4.74661 94.75688-2.54567V2.54568C94.75688 4.74663 92.97272 6.53079 90.77177 6.53079ZM77.9537 6.53079V-6.53078" fill="#a189fa"/>
<path transform="matrix(1,0,0,-1,8.501,63.423)" stroke-width=".3985" stroke-linecap="butt" stroke-miterlimit="10" stroke-linejoin="miter" fill="none" stroke="#000000" d="M90.77177 6.53079H65.13565C62.93471 6.53079 61.15054 4.74663 61.15054 2.54568V-2.54567C61.15054-4.74661 62.93471-6.53078 65.13565-6.53078H90.77177C92.97272-6.53078 94.75688-4.74661 94.75688-2.54567V2.54568C94.75688 4.74663 92.97272 6.53079 90.77177 6.53079ZM77.9537 6.53079V-6.53078"/>
<text xml:space="preserve" transform="matrix(1 0 -0 1 0 70.153)" font-size="9.9626" font-family="CMR10"><tspan y="-3.52" x="75.462">7</tspan></text>
<text xml:space="preserve" transform="matrix(1 0 -0 1 0 70.153)" font-size="9.9626" font-family="CMR10"><tspan y="-3.52" x="89.974 94.9553">11</tspan></text>
<path transform="matrix(1,0,0,-1,8.501,63.423)" d="M150.29735 6.53079H107.6588C105.45786 6.53079 103.67369 4.74663 103.67369 2.54568V-2.54567C103.67369-4.74661 105.45786-6.53078 107.6588-6.53078H150.29735C152.49829-6.53078 154.28246-4.74661 154.28246-2.54567V2.54568C154.28246 4.74663 152.49829 6.53079 150.29735 6.53079ZM120.47684 6.53079V-6.53078M137.47927 6.53079V-6.53078" fill="#ffbfbf"/>
<path transform="matrix(1,0,0,-1,8.501,63.423)" stroke-width=".3985" stroke-linecap="butt" stroke-miterlimit="10" stroke-linejoin="miter" fill="none" stroke="#000000" d="M150.29735 6.53079H107.6588C105.45786 6.53079 103.67369 4.74663 103.67369 2.54568V-2.54567C103.67369-4.74661 105.45786-6.53078 107.6588-6.53078H150.29735C152.49829-6.53078 154.28246-4.74661 154.28246-2.54567V2.54568C154.28246 4.74663 152.49829 6.53079 150.29735 6.53079ZM120.47684 6.53079V-6.53078M137.47927 6.53079V-6.53078"/>
<text xml:space="preserve" transform="matrix(1 0 -0 1 -.0000076293949 70.153)" font-size="9.9626" font-family="CMR10"><tspan y="-3.52" x="115.494 120.4753">13</tspan></text>
<text xml:space="preserve" transform="matrix(1 0 -0 1 0 70.153)" font-size="9.9626" font-family="CMR10"><tspan y="-3.52" x="132.496 137.4773">17</tspan></text>
<text xml:space="preserve" transform="matrix(1 0 -0 1 0 70.153)" font-size="9.9626" font-family="CMR10"><tspan y="-3.52" x="149.498 154.4793">19</tspan></text>
<path transform="matrix(1,0,0,-1,8.501,63.423)" stroke-width=".3985" stroke-linecap="butt" stroke-miterlimit="10" stroke-linejoin="miter" fill="none" stroke="#000000" d="M174.3977 6.53079H165.764C163.56307 6.53079 161.7789 4.74663 161.7789 2.54568V-2.54567C161.7789-4.74661 163.56307-6.53078 165.764-6.53078H174.3977C176.59865-6.53078 178.38282-4.74661 178.38282-2.54567V2.54568C178.38282 4.74663 176.59865 6.53079 174.3977 6.53079ZM161.7789-6.53078"/>
<text xml:space="preserve" transform="matrix(1 0 -0 1 0 70.153)" font-size="9.9626" font-family="CMR10"><tspan y="-3.52" x="173.598 178.5793">23</tspan></text>
<path transform="matrix(1,0,0,-1,8.501,63.423)" stroke-width=".3985" stroke-linecap="butt" stroke-miterlimit="10" stroke-linejoin="miter" fill="none" stroke="#000000" d="M199.90966 6.53079H191.27596C189.07501 6.53079 187.29085 4.74663 187.29085 2.54568V-2.54567C187.29085-4.74661 189.07501-6.53078 191.27596-6.53078H199.90966C202.1106-6.53078 203.89476-4.74661 203.89476-2.54567V2.54568C203.89476 4.74663 202.1106 6.53079 199.90966 6.53079ZM187.29085-6.53078"/>
<text xml:space="preserve" transform="matrix(1 0 -0 1 0 70.153)" font-size="9.9626" font-family="CMR10"><tspan y="-3.52" x="199.11 204.0913">29</tspan></text>
<path transform="matrix(1,0,0,-1,8.501,63.423)" d="M242.42739 6.53079H216.79126C214.59032 6.53079 212.80615 4.74663 212.80615 2.54568V-2.54567C212.80615-4.74661 214.59032-6.53078 216.79126-6.53078H242.42739C244.62833-6.53078 246.41249-4.74661 246.41249-2.54567V2.54568C246.41249 4.74663 244.62833 6.53079 242.42739 6.53079ZM229.6093 6.53079V-6.53078" fill="#92f7b7"/>
<path transform="matrix(1,0,0,-1,8.501,63.423)" stroke-width=".3985" stroke-linecap="butt" stroke-miterlimit="10" stroke-linejoin="miter" fill="none" stroke="#000000" d="M242.42739 6.53079H216.79126C214.59032 6.53079 212.80615 4.74663 212.80615 2.54568V-2.54567C212.80615-4.74661 214.59032-6.53078 216.79126-6.53078H242.42739C244.62833-6.53078 246.41249-4.74661 246.41249-2.54567V2.54568C246.41249 4.74663 244.62833 6.53079 242.42739 6.53079ZM229.6093 6.53079V-6.53078"/>
<text xml:space="preserve" transform="matrix(1 0 -0 1 0 70.153)" font-size="9.9626" font-family="CMR10"><tspan y="-3.52" x="224.625 229.6063">31</tspan></text>
<text xml:space="preserve" transform="matrix(1 0 -0 1 .000015258789 70.153)" font-size="9.9626" font-family="CMR10"><tspan y="-3.52" x="241.627 246.60829">37</tspan></text>
<path transform="matrix(1,0,0,-1,8.501,63.423)" stroke-width=".3985" stroke-linecap="butt" stroke-miterlimit="10" stroke-linejoin="miter" fill="none" stroke="#000000" d="M267.94227 6.53079H259.30857C257.1076 6.53079 255.32346 4.74663 255.32346 2.54568V-2.54567C255.32346-4.74661 257.1076-6.53078 259.30857-6.53078H267.94227C270.1432-6.53078 271.92738-4.74661 271.92738-2.54567V2.54568C271.92738 4.74663 270.1432 6.53079 267.94227 6.53079ZM255.32346-6.53078"/>
<text xml:space="preserve" transform="matrix(1 0 -0 1 0 70.153)" font-size="9.9626" font-family="CMR10"><tspan y="-3.52" x="267.142 272.1233">41</tspan></text>
<path transform="matrix(1,0,0,-1,8.501,63.423)" d="M310.45957 6.53079H284.82344C282.62248 6.53079 280.83833 4.74663 280.83833 2.54568V-2.54567C280.83833-4.74661 282.62248-6.53078 284.82344-6.53078H310.45957C312.6605-6.53078 314.44468-4.74661 314.44468-2.54567V2.54568C314.44468 4.74663 312.6605 6.53079 310.45957 6.53079ZM297.64149 6.53079V-6.53078" fill="#f79297"/>
<path transform="matrix(1,0,0,-1,8.501,63.423)" stroke-width=".3985" stroke-linecap="butt" stroke-miterlimit="10" stroke-linejoin="miter" fill="none" stroke="#000000" d="M310.45957 6.53079H284.82344C282.62248 6.53079 280.83833 4.74663 280.83833 2.54568V-2.54567C280.83833-4.74661 282.62248-6.53078 284.82344-6.53078H310.45957C312.6605-6.53078 314.44468-4.74661 314.44468-2.54567V2.54568C314.44468 4.74663 312.6605 6.53079 310.45957 6.53079ZM297.64149 6.53079V-6.53078"/>
<text xml:space="preserve" transform="matrix(1 0 -0 1 0 70.153)" font-size="9.9626" font-family="CMR10"><tspan y="-3.52" x="292.656 297.6373">43</tspan></text>
<text xml:space="preserve" transform="matrix(1 0 -0 1 .000030517579 70.153)" font-size="9.9626" font-family="CMR10"><tspan y="-3.52" x="309.658 314.63929">47</tspan></text>
<path transform="matrix(1,0,0,-1,8.501,63.423)" d="M352.97978 6.53079H327.34364C325.1427 6.53079 323.35856 4.74663 323.35856 2.54568V-2.54567C323.35856-4.74661 325.1427-6.53078 327.34364-6.53078H352.97978C355.18074-6.53078 356.9649-4.74661 356.9649-2.54567V2.54568C356.9649 4.74663 355.18074 6.53079 352.97978 6.53079ZM340.1617 6.53079V-6.53078" fill="#b5bfff"/>
<path transform="matrix(1,0,0,-1,8.501,63.423)" stroke-width=".3985" stroke-linecap="butt" stroke-miterlimit="10" stroke-linejoin="miter" fill="none" stroke="#000000" d="M352.97978 6.53079H327.34364C325.1427 6.53079 323.35856 4.74663 323.35856 2.54568V-2.54567C323.35856-4.74661 325.1427-6.53078 327.34364-6.53078H352.97978C355.18074-6.53078 356.9649-4.74661 356.9649-2.54567V2.54568C356.9649 4.74663 355.18074 6.53079 352.97978 6.53079ZM340.1617 6.53079V-6.53078"/>
<text xml:space="preserve" transform="matrix(1 0 -0 1 0 70.153)" font-size="9.9626" font-family="CMR10"><tspan y="-3.52" x="335.176 340.1573">53</tspan></text>
<text xml:space="preserve" transform="matrix(1 0 -0 1 0 70.153)" font-size="9.9626" font-family="CMR10"><tspan y="-3.52" x="352.178 357.1593">59</tspan></text>
<path transform="matrix(1,0,0,-1,8.501,63.423)" stroke-width=".3985" stroke-linecap="butt" stroke-miterlimit="10" stroke-linejoin="miter" fill="none" stroke="#000000" d="M379.91209 6.53079H371.27839C369.07743 6.53079 367.29328 4.74663 367.29328 2.54568V-2.54567C367.29328-4.74661 369.07743-6.53078 371.27839-6.53078H379.91209C382.113-6.53078 383.8972-4.74661 383.8972-2.54567V2.54568C383.8972 4.74663 382.113 6.53079 379.91209 6.53079ZM367.29328-6.53078"/>
<text xml:space="preserve" transform="matrix(1 0 -0 1 .000030517579 70.153)" font-size="9.9626" font-family="CMR10"><tspan y="-3.52" x="379.11 384.09129">61</tspan></text>
<path transform="matrix(1,0,0,-1,8.501,63.423)" stroke-width=".3985" stroke-linecap="butt" stroke-miterlimit="10" stroke-linejoin="miter" fill="none" stroke="#000000" d="M408.25889 6.53079H399.62519C397.42424 6.53079 395.64009 4.74663 395.64009 2.54568V-2.54567C395.64009-4.74661 397.42424-6.53078 399.62519-6.53078H408.25889C410.4598-6.53078 412.244-4.74661 412.244-2.54567V2.54568C412.244 4.74663 410.4598 6.53079 408.25889 6.53079ZM395.64009-6.53078"/>
<text xml:space="preserve" transform="matrix(1 0 -0 1 0 70.153)" font-size="9.9626" font-family="CMR10"><tspan y="-3.52" x="407.457 412.4383">67</tspan></text>
<path transform="matrix(1,0,0,-1,8.501,63.423)" stroke-width=".3985" stroke-linecap="butt" stroke-miterlimit="10" stroke-linejoin="miter" fill="none" stroke="#000000" d="M435.1883 6.53079H426.55458C424.3536 6.53079 422.56947 4.74663 422.56947 2.54568V-2.54567C422.56947-4.74661 424.3536-6.53078 426.55458-6.53078H435.1883C437.38923-6.53078 439.1734-4.74661 439.1734-2.54567V2.54568C439.1734 4.74663 437.38923 6.53079 435.1883 6.53079ZM422.56947-6.53078"/>
<text xml:space="preserve" transform="matrix(1 0 -0 1 .000030517579 70.153)" font-size="9.9626" font-family="CMR10"><tspan y="-3.52" x="434.386 439.36729">71</tspan></text>
<path transform="matrix(1,0,0,-1,8.501,63.423)" stroke-width=".59776" stroke-linecap="butt" stroke-miterlimit="10" stroke-linejoin="miter" fill="none" stroke="#000000" d="M192.76963 49.96358 20.42332 35.12683"/>
<path transform="matrix(-.99628,.08575,.08575,.99628,28.92432,28.29615)" stroke-width=".4782" stroke-linecap="round" stroke-linejoin="round" fill="none" stroke="#000000" d="M-1.37483 1.83311C-1.26025 1.14569 0 .11455 .34369 0 0-.11455-1.26025-1.14569-1.37483-1.83311"/>
<path transform="matrix(1,0,0,-1,8.501,63.423)" stroke-width=".59776" stroke-linecap="butt" stroke-miterlimit="10" stroke-linejoin="miter" fill="none" stroke="#000000" d="M209.77204 49.96358 139.46952 35.19664"/>
<path transform="matrix(-.9786,.20555,.20555,.9786,147.97054,28.226342)" stroke-width=".4782" stroke-linecap="round" stroke-linejoin="round" fill="none" stroke="#000000" d="M-1.37483 1.83311C-1.26025 1.14569 0 .11455 .34369 0 0-.11455-1.26025-1.14569-1.37483-1.83311"/>
<path transform="matrix(1,0,0,-1,8.501,63.423)" stroke-width=".59776" stroke-linecap="butt" stroke-miterlimit="10" stroke-linejoin="miter" fill="none" stroke="#000000" d="M226.77446 49.96358 260.25669 35.3105"/>
<path transform="matrix(.91606,.4009,.4009,-.91606,268.75767,28.11248)" stroke-width=".4782" stroke-linecap="round" stroke-linejoin="round" fill="none" stroke="#000000" d="M-1.37483 1.83311C-1.26025 1.14569 0 .11455 .34369 0 0-.11455-1.26025-1.14569-1.37483-1.83311"/>
<path transform="matrix(1,0,0,-1,8.501,63.423)" stroke-width=".59776" stroke-linecap="butt" stroke-miterlimit="10" stroke-linejoin="miter" fill="none" stroke="#000000" d="M243.77689 49.96358 353.7575 35.15462"/>
<path transform="matrix(.99101,.13342,.13342,-.99101,362.25849,28.26838)" stroke-width=".4782" stroke-linecap="round" stroke-linejoin="round" fill="none" stroke="#000000" d="M-1.37483 1.83311C-1.26025 1.14569 0 .11455 .34369 0 0-.11455-1.26025-1.14569-1.37483-1.83311"/>
<path transform="matrix(1,0,0,-1,8.501,63.423)" stroke-width=".59776" stroke-linecap="butt" stroke-miterlimit="10" stroke-linejoin="miter" fill="none" stroke="#000000" d="M260.77934 49.96358 416.11784 35.13222"/>
<path transform="matrix(.99542,.09502,.09502,-.99542,424.61885,28.290772)" stroke-width=".4782" stroke-linecap="round" stroke-linejoin="round" fill="none" stroke="#000000" d="M-1.37483 1.83311C-1.26025 1.14569 0 .11455 .34369 0 0-.11455-1.26025-1.14569-1.37483-1.83311"/>
<path transform="matrix(1,0,0,-1,8.501,63.423)" stroke-width=".59776" stroke-linecap="butt" stroke-miterlimit="10" stroke-linejoin="miter" fill="none" stroke="#000000" d="M11.34146 21.61676 .35316 7.19363"/>
<path transform="matrix(-.60597,.79543,.79543,.60597,8.85418,56.22935)" stroke-width=".4782" stroke-linecap="round" stroke-linejoin="round" fill="none" stroke="#000000" d="M-1.37483 1.83311C-1.26025 1.14569 0 .11455 .34369 0 0-.11455-1.26025-1.14569-1.37483-1.83311"/>
<path transform="matrix(1,0,0,-1,8.501,63.423)" stroke-width=".59776" stroke-linecap="butt" stroke-miterlimit="10" stroke-linejoin="miter" fill="none" stroke="#000000" d="M28.34389 21.61676 35.1829 7.25621"/>
<path transform="matrix(.42993,.9028,.9028,-.42993,43.68389,56.16677)" stroke-width=".4782" stroke-linecap="round" stroke-linejoin="round" fill="none" stroke="#000000" d="M-1.37483 1.83311C-1.26025 1.14569 0 .11455 .34369 0 0-.11455-1.26025-1.14569-1.37483-1.83311"/>
<path transform="matrix(1,0,0,-1,8.501,63.423)" stroke-width=".59776" stroke-linecap="butt" stroke-miterlimit="10" stroke-linejoin="miter" fill="none" stroke="#000000" d="M121.89674 21.61676 78.50569 6.91704"/>
<path transform="matrix(-.9471,.32086,.32086,.9471,87.0067,56.50596)" stroke-width=".4782" stroke-linecap="round" stroke-linejoin="round" fill="none" stroke="#000000" d="M-1.37483 1.83311C-1.26025 1.14569 0 .11455 .34369 0 0-.11455-1.26025-1.14569-1.37483-1.83311"/>
<path transform="matrix(1,0,0,-1,8.501,63.423)" stroke-width=".59776" stroke-linecap="butt" stroke-miterlimit="10" stroke-linejoin="miter" fill="none" stroke="#000000" d="M138.89916 21.61676 129.30124 7.21501"/>
<path transform="matrix(-.55452,.8321,.8321,.55452,137.80225,56.20799)" stroke-width=".4782" stroke-linecap="round" stroke-linejoin="round" fill="none" stroke="#000000" d="M-1.37483 1.83311C-1.26025 1.14569 0 .11455 .34369 0 0-.11455-1.26025-1.14569-1.37483-1.83311"/>
<path transform="matrix(1,0,0,-1,8.501,63.423)" stroke-width=".59776" stroke-linecap="butt" stroke-miterlimit="10" stroke-linejoin="miter" fill="none" stroke="#000000" d="M155.90158 21.61676 169.67891 7.15205"/>
<path transform="matrix(.68965,.72408,.72408,-.68965,178.1799,56.27095)" stroke-width=".4782" stroke-linecap="round" stroke-linejoin="round" fill="none" stroke="#000000" d="M-1.37483 1.83311C-1.26025 1.14569 0 .11455 .34369 0 0-.11455-1.26025-1.14569-1.37483-1.83311"/>
<path transform="matrix(1,0,0,-1,8.501,63.423)" stroke-width=".59776" stroke-linecap="butt" stroke-miterlimit="10" stroke-linejoin="miter" fill="none" stroke="#000000" d="M172.90402 21.61676 195.10553 7.04974"/>
<path transform="matrix(.83606,.54855,.54855,-.83606,203.60652,56.37324)" stroke-width=".4782" stroke-linecap="round" stroke-linejoin="round" fill="none" stroke="#000000" d="M-1.37483 1.83311C-1.26025 1.14569 0 .11455 .34369 0 0-.11455-1.26025-1.14569-1.37483-1.83311"/>
<path transform="matrix(1,0,0,-1,8.501,63.423)" stroke-width=".59776" stroke-linecap="butt" stroke-miterlimit="10" stroke-linejoin="miter" fill="none" stroke="#000000" d="M252.28934 21.61676 230.09651 7.04985"/>
<path transform="matrix(-.83595,.54872,.54872,.83595,238.59754,56.37313)" stroke-width=".4782" stroke-linecap="round" stroke-linejoin="round" fill="none" stroke="#000000" d="M-1.37483 1.83311C-1.26025 1.14569 0 .11455 .34369 0 0-.11455-1.26025-1.14569-1.37483-1.83311"/>
<path transform="matrix(1,0,0,-1,8.501,63.423)" stroke-width=".59776" stroke-linecap="butt" stroke-miterlimit="10" stroke-linejoin="miter" fill="none" stroke="#000000" d="M269.29176 21.61676 263.83274 7.27472"/>
<path transform="matrix(-.3557,.93456,.93456,.3557,272.33375,56.14827)" stroke-width=".4782" stroke-linecap="round" stroke-linejoin="round" fill="none" stroke="#000000" d="M-1.37483 1.83311C-1.26025 1.14569 0 .11455 .34369 0 0-.11455-1.26025-1.14569-1.37483-1.83311"/>
<path transform="matrix(1,0,0,-1,8.501,63.423)" stroke-width=".59776" stroke-linecap="butt" stroke-miterlimit="10" stroke-linejoin="miter" fill="none" stroke="#000000" d="M286.2942 21.61676 297.28819 7.19354"/>
<path transform="matrix(.60619,.79527,.79527,-.60619,305.78916,56.22944)" stroke-width=".4782" stroke-linecap="round" stroke-linejoin="round" fill="none" stroke="#000000" d="M-1.37483 1.83311C-1.26025 1.14569 0 .11455 .34369 0 0-.11455-1.26025-1.14569-1.37483-1.83311"/>
<path transform="matrix(1,0,0,-1,8.501,63.423)" stroke-width=".59776" stroke-linecap="butt" stroke-miterlimit="10" stroke-linejoin="miter" fill="none" stroke="#000000" d="M354.3351 21.61676 340.56355 7.15213"/>
<path transform="matrix(-.68951,.72421,.72421,.68951,349.06455,56.27087)" stroke-width=".4782" stroke-linecap="round" stroke-linejoin="round" fill="none" stroke="#000000" d="M-1.37483 1.83311C-1.26025 1.14569 0 .11455 .34369 0 0-.11455-1.26025-1.14569-1.37483-1.83311"/>
<path transform="matrix(1,0,0,-1,8.501,63.423)" stroke-width=".59776" stroke-linecap="butt" stroke-miterlimit="10" stroke-linejoin="miter" fill="none" stroke="#000000" d="M371.33757 21.61676 375.43498 7.29039"/>
<path transform="matrix(.27495,.96143,.96143,-.27495,383.93598,56.13261)" stroke-width=".4782" stroke-linecap="round" stroke-linejoin="round" fill="none" stroke="#000000" d="M-1.37483 1.83311C-1.26025 1.14569 0 .11455 .34369 0 0-.11455-1.26025-1.14569-1.37483-1.83311"/>
<path transform="matrix(1,0,0,-1,8.501,63.423)" stroke-width=".59776" stroke-linecap="butt" stroke-miterlimit="10" stroke-linejoin="miter" fill="none" stroke="#000000" d="M416.69798 21.61676 404.3212 7.17259"/>
<path transform="matrix(-.65063,.75932,.75932,.65063,412.82225,56.2504)" stroke-width=".4782" stroke-linecap="round" stroke-linejoin="round" fill="none" stroke="#000000" d="M-1.37483 1.83311C-1.26025 1.14569 0 .11455 .34369 0 0-.11455-1.26025-1.14569-1.37483-1.83311"/>
<path transform="matrix(1,0,0,-1,8.501,63.423)" stroke-width=".59776" stroke-linecap="butt" stroke-miterlimit="10" stroke-linejoin="miter" fill="none" stroke="#000000" d="M433.7004 21.61676 430.9802 7.3026"/>
<path transform="matrix(-.18666,.98238,.98238,.18666,439.4812,56.12039)" stroke-width=".4782" stroke-linecap="round" stroke-linejoin="round" fill="none" stroke="#000000" d="M-1.37483 1.83311C-1.26025 1.14569 0 .11455 .34369 0 0-.11455-1.26025-1.14569-1.37483-1.83311"/>
<text fill="#929292" xml:space="preserve" transform="matrix(1 0 -0 1 0 70.153)" font-size="8.9664" font-family="CMR9"><tspan y="-60.534" x="462.729">3</tspan></text>
<text fill="#929292" xml:space="preserve" transform="matrix(1 0 -0 1 0 70.153)" font-size="8.9664" font-family="CMR9"><tspan y="-32.187" x="462.729">2</tspan></text>
<text fill="#929292" xml:space="preserve" transform="matrix(1 0 -0 1 0 70.153)" font-size="8.9664" font-family="CMR9"><tspan y="-3.841" x="462.729">1</tspan></text>
</svg>
