<?xml version="1.0" encoding="UTF-8" standalone="no"?>
<svg
   xmlns:dc="http://purl.org/dc/elements/1.1/"
   xmlns:cc="http://creativecommons.org/ns#"
   xmlns:rdf="http://www.w3.org/1999/02/22-rdf-syntax-ns#"
   xmlns:svg="http://www.w3.org/2000/svg"
   xmlns="http://www.w3.org/2000/svg"
   viewBox="0 0 512.5387 142.11333"
   height="142.11333"
   width="512.5387"
   xml:space="preserve"
   id="svg2"
   version="1.1"><metadata
     id="metadata8"><rdf:RDF><cc:Work
         rdf:about=""><dc:format>image/svg+xml</dc:format><dc:type
           rdf:resource="http://purl.org/dc/dcmitype/StillImage" /></cc:Work></rdf:RDF></metadata><defs
     id="defs6" /><g
     transform="matrix(1.3333333,0,0,-1.3333333,0,142.11333)"
     id="g10"><g
       transform="translate(-1.218,10.773)"
       id="g12"><g
         id="g14"><g
           id="g16" /><g
           id="g18"><g
             id="g20"><g
               id="g22"><path
                 id="path24"
                 style="fill:none;stroke:#000000;stroke-width:0.3985;stroke-linecap:butt;stroke-linejoin:miter;stroke-miterlimit:10;stroke-dasharray:none;stroke-opacity:1"
                 d="m 21.2601,0 c 0,5.47948 -4.44186,9.92134 -9.92134,9.92134 C 5.85927,9.92134 1.4174,5.47948 1.4174,0 c 0,-5.47948 4.44187,-9.92134 9.92136,-9.92134 5.47948,0 9.92134,4.44186 9.92134,9.92134 z" /></g><g
               transform="translate(8.848,-3.211)"
               id="g26"><g
                 id="g28"><g
                   transform="translate(-7.63,-7.562)"
                   id="g30"><text
                     id="text34"
                     style="font-variant:normal;font-weight:normal;font-size:9.96259975px;font-family:CMR10;-inkscape-font-specification:CMR10;writing-mode:lr-tb;fill:#000000;fill-opacity:1;fill-rule:nonzero;stroke:none"
                     transform="matrix(1,0,0,-1,7.63,7.562)"><tspan
                       id="tspan32"
                       y="0"
                       x="0">2</tspan></text>
<g
                     transform="translate(7.63,7.562)"
                     id="g36" /></g></g><g
                 transform="translate(-8.848,3.211)"
                 id="g38" /></g></g><g
             id="g40"><g
               id="g42"><path
                 id="path44"
                 style="fill:none;stroke:#000000;stroke-width:0.3985;stroke-linecap:butt;stroke-linejoin:miter;stroke-miterlimit:10;stroke-dasharray:none;stroke-opacity:1"
                 d="m 32.59886,42.5202 c 0,5.47948 -4.44186,9.92134 -9.92134,9.92134 -5.47949,0 -9.92136,-4.44186 -9.92136,-9.92134 0,-5.47947 4.44187,-9.92134 9.92136,-9.92134 5.47948,0 9.92134,4.44187 9.92134,9.92134 z" /></g><g
               transform="translate(20.186,39.309)"
               id="g46"><g
                 id="g48"><g
                   transform="translate(-18.968,-50.082)"
                   id="g50"><text
                     id="text54"
                     style="font-variant:normal;font-weight:normal;font-size:9.96259975px;font-family:CMR10;-inkscape-font-specification:CMR10;writing-mode:lr-tb;fill:#000000;fill-opacity:1;fill-rule:nonzero;stroke:none"
                     transform="matrix(1,0,0,-1,18.968,50.082)"><tspan
                       id="tspan52"
                       y="0"
                       x="0">3</tspan></text>
<g
                     transform="translate(18.968,50.082)"
                     id="g56" /></g></g><g
                 transform="translate(-20.186,-39.309)"
                 id="g58" /></g></g><g
             id="g60"><g
               id="g62"><path
                 id="path64"
                 style="fill:none;stroke:#000000;stroke-width:0.3985;stroke-linecap:butt;stroke-linejoin:miter;stroke-miterlimit:10;stroke-dasharray:none;stroke-opacity:1"
                 d="m 43.93762,0 c 0,5.47948 -4.44186,9.92134 -9.92134,9.92134 -5.47949,0 -9.92136,-4.44186 -9.92136,-9.92134 0,-5.47948 4.44187,-9.92134 9.92136,-9.92134 5.47948,0 9.92134,4.44186 9.92134,9.92134 z" /></g><g
               transform="translate(31.525,-3.211)"
               id="g66"><g
                 id="g68"><g
                   transform="translate(-30.307,-7.562)"
                   id="g70"><text
                     id="text74"
                     style="font-variant:normal;font-weight:normal;font-size:9.96259975px;font-family:CMR10;-inkscape-font-specification:CMR10;writing-mode:lr-tb;fill:#000000;fill-opacity:1;fill-rule:nonzero;stroke:none"
                     transform="matrix(1,0,0,-1,30.307,7.562)"><tspan
                       id="tspan72"
                       y="0"
                       x="0">5</tspan></text>
<g
                     transform="translate(30.307,7.562)"
                     id="g76" /></g></g><g
                 transform="translate(-31.525,3.211)"
                 id="g78" /></g></g><g
             id="g80"><g
               id="g82"><path
                 id="path84"
                 style="fill:#ff8000;fill-opacity:1;fill-rule:nonzero;stroke:#000000;stroke-width:0.3985;stroke-linecap:butt;stroke-linejoin:miter;stroke-miterlimit:10;stroke-dasharray:none;stroke-opacity:1"
                 d="m 55.2764,85.04042 c 0,5.47948 -4.44187,9.92134 -9.92134,9.92134 -5.4795,0 -9.92136,-4.44186 -9.92136,-9.92134 0,-5.47948 4.44186,-9.92134 9.92136,-9.92134 5.47947,0 9.92134,4.44186 9.92134,9.92134 z" /></g><g
               transform="translate(42.864,81.829)"
               id="g86"><g
                 id="g88"><g
                   transform="translate(-41.646,-92.602)"
                   id="g90"><text
                     id="text94"
                     style="font-variant:normal;font-weight:normal;font-size:9.96259975px;font-family:CMR10;-inkscape-font-specification:CMR10;writing-mode:lr-tb;fill:#000000;fill-opacity:1;fill-rule:nonzero;stroke:none"
                     transform="matrix(1,0,0,-1,41.646,92.602)"><tspan
                       id="tspan92"
                       y="0"
                       x="0">7</tspan></text>
<g
                     transform="translate(41.646,92.602)"
                     id="g96" /></g></g><g
                 transform="translate(-42.864,-81.829)"
                 id="g98" /></g></g><g
             id="g100"><g
               id="g102"><path
                 id="path104"
                 style="fill:none;stroke:#000000;stroke-width:0.3985;stroke-linecap:butt;stroke-linejoin:miter;stroke-miterlimit:10;stroke-dasharray:none;stroke-opacity:1"
                 d="m 78.60611,0 c 0,5.83965 -4.73387,10.57352 -10.57351,10.57352 -5.83967,0 -10.57354,-4.73387 -10.57354,-10.57352 0,-5.83965 4.73387,-10.57352 10.57354,-10.57352 5.83964,0 10.57351,4.73387 10.57351,10.57352 z" /></g><g
               transform="translate(63.05,-3.211)"
               id="g106"><g
                 id="g108"><g
                   transform="translate(-61.832,-7.562)"
                   id="g110"><text
                     id="text114"
                     style="font-variant:normal;font-weight:normal;font-size:9.96259975px;font-family:CMR10;-inkscape-font-specification:CMR10;writing-mode:lr-tb;fill:#000000;fill-opacity:1;fill-rule:nonzero;stroke:none"
                     transform="matrix(1,0,0,-1,61.832,7.562)"><tspan
                       id="tspan112"
                       y="0"
                       x="0 4.9812999">11</tspan></text>
<g
                     transform="translate(61.832,7.562)"
                     id="g116" /></g></g><g
                 transform="translate(-63.05,3.211)"
                 id="g118" /></g></g><g
             id="g120"><g
               id="g122"><path
                 id="path124"
                 style="fill:#ec008c;fill-opacity:1;fill-rule:nonzero;stroke:#000000;stroke-width:0.3985;stroke-linecap:butt;stroke-linejoin:miter;stroke-miterlimit:10;stroke-dasharray:none;stroke-opacity:1"
                 d="m 89.94487,42.5202 c 0,5.83966 -4.73387,10.57352 -10.57352,10.57352 -5.83965,0 -10.57353,-4.73386 -10.57353,-10.57352 0,-5.83966 4.73388,-10.57353 10.57353,-10.57353 5.83965,0 10.57352,4.73387 10.57352,10.57353 z" /></g><g
               transform="translate(74.389,39.309)"
               id="g126"><g
                 id="g128"><g
                   transform="translate(-73.171,-50.082)"
                   id="g130"><text
                     id="text134"
                     style="font-variant:normal;font-weight:normal;font-size:9.96259975px;font-family:CMR10;-inkscape-font-specification:CMR10;writing-mode:lr-tb;fill:#000000;fill-opacity:1;fill-rule:nonzero;stroke:none"
                     transform="matrix(1,0,0,-1,73.171,50.082)"><tspan
                       id="tspan132"
                       y="0"
                       x="0 4.9812999">13</tspan></text>
<g
                     transform="translate(73.171,50.082)"
                     id="g136" /></g></g><g
                 transform="translate(-74.389,-39.309)"
                 id="g138" /></g></g><g
             id="g140"><g
               id="g142"><path
                 id="path144"
                 style="fill:#ffbfbf;fill-opacity:1;fill-rule:nonzero;stroke:#000000;stroke-width:0.3985;stroke-linecap:butt;stroke-linejoin:miter;stroke-miterlimit:10;stroke-dasharray:none;stroke-opacity:1"
                 d="m 123.96118,0 c 0,5.83965 -4.73387,10.57352 -10.57352,10.57352 -5.83966,0 -10.57353,-4.73387 -10.57353,-10.57352 0,-5.83965 4.73387,-10.57352 10.57353,-10.57352 5.83965,0 10.57352,4.73387 10.57352,10.57352 z" /></g><g
               transform="translate(108.405,-3.211)"
               id="g146"><g
                 id="g148"><g
                   transform="translate(-107.187,-7.562)"
                   id="g150"><text
                     id="text154"
                     style="font-variant:normal;font-weight:normal;font-size:9.96259975px;font-family:CMR10;-inkscape-font-specification:CMR10;writing-mode:lr-tb;fill:#000000;fill-opacity:1;fill-rule:nonzero;stroke:none"
                     transform="matrix(1,0,0,-1,107.187,7.562)"><tspan
                       id="tspan152"
                       y="0"
                       x="0 4.9812999">17</tspan></text>
<g
                     transform="translate(107.187,7.562)"
                     id="g156" /></g></g><g
                 transform="translate(-108.405,3.211)"
                 id="g158" /></g></g><g
             id="g160"><g
               id="g162"><path
                 id="path164"
                 style="fill:#ffbfbf;fill-opacity:1;fill-rule:nonzero;stroke:#000000;stroke-width:0.3985;stroke-linecap:butt;stroke-linejoin:miter;stroke-miterlimit:10;stroke-dasharray:none;stroke-opacity:1"
                 d="m 169.31625,0 c 0,5.83965 -4.73387,10.57352 -10.57351,10.57352 -5.83966,0 -10.57354,-4.73387 -10.57354,-10.57352 0,-5.83965 4.73388,-10.57352 10.57354,-10.57352 5.83964,0 10.57351,4.73387 10.57351,10.57352 z" /></g><g
               transform="translate(153.759,-3.211)"
               id="g166"><g
                 id="g168"><g
                   transform="translate(-152.541,-7.562)"
                   id="g170"><text
                     id="text174"
                     style="font-variant:normal;font-weight:normal;font-size:9.96259975px;font-family:CMR10;-inkscape-font-specification:CMR10;writing-mode:lr-tb;fill:#000000;fill-opacity:1;fill-rule:nonzero;stroke:none"
                     transform="matrix(1,0,0,-1,152.541,7.562)"><tspan
                       id="tspan172"
                       y="0"
                       x="0 4.9812999">19</tspan></text>
<g
                     transform="translate(152.541,7.562)"
                     id="g176" /></g></g><g
                 transform="translate(-153.759,3.211)"
                 id="g178" /></g></g><g
             id="g180"><g
               id="g182"><path
                 id="path184"
                 style="fill:#ec008c;fill-opacity:1;fill-rule:nonzero;stroke:#000000;stroke-width:0.3985;stroke-linecap:butt;stroke-linejoin:miter;stroke-miterlimit:10;stroke-dasharray:none;stroke-opacity:1"
                 d="m 135.29994,42.5202 c 0,5.83966 -4.73387,10.57352 -10.57351,10.57352 -5.83967,0 -10.57353,-4.73386 -10.57353,-10.57352 0,-5.83966 4.73386,-10.57353 10.57353,-10.57353 5.83964,0 10.57351,4.73387 10.57351,10.57353 z" /></g><g
               transform="translate(119.743,39.309)"
               id="g186"><g
                 id="g188"><g
                   transform="translate(-118.525,-50.082)"
                   id="g190"><text
                     id="text194"
                     style="font-variant:normal;font-weight:normal;font-size:9.96259975px;font-family:CMR10;-inkscape-font-specification:CMR10;writing-mode:lr-tb;fill:#000000;fill-opacity:1;fill-rule:nonzero;stroke:none"
                     transform="matrix(1,0,0,-1,118.525,50.082)"><tspan
                       id="tspan192"
                       y="0"
                       x="0 4.9812999">23</tspan></text>
<g
                     transform="translate(118.525,50.082)"
                     id="g196" /></g></g><g
                 transform="translate(-119.743,-39.309)"
                 id="g198" /></g></g><g
             id="g200"><g
               id="g202"><path
                 id="path204"
                 style="fill:#ec008c;fill-opacity:1;fill-rule:nonzero;stroke:#000000;stroke-width:0.3985;stroke-linecap:butt;stroke-linejoin:miter;stroke-miterlimit:10;stroke-dasharray:none;stroke-opacity:1"
                 d="m 180.65501,42.5202 c 0,5.83966 -4.73387,10.57352 -10.57351,10.57352 -5.83966,0 -10.57353,-4.73386 -10.57353,-10.57352 0,-5.83966 4.73387,-10.57353 10.57353,-10.57353 5.83964,0 10.57351,4.73387 10.57351,10.57353 z" /></g><g
               transform="translate(165.098,39.309)"
               id="g206"><g
                 id="g208"><g
                   transform="translate(-163.88,-50.082)"
                   id="g210"><text
                     id="text214"
                     style="font-variant:normal;font-weight:normal;font-size:9.96259975px;font-family:CMR10;-inkscape-font-specification:CMR10;writing-mode:lr-tb;fill:#000000;fill-opacity:1;fill-rule:nonzero;stroke:none"
                     transform="matrix(1,0,0,-1,163.88,50.082)"><tspan
                       id="tspan212"
                       y="0"
                       x="0 4.9812999">29</tspan></text>
<g
                     transform="translate(163.88,50.082)"
                     id="g216" /></g></g><g
                 transform="translate(-165.098,-39.309)"
                 id="g218" /></g></g><g
             id="g220"><g
               id="g222"><path
                 id="path224"
                 style="fill:#ff8000;fill-opacity:1;fill-rule:nonzero;stroke:#000000;stroke-width:0.3985;stroke-linecap:butt;stroke-linejoin:miter;stroke-miterlimit:10;stroke-dasharray:none;stroke-opacity:1"
                 d="m 112.6224,85.04042 c 0,5.83966 -4.73387,10.57353 -10.57351,10.57353 -5.83966,0 -10.57353,-4.73387 -10.57353,-10.57353 0,-5.83966 4.73387,-10.57352 10.57353,-10.57352 5.83964,0 10.57351,4.73386 10.57351,10.57352 z" /></g><g
               transform="translate(97.066,81.829)"
               id="g226"><g
                 id="g228"><g
                   transform="translate(-95.848,-92.602)"
                   id="g230"><text
                     id="text234"
                     style="font-variant:normal;font-weight:normal;font-size:9.96259975px;font-family:CMR10;-inkscape-font-specification:CMR10;writing-mode:lr-tb;fill:#000000;fill-opacity:1;fill-rule:nonzero;stroke:none"
                     transform="matrix(1,0,0,-1,95.848,92.602)"><tspan
                       id="tspan232"
                       y="0"
                       x="0 4.9812999">31</tspan></text>
<g
                     transform="translate(95.848,92.602)"
                     id="g236" /></g></g><g
                 transform="translate(-97.066,-81.829)"
                 id="g238" /></g></g><g
             id="g240"><g
               id="g242"><path
                 id="path244"
                 style="fill:none;stroke:#000000;stroke-width:0.3985;stroke-linecap:butt;stroke-linejoin:miter;stroke-miterlimit:10;stroke-dasharray:none;stroke-opacity:1"
                 d="m 214.67133,0 c 0,5.83965 -4.73388,10.57352 -10.57352,10.57352 -5.83966,0 -10.57353,-4.73387 -10.57353,-10.57352 0,-5.83965 4.73387,-10.57352 10.57353,-10.57352 5.83964,0 10.57352,4.73387 10.57352,10.57352 z" /></g><g
               transform="translate(199.114,-3.211)"
               id="g246"><g
                 id="g248"><g
                   transform="translate(-197.896,-7.562)"
                   id="g250"><text
                     id="text254"
                     style="font-variant:normal;font-weight:normal;font-size:9.96259975px;font-family:CMR10;-inkscape-font-specification:CMR10;writing-mode:lr-tb;fill:#000000;fill-opacity:1;fill-rule:nonzero;stroke:none"
                     transform="matrix(1,0,0,-1,197.896,7.562)"><tspan
                       id="tspan252"
                       y="0"
                       x="0 4.9812999">32</tspan></text>
<g
                     transform="translate(197.896,7.562)"
                     id="g256" /></g></g><g
                 transform="translate(-199.114,3.211)"
                 id="g258" /></g></g><g
             id="g260"><g
               id="g262"><path
                 id="path264"
                 style="fill:#00adef;fill-opacity:1;fill-rule:nonzero;stroke:#000000;stroke-width:0.3985;stroke-linecap:butt;stroke-linejoin:miter;stroke-miterlimit:10;stroke-dasharray:none;stroke-opacity:1"
                 d="m 226.01009,42.5202 c 0,5.83966 -4.73388,10.57352 -10.57352,10.57352 -5.83966,0 -10.57353,-4.73386 -10.57353,-10.57352 0,-5.83966 4.73387,-10.57353 10.57353,-10.57353 5.83964,0 10.57352,4.73387 10.57352,10.57353 z" /></g><g
               transform="translate(210.452,39.309)"
               id="g266"><g
                 id="g268"><g
                   transform="translate(-209.234,-50.082)"
                   id="g270"><text
                     id="text274"
                     style="font-variant:normal;font-weight:normal;font-size:9.96259975px;font-family:CMR10;-inkscape-font-specification:CMR10;writing-mode:lr-tb;fill:#000000;fill-opacity:1;fill-rule:nonzero;stroke:none"
                     transform="matrix(1,0,0,-1,209.234,50.082)"><tspan
                       id="tspan272"
                       y="0"
                       x="0 4.9812999">41</tspan></text>
<g
                     transform="translate(209.234,50.082)"
                     id="g276" /></g></g><g
                 transform="translate(-210.452,-39.309)"
                 id="g278" /></g></g><g
             id="g280"><g
               id="g282"><path
                 id="path284"
                 style="fill:#00adef;fill-opacity:1;fill-rule:nonzero;stroke:#000000;stroke-width:0.3985;stroke-linecap:butt;stroke-linejoin:miter;stroke-miterlimit:10;stroke-dasharray:none;stroke-opacity:1"
                 d="m 271.36514,42.5202 c 0,5.83966 -4.73387,10.57352 -10.57351,10.57352 -5.83966,0 -10.57353,-4.73386 -10.57353,-10.57352 0,-5.83966 4.73387,-10.57353 10.57353,-10.57353 5.83964,0 10.57351,4.73387 10.57351,10.57353 z" /></g><g
               transform="translate(255.807,39.309)"
               id="g286"><g
                 id="g288"><g
                   transform="translate(-254.589,-50.082)"
                   id="g290"><text
                     id="text294"
                     style="font-variant:normal;font-weight:normal;font-size:9.96259975px;font-family:CMR10;-inkscape-font-specification:CMR10;writing-mode:lr-tb;fill:#000000;fill-opacity:1;fill-rule:nonzero;stroke:none"
                     transform="matrix(1,0,0,-1,254.589,50.082)"><tspan
                       id="tspan292"
                       y="0"
                       x="0 4.9812999">43</tspan></text>
<g
                     transform="translate(254.589,50.082)"
                     id="g296" /></g></g><g
                 transform="translate(-255.807,-39.309)"
                 id="g298" /></g></g><g
             id="g300"><g
               id="g302"><path
                 id="path304"
                 style="fill:none;stroke:#000000;stroke-width:0.3985;stroke-linecap:butt;stroke-linejoin:miter;stroke-miterlimit:10;stroke-dasharray:none;stroke-opacity:1"
                 d="m 282.70392,0 c 0,5.83965 -4.73387,10.57352 -10.57352,10.57352 -5.83966,0 -10.57353,-4.73387 -10.57353,-10.57352 0,-5.83965 4.73387,-10.57352 10.57353,-10.57352 5.83965,0 10.57352,4.73387 10.57352,10.57352 z" /></g><g
               transform="translate(267.145,-3.211)"
               id="g306"><g
                 id="g308"><g
                   transform="translate(-265.927,-7.562)"
                   id="g310"><text
                     id="text314"
                     style="font-variant:normal;font-weight:normal;font-size:9.96259975px;font-family:CMR10;-inkscape-font-specification:CMR10;writing-mode:lr-tb;fill:#000000;fill-opacity:1;fill-rule:nonzero;stroke:none"
                     transform="matrix(1,0,0,-1,265.927,7.562)"><tspan
                       id="tspan312"
                       y="0"
                       x="0 4.9812999">47</tspan></text>
<g
                     transform="translate(265.927,7.562)"
                     id="g316" /></g></g><g
                 transform="translate(-267.145,3.211)"
                 id="g318" /></g></g><g
             id="g320"><g
               id="g322"><path
                 id="path324"
                 style="fill:#ff8000;fill-opacity:1;fill-rule:nonzero;stroke:#000000;stroke-width:0.3985;stroke-linecap:butt;stroke-linejoin:miter;stroke-miterlimit:10;stroke-dasharray:none;stroke-opacity:1"
                 d="m 248.6876,85.04042 c 0,5.83966 -4.73386,10.57353 -10.57351,10.57353 -5.83966,0 -10.57353,-4.73387 -10.57353,-10.57353 0,-5.83966 4.73387,-10.57352 10.57353,-10.57352 5.83965,0 10.57351,4.73386 10.57351,10.57352 z" /></g><g
               transform="translate(233.13,81.829)"
               id="g326"><g
                 id="g328"><g
                   transform="translate(-231.912,-92.602)"
                   id="g330"><text
                     id="text334"
                     style="font-variant:normal;font-weight:normal;font-size:9.96259975px;font-family:CMR10;-inkscape-font-specification:CMR10;writing-mode:lr-tb;fill:#000000;fill-opacity:1;fill-rule:nonzero;stroke:none"
                     transform="matrix(1,0,0,-1,231.912,92.602)"><tspan
                       id="tspan332"
                       y="0"
                       x="0 4.9812999">53</tspan></text>
<g
                     transform="translate(231.912,92.602)"
                     id="g336" /></g></g><g
                 transform="translate(-233.13,-81.829)"
                 id="g338" /></g></g><g
             id="g340"><g
               id="g342"><path
                 id="path344"
                 style="fill:none;stroke:#000000;stroke-width:0.3985;stroke-linecap:butt;stroke-linejoin:miter;stroke-miterlimit:10;stroke-dasharray:none;stroke-opacity:1"
                 d="m 305.38145,0 c 0,5.83965 -4.73387,10.57352 -10.57351,10.57352 -5.83966,0 -10.57354,-4.73387 -10.57354,-10.57352 0,-5.83965 4.73388,-10.57352 10.57354,-10.57352 5.83964,0 10.57351,4.73387 10.57351,10.57352 z" /></g><g
               transform="translate(289.823,-3.211)"
               id="g346"><g
                 id="g348"><g
                   transform="translate(-288.605,-7.562)"
                   id="g350"><text
                     id="text354"
                     style="font-variant:normal;font-weight:normal;font-size:9.96259975px;font-family:CMR10;-inkscape-font-specification:CMR10;writing-mode:lr-tb;fill:#000000;fill-opacity:1;fill-rule:nonzero;stroke:none"
                     transform="matrix(1,0,0,-1,288.605,7.562)"><tspan
                       id="tspan352"
                       y="0"
                       x="0 4.9812999">59</tspan></text>
<g
                     transform="translate(288.605,7.562)"
                     id="g356" /></g></g><g
                 transform="translate(-289.823,3.211)"
                 id="g358" /></g></g><g
             id="g360"><g
               id="g362"><path
                 id="path364"
                 style="fill:none;stroke:#000000;stroke-width:0.3985;stroke-linecap:butt;stroke-linejoin:miter;stroke-miterlimit:10;stroke-dasharray:none;stroke-opacity:1"
                 d="m 316.72021,42.5202 c 0,5.83966 -4.73387,10.57352 -10.57351,10.57352 -5.83966,0 -10.57353,-4.73386 -10.57353,-10.57352 0,-5.83966 4.73387,-10.57353 10.57353,-10.57353 5.83964,0 10.57351,4.73387 10.57351,10.57353 z" /></g><g
               transform="translate(301.161,39.309)"
               id="g366"><g
                 id="g368"><g
                   transform="translate(-299.943,-50.082)"
                   id="g370"><text
                     id="text374"
                     style="font-variant:normal;font-weight:normal;font-size:9.96259975px;font-family:CMR10;-inkscape-font-specification:CMR10;writing-mode:lr-tb;fill:#000000;fill-opacity:1;fill-rule:nonzero;stroke:none"
                     transform="matrix(1,0,0,-1,299.943,50.082)"><tspan
                       id="tspan372"
                       y="0"
                       x="0 4.9812999">61</tspan></text>
<g
                     transform="translate(299.943,50.082)"
                     id="g376" /></g></g><g
                 transform="translate(-301.161,-39.309)"
                 id="g378" /></g></g><g
             id="g380"><g
               id="g382"><path
                 id="path384"
                 style="fill:#ff8000;fill-opacity:1;fill-rule:nonzero;stroke:#000000;stroke-width:0.3985;stroke-linecap:butt;stroke-linejoin:miter;stroke-miterlimit:10;stroke-dasharray:none;stroke-opacity:1"
                 d="m 339.39775,85.04042 c 0,5.83966 -4.73387,10.57353 -10.57352,10.57353 -5.83966,0 -10.57353,-4.73387 -10.57353,-10.57353 0,-5.83966 4.73387,-10.57352 10.57353,-10.57352 5.83965,0 10.57352,4.73386 10.57352,10.57352 z" /></g><g
               transform="translate(323.839,81.829)"
               id="g386"><g
                 id="g388"><g
                   transform="translate(-322.621,-92.602)"
                   id="g390"><text
                     id="text394"
                     style="font-variant:normal;font-weight:normal;font-size:9.96259975px;font-family:CMR10;-inkscape-font-specification:CMR10;writing-mode:lr-tb;fill:#000000;fill-opacity:1;fill-rule:nonzero;stroke:none"
                     transform="matrix(1,0,0,-1,322.621,92.602)"><tspan
                       id="tspan392"
                       y="0"
                       x="0 4.9812999">67</tspan></text>
<g
                     transform="translate(322.621,92.602)"
                     id="g396" /></g></g><g
                 transform="translate(-323.839,-81.829)"
                 id="g398" /></g></g><g
             id="g400"><g
               id="g402"><path
                 id="path404"
                 style="fill:none;stroke:#000000;stroke-width:0.3985;stroke-linecap:butt;stroke-linejoin:miter;stroke-miterlimit:10;stroke-dasharray:none;stroke-opacity:1"
                 d="m 362.07529,42.5202 c 0,5.83966 -4.73387,10.57352 -10.57352,10.57352 -5.83966,0 -10.57353,-4.73386 -10.57353,-10.57352 0,-5.83966 4.73387,-10.57353 10.57353,-10.57353 5.83965,0 10.57352,4.73387 10.57352,10.57353 z" /></g><g
               transform="translate(346.516,39.309)"
               id="g406"><g
                 id="g408"><g
                   transform="translate(-345.298,-50.082)"
                   id="g410"><text
                     id="text414"
                     style="font-variant:normal;font-weight:normal;font-size:9.96259975px;font-family:CMR10;-inkscape-font-specification:CMR10;writing-mode:lr-tb;fill:#000000;fill-opacity:1;fill-rule:nonzero;stroke:none"
                     transform="matrix(1,0,0,-1,345.298,50.082)"><tspan
                       id="tspan412"
                       y="0"
                       x="0 4.9812999">71</tspan></text>
<g
                     transform="translate(345.298,50.082)"
                     id="g416" /></g></g><g
                 transform="translate(-346.516,-39.309)"
                 id="g418" /></g></g><g
             id="g420"><path
               id="path422"
               style="fill:none;stroke:#000000;stroke-width:0.59776002;stroke-linecap:butt;stroke-linejoin:miter;stroke-miterlimit:10;stroke-dasharray:none;stroke-opacity:1"
               d="M 20.07106,32.74565 14.09712,10.34282" /><g
               transform="matrix(-0.25764,-0.9662,0.9662,-0.25764,14.09714,10.34282)"
               id="g424"><g
                 id="g426"><path
                   id="path428"
                   style="fill:none;stroke:#000000;stroke-width:0.47819999;stroke-linecap:round;stroke-linejoin:round;stroke-miterlimit:10;stroke-dasharray:none;stroke-opacity:1"
                   d="M -1.37483,1.83311 C -1.26025,1.14569 0,0.11455 0.34369,0 0,-0.11455 -1.26025,-1.14569 -1.37483,-1.83311" /></g></g></g><g
             id="g430"><path
               id="path432"
               style="fill:none;stroke:#000000;stroke-width:0.59776002;stroke-linecap:butt;stroke-linejoin:miter;stroke-miterlimit:10;stroke-dasharray:none;stroke-opacity:1"
               d="m 25.28711,32.74565 5.9736,-22.40251" /><g
               transform="matrix(0.25763,-0.96622,0.96622,0.25763,31.2607,10.34315)"
               id="g434"><g
                 id="g436"><path
                   id="path438"
                   style="fill:none;stroke:#000000;stroke-width:0.47819999;stroke-linecap:round;stroke-linejoin:round;stroke-miterlimit:10;stroke-dasharray:none;stroke-opacity:1"
                   d="M -1.37483,1.83311 C -1.26025,1.14569 0,0.11455 0.34369,0 0,-0.11455 -1.26025,-1.14569 -1.37483,-1.83311" /></g></g></g><g
             id="g440"><path
               id="path442"
               style="fill:none;stroke:#000000;stroke-width:0.59776002;stroke-linecap:butt;stroke-linejoin:miter;stroke-miterlimit:10;stroke-dasharray:none;stroke-opacity:1"
               d="M 40.59416,76.12038 27.71497,51.97066" /><g
               transform="matrix(-0.47055,-0.88234,0.88234,-0.47055,27.71497,51.97066)"
               id="g444"><g
                 id="g446"><path
                   id="path448"
                   style="fill:none;stroke:#000000;stroke-width:0.47819999;stroke-linecap:round;stroke-linejoin:round;stroke-miterlimit:10;stroke-dasharray:none;stroke-opacity:1"
                   d="M -1.37483,1.83311 C -1.26025,1.14569 0,0.11455 0.34369,0 0,-0.11455 -1.26025,-1.14569 -1.37483,-1.83311" /></g></g></g><g
             id="g450"><path
               id="path452"
               style="fill:none;stroke:#808080;stroke-width:0.59776002;stroke-linecap:butt;stroke-linejoin:miter;stroke-miterlimit:10;stroke-dasharray:2.98883, 2.98883;stroke-dashoffset:0;stroke-opacity:1"
               d="m 55.47838,85.05339 35.21985,-8.2e-4" /><g
               transform="translate(90.69823,85.05257)"
               id="g454"><g
                 id="g456"><path
                   id="path458"
                   style="fill:none;stroke:#808080;stroke-width:0.47819999;stroke-linecap:round;stroke-linejoin:round;stroke-miterlimit:10;stroke-dasharray:none;stroke-opacity:1"
                   d="M -1.37483,1.83311 C -1.26025,1.14569 0,0.11455 0.34369,0 0,-0.11455 -1.26025,-1.14569 -1.37483,-1.83311" /></g></g></g><g
             id="g460"><path
               id="path462"
               style="fill:none;stroke:#000000;stroke-width:0.59776002;stroke-linecap:butt;stroke-linejoin:miter;stroke-miterlimit:10;stroke-dasharray:none;stroke-opacity:1"
               d="M 76.60098,32.11493 70.96268,10.97305" /><g
               transform="matrix(-0.25766,-0.9662,0.9662,-0.25766,70.96268,10.97305)"
               id="g464"><g
                 id="g466"><path
                   id="path468"
                   style="fill:none;stroke:#000000;stroke-width:0.47819999;stroke-linecap:round;stroke-linejoin:round;stroke-miterlimit:10;stroke-dasharray:none;stroke-opacity:1"
                   d="M -1.37483,1.83311 C -1.26025,1.14569 0,0.11455 0.34369,0 0,-0.11455 -1.26025,-1.14569 -1.37483,-1.83311" /></g></g></g><g
             id="g470"><path
               id="path472"
               style="fill:none;stroke:#808080;stroke-width:0.59776002;stroke-linecap:butt;stroke-linejoin:miter;stroke-miterlimit:10;stroke-dasharray:2.98883, 2.98883;stroke-dashoffset:0;stroke-opacity:1"
               d="m 90.14868,42.52716 23.22829,-8.2e-4" /><g
               transform="translate(113.37697,42.52634)"
               id="g474"><g
                 id="g476"><path
                   id="path478"
                   style="fill:none;stroke:#808080;stroke-width:0.47819999;stroke-linecap:round;stroke-linejoin:round;stroke-miterlimit:10;stroke-dasharray:none;stroke-opacity:1"
                   d="M -1.37483,1.83311 C -1.26025,1.14569 0,0.11455 0.34369,0 0,-0.11455 -1.26025,-1.14569 -1.37483,-1.83311" /></g></g></g><g
             id="g480"><path
               id="path482"
               style="fill:none;stroke:#000000;stroke-width:0.59776002;stroke-linecap:butt;stroke-linejoin:miter;stroke-miterlimit:10;stroke-dasharray:none;stroke-opacity:1"
               d="M 121.95941,32.11478 116.32062,10.97287" /><g
               transform="matrix(-0.25768,-0.9662,0.9662,-0.25768,116.32062,10.97287)"
               id="g484"><g
                 id="g486"><path
                   id="path488"
                   style="fill:none;stroke:#000000;stroke-width:0.47819999;stroke-linecap:round;stroke-linejoin:round;stroke-miterlimit:10;stroke-dasharray:none;stroke-opacity:1"
                   d="M -1.37483,1.83311 C -1.26025,1.14569 0,0.11455 0.34369,0 0,-0.11455 -1.26025,-1.14569 -1.37483,-1.83311" /></g></g></g><g
             id="g490"><path
               id="path492"
               style="fill:none;stroke:#808080;stroke-width:0.59776002;stroke-linecap:butt;stroke-linejoin:miter;stroke-miterlimit:10;stroke-dasharray:2.98883, 2.98883;stroke-dashoffset:0;stroke-opacity:1"
               d="M 124.16696,0 H 147.3949" /><g
               transform="translate(147.3949)"
               id="g494"><g
                 id="g496"><path
                   id="path498"
                   style="fill:none;stroke:#808080;stroke-width:0.47819999;stroke-linecap:round;stroke-linejoin:round;stroke-miterlimit:10;stroke-dasharray:none;stroke-opacity:1"
                   d="M -1.37483,1.83311 C -1.26025,1.14569 0,0.11455 0.34369,0 0,-0.11455 -1.26025,-1.14569 -1.37483,-1.83311" /></g></g></g><g
             id="g500"><path
               id="path502"
               style="fill:none;stroke:#808080;stroke-width:0.59776002;stroke-linecap:butt;stroke-linejoin:miter;stroke-miterlimit:10;stroke-dasharray:2.98883, 2.98883;stroke-dashoffset:0;stroke-opacity:1"
               d="m 135.50613,42.52716 23.22831,-8.2e-4" /><g
               transform="translate(158.73444,42.52634)"
               id="g504"><g
                 id="g506"><path
                   id="path508"
                   style="fill:none;stroke:#808080;stroke-width:0.47819999;stroke-linecap:round;stroke-linejoin:round;stroke-miterlimit:10;stroke-dasharray:none;stroke-opacity:1"
                   d="M -1.37483,1.83311 C -1.26025,1.14569 0,0.11455 0.34369,0 0,-0.11455 -1.26025,-1.14569 -1.37483,-1.83311" /></g></g></g><g
             id="g510"><path
               id="path512"
               style="fill:none;stroke:#000000;stroke-width:0.59776002;stroke-linecap:butt;stroke-linejoin:miter;stroke-miterlimit:10;stroke-dasharray:none;stroke-opacity:1"
               d="M 96.98485,75.5444 84.71931,52.54584" /><g
               transform="matrix(-0.47055,-0.88234,0.88234,-0.47055,84.71931,52.54584)"
               id="g514"><g
                 id="g516"><path
                   id="path518"
                   style="fill:none;stroke:#000000;stroke-width:0.47819999;stroke-linecap:round;stroke-linejoin:round;stroke-miterlimit:10;stroke-dasharray:none;stroke-opacity:1"
                   d="M -1.37483,1.83311 C -1.26025,1.14569 0,0.11455 0.34369,0 0,-0.11455 -1.26025,-1.14569 -1.37483,-1.83311" /></g></g></g><g
             id="g520"><path
               id="path522"
               style="fill:none;stroke:#808080;stroke-width:0.59776002;stroke-linecap:butt;stroke-linejoin:miter;stroke-miterlimit:10;stroke-dasharray:2.98883, 2.98883;stroke-dashoffset:0;stroke-opacity:1"
               d="M 112.82742,85.0516 H 226.77061" /><g
               transform="translate(226.77061,85.0516)"
               id="g524"><g
                 id="g526"><path
                   id="path528"
                   style="fill:none;stroke:#808080;stroke-width:0.47819999;stroke-linecap:round;stroke-linejoin:round;stroke-miterlimit:10;stroke-dasharray:none;stroke-opacity:1"
                   d="M -1.37483,1.83311 C -1.26025,1.14569 0,0.11455 0.34369,0 0,-0.11455 -1.26025,-1.14569 -1.37483,-1.83311" /></g></g></g><g
             id="g530"><path
               id="path532"
               style="fill:none;stroke:#000000;stroke-width:0.59776002;stroke-linecap:butt;stroke-linejoin:miter;stroke-miterlimit:10;stroke-dasharray:none;stroke-opacity:1"
               d="M 233.05919,75.54323 220.79286,52.5452" /><g
               transform="matrix(-0.47058,-0.88232,0.88232,-0.47058,220.79288,52.54521)"
               id="g534"><g
                 id="g536"><path
                   id="path538"
                   style="fill:none;stroke:#000000;stroke-width:0.47819999;stroke-linecap:round;stroke-linejoin:round;stroke-miterlimit:10;stroke-dasharray:none;stroke-opacity:1"
                   d="M -1.37483,1.83311 C -1.26025,1.14569 0,0.11455 0.34369,0 0,-0.11455 -1.26025,-1.14569 -1.37483,-1.83311" /></g></g></g><g
             id="g540"><path
               id="path542"
               style="fill:none;stroke:#000000;stroke-width:0.59776002;stroke-linecap:butt;stroke-linejoin:miter;stroke-miterlimit:10;stroke-dasharray:none;stroke-opacity:1"
               d="M 212.67615,32.11429 207.03671,10.97255" /><g
               transform="matrix(-0.2577,-0.9662,0.9662,-0.2577,207.03671,10.97255)"
               id="g544"><g
                 id="g546"><path
                   id="path548"
                   style="fill:none;stroke:#000000;stroke-width:0.47819999;stroke-linecap:round;stroke-linejoin:round;stroke-miterlimit:10;stroke-dasharray:none;stroke-opacity:1"
                   d="M -1.37483,1.83311 C -1.26025,1.14569 0,0.11455 0.34369,0 0,-0.11455 -1.26025,-1.14569 -1.37483,-1.83311" /></g></g></g><g
             id="g550"><path
               id="path552"
               style="fill:none;stroke:#808080;stroke-width:0.59776002;stroke-linecap:butt;stroke-linejoin:miter;stroke-miterlimit:10;stroke-dasharray:2.98883, 2.98883;stroke-dashoffset:0;stroke-opacity:1"
               d="m 226.22105,42.52716 23.22828,-8.2e-4" /><g
               transform="translate(249.44933,42.52634)"
               id="g554"><g
                 id="g556"><path
                   id="path558"
                   style="fill:none;stroke:#808080;stroke-width:0.47819999;stroke-linecap:round;stroke-linejoin:round;stroke-miterlimit:10;stroke-dasharray:none;stroke-opacity:1"
                   d="M -1.37483,1.83311 C -1.26025,1.14569 0,0.11455 0.34369,0 0,-0.11455 -1.26025,-1.14569 -1.37483,-1.83311" /></g></g></g><g
             id="g560"><path
               id="path562"
               style="fill:none;stroke:#000000;stroke-width:0.59776002;stroke-linecap:butt;stroke-linejoin:miter;stroke-miterlimit:10;stroke-dasharray:none;stroke-opacity:1"
               d="m 263.58661,32.11676 5.63576,-21.1427" /><g
               transform="matrix(0.25755,-0.96623,0.96623,0.25755,269.22235,10.97408)"
               id="g564"><g
                 id="g566"><path
                   id="path568"
                   style="fill:none;stroke:#000000;stroke-width:0.47819999;stroke-linecap:round;stroke-linejoin:round;stroke-miterlimit:10;stroke-dasharray:none;stroke-opacity:1"
                   d="M -1.37483,1.83311 C -1.26025,1.14569 0,0.11455 0.34369,0 0,-0.11455 -1.26025,-1.14569 -1.37483,-1.83311" /></g></g></g><g
             id="g570"><path
               id="path572"
               style="fill:none;stroke:#808080;stroke-width:0.59776002;stroke-linecap:butt;stroke-linejoin:miter;stroke-miterlimit:10;stroke-dasharray:2.98883, 2.98883;stroke-dashoffset:0;stroke-opacity:1"
               d="m 248.89978,85.05225 68.58575,-5.1e-4" /><g
               transform="translate(317.48553,85.05174)"
               id="g574"><g
                 id="g576"><path
                   id="path578"
                   style="fill:none;stroke:#808080;stroke-width:0.47819999;stroke-linecap:round;stroke-linejoin:round;stroke-miterlimit:10;stroke-dasharray:none;stroke-opacity:1"
                   d="M -1.37483,1.83311 C -1.26025,1.14569 0,0.11455 0.34369,0 0,-0.11455 -1.26025,-1.14569 -1.37483,-1.83311" /></g></g></g><g
             id="g580"><path
               id="path582"
               style="fill:none;stroke:#000000;stroke-width:0.59776002;stroke-linecap:butt;stroke-linejoin:miter;stroke-miterlimit:10;stroke-dasharray:none;stroke-opacity:1"
               d="M 323.7754,75.54259 311.50874,52.5447" /><g
               transform="matrix(-0.47058,-0.88232,0.88232,-0.47058,311.50876,52.54471)"
               id="g584"><g
                 id="g586"><path
                   id="path588"
                   style="fill:none;stroke:#000000;stroke-width:0.47819999;stroke-linecap:round;stroke-linejoin:round;stroke-miterlimit:10;stroke-dasharray:none;stroke-opacity:1"
                   d="M -1.37483,1.83311 C -1.26025,1.14569 0,0.11455 0.34369,0 0,-0.11455 -1.26025,-1.14569 -1.37483,-1.83311" /></g></g></g><g
             id="g590"><path
               id="path592"
               style="fill:none;stroke:#000000;stroke-width:0.59776002;stroke-linecap:butt;stroke-linejoin:miter;stroke-miterlimit:10;stroke-dasharray:none;stroke-opacity:1"
               d="M 303.39268,32.11378 297.75262,10.97235" /><g
               transform="matrix(-0.25775,-0.96619,0.96619,-0.25775,297.75264,10.97235)"
               id="g594"><g
                 id="g596"><path
                   id="path598"
                   style="fill:none;stroke:#000000;stroke-width:0.47819999;stroke-linecap:round;stroke-linejoin:round;stroke-miterlimit:10;stroke-dasharray:none;stroke-opacity:1"
                   d="M -1.37483,1.83311 C -1.26025,1.14569 0,0.11455 0.34369,0 0,-0.11455 -1.26025,-1.14569 -1.37483,-1.83311" /></g></g></g><g
             id="g600"><path
               id="path602"
               style="fill:none;stroke:#000000;stroke-width:0.59776002;stroke-linecap:butt;stroke-linejoin:miter;stroke-miterlimit:10;stroke-dasharray:none;stroke-opacity:1"
               d="M 333.917,75.54768 346.18045,52.548" /><g
               transform="matrix(0.47046,-0.88237,0.88237,0.47046,346.18044,52.548)"
               id="g604"><g
                 id="g606"><path
                   id="path608"
                   style="fill:none;stroke:#000000;stroke-width:0.47819999;stroke-linecap:round;stroke-linejoin:round;stroke-miterlimit:10;stroke-dasharray:none;stroke-opacity:1"
                   d="M -1.37483,1.83311 C -1.26025,1.14569 0,0.11455 0.34369,0 0,-0.11455 -1.26025,-1.14569 -1.37483,-1.83311" /></g></g></g><g
             id="g610"><g
               id="g612" /><g
               transform="translate(377.694,82.15)"
               id="g614"><g
                 id="g616"><g
                   transform="translate(-376.476,-92.923)"
                   id="g618"><text
                     id="text622"
                     style="font-variant:normal;font-weight:normal;font-size:8.96640015px;font-family:CMR9;-inkscape-font-specification:CMR9;writing-mode:lr-tb;fill:#808080;fill-opacity:1;fill-rule:nonzero;stroke:none"
                     transform="matrix(1,0,0,-1,376.476,92.923)"><tspan
                       id="tspan620"
                       y="0"
                       x="0">3</tspan></text>
<g
                     transform="translate(376.476,92.923)"
                     id="g624" /></g></g><g
                 transform="translate(-377.694,-82.15)"
                 id="g626" /></g></g><g
             id="g628"><g
               id="g630" /><g
               transform="translate(377.694,39.63)"
               id="g632"><g
                 id="g634"><g
                   transform="translate(-376.476,-50.403)"
                   id="g636"><text
                     id="text640"
                     style="font-variant:normal;font-weight:normal;font-size:8.96640015px;font-family:CMR9;-inkscape-font-specification:CMR9;writing-mode:lr-tb;fill:#808080;fill-opacity:1;fill-rule:nonzero;stroke:none"
                     transform="matrix(1,0,0,-1,376.476,50.403)"><tspan
                       id="tspan638"
                       y="0"
                       x="0">2</tspan></text>
<g
                     transform="translate(376.476,50.403)"
                     id="g642" /></g></g><g
                 transform="translate(-377.694,-39.63)"
                 id="g644" /></g></g><g
             id="g646"><g
               id="g648" /><g
               transform="translate(377.694,-2.89)"
               id="g650"><g
                 id="g652"><g
                   transform="translate(-376.476,-7.883)"
                   id="g654"><text
                     id="text658"
                     style="font-variant:normal;font-weight:normal;font-size:8.96640015px;font-family:CMR9;-inkscape-font-specification:CMR9;writing-mode:lr-tb;fill:#808080;fill-opacity:1;fill-rule:nonzero;stroke:none"
                     transform="matrix(1,0,0,-1,376.476,7.883)"><tspan
                       id="tspan656"
                       y="0"
                       x="0">1</tspan></text>
<g
                     transform="translate(376.476,7.883)"
                     id="g660" /></g></g><g
                 transform="translate(-377.694,2.89)"
                 id="g662" /></g></g></g></g></g></g></svg>