<svg xmlns="http://www.w3.org/2000/svg" xmlns:xlink="http://www.w3.org/1999/xlink" version="1.1" width="602.671" height="106.585" viewBox="0 0 602.671 106.585">
<defs>
<path id="font_0_1" d="M.40899659 .6320038C.40899659 .65000918 .40899659 .6680145 .3889923 .6680145 .36898805 .6680145 .36898805 .6470032 .36898805 .6320038V.039993287H.09098816C.07598877 .039993287 .054992677 .039993287 .054992677 .019989014 .054992677 0 .07598877 0 .09098816 0H.6879883C.7049866 0 .72299197 0 .72299197 .019989014 .72299197 .039993287 .7049866 .039993287 .6879883 .039993287H.40899659V.6320038Z"/>
<path id="font_1_2" d="M.1269989 .07699585 .23298645 .18003845C.3889923 .31811524 .44898988 .3721466 .44898988 .47216798 .44898988 .5860901 .35899354 .6660156 .23699951 .6660156 .12399292 .6660156 .049987794 .57411196 .049987794 .48516847 .049987794 .4291687 .099990848 .4291687 .102996829 .4291687 .11999512 .4291687 .15499878 .44117738 .15499878 .48217774 .15499878 .5081787 .13699341 .5341797 .101989749 .5341797 .09399414 .5341797 .09199524 .5341797 .08898926 .5331726 .11199951 .59806826 .1659851 .63500979 .22399903 .63500979 .31498719 .63500979 .35798646 .5541382 .35798646 .47216798 .35798646 .39215089 .30799867 .31311036 .25299073 .25108338L.06098938 .036987306C.049987794 .025985718 .049987794 .023986817 .049987794 0H.42099L.44898988 .17404175H.42399598C.4189911 .14402771 .4119873 .1000061 .4019928 .084991458 .394989 .07699585 .32899476 .07699585 .30699159 .07699585H.1269989Z"/>
<path id="font_1_3" d="M.2899933 .35191346C.37199403 .37893678 .42999269 .4490509 .42999269 .52809146 .42999269 .6100464 .34199525 .6660156 .24598694 .6660156 .14498902 .6660156 .068984989 .60606387 .068984989 .53009036 .068984989 .49710084 .09098816 .47808839 .11999512 .47808839 .15098572 .47808839 .17098999 .50009158 .17098999 .5290985 .17098999 .57910159 .12399292 .57910159 .10899353 .57910159 .13999939 .62802127 .20599365 .64100649 .24198914 .64100649 .2829895 .64100649 .33799745 .6190338 .33799745 .5290985 .33799745 .51708987 .33599855 .45906068 .30999757 .4149933 .27999879 .36691285 .24598694 .36390687 .22099304 .36291505 .21299744 .36190797 .18899536 .35990907 .18199158 .35990907 .17399597 .35890199 .16699219 .35791017 .16699219 .3479004 .16699219 .33691407 .17399597 .33691407 .19099427 .33691407H.23498535C.31698609 .33691407 .35398866 .2686615 .35398866 .17037964 .35398866 .034469606 .2849884 .0055389406 .24099732 .0055389406 .19799805 .0055389406 .12298584 .022491456 .08799744 .08137512 .12298584 .07637024 .1539917 .09837341 .1539917 .1363678 .1539917 .17237854 .1269989 .19238281 .09799194 .19238281 .07398987 .19238281 .041992189 .17837525 .041992189 .1343689 .041992189 .043441774 .1349945-.022460938 .24398804-.022460938 .3659973-.022460938 .45700074 .06838989 .45700074 .17037964 .45700074 .252594 .3939972 .33088685 .2899933 .35191346Z"/>
<path id="font_1_5" d="M.44898988 .20022583C.44898988 .3193512 .36698915 .41944886 .25898744 .41944886 .21099854 .41944886 .16799927 .40345765 .13198853 .36842347V.5637665C.1519928 .5577698 .18499756 .55078127 .21699524 .55078127 .33999635 .55078127 .4099884 .6417694 .4099884 .6547699 .4099884 .6607666 .40699769 .6657715 .3999939 .6657715 .39898683 .6657715 .39698792 .6657715 .3919983 .66278079 .37199403 .6537781 .32299806 .6337738 .2559967 .6337738 .21598816 .6337738 .16999817 .6407776 .12298584 .6617737 .114990238 .66477969 .11299133 .66477969 .11099243 .66477969 .100997928 .66477969 .100997928 .6567688 .100997928 .6407776V.34439088C.100997928 .32637025 .100997928 .31835938 .114990238 .31835938 .12199402 .31835938 .12399292 .32136537 .12799073 .32736207 .13899231 .3433838 .17599488 .39746095 .25698854 .39746095 .30899049 .39746095 .33399964 .35139466 .34199525 .33337403 .35798646 .29632569 .3600006 .25727845 .3600006 .20722962 .3600006 .17222595 .3600006 .11222839 .33599855 .07035828 .31199647 .031463624 .2749939 .0055389406 .22898865 .0055389406 .1559906 .0055389406 .09899902 .058380128 .08198547 .11723328 .084991458 .1162262 .08799744 .115234378 .09899902 .115234378 .13198853 .115234378 .14898682 .14022827 .14898682 .16423035 .14898682 .18823242 .13198853 .21322632 .09899902 .21322632 .084991458 .21322632 .049987794 .20622254 .049987794 .16023255 .049987794 .07434082 .11898804-.022460938 .23098755-.022460938 .34700013-.022460938 .44898988 .073349 .44898988 .20022583Z"/>
<path id="font_1_7" d="M.47599793 .609375C.4850006 .6213684 .4850006 .62338259 .4850006 .64437869H.24198914C.11999512 .64437869 .117996219 .65737918 .11399841 .67637637H.08898926L.055999757 .4702301H.08099365C.083999637 .48625184 .09298706 .5493469 .10598755 .56137087 .11299133 .5673828 .19099427 .5673828 .20399475 .5673828H.41099549C.3999939 .5513611 .32099916 .4421997 .29899598 .40914918 .20899964 .27394105 .17599488 .1347351 .17599488 .032577516 .17599488 .022567749 .17599488-.022460938 .22200012-.022460938 .2679901-.022460938 .2679901 .022567749 .2679901 .032577516V.08366394C.2679901 .13873291 .2709961 .19381714 .2789917 .24790955 .2829895 .27093507 .29699708 .35707093 .34098817 .41915895L.47599793 .609375Z"/>
<path id="font_1_1" d="M.2939911 .64004519C.2939911 .66400149 .2939911 .6660156 .2709961 .6660156 .20899964 .60227969 .12098694 .60227969 .08898926 .60227969V.57128909C.10899353 .57128909 .16799927 .57128909 .21998596 .5972748V.07902527C.21998596 .042999269 .21699524 .0309906 .1269989 .0309906H.09498596V0C.12998963 .0029907227 .21699524 .0029907227 .25698854 .0029907227 .29699708 .0029907227 .38398744 .0029907227 .4189911 0V.0309906H.3869934C.29699708 .0309906 .2939911 .041992189 .2939911 .07902527V.64004519Z"/>
<path id="font_1_8" d="M.36698915 .31781007V.28579713C.36698915 .05178833 .2630005 .0055389406 .20498657 .0055389406 .18798828 .0055389406 .13398743 .007537842 .10699463 .041778566 .15098572 .041778566 .15899658 .07078552 .15899658 .08778381 .15899658 .118774417 .1349945 .13378906 .11299133 .13378906 .09700012 .13378906 .066986087 .12478638 .066986087 .08578491 .066986087 .018615723 .12098694-.022460938 .20599365-.022460938 .33499146-.022460938 .45700074 .11378479 .45700074 .32881166 .45700074 .5979767 .34199525 .6660156 .25299073 .6660156 .19799805 .6660156 .14898682 .64801028 .10598755 .60298159 .06498718 .5579529 .041992189 .5159302 .041992189 .44088746 .041992189 .31581117 .12998963 .21777344 .24198914 .21777344 .30299378 .21777344 .34399415 .25978089 .36698915 .31781007M.24299622 .24076844C.22698975 .24076844 .18099976 .24076844 .1499939 .3038025 .13198853 .3408203 .13198853 .39085389 .13198853 .43988038 .13198853 .49391175 .13198853 .54093936 .15299988 .5779724 .17999268 .6279907 .21798706 .64100649 .25299073 .64100649 .29899598 .64100649 .33198548 .60697939 .34899903 .5619507 .36099244 .52993777 .36499024 .4669037 .36499024 .42086793 .36499024 .3378296 .33099366 .24076844 .24299622 .24076844Z"/>
<path id="font_1_4" d="M.2939911 .16503906V.07800293C.2939911 .041992189 .2919922 .0309906 .21798706 .0309906H.19699097V0C.23799134 .0029907227 .2899933 .0029907227 .33198548 .0029907227 .37399293 .0029907227 .4269867 .0029907227 .46798707 0V.0309906H.44699098C.37298585 .0309906 .37098695 .041992189 .37098695 .07800293V.16503906H.47099305V.19602967H.37098695V.65075686C.37098695 .67074587 .37098695 .6767578 .35499574 .6767578 .34599305 .6767578 .34298707 .6767578 .33499146 .66474917L.027999878 .19602967V.16503906H.2939911M.2999878 .19602967H.055999757L.2999878 .5688019V.19602967Z"/>
<path id="font_1_6" d="M.13198853 .327713V.35173036C.13198853 .6047821 .2559967 .64100649 .30699159 .64100649 .33099366 .64100649 .37298585 .634964 .394989 .6007538 .37998963 .6007538 .33999635 .6007538 .33999635 .5557556 .33999635 .524765 .3639984 .5097656 .38598634 .5097656 .4019928 .5097656 .43199159 .51875308 .43199159 .5577545 .43199159 .6178589 .3880005 .6660156 .30499269 .6660156 .1769867 .6660156 .041992189 .5367584 .041992189 .31570436 .041992189 .048553468 .1579895-.022460938 .25099183-.022460938 .3619995-.022460938 .45700074 .07156372 .45700074 .2036438 .45700074 .33070375 .36799623 .4267578 .25698854 .4267578 .18899536 .4267578 .1519928 .37573243 .13198853 .327713M.25099183 .0055389406C.18798828 .0055389406 .1579895 .06556702 .1519928 .080566409 .13398743 .127594 .13398743 .2076416 .13398743 .22564698 .13398743 .30369569 .1659851 .40374757 .2559967 .40374757 .27198792 .40374757 .31799317 .40374757 .34899903 .34172059 .36698915 .30470277 .36698915 .2536621 .36698915 .20463562 .36698915 .15661621 .36698915 .10658264 .34999085 .0705719 .31999208 .010528564 .27398683 .0055389406 .25099183 .0055389406Z"/>
<path id="font_2_3" d="M.30499269 .35195924C.397995 .38697816 .44198609 .46006776 .44198609 .5290985 .44198609 .60606387 .35699464 .6660156 .25299073 .6660156 .14898682 .6660156 .070999149 .60705569 .070999149 .5310974 .070999149 .49809266 .09298706 .47909547 .12199402 .47909547 .15098572 .47909547 .17199707 .50009158 .17199707 .5290985 .17199707 .5640869 .147995 .57910159 .11399841 .57910159 .13999939 .6210327 .20098877 .64100649 .25 .64100649 .33299256 .64100649 .34899903 .5750885 .34899903 .52809146 .34899903 .49809266 .34298707 .45005799 .31799317 .41201783 .2869873 .36695863 .2519989 .36495973 .22299195 .36296083 .19799805 .36094667 .19599915 .36094667 .18798828 .36094667 .1789856 .35995484 .17098999 .35894776 .17098999 .34794618 .17098999 .33496095 .1789856 .33496095 .19599915 .33496095H.24299622C.32998658 .33496095 .36799623 .2646637 .36799623 .16937256 .36799623 .04145813 .2999878 .0055389406 .24899292 .0055389406 .22999573 .0055389406 .1329956 .010528564 .08799744 .0843811 .12399292 .07939148 .1519928 .10437012 .1519928 .13838196 .1519928 .17137146 .1269989 .19238281 .09799194 .19238281 .07299805 .19238281 .042999269 .17736817 .042999269 .13537598 .042999269 .046447755 .13598633-.022460938 .2519989-.022460938 .3769989-.022460938 .46998597 .06741333 .46998597 .16937256 .46998597 .25663758 .40098573 .33093263 .30499269 .35195924Z"/>
<path id="font_2_2" d="M.46199037 .17704773H.43399049C.43199159 .16404724 .42399598 .10501099 .41099549 .08900452 .40499879 .07998657 .33599855 .07998657 .31599427 .07998657H.13798523L.23699951 .17404175C.40098573 .3161316 .46199037 .36915589 .46199037 .4711914 .46199037 .5860901 .36698915 .6660156 .24398804 .6660156 .1289978 .6660156 .050994874 .575119 .050994874 .4841919 .050994874 .43418885 .09399414 .42919923 .102996829 .42919923 .125 .42919923 .15499878 .44519044 .15499878 .48120118 .15499878 .51119998 .13398743 .5332031 .102996829 .5332031 .09799194 .5332031 .09498596 .5332031 .09098816 .53219607 .114990238 .6030731 .1789856 .63500979 .23298645 .63500979 .33499146 .63500979 .36999513 .5401764 .36999513 .4711914 .36999513 .36915589 .29299928 .28611756 .24499512 .23408509L.06199646 .035995485C.050994874 .024993897 .050994874 .022994996 .050994874 0H.43399049L.46199037 .17704773Z"/>
<path id="font_2_1" d="M.3039856 .6392822C.3039856 .6642761 .30299378 .666275 .27799989 .666275 .21598816 .60227969 .12399292 .60227969 .09298706 .60227969V.57128909C.11199951 .57128909 .17298889 .57128909 .22698975 .5972748V.08001709C.22698975 .042999269 .22399903 .0309906 .1309967 .0309906H.09899902V0C.1349945 .0029907227 .22399903 .0029907227 .2649994 .0029907227 .30599977 .0029907227 .3959961 .0029907227 .43199159 0V.0309906H.3999939C.30699159 .0309906 .3039856 .042999269 .3039856 .08001709V.6392822Z"/>
</defs>
<path transform="matrix(1,0,0,-1,38.467,95.812)" d="M-18.42546 0C-18.42546 5.47948-22.86732 9.92134-28.3468 9.92134-33.82628 9.92134-38.26814 5.47948-38.26814 0-38.26814-5.47948-33.82628-9.92134-28.3468-9.92134-22.86732-9.92134-18.42546-5.47948-18.42546 0ZM-28.3468 0" fill="#fff3c7"/>
<path transform="matrix(1,0,0,-1,38.467,95.812)" stroke-width=".3985" stroke-linecap="butt" stroke-miterlimit="10" stroke-linejoin="miter" fill="none" stroke="#000000" d="M-18.42546 0C-18.42546 5.47948-22.86732 9.92134-28.3468 9.92134-33.82628 9.92134-38.26814 5.47948-38.26814 0-38.26814-5.47948-33.82628-9.92134-28.3468-9.92134-22.86732-9.92134-18.42546-5.47948-18.42546 0ZM-28.3468 0"/>
<use data-text="&#x22a5;" xlink:href="#font_0_1" transform="matrix(9.9626,0,0,-9.9626,6.2459986,99.271999)"/>
<path transform="matrix(1,0,0,-1,38.467,95.812)" d="M9.92134 0C9.92134 5.47948 5.47948 9.92134 0 9.92134-5.47948 9.92134-9.92134 5.47948-9.92134 0-9.92134-5.47948-5.47948-9.92134 0-9.92134 5.47948-9.92134 9.92134-5.47948 9.92134 0ZM0 0" fill="#fff3c7"/>
<path transform="matrix(1,0,0,-1,38.467,95.812)" stroke-width=".3985" stroke-linecap="butt" stroke-miterlimit="10" stroke-linejoin="miter" fill="none" stroke="#000000" d="M9.92134 0C9.92134 5.47948 5.47948 9.92134 0 9.92134-5.47948 9.92134-9.92134 5.47948-9.92134 0-9.92134-5.47948-5.47948-9.92134 0-9.92134 5.47948-9.92134 9.92134-5.47948 9.92134 0ZM0 0"/>
<use data-text="2" xlink:href="#font_1_2" transform="matrix(9.9626,0,0,-9.9626,35.975999,99.022998)"/>
<path transform="matrix(1,0,0,-1,38.467,95.812)" d="M38.26814 0C38.26814 5.47948 33.82628 9.92134 28.3468 9.92134 22.86732 9.92134 18.42546 5.47948 18.42546 0 18.42546-5.47948 22.86732-9.92134 28.3468-9.92134 33.82628-9.92134 38.26814-5.47948 38.26814 0ZM28.3468 0" fill="#ccfc88"/>
<path transform="matrix(1,0,0,-1,38.467,95.812)" stroke-width=".3985" stroke-linecap="butt" stroke-miterlimit="10" stroke-linejoin="miter" fill="none" stroke="#000000" d="M38.26814 0C38.26814 5.47948 33.82628 9.92134 28.3468 9.92134 22.86732 9.92134 18.42546 5.47948 18.42546 0 18.42546-5.47948 22.86732-9.92134 28.3468-9.92134 33.82628-9.92134 38.26814-5.47948 38.26814 0ZM28.3468 0"/>
<use data-text="3" xlink:href="#font_1_3" transform="matrix(9.9626,0,0,-9.9626,64.323,99.022998)"/>
<path transform="matrix(1,0,0,-1,38.467,95.812)" d="M66.61496 0C66.61496 5.47948 62.1731 9.92134 56.69362 9.92134 51.21414 9.92134 46.77226 5.47948 46.77226 0 46.77226-5.47948 51.21414-9.92134 56.69362-9.92134 62.1731-9.92134 66.61496-5.47948 66.61496 0ZM56.69362 0" fill="#ccfc88"/>
<path transform="matrix(1,0,0,-1,38.467,95.812)" stroke-width=".3985" stroke-linecap="butt" stroke-miterlimit="10" stroke-linejoin="miter" fill="none" stroke="#000000" d="M66.61496 0C66.61496 5.47948 62.1731 9.92134 56.69362 9.92134 51.21414 9.92134 46.77226 5.47948 46.77226 0 46.77226-5.47948 51.21414-9.92134 56.69362-9.92134 62.1731-9.92134 66.61496-5.47948 66.61496 0ZM56.69362 0"/>
<use data-text="5" xlink:href="#font_1_5" transform="matrix(9.9626,0,0,-9.9626,92.669,99.022998)"/>
<path transform="matrix(1,0,0,-1,38.467,95.812)" d="M94.96176 0C94.96176 5.47948 90.5199 9.92134 85.04042 9.92134 79.56094 9.92134 75.11908 5.47948 75.11908 0 75.11908-5.47948 79.56094-9.92134 85.04042-9.92134 90.5199-9.92134 94.96176-5.47948 94.96176 0ZM85.04042 0" fill="#a189fa"/>
<path transform="matrix(1,0,0,-1,38.467,95.812)" stroke-width=".3985" stroke-linecap="butt" stroke-miterlimit="10" stroke-linejoin="miter" fill="none" stroke="#000000" d="M94.96176 0C94.96176 5.47948 90.5199 9.92134 85.04042 9.92134 79.56094 9.92134 75.11908 5.47948 75.11908 0 75.11908-5.47948 79.56094-9.92134 85.04042-9.92134 90.5199-9.92134 94.96176-5.47948 94.96176 0ZM85.04042 0"/>
<use data-text="7" xlink:href="#font_1_7" transform="matrix(9.9626,0,0,-9.9626,121.01601,99.022998)"/>
<path transform="matrix(1,0,0,-1,38.467,95.812)" d="M123.96075 0C123.96075 5.83965 119.22688 10.57352 113.38724 10.57352 107.54758 10.57352 102.8137 5.83965 102.8137 0 102.8137-5.83965 107.54758-10.57352 113.38724-10.57352 119.22688-10.57352 123.96075-5.83965 123.96075 0ZM113.38724 0" fill="#a189fa"/>
<path transform="matrix(1,0,0,-1,38.467,95.812)" stroke-width=".3985" stroke-linecap="butt" stroke-miterlimit="10" stroke-linejoin="miter" fill="none" stroke="#000000" d="M123.96075 0C123.96075 5.83965 119.22688 10.57352 113.38724 10.57352 107.54758 10.57352 102.8137 5.83965 102.8137 0 102.8137-5.83965 107.54758-10.57352 113.38724-10.57352 119.22688-10.57352 123.96075-5.83965 123.96075 0ZM113.38724 0"/>
<use data-text="1" xlink:href="#font_1_1" transform="matrix(9.9626,0,0,-9.9626,146.871,99.022998)"/>
<use data-text="1" xlink:href="#font_1_1" transform="matrix(9.9626,0,0,-9.9626,151.8523,99.022998)"/>
<path transform="matrix(1,0,0,-1,38.467,95.812)" d="M152.30757 0C152.30757 5.83965 147.5737 10.57352 141.73404 10.57352 135.89438 10.57352 131.16053 5.83965 131.16053 0 131.16053-5.83965 135.89438-10.57352 141.73404-10.57352 147.5737-10.57352 152.30757-5.83965 152.30757 0ZM141.73404 0" fill="#ffbfbf"/>
<path transform="matrix(1,0,0,-1,38.467,95.812)" stroke-width=".3985" stroke-linecap="butt" stroke-miterlimit="10" stroke-linejoin="miter" fill="none" stroke="#000000" d="M152.30757 0C152.30757 5.83965 147.5737 10.57352 141.73404 10.57352 135.89438 10.57352 131.16053 5.83965 131.16053 0 131.16053-5.83965 135.89438-10.57352 141.73404-10.57352 147.5737-10.57352 152.30757-5.83965 152.30757 0ZM141.73404 0"/>
<use data-text="1" xlink:href="#font_1_1" transform="matrix(9.9626,0,0,-9.9626,175.218,99.022998)"/>
<use data-text="3" xlink:href="#font_1_3" transform="matrix(9.9626,0,0,-9.9626,180.1993,99.022998)"/>
<path transform="matrix(1,0,0,-1,38.467,95.812)" d="M180.65438 0C180.65438 5.83965 175.9205 10.57352 170.08086 10.57352 164.2412 10.57352 159.50733 5.83965 159.50733 0 159.50733-5.83965 164.2412-10.57352 170.08086-10.57352 175.9205-10.57352 180.65438-5.83965 180.65438 0ZM170.08086 0" fill="#ffbfbf"/>
<path transform="matrix(1,0,0,-1,38.467,95.812)" stroke-width=".3985" stroke-linecap="butt" stroke-miterlimit="10" stroke-linejoin="miter" fill="none" stroke="#000000" d="M180.65438 0C180.65438 5.83965 175.9205 10.57352 170.08086 10.57352 164.2412 10.57352 159.50733 5.83965 159.50733 0 159.50733-5.83965 164.2412-10.57352 170.08086-10.57352 175.9205-10.57352 180.65438-5.83965 180.65438 0ZM170.08086 0"/>
<use data-text="1" xlink:href="#font_1_1" transform="matrix(9.9626,0,0,-9.9626,203.564,99.022998)"/>
<use data-text="7" xlink:href="#font_1_7" transform="matrix(9.9626,0,0,-9.9626,208.54529,99.022998)"/>
<path transform="matrix(1,0,0,-1,38.467,95.812)" d="M209.00119 0C209.00119 5.83965 204.26732 10.57352 198.42766 10.57352 192.588 10.57352 187.85414 5.83965 187.85414 0 187.85414-5.83965 192.588-10.57352 198.42766-10.57352 204.26732-10.57352 209.00119-5.83965 209.00119 0ZM198.42766 0" fill="#ffbfbf"/>
<path transform="matrix(1,0,0,-1,38.467,95.812)" stroke-width=".3985" stroke-linecap="butt" stroke-miterlimit="10" stroke-linejoin="miter" fill="none" stroke="#000000" d="M209.00119 0C209.00119 5.83965 204.26732 10.57352 198.42766 10.57352 192.588 10.57352 187.85414 5.83965 187.85414 0 187.85414-5.83965 192.588-10.57352 198.42766-10.57352 204.26732-10.57352 209.00119-5.83965 209.00119 0ZM198.42766 0"/>
<use data-text="1" xlink:href="#font_1_1" transform="matrix(9.9626,0,0,-9.9626,231.911,99.022998)"/>
<use data-text="9" xlink:href="#font_1_8" transform="matrix(9.9626,0,0,-9.9626,236.89229,99.022998)"/>
<path transform="matrix(1,0,0,-1,38.467,95.812)" stroke-width=".3985" stroke-linecap="butt" stroke-miterlimit="10" stroke-linejoin="miter" fill="none" stroke="#000000" d="M237.34799 0C237.34799 5.83965 232.61414 10.57352 226.77448 10.57352 220.93482 10.57352 216.20095 5.83965 216.20095 0 216.20095-5.83965 220.93482-10.57352 226.77448-10.57352 232.61414-10.57352 237.34799-5.83965 237.34799 0ZM226.77448 0"/>
<use data-text="2" xlink:href="#font_1_2" transform="matrix(9.9626,0,0,-9.9626,260.257,99.022998)"/>
<use data-text="3" xlink:href="#font_1_3" transform="matrix(9.9626,0,0,-9.9626,265.23829,99.022998)"/>
<path transform="matrix(1,0,0,-1,38.467,95.812)" stroke-width=".3985" stroke-linecap="butt" stroke-miterlimit="10" stroke-linejoin="miter" fill="none" stroke="#000000" d="M265.69483 0C265.69483 5.83965 260.96095 10.57352 255.12128 10.57352 249.28162 10.57352 244.54776 5.83965 244.54776 0 244.54776-5.83965 249.28162-10.57352 255.12128-10.57352 260.96095-10.57352 265.69483-5.83965 265.69483 0ZM255.12128 0"/>
<use data-text="2" xlink:href="#font_1_2" transform="matrix(9.9626,0,0,-9.9626,288.604,99.022998)"/>
<use data-text="9" xlink:href="#font_1_8" transform="matrix(9.9626,0,0,-9.9626,293.5853,99.022998)"/>
<path transform="matrix(1,0,0,-1,38.467,95.812)" d="M294.0416 0C294.0416 5.83965 289.30775 10.57352 283.4681 10.57352 277.62843 10.57352 272.89457 5.83965 272.89457 0 272.89457-5.83965 277.62843-10.57352 283.4681-10.57352 289.30775-10.57352 294.0416-5.83965 294.0416 0ZM283.4681 0" fill="#92f7b7"/>
<path transform="matrix(1,0,0,-1,38.467,95.812)" stroke-width=".3985" stroke-linecap="butt" stroke-miterlimit="10" stroke-linejoin="miter" fill="none" stroke="#000000" d="M294.0416 0C294.0416 5.83965 289.30775 10.57352 283.4681 10.57352 277.62843 10.57352 272.89457 5.83965 272.89457 0 272.89457-5.83965 277.62843-10.57352 283.4681-10.57352 289.30775-10.57352 294.0416-5.83965 294.0416 0ZM283.4681 0"/>
<use data-text="3" xlink:href="#font_1_3" transform="matrix(9.9626,0,0,-9.9626,316.95,99.022998)"/>
<use data-text="1" xlink:href="#font_1_1" transform="matrix(9.9626,0,0,-9.9626,321.9313,99.022998)"/>
<path transform="matrix(1,0,0,-1,38.467,95.812)" d="M322.38844 0C322.38844 5.83965 317.65458 10.57352 311.8149 10.57352 305.97526 10.57352 301.2414 5.83965 301.2414 0 301.2414-5.83965 305.97526-10.57352 311.8149-10.57352 317.65458-10.57352 322.38844-5.83965 322.38844 0ZM311.8149 0" fill="#92f7b7"/>
<path transform="matrix(1,0,0,-1,38.467,95.812)" stroke-width=".3985" stroke-linecap="butt" stroke-miterlimit="10" stroke-linejoin="miter" fill="none" stroke="#000000" d="M322.38844 0C322.38844 5.83965 317.65458 10.57352 311.8149 10.57352 305.97526 10.57352 301.2414 5.83965 301.2414 0 301.2414-5.83965 305.97526-10.57352 311.8149-10.57352 317.65458-10.57352 322.38844-5.83965 322.38844 0ZM311.8149 0"/>
<use data-text="3" xlink:href="#font_1_3" transform="matrix(9.9626,0,0,-9.9626,345.29603,99.022998)"/>
<use data-text="7" xlink:href="#font_1_7" transform="matrix(9.9626,0,0,-9.9626,350.2773,99.022998)"/>
<path transform="matrix(1,0,0,-1,38.467,95.812)" stroke-width=".3985" stroke-linecap="butt" stroke-miterlimit="10" stroke-linejoin="miter" fill="none" stroke="#000000" d="M350.73524 0C350.73524 5.83965 346.00138 10.57352 340.1617 10.57352 334.32206 10.57352 329.58818 5.83965 329.58818 0 329.58818-5.83965 334.32206-10.57352 340.1617-10.57352 346.00138-10.57352 350.73524-5.83965 350.73524 0ZM340.1617 0"/>
<use data-text="4" xlink:href="#font_1_4" transform="matrix(9.9626,0,0,-9.9626,373.643,99.022998)"/>
<use data-text="1" xlink:href="#font_1_1" transform="matrix(9.9626,0,0,-9.9626,378.6243,99.022998)"/>
<path transform="matrix(1,0,0,-1,38.467,95.812)" d="M379.08207 0C379.08207 5.83965 374.34819 10.57352 368.5085 10.57352 362.66889 10.57352 357.935 5.83965 357.935 0 357.935-5.83965 362.66889-10.57352 368.5085-10.57352 374.34819-10.57352 379.08207-5.83965 379.08207 0ZM368.5085 0" fill="#f79297"/>
<path transform="matrix(1,0,0,-1,38.467,95.812)" stroke-width=".3985" stroke-linecap="butt" stroke-miterlimit="10" stroke-linejoin="miter" fill="none" stroke="#000000" d="M379.08207 0C379.08207 5.83965 374.34819 10.57352 368.5085 10.57352 362.66889 10.57352 357.935 5.83965 357.935 0 357.935-5.83965 362.66889-10.57352 368.5085-10.57352 374.34819-10.57352 379.08207-5.83965 379.08207 0ZM368.5085 0"/>
<use data-text="4" xlink:href="#font_1_4" transform="matrix(9.9626,0,0,-9.9626,401.989,99.022998)"/>
<use data-text="3" xlink:href="#font_1_3" transform="matrix(9.9626,0,0,-9.9626,406.9703,99.022998)"/>
<path transform="matrix(1,0,0,-1,38.467,95.812)" d="M407.42887 0C407.42887 5.83965 402.69499 10.57352 396.85533 10.57352 391.01567 10.57352 386.2818 5.83965 386.2818 0 386.2818-5.83965 391.01567-10.57352 396.85533-10.57352 402.69499-10.57352 407.42887-5.83965 407.42887 0ZM396.85533 0" fill="#f79297"/>
<path transform="matrix(1,0,0,-1,38.467,95.812)" stroke-width=".3985" stroke-linecap="butt" stroke-miterlimit="10" stroke-linejoin="miter" fill="none" stroke="#000000" d="M407.42887 0C407.42887 5.83965 402.69499 10.57352 396.85533 10.57352 391.01567 10.57352 386.2818 5.83965 386.2818 0 386.2818-5.83965 391.01567-10.57352 396.85533-10.57352 402.69499-10.57352 407.42887-5.83965 407.42887 0ZM396.85533 0"/>
<use data-text="4" xlink:href="#font_1_4" transform="matrix(9.9626,0,0,-9.9626,430.336,99.022998)"/>
<use data-text="7" xlink:href="#font_1_7" transform="matrix(9.9626,0,0,-9.9626,435.3173,99.022998)"/>
<path transform="matrix(1,0,0,-1,38.467,95.812)" d="M435.77568 0C435.77568 5.83965 431.0418 10.57352 425.20213 10.57352 419.3625 10.57352 414.62864 5.83965 414.62864 0 414.62864-5.83965 419.3625-10.57352 425.20213-10.57352 431.0418-10.57352 435.77568-5.83965 435.77568 0ZM425.20213 0" fill="#b5bfff"/>
<path transform="matrix(1,0,0,-1,38.467,95.812)" stroke-width=".3985" stroke-linecap="butt" stroke-miterlimit="10" stroke-linejoin="miter" fill="none" stroke="#000000" d="M435.77568 0C435.77568 5.83965 431.0418 10.57352 425.20213 10.57352 419.3625 10.57352 414.62864 5.83965 414.62864 0 414.62864-5.83965 419.3625-10.57352 425.20213-10.57352 431.0418-10.57352 435.77568-5.83965 435.77568 0ZM425.20213 0"/>
<use data-text="5" xlink:href="#font_1_5" transform="matrix(9.9626,0,0,-9.9626,458.682,99.022998)"/>
<use data-text="3" xlink:href="#font_1_3" transform="matrix(9.9626,0,0,-9.9626,463.6633,99.022998)"/>
<path transform="matrix(1,0,0,-1,38.467,95.812)" d="M464.12248 0C464.12248 5.83965 459.3886 10.57352 453.54896 10.57352 447.7093 10.57352 442.97544 5.83965 442.97544 0 442.97544-5.83965 447.7093-10.57352 453.54896-10.57352 459.3886-10.57352 464.12248-5.83965 464.12248 0ZM453.54896 0" fill="#b5bfff"/>
<path transform="matrix(1,0,0,-1,38.467,95.812)" stroke-width=".3985" stroke-linecap="butt" stroke-miterlimit="10" stroke-linejoin="miter" fill="none" stroke="#000000" d="M464.12248 0C464.12248 5.83965 459.3886 10.57352 453.54896 10.57352 447.7093 10.57352 442.97544 5.83965 442.97544 0 442.97544-5.83965 447.7093-10.57352 453.54896-10.57352 459.3886-10.57352 464.12248-5.83965 464.12248 0ZM453.54896 0"/>
<use data-text="5" xlink:href="#font_1_5" transform="matrix(9.9626,0,0,-9.9626,487.02903,99.022998)"/>
<use data-text="9" xlink:href="#font_1_8" transform="matrix(9.9626,0,0,-9.9626,492.0103,99.022998)"/>
<path transform="matrix(1,0,0,-1,38.467,95.812)" stroke-width=".3985" stroke-linecap="butt" stroke-miterlimit="10" stroke-linejoin="miter" fill="none" stroke="#000000" d="M492.46928 0C492.46928 5.83965 487.7354 10.57352 481.89579 10.57352 476.0561 10.57352 471.32225 5.83965 471.32225 0 471.32225-5.83965 476.0561-10.57352 481.89579-10.57352 487.7354-10.57352 492.46928-5.83965 492.46928 0ZM481.89579 0"/>
<use data-text="6" xlink:href="#font_1_6" transform="matrix(9.9626,0,0,-9.9626,515.375,99.022998)"/>
<use data-text="1" xlink:href="#font_1_1" transform="matrix(9.9626,0,0,-9.9626,520.3563,99.022998)"/>
<path transform="matrix(1,0,0,-1,38.467,95.812)" stroke-width=".3985" stroke-linecap="butt" stroke-miterlimit="10" stroke-linejoin="miter" fill="none" stroke="#000000" d="M520.8161 0C520.8161 5.83965 516.0822 10.57352 510.24259 10.57352 504.40293 10.57352 499.66905 5.83965 499.66905 0 499.66905-5.83965 504.40293-10.57352 510.24259-10.57352 516.0822-10.57352 520.8161-5.83965 520.8161 0ZM510.24259 0"/>
<use data-text="6" xlink:href="#font_1_6" transform="matrix(9.9626,0,0,-9.9626,543.722,99.022998)"/>
<use data-text="7" xlink:href="#font_1_7" transform="matrix(9.9626,0,0,-9.9626,548.7033,99.022998)"/>
<path transform="matrix(1,0,0,-1,38.467,95.812)" stroke-width=".3985" stroke-linecap="butt" stroke-miterlimit="10" stroke-linejoin="miter" fill="none" stroke="#000000" d="M549.1629 0C549.1629 5.83965 544.429 10.57352 538.5894 10.57352 532.74978 10.57352 528.01589 5.83965 528.01589 0 528.01589-5.83965 532.74978-10.57352 538.5894-10.57352 544.429-10.57352 549.1629-5.83965 549.1629 0ZM538.5894 0"/>
<use data-text="7" xlink:href="#font_1_7" transform="matrix(9.9626,0,0,-9.9626,572.068,99.022998)"/>
<use data-text="1" xlink:href="#font_1_1" transform="matrix(9.9626,0,0,-9.9626,577.0493,99.022998)"/>
<path transform="matrix(1,0,0,-1,38.467,95.812)" d="M-18.42546 42.5202C-18.42546 47.99968-22.86732 52.44154-28.3468 52.44154-33.82628 52.44154-38.26814 47.99968-38.26814 42.5202-38.26814 37.04073-33.82628 32.59886-28.3468 32.59886-22.86732 32.59886-18.42546 37.04073-18.42546 42.5202ZM-28.3468 42.5202" fill="#e8e8e8"/>
<path transform="matrix(1,0,0,-1,38.467,95.812)" stroke-width=".3985" stroke-linecap="butt" stroke-miterlimit="10" stroke-linejoin="miter" fill="none" stroke="#000000" d="M-18.42546 42.5202C-18.42546 47.99968-22.86732 52.44154-28.3468 52.44154-33.82628 52.44154-38.26814 47.99968-38.26814 42.5202-38.26814 37.04073-33.82628 32.59886-28.3468 32.59886-22.86732 32.59886-18.42546 37.04073-18.42546 42.5202ZM-28.3468 42.5202"/>
<use data-text="&#x22a5;" xlink:href="#font_0_1" transform="matrix(9.9626,0,0,-9.9626,6.2459986,56.75199)"/>
<path transform="matrix(1,0,0,-1,38.467,95.812)" d="M38.26814 42.5202C38.26814 47.99968 33.82628 52.44154 28.3468 52.44154 22.86732 52.44154 18.42546 47.99968 18.42546 42.5202 18.42546 37.04073 22.86732 32.59886 28.3468 32.59886 33.82628 32.59886 38.26814 37.04073 38.26814 42.5202ZM28.3468 42.5202" fill="#e8e8e8"/>
<path transform="matrix(1,0,0,-1,38.467,95.812)" stroke-width=".3985" stroke-linecap="butt" stroke-miterlimit="10" stroke-linejoin="miter" fill="none" stroke="#000000" d="M38.26814 42.5202C38.26814 47.99968 33.82628 52.44154 28.3468 52.44154 22.86732 52.44154 18.42546 47.99968 18.42546 42.5202 18.42546 37.04073 22.86732 32.59886 28.3468 32.59886 33.82628 32.59886 38.26814 37.04073 38.26814 42.5202ZM28.3468 42.5202"/>
<use data-text="3" xlink:href="#font_1_3" transform="matrix(9.9626,0,0,-9.9626,64.323,56.503)"/>
<path transform="matrix(1,0,0,-1,38.467,95.812)" d="M94.96176 42.5202C94.96176 47.99968 90.5199 52.44154 85.04042 52.44154 79.56094 52.44154 75.11908 47.99968 75.11908 42.5202 75.11908 37.04073 79.56094 32.59886 85.04042 32.59886 90.5199 32.59886 94.96176 37.04073 94.96176 42.5202ZM85.04042 42.5202" fill="#ec008c"/>
<path transform="matrix(1,0,0,-1,38.467,95.812)" stroke-width=".3985" stroke-linecap="butt" stroke-miterlimit="10" stroke-linejoin="miter" fill="none" stroke="#000000" d="M94.96176 42.5202C94.96176 47.99968 90.5199 52.44154 85.04042 52.44154 79.56094 52.44154 75.11908 47.99968 75.11908 42.5202 75.11908 37.04073 79.56094 32.59886 85.04042 32.59886 90.5199 32.59886 94.96176 37.04073 94.96176 42.5202ZM85.04042 42.5202"/>
<use data-text="7" xlink:href="#font_1_7" transform="matrix(9.9626,0,0,-9.9626,121.01601,56.503)"/>
<path transform="matrix(1,0,0,-1,38.467,95.812)" d="M152.30757 42.5202C152.30757 48.35986 147.5737 53.09372 141.73404 53.09372 135.89438 53.09372 131.16053 48.35986 131.16053 42.5202 131.16053 36.68054 135.89438 31.94667 141.73404 31.94667 147.5737 31.94667 152.30757 36.68054 152.30757 42.5202ZM141.73404 42.5202" fill="#ec008c"/>
<path transform="matrix(1,0,0,-1,38.467,95.812)" stroke-width=".3985" stroke-linecap="butt" stroke-miterlimit="10" stroke-linejoin="miter" fill="none" stroke="#000000" d="M152.30757 42.5202C152.30757 48.35986 147.5737 53.09372 141.73404 53.09372 135.89438 53.09372 131.16053 48.35986 131.16053 42.5202 131.16053 36.68054 135.89438 31.94667 141.73404 31.94667 147.5737 31.94667 152.30757 36.68054 152.30757 42.5202ZM141.73404 42.5202"/>
<use data-text="1" xlink:href="#font_1_1" transform="matrix(9.9626,0,0,-9.9626,175.218,56.503)"/>
<use data-text="3" xlink:href="#font_1_3" transform="matrix(9.9626,0,0,-9.9626,180.1993,56.503)"/>
<path transform="matrix(1,0,0,-1,38.467,95.812)" d="M237.34799 42.5202C237.34799 48.35986 232.61414 53.09372 226.77448 53.09372 220.93482 53.09372 216.20095 48.35986 216.20095 42.5202 216.20095 36.68054 220.93482 31.94667 226.77448 31.94667 232.61414 31.94667 237.34799 36.68054 237.34799 42.5202ZM226.77448 42.5202" fill="#ec008c"/>
<path transform="matrix(1,0,0,-1,38.467,95.812)" stroke-width=".3985" stroke-linecap="butt" stroke-miterlimit="10" stroke-linejoin="miter" fill="none" stroke="#000000" d="M237.34799 42.5202C237.34799 48.35986 232.61414 53.09372 226.77448 53.09372 220.93482 53.09372 216.20095 48.35986 216.20095 42.5202 216.20095 36.68054 220.93482 31.94667 226.77448 31.94667 232.61414 31.94667 237.34799 36.68054 237.34799 42.5202ZM226.77448 42.5202"/>
<use data-text="2" xlink:href="#font_1_2" transform="matrix(9.9626,0,0,-9.9626,260.257,56.503)"/>
<use data-text="3" xlink:href="#font_1_3" transform="matrix(9.9626,0,0,-9.9626,265.23829,56.503)"/>
<path transform="matrix(1,0,0,-1,38.467,95.812)" d="M265.69483 42.5202C265.69483 48.35986 260.96095 53.09372 255.12128 53.09372 249.28162 53.09372 244.54776 48.35986 244.54776 42.5202 244.54776 36.68054 249.28162 31.94667 255.12128 31.94667 260.96095 31.94667 265.69483 36.68054 265.69483 42.5202ZM255.12128 42.5202" fill="#ec008c"/>
<path transform="matrix(1,0,0,-1,38.467,95.812)" stroke-width=".3985" stroke-linecap="butt" stroke-miterlimit="10" stroke-linejoin="miter" fill="none" stroke="#000000" d="M265.69483 42.5202C265.69483 48.35986 260.96095 53.09372 255.12128 53.09372 249.28162 53.09372 244.54776 48.35986 244.54776 42.5202 244.54776 36.68054 249.28162 31.94667 255.12128 31.94667 260.96095 31.94667 265.69483 36.68054 265.69483 42.5202ZM255.12128 42.5202"/>
<use data-text="2" xlink:href="#font_1_2" transform="matrix(9.9626,0,0,-9.9626,288.604,56.503)"/>
<use data-text="9" xlink:href="#font_1_8" transform="matrix(9.9626,0,0,-9.9626,293.5853,56.503)"/>
<path transform="matrix(1,0,0,-1,38.467,95.812)" d="M294.0416 42.5202C294.0416 48.35986 289.30775 53.09372 283.4681 53.09372 277.62843 53.09372 272.89457 48.35986 272.89457 42.5202 272.89457 36.68054 277.62843 31.94667 283.4681 31.94667 289.30775 31.94667 294.0416 36.68054 294.0416 42.5202ZM283.4681 42.5202" fill="#00aeef"/>
<path transform="matrix(1,0,0,-1,38.467,95.812)" stroke-width=".3985" stroke-linecap="butt" stroke-miterlimit="10" stroke-linejoin="miter" fill="none" stroke="#000000" d="M294.0416 42.5202C294.0416 48.35986 289.30775 53.09372 283.4681 53.09372 277.62843 53.09372 272.89457 48.35986 272.89457 42.5202 272.89457 36.68054 277.62843 31.94667 283.4681 31.94667 289.30775 31.94667 294.0416 36.68054 294.0416 42.5202ZM283.4681 42.5202"/>
<use data-text="3" xlink:href="#font_1_3" transform="matrix(9.9626,0,0,-9.9626,316.95,56.503)"/>
<use data-text="1" xlink:href="#font_1_1" transform="matrix(9.9626,0,0,-9.9626,321.9313,56.503)"/>
<path transform="matrix(1,0,0,-1,38.467,95.812)" d="M350.73524 42.5202C350.73524 48.35986 346.00138 53.09372 340.1617 53.09372 334.32206 53.09372 329.58818 48.35986 329.58818 42.5202 329.58818 36.68054 334.32206 31.94667 340.1617 31.94667 346.00138 31.94667 350.73524 36.68054 350.73524 42.5202ZM340.1617 42.5202" fill="#00aeef"/>
<path transform="matrix(1,0,0,-1,38.467,95.812)" stroke-width=".3985" stroke-linecap="butt" stroke-miterlimit="10" stroke-linejoin="miter" fill="none" stroke="#000000" d="M350.73524 42.5202C350.73524 48.35986 346.00138 53.09372 340.1617 53.09372 334.32206 53.09372 329.58818 48.35986 329.58818 42.5202 329.58818 36.68054 334.32206 31.94667 340.1617 31.94667 346.00138 31.94667 350.73524 36.68054 350.73524 42.5202ZM340.1617 42.5202"/>
<use data-text="4" xlink:href="#font_1_4" transform="matrix(9.9626,0,0,-9.9626,373.643,56.503)"/>
<use data-text="1" xlink:href="#font_1_1" transform="matrix(9.9626,0,0,-9.9626,378.6243,56.503)"/>
<path transform="matrix(1,0,0,-1,38.467,95.812)" d="M379.08207 42.5202C379.08207 48.35986 374.34819 53.09372 368.5085 53.09372 362.66889 53.09372 357.935 48.35986 357.935 42.5202 357.935 36.68054 362.66889 31.94667 368.5085 31.94667 374.34819 31.94667 379.08207 36.68054 379.08207 42.5202ZM368.5085 42.5202" fill="#00aeef"/>
<path transform="matrix(1,0,0,-1,38.467,95.812)" stroke-width=".3985" stroke-linecap="butt" stroke-miterlimit="10" stroke-linejoin="miter" fill="none" stroke="#000000" d="M379.08207 42.5202C379.08207 48.35986 374.34819 53.09372 368.5085 53.09372 362.66889 53.09372 357.935 48.35986 357.935 42.5202 357.935 36.68054 362.66889 31.94667 368.5085 31.94667 374.34819 31.94667 379.08207 36.68054 379.08207 42.5202ZM368.5085 42.5202"/>
<use data-text="4" xlink:href="#font_1_4" transform="matrix(9.9626,0,0,-9.9626,401.989,56.503)"/>
<use data-text="3" xlink:href="#font_1_3" transform="matrix(9.9626,0,0,-9.9626,406.9703,56.503)"/>
<path transform="matrix(1,0,0,-1,38.467,95.812)" d="M435.77568 42.5202C435.77568 48.35986 431.0418 53.09372 425.20213 53.09372 419.3625 53.09372 414.62864 48.35986 414.62864 42.5202 414.62864 36.68054 419.3625 31.94667 425.20213 31.94667 431.0418 31.94667 435.77568 36.68054 435.77568 42.5202ZM425.20213 42.5202" fill="#ffdd88"/>
<path transform="matrix(1,0,0,-1,38.467,95.812)" stroke-width=".3985" stroke-linecap="butt" stroke-miterlimit="10" stroke-linejoin="miter" fill="none" stroke="#000000" d="M435.77568 42.5202C435.77568 48.35986 431.0418 53.09372 425.20213 53.09372 419.3625 53.09372 414.62864 48.35986 414.62864 42.5202 414.62864 36.68054 419.3625 31.94667 425.20213 31.94667 431.0418 31.94667 435.77568 36.68054 435.77568 42.5202ZM425.20213 42.5202"/>
<use data-text="5" xlink:href="#font_1_5" transform="matrix(9.9626,0,0,-9.9626,458.682,56.503)"/>
<use data-text="3" xlink:href="#font_1_3" transform="matrix(9.9626,0,0,-9.9626,463.6633,56.503)"/>
<path transform="matrix(1,0,0,-1,38.467,95.812)" d="M492.46928 42.5202C492.46928 48.35986 487.7354 53.09372 481.89579 53.09372 476.0561 53.09372 471.32225 48.35986 471.32225 42.5202 471.32225 36.68054 476.0561 31.94667 481.89579 31.94667 487.7354 31.94667 492.46928 36.68054 492.46928 42.5202ZM481.89579 42.5202" fill="#ffdd88"/>
<path transform="matrix(1,0,0,-1,38.467,95.812)" stroke-width=".3985" stroke-linecap="butt" stroke-miterlimit="10" stroke-linejoin="miter" fill="none" stroke="#000000" d="M492.46928 42.5202C492.46928 48.35986 487.7354 53.09372 481.89579 53.09372 476.0561 53.09372 471.32225 48.35986 471.32225 42.5202 471.32225 36.68054 476.0561 31.94667 481.89579 31.94667 487.7354 31.94667 492.46928 36.68054 492.46928 42.5202ZM481.89579 42.5202"/>
<use data-text="6" xlink:href="#font_1_6" transform="matrix(9.9626,0,0,-9.9626,515.375,56.503)"/>
<use data-text="1" xlink:href="#font_1_1" transform="matrix(9.9626,0,0,-9.9626,520.3563,56.503)"/>
<path transform="matrix(1,0,0,-1,38.467,95.812)" d="M520.8161 42.5202C520.8161 48.35986 516.0822 53.09372 510.24259 53.09372 504.40293 53.09372 499.66905 48.35986 499.66905 42.5202 499.66905 36.68054 504.40293 31.94667 510.24259 31.94667 516.0822 31.94667 520.8161 36.68054 520.8161 42.5202ZM510.24259 42.5202" fill="#99f7f1"/>
<path transform="matrix(1,0,0,-1,38.467,95.812)" stroke-width=".3985" stroke-linecap="butt" stroke-miterlimit="10" stroke-linejoin="miter" fill="none" stroke="#000000" d="M520.8161 42.5202C520.8161 48.35986 516.0822 53.09372 510.24259 53.09372 504.40293 53.09372 499.66905 48.35986 499.66905 42.5202 499.66905 36.68054 504.40293 31.94667 510.24259 31.94667 516.0822 31.94667 520.8161 36.68054 520.8161 42.5202ZM510.24259 42.5202"/>
<use data-text="6" xlink:href="#font_1_6" transform="matrix(9.9626,0,0,-9.9626,543.722,56.503)"/>
<use data-text="7" xlink:href="#font_1_7" transform="matrix(9.9626,0,0,-9.9626,548.7033,56.503)"/>
<path transform="matrix(1,0,0,-1,38.467,95.812)" d="M549.1629 42.5202C549.1629 48.35986 544.429 53.09372 538.5894 53.09372 532.74978 53.09372 528.01589 48.35986 528.01589 42.5202 528.01589 36.68054 532.74978 31.94667 538.5894 31.94667 544.429 31.94667 549.1629 36.68054 549.1629 42.5202ZM538.5894 42.5202" fill="#99f7f1"/>
<path transform="matrix(1,0,0,-1,38.467,95.812)" stroke-width=".3985" stroke-linecap="butt" stroke-miterlimit="10" stroke-linejoin="miter" fill="none" stroke="#000000" d="M549.1629 42.5202C549.1629 48.35986 544.429 53.09372 538.5894 53.09372 532.74978 53.09372 528.01589 48.35986 528.01589 42.5202 528.01589 36.68054 532.74978 31.94667 538.5894 31.94667 544.429 31.94667 549.1629 36.68054 549.1629 42.5202ZM538.5894 42.5202"/>
<use data-text="7" xlink:href="#font_1_7" transform="matrix(9.9626,0,0,-9.9626,572.068,56.503)"/>
<use data-text="1" xlink:href="#font_1_1" transform="matrix(9.9626,0,0,-9.9626,577.0493,56.503)"/>
<path transform="matrix(1,0,0,-1,38.467,95.812)" d="M-18.42546 85.04042C-18.42546 90.5199-22.86732 94.96176-28.3468 94.96176-33.82628 94.96176-38.26814 90.5199-38.26814 85.04042-38.26814 79.56094-33.82628 75.11908-28.3468 75.11908-22.86732 75.11908-18.42546 79.56094-18.42546 85.04042ZM-28.3468 85.04042" fill="#ff8000"/>
<path transform="matrix(1,0,0,-1,38.467,95.812)" stroke-width=".3985" stroke-linecap="butt" stroke-miterlimit="10" stroke-linejoin="miter" fill="none" stroke="#000000" d="M-18.42546 85.04042C-18.42546 90.5199-22.86732 94.96176-28.3468 94.96176-33.82628 94.96176-38.26814 90.5199-38.26814 85.04042-38.26814 79.56094-33.82628 75.11908-28.3468 75.11908-22.86732 75.11908-18.42546 79.56094-18.42546 85.04042ZM-28.3468 85.04042"/>
<use data-text="&#x22a5;" xlink:href="#font_0_1" transform="matrix(9.9626,0,0,-9.9626,6.2459986,14.231995)"/>
<path transform="matrix(1,0,0,-1,38.467,95.812)" d="M94.96176 85.04042C94.96176 90.5199 90.5199 94.96176 85.04042 94.96176 79.56094 94.96176 75.11908 90.5199 75.11908 85.04042 75.11908 79.56094 79.56094 75.11908 85.04042 75.11908 90.5199 75.11908 94.96176 79.56094 94.96176 85.04042ZM85.04042 85.04042" fill="#ff8000"/>
<path transform="matrix(1,0,0,-1,38.467,95.812)" stroke-width=".3985" stroke-linecap="butt" stroke-miterlimit="10" stroke-linejoin="miter" fill="none" stroke="#000000" d="M94.96176 85.04042C94.96176 90.5199 90.5199 94.96176 85.04042 94.96176 79.56094 94.96176 75.11908 90.5199 75.11908 85.04042 75.11908 79.56094 79.56094 75.11908 85.04042 75.11908 90.5199 75.11908 94.96176 79.56094 94.96176 85.04042ZM85.04042 85.04042"/>
<use data-text="7" xlink:href="#font_1_7" transform="matrix(9.9626,0,0,-9.9626,121.01601,13.982994)"/>
<path transform="matrix(1,0,0,-1,38.467,95.812)" d="M294.0416 85.04042C294.0416 90.88008 289.30775 95.61395 283.4681 95.61395 277.62843 95.61395 272.89457 90.88008 272.89457 85.04042 272.89457 79.20076 277.62843 74.4669 283.4681 74.4669 289.30775 74.4669 294.0416 79.20076 294.0416 85.04042ZM283.4681 85.04042" fill="#ff8000"/>
<path transform="matrix(1,0,0,-1,38.467,95.812)" stroke-width=".3985" stroke-linecap="butt" stroke-miterlimit="10" stroke-linejoin="miter" fill="none" stroke="#000000" d="M294.0416 85.04042C294.0416 90.88008 289.30775 95.61395 283.4681 95.61395 277.62843 95.61395 272.89457 90.88008 272.89457 85.04042 272.89457 79.20076 277.62843 74.4669 283.4681 74.4669 289.30775 74.4669 294.0416 79.20076 294.0416 85.04042ZM283.4681 85.04042"/>
<use data-text="3" xlink:href="#font_1_3" transform="matrix(9.9626,0,0,-9.9626,316.95,13.982994)"/>
<use data-text="1" xlink:href="#font_1_1" transform="matrix(9.9626,0,0,-9.9626,321.9313,13.982994)"/>
<path transform="matrix(1,0,0,-1,38.467,95.812)" d="M435.77568 85.04042C435.77568 90.88008 431.0418 95.61395 425.20213 95.61395 419.3625 95.61395 414.62864 90.88008 414.62864 85.04042 414.62864 79.20076 419.3625 74.4669 425.20213 74.4669 431.0418 74.4669 435.77568 79.20076 435.77568 85.04042ZM425.20213 85.04042" fill="#ff8000"/>
<path transform="matrix(1,0,0,-1,38.467,95.812)" stroke-width=".3985" stroke-linecap="butt" stroke-miterlimit="10" stroke-linejoin="miter" fill="none" stroke="#000000" d="M435.77568 85.04042C435.77568 90.88008 431.0418 95.61395 425.20213 95.61395 419.3625 95.61395 414.62864 90.88008 414.62864 85.04042 414.62864 79.20076 419.3625 74.4669 425.20213 74.4669 431.0418 74.4669 435.77568 79.20076 435.77568 85.04042ZM425.20213 85.04042"/>
<use data-text="5" xlink:href="#font_1_5" transform="matrix(9.9626,0,0,-9.9626,458.682,13.982994)"/>
<use data-text="3" xlink:href="#font_1_3" transform="matrix(9.9626,0,0,-9.9626,463.6633,13.982994)"/>
<path transform="matrix(1,0,0,-1,38.467,95.812)" d="M520.8161 85.04042C520.8161 90.88008 516.0822 95.61395 510.24259 95.61395 504.40293 95.61395 499.66905 90.88008 499.66905 85.04042 499.66905 79.20076 504.40293 74.4669 510.24259 74.4669 516.0822 74.4669 520.8161 79.20076 520.8161 85.04042ZM510.24259 85.04042" fill="#ff8000"/>
<path transform="matrix(1,0,0,-1,38.467,95.812)" stroke-width=".3985" stroke-linecap="butt" stroke-miterlimit="10" stroke-linejoin="miter" fill="none" stroke="#000000" d="M520.8161 85.04042C520.8161 90.88008 516.0822 95.61395 510.24259 95.61395 504.40293 95.61395 499.66905 90.88008 499.66905 85.04042 499.66905 79.20076 504.40293 74.4669 510.24259 74.4669 516.0822 74.4669 520.8161 79.20076 520.8161 85.04042ZM510.24259 85.04042"/>
<use data-text="6" xlink:href="#font_1_6" transform="matrix(9.9626,0,0,-9.9626,543.722,13.982994)"/>
<use data-text="7" xlink:href="#font_1_7" transform="matrix(9.9626,0,0,-9.9626,548.7033,13.982994)"/>
<path transform="matrix(1,0,0,-1,38.467,95.812)" stroke-width=".59776" stroke-linecap="butt" stroke-dasharray="2.98883,2.98883" stroke-miterlimit="10" stroke-linejoin="miter" fill="none" stroke="#929292" d="M-18.22621 0H-10.70341"/>
<path transform="matrix(1,0,0,-1,27.763588,95.812)" stroke-width=".4782" stroke-linecap="round" stroke-linejoin="round" fill="none" stroke="#929292" d="M-1.37483 1.83311C-1.26025 1.14569 0 .11455 .34369 0 0-.11455-1.26025-1.14569-1.37483-1.83311"/>
<path transform="matrix(1,0,0,-1,38.467,95.812)" stroke-width=".59776" stroke-linecap="butt" stroke-dasharray="2.98883,2.98883" stroke-miterlimit="10" stroke-linejoin="miter" fill="none" stroke="#929292" d="M38.46739 0H45.99019"/>
<path transform="matrix(1,0,0,-1,84.457187,95.812)" stroke-width=".4782" stroke-linecap="round" stroke-linejoin="round" fill="none" stroke="#929292" d="M-1.37483 1.83311C-1.26025 1.14569 0 .11455 .34369 0 0-.11455-1.26025-1.14569-1.37483-1.83311"/>
<path transform="matrix(1,0,0,-1,38.467,95.812)" stroke-width=".59776" stroke-linecap="butt" stroke-dasharray="2.98883,2.98883" stroke-miterlimit="10" stroke-linejoin="miter" fill="none" stroke="#929292" d="M95.16101 0H102.03163"/>
<path transform="matrix(1,0,0,-1,140.49863,95.812)" stroke-width=".4782" stroke-linecap="round" stroke-linejoin="round" fill="none" stroke="#929292" d="M-1.37483 1.83311C-1.26025 1.14569 0 .11455 .34369 0 0-.11455-1.26025-1.14569-1.37483-1.83311"/>
<path transform="matrix(1,0,0,-1,38.467,95.812)" stroke-width=".59776" stroke-linecap="butt" stroke-dasharray="2.98883,2.98883" stroke-miterlimit="10" stroke-linejoin="miter" fill="none" stroke="#929292" d="M152.50682 0H158.72525"/>
<path transform="matrix(1,0,0,-1,197.19225,95.812)" stroke-width=".4782" stroke-linecap="round" stroke-linejoin="round" fill="none" stroke="#929292" d="M-1.37483 1.83311C-1.26025 1.14569 0 .11455 .34369 0 0-.11455-1.26025-1.14569-1.37483-1.83311"/>
<path transform="matrix(1,0,0,-1,38.467,95.812)" stroke-width=".59776" stroke-linecap="butt" stroke-dasharray="2.98883,2.98883" stroke-miterlimit="10" stroke-linejoin="miter" fill="none" stroke="#929292" d="M180.85363 0H187.07205"/>
<path transform="matrix(1,0,0,-1,225.53905,95.812)" stroke-width=".4782" stroke-linecap="round" stroke-linejoin="round" fill="none" stroke="#929292" d="M-1.37483 1.83311C-1.26025 1.14569 0 .11455 .34369 0 0-.11455-1.26025-1.14569-1.37483-1.83311"/>
<path transform="matrix(1,0,0,-1,38.467,95.812)" stroke-width=".59776" stroke-linecap="butt" stroke-dasharray="2.98883,2.98883" stroke-miterlimit="10" stroke-linejoin="miter" fill="none" stroke="#929292" d="M294.24089 0H300.4593"/>
<path transform="matrix(1,0,0,-1,338.9263,95.812)" stroke-width=".4782" stroke-linecap="round" stroke-linejoin="round" fill="none" stroke="#929292" d="M-1.37483 1.83311C-1.26025 1.14569 0 .11455 .34369 0 0-.11455-1.26025-1.14569-1.37483-1.83311"/>
<path transform="matrix(1,0,0,-1,38.467,95.812)" stroke-width=".59776" stroke-linecap="butt" stroke-dasharray="2.98883,2.98883" stroke-miterlimit="10" stroke-linejoin="miter" fill="none" stroke="#929292" d="M379.2813 0H385.49974"/>
<path transform="matrix(1,0,0,-1,423.96675,95.812)" stroke-width=".4782" stroke-linecap="round" stroke-linejoin="round" fill="none" stroke="#929292" d="M-1.37483 1.83311C-1.26025 1.14569 0 .11455 .34369 0 0-.11455-1.26025-1.14569-1.37483-1.83311"/>
<path transform="matrix(1,0,0,-1,38.467,95.812)" stroke-width=".59776" stroke-linecap="butt" stroke-dasharray="2.98883,2.98883" stroke-miterlimit="10" stroke-linejoin="miter" fill="none" stroke="#929292" d="M435.9749 0H442.19334"/>
<path transform="matrix(1,0,0,-1,480.66035,95.812)" stroke-width=".4782" stroke-linecap="round" stroke-linejoin="round" fill="none" stroke="#929292" d="M-1.37483 1.83311C-1.26025 1.14569 0 .11455 .34369 0 0-.11455-1.26025-1.14569-1.37483-1.83311"/>
<path transform="matrix(1,0,0,-1,38.467,95.812)" stroke-width=".59776" stroke-linecap="butt" stroke-dasharray="2.98883,2.98883" stroke-miterlimit="10" stroke-linejoin="miter" fill="none" stroke="#929292" d="M-18.22638 42.52644 17.64354 42.52612"/>
<path transform="matrix(1,0,0,-1,56.11054,53.285879)" stroke-width=".4782" stroke-linecap="round" stroke-linejoin="round" fill="none" stroke="#929292" d="M-1.37483 1.83311C-1.26025 1.14569 0 .11455 .34369 0 0-.11455-1.26025-1.14569-1.37483-1.83311"/>
<path transform="matrix(1,0,0,-1,38.467,95.812)" stroke-width=".59776" stroke-linecap="butt" stroke-dasharray="2.98883,2.98883" stroke-miterlimit="10" stroke-linejoin="miter" fill="none" stroke="#929292" d="M95.16084 42.52675 130.3786 42.5262"/>
<path transform="matrix(1,0,0,-1,168.8456,53.285799)" stroke-width=".4782" stroke-linecap="round" stroke-linejoin="round" fill="none" stroke="#929292" d="M-1.37483 1.83311C-1.26025 1.14569 0 .11455 .34369 0 0-.11455-1.26025-1.14569-1.37483-1.83311"/>
<path transform="matrix(1,0,0,-1,38.467,95.812)" stroke-width=".59776" stroke-linecap="butt" stroke-dasharray="2.98883,2.98883" stroke-miterlimit="10" stroke-linejoin="miter" fill="none" stroke="#929292" d="M152.50666 42.5262 215.41904 42.52585"/>
<path transform="matrix(1,0,0,-1,253.88603,53.286149)" stroke-width=".4782" stroke-linecap="round" stroke-linejoin="round" fill="none" stroke="#929292" d="M-1.37483 1.83311C-1.26025 1.14569 0 .11455 .34369 0 0-.11455-1.26025-1.14569-1.37483-1.83311"/>
<path transform="matrix(1,0,0,-1,38.467,95.812)" stroke-width=".59776" stroke-linecap="butt" stroke-dasharray="2.98883,2.98883" stroke-miterlimit="10" stroke-linejoin="miter" fill="none" stroke="#929292" d="M237.54708 42.52963 243.76586 42.52734"/>
<path transform="matrix(.99998,.00034,.00034,-.99998,282.23286,53.284639)" stroke-width=".4782" stroke-linecap="round" stroke-linejoin="round" fill="none" stroke="#929292" d="M-1.37483 1.83311C-1.26025 1.14569 0 .11455 .34369 0 0-.11455-1.26025-1.14569-1.37483-1.83311"/>
<path transform="matrix(1,0,0,-1,38.467,95.812)" stroke-width=".59776" stroke-linecap="butt" stroke-dasharray="2.98883,2.98883" stroke-miterlimit="10" stroke-linejoin="miter" fill="none" stroke="#929292" d="M294.2407 42.52684 328.80628 42.5262"/>
<path transform="matrix(1,0,0,-1,367.2733,53.285799)" stroke-width=".4782" stroke-linecap="round" stroke-linejoin="round" fill="none" stroke="#929292" d="M-1.37483 1.83311C-1.26025 1.14569 0 .11455 .34369 0 0-.11455-1.26025-1.14569-1.37483-1.83311"/>
<path transform="matrix(1,0,0,-1,38.467,95.812)" stroke-width=".59776" stroke-linecap="butt" stroke-dasharray="2.98883,2.98883" stroke-miterlimit="10" stroke-linejoin="miter" fill="none" stroke="#929292" d="M350.93434 42.52963 357.15309 42.52734"/>
<path transform="matrix(.99998,.00034,.00034,-.99998,395.6201,53.284639)" stroke-width=".4782" stroke-linecap="round" stroke-linejoin="round" fill="none" stroke="#929292" d="M-1.37483 1.83311C-1.26025 1.14569 0 .11455 .34369 0 0-.11455-1.26025-1.14569-1.37483-1.83311"/>
<path transform="matrix(1,0,0,-1,38.467,95.812)" stroke-width=".59776" stroke-linecap="butt" stroke-dasharray="2.98883,2.98883" stroke-miterlimit="10" stroke-linejoin="miter" fill="none" stroke="#929292" d="M435.97477 42.52684 470.54035 42.5262"/>
<path transform="matrix(1,0,0,-1,509.00736,53.285799)" stroke-width=".4782" stroke-linecap="round" stroke-linejoin="round" fill="none" stroke="#929292" d="M-1.37483 1.83311C-1.26025 1.14569 0 .11455 .34369 0 0-.11455-1.26025-1.14569-1.37483-1.83311"/>
<path transform="matrix(1,0,0,-1,38.467,95.812)" stroke-width=".59776" stroke-linecap="butt" stroke-dasharray="2.98883,2.98883" stroke-miterlimit="10" stroke-linejoin="miter" fill="none" stroke="#929292" d="M521.0152 42.52963 527.23397 42.52734"/>
<path transform="matrix(.99998,.00034,.00034,-.99998,565.7009,53.284639)" stroke-width=".4782" stroke-linecap="round" stroke-linejoin="round" fill="none" stroke="#929292" d="M-1.37483 1.83311C-1.26025 1.14569 0 .11455 .34369 0 0-.11455-1.26025-1.14569-1.37483-1.83311"/>
<path transform="matrix(1,0,0,-1,38.467,95.812)" stroke-width=".59776" stroke-linecap="butt" stroke-dasharray="2.98883,2.98883" stroke-miterlimit="10" stroke-linejoin="miter" fill="none" stroke="#929292" d="M-18.22638 85.0517 74.33716 85.05154"/>
<path transform="matrix(1,0,0,-1,112.80415,10.76046)" stroke-width=".4782" stroke-linecap="round" stroke-linejoin="round" fill="none" stroke="#929292" d="M-1.37483 1.83311C-1.26025 1.14569 0 .11455 .34369 0 0-.11455-1.26025-1.14569-1.37483-1.83311"/>
<path transform="matrix(1,0,0,-1,38.467,95.812)" stroke-width=".59776" stroke-linecap="butt" stroke-dasharray="2.98883,2.98883" stroke-miterlimit="10" stroke-linejoin="miter" fill="none" stroke="#929292" d="M95.16084 85.05124 272.11268 85.05127"/>
<path transform="matrix(1,0,0,-1,310.57969,10.760727)" stroke-width=".4782" stroke-linecap="round" stroke-linejoin="round" fill="none" stroke="#929292" d="M-1.37483 1.83311C-1.26025 1.14569 0 .11455 .34369 0 0-.11455-1.26025-1.14569-1.37483-1.83311"/>
<path transform="matrix(1,0,0,-1,38.467,95.812)" stroke-width=".59776" stroke-linecap="butt" stroke-dasharray="2.98883,2.98883" stroke-miterlimit="10" stroke-linejoin="miter" fill="none" stroke="#929292" d="M294.2407 85.0516H413.8467"/>
<path transform="matrix(1,0,0,-1,452.31373,10.760399)" stroke-width=".4782" stroke-linecap="round" stroke-linejoin="round" fill="none" stroke="#929292" d="M-1.37483 1.83311C-1.26025 1.14569 0 .11455 .34369 0 0-.11455-1.26025-1.14569-1.37483-1.83311"/>
<path transform="matrix(1,0,0,-1,38.467,95.812)" stroke-width=".59776" stroke-linecap="butt" stroke-dasharray="2.98883,2.98883" stroke-miterlimit="10" stroke-linejoin="miter" fill="none" stroke="#929292" d="M435.97477 85.05225 498.88713 85.05193"/>
<path transform="matrix(1,0,0,-1,537.3541,10.760063)" stroke-width=".4782" stroke-linecap="round" stroke-linejoin="round" fill="none" stroke="#929292" d="M-1.37483 1.83311C-1.26025 1.14569 0 .11455 .34369 0 0-.11455-1.26025-1.14569-1.37483-1.83311"/>
<path transform="matrix(1,0,0,-1,38.467,95.812)" stroke-width=".79701" stroke-linecap="butt" stroke-dasharray=".79701,1.99255" stroke-miterlimit="10" stroke-linejoin="miter" fill="none" stroke="#000000" d="M10.12059 0H17.51884"/>
<path transform="matrix(1,0,0,-1,55.98584,95.812)" stroke-width=".6376" stroke-linecap="round" stroke-linejoin="round" fill="none" stroke="#000000" d="M-1.55415 2.0722C-1.42464 1.29512 0 .1295 .38852 0 0-.1295-1.42464-1.29512-1.55415-2.0722"/>
<path transform="matrix(1,0,0,-1,38.467,95.812)" stroke-width=".79701" stroke-linecap="butt" stroke-dasharray=".79701,1.99255" stroke-miterlimit="10" stroke-linejoin="miter" fill="none" stroke="#000000" d="M66.81421 0H74.21246"/>
<path transform="matrix(1,0,0,-1,112.67946,95.812)" stroke-width=".6376" stroke-linecap="round" stroke-linejoin="round" fill="none" stroke="#000000" d="M-1.55415 2.0722C-1.42464 1.29512 0 .1295 .38852 0 0-.1295-1.42464-1.29512-1.55415-2.0722"/>
<path transform="matrix(1,0,0,-1,38.467,95.812)" stroke-width=".79701" stroke-linecap="butt" stroke-dasharray=".79701,1.99255" stroke-miterlimit="10" stroke-linejoin="miter" fill="none" stroke="#000000" d="M124.16 0H130.2539"/>
<path transform="matrix(1,0,0,-1,168.7209,95.812)" stroke-width=".6376" stroke-linecap="round" stroke-linejoin="round" fill="none" stroke="#000000" d="M-1.55415 2.0722C-1.42464 1.29512 0 .1295 .38852 0 0-.1295-1.42464-1.29512-1.55415-2.0722"/>
<path transform="matrix(1,0,0,-1,38.467,95.812)" stroke-width=".79701" stroke-linecap="butt" stroke-dasharray=".79701,1.99255" stroke-miterlimit="10" stroke-linejoin="miter" fill="none" stroke="#000000" d="M209.20044 0H215.29433"/>
<path transform="matrix(1,0,0,-1,253.76132,95.812)" stroke-width=".6376" stroke-linecap="round" stroke-linejoin="round" fill="none" stroke="#000000" d="M-1.55415 2.0722C-1.42464 1.29512 0 .1295 .38852 0 0-.1295-1.42464-1.29512-1.55415-2.0722"/>
<path transform="matrix(1,0,0,-1,38.467,95.812)" stroke-width=".79701" stroke-linecap="butt" stroke-dasharray=".79701,1.99255" stroke-miterlimit="10" stroke-linejoin="miter" fill="none" stroke="#000000" d="M237.54724 0H243.64115"/>
<path transform="matrix(1,0,0,-1,282.10816,95.812)" stroke-width=".6376" stroke-linecap="round" stroke-linejoin="round" fill="none" stroke="#000000" d="M-1.55415 2.0722C-1.42464 1.29512 0 .1295 .38852 0 0-.1295-1.42464-1.29512-1.55415-2.0722"/>
<path transform="matrix(1,0,0,-1,38.467,95.812)" stroke-width=".79701" stroke-linecap="butt" stroke-dasharray=".79701,1.99255" stroke-miterlimit="10" stroke-linejoin="miter" fill="none" stroke="#000000" d="M265.89408 0H271.98796"/>
<path transform="matrix(1,0,0,-1,310.45497,95.812)" stroke-width=".6376" stroke-linecap="round" stroke-linejoin="round" fill="none" stroke="#000000" d="M-1.55415 2.0722C-1.42464 1.29512 0 .1295 .38852 0 0-.1295-1.42464-1.29512-1.55415-2.0722"/>
<path transform="matrix(1,0,0,-1,38.467,95.812)" stroke-width=".79701" stroke-linecap="butt" stroke-dasharray=".79701,1.99255" stroke-miterlimit="10" stroke-linejoin="miter" fill="none" stroke="#000000" d="M322.58769 0H328.68156"/>
<path transform="matrix(1,0,0,-1,367.14857,95.812)" stroke-width=".6376" stroke-linecap="round" stroke-linejoin="round" fill="none" stroke="#000000" d="M-1.55415 2.0722C-1.42464 1.29512 0 .1295 .38852 0 0-.1295-1.42464-1.29512-1.55415-2.0722"/>
<path transform="matrix(1,0,0,-1,38.467,95.812)" stroke-width=".79701" stroke-linecap="butt" stroke-dasharray=".79701,1.99255" stroke-miterlimit="10" stroke-linejoin="miter" fill="none" stroke="#000000" d="M350.93449 0H357.02839"/>
<path transform="matrix(1,0,0,-1,395.4954,95.812)" stroke-width=".6376" stroke-linecap="round" stroke-linejoin="round" fill="none" stroke="#000000" d="M-1.55415 2.0722C-1.42464 1.29512 0 .1295 .38852 0 0-.1295-1.42464-1.29512-1.55415-2.0722"/>
<path transform="matrix(1,0,0,-1,38.467,95.812)" stroke-width=".79701" stroke-linecap="butt" stroke-dasharray=".79701,1.99255" stroke-miterlimit="10" stroke-linejoin="miter" fill="none" stroke="#000000" d="M407.6281 0H413.722"/>
<path transform="matrix(1,0,0,-1,452.189,95.812)" stroke-width=".6376" stroke-linecap="round" stroke-linejoin="round" fill="none" stroke="#000000" d="M-1.55415 2.0722C-1.42464 1.29512 0 .1295 .38852 0 0-.1295-1.42464-1.29512-1.55415-2.0722"/>
<path transform="matrix(1,0,0,-1,38.467,95.812)" stroke-width=".79701" stroke-linecap="butt" stroke-dasharray=".79701,1.99255" stroke-miterlimit="10" stroke-linejoin="miter" fill="none" stroke="#000000" d="M464.32173 0H470.41563"/>
<path transform="matrix(1,0,0,-1,508.88264,95.812)" stroke-width=".6376" stroke-linecap="round" stroke-linejoin="round" fill="none" stroke="#000000" d="M-1.55415 2.0722C-1.42464 1.29512 0 .1295 .38852 0 0-.1295-1.42464-1.29512-1.55415-2.0722"/>
<path transform="matrix(1,0,0,-1,38.467,95.812)" stroke-width=".79701" stroke-linecap="butt" stroke-dasharray=".79701,1.99255" stroke-miterlimit="10" stroke-linejoin="miter" fill="none" stroke="#000000" d="M492.66853 0H498.76246"/>
<path transform="matrix(1,0,0,-1,537.22946,95.812)" stroke-width=".6376" stroke-linecap="round" stroke-linejoin="round" fill="none" stroke="#000000" d="M-1.55415 2.0722C-1.42464 1.29512 0 .1295 .38852 0 0-.1295-1.42464-1.29512-1.55415-2.0722"/>
<path transform="matrix(1,0,0,-1,38.467,95.812)" stroke-width=".79701" stroke-linecap="butt" stroke-dasharray=".79701,1.99255" stroke-miterlimit="10" stroke-linejoin="miter" fill="none" stroke="#000000" d="M521.0153 0H527.10928"/>
<path transform="matrix(1,0,0,-1,565.57626,95.812)" stroke-width=".6376" stroke-linecap="round" stroke-linejoin="round" fill="none" stroke="#000000" d="M-1.55415 2.0722C-1.42464 1.29512 0 .1295 .38852 0 0-.1295-1.42464-1.29512-1.55415-2.0722"/>
<path transform="matrix(1,0,0,-1,38.467,95.812)" stroke-width=".59776" stroke-linecap="butt" stroke-miterlimit="10" stroke-linejoin="miter" fill="none" stroke="#000000" d="M-28.3468 32.40355V10.70465"/>
<path transform="matrix(0,1,1,0,10.120199,85.107349)" stroke-width=".4782" stroke-linecap="round" stroke-linejoin="round" fill="none" stroke="#000000" d="M-1.37483 1.83311C-1.26025 1.14569 0 .11455 .34369 0 0-.11455-1.26025-1.14569-1.37483-1.83311"/>
<path transform="matrix(1,0,0,-1,38.467,95.812)" stroke-width=".59776" stroke-linecap="butt" stroke-miterlimit="10" stroke-linejoin="miter" fill="none" stroke="#000000" d="M28.3468 32.40355V10.70465"/>
<path transform="matrix(0,1,1,0,66.8138,85.107349)" stroke-width=".4782" stroke-linecap="round" stroke-linejoin="round" fill="none" stroke="#000000" d="M-1.37483 1.83311C-1.26025 1.14569 0 .11455 .34369 0 0-.11455-1.26025-1.14569-1.37483-1.83311"/>
<path transform="matrix(1,0,0,-1,38.467,95.812)" stroke-width=".59776" stroke-linecap="butt" stroke-miterlimit="10" stroke-linejoin="miter" fill="none" stroke="#000000" d="M85.04042 32.40355V10.70465"/>
<path transform="matrix(0,1,1,0,123.507419,85.107349)" stroke-width=".4782" stroke-linecap="round" stroke-linejoin="round" fill="none" stroke="#000000" d="M-1.37483 1.83311C-1.26025 1.14569 0 .11455 .34369 0 0-.11455-1.26025-1.14569-1.37483-1.83311"/>
<path transform="matrix(1,0,0,-1,38.467,95.812)" stroke-width=".59776" stroke-linecap="butt" stroke-miterlimit="10" stroke-linejoin="miter" fill="none" stroke="#000000" d="M141.73404 31.75127V11.3569"/>
<path transform="matrix(0,1,1,0,180.20104,84.45509)" stroke-width=".4782" stroke-linecap="round" stroke-linejoin="round" fill="none" stroke="#000000" d="M-1.37483 1.83311C-1.26025 1.14569 0 .11455 .34369 0 0-.11455-1.26025-1.14569-1.37483-1.83311"/>
<path transform="matrix(1,0,0,-1,38.467,95.812)" stroke-width=".59776" stroke-linecap="butt" stroke-miterlimit="10" stroke-linejoin="miter" fill="none" stroke="#000000" d="M226.77448 31.75127V11.3569"/>
<path transform="matrix(0,1,1,0,265.2415,84.45509)" stroke-width=".4782" stroke-linecap="round" stroke-linejoin="round" fill="none" stroke="#000000" d="M-1.37483 1.83311C-1.26025 1.14569 0 .11455 .34369 0 0-.11455-1.26025-1.14569-1.37483-1.83311"/>
<path transform="matrix(1,0,0,-1,38.467,95.812)" stroke-width=".59776" stroke-linecap="butt" stroke-miterlimit="10" stroke-linejoin="miter" fill="none" stroke="#000000" d="M255.12128 31.75127V11.3569"/>
<path transform="matrix(0,1,1,0,293.5883,84.45509)" stroke-width=".4782" stroke-linecap="round" stroke-linejoin="round" fill="none" stroke="#000000" d="M-1.37483 1.83311C-1.26025 1.14569 0 .11455 .34369 0 0-.11455-1.26025-1.14569-1.37483-1.83311"/>
<path transform="matrix(1,0,0,-1,38.467,95.812)" stroke-width=".59776" stroke-linecap="butt" stroke-miterlimit="10" stroke-linejoin="miter" fill="none" stroke="#000000" d="M283.4681 31.75127V11.3569"/>
<path transform="matrix(0,1,1,0,321.93513,84.45509)" stroke-width=".4782" stroke-linecap="round" stroke-linejoin="round" fill="none" stroke="#000000" d="M-1.37483 1.83311C-1.26025 1.14569 0 .11455 .34369 0 0-.11455-1.26025-1.14569-1.37483-1.83311"/>
<path transform="matrix(1,0,0,-1,38.467,95.812)" stroke-width=".59776" stroke-linecap="butt" stroke-miterlimit="10" stroke-linejoin="miter" fill="none" stroke="#000000" d="M340.1617 31.75127V11.3569"/>
<path transform="matrix(0,1,1,0,378.62873,84.45509)" stroke-width=".4782" stroke-linecap="round" stroke-linejoin="round" fill="none" stroke="#000000" d="M-1.37483 1.83311C-1.26025 1.14569 0 .11455 .34369 0 0-.11455-1.26025-1.14569-1.37483-1.83311"/>
<path transform="matrix(1,0,0,-1,38.467,95.812)" stroke-width=".59776" stroke-linecap="butt" stroke-miterlimit="10" stroke-linejoin="miter" fill="none" stroke="#000000" d="M368.5085 31.75127V11.3569"/>
<path transform="matrix(0,1,1,0,406.97554,84.45509)" stroke-width=".4782" stroke-linecap="round" stroke-linejoin="round" fill="none" stroke="#000000" d="M-1.37483 1.83311C-1.26025 1.14569 0 .11455 .34369 0 0-.11455-1.26025-1.14569-1.37483-1.83311"/>
<path transform="matrix(1,0,0,-1,38.467,95.812)" stroke-width=".59776" stroke-linecap="butt" stroke-miterlimit="10" stroke-linejoin="miter" fill="none" stroke="#000000" d="M425.20213 31.75127V11.3569"/>
<path transform="matrix(0,1,1,0,463.66914,84.45509)" stroke-width=".4782" stroke-linecap="round" stroke-linejoin="round" fill="none" stroke="#000000" d="M-1.37483 1.83311C-1.26025 1.14569 0 .11455 .34369 0 0-.11455-1.26025-1.14569-1.37483-1.83311"/>
<path transform="matrix(1,0,0,-1,38.467,95.812)" stroke-width=".59776" stroke-linecap="butt" stroke-miterlimit="10" stroke-linejoin="miter" fill="none" stroke="#000000" d="M481.89579 31.75127V11.3569"/>
<path transform="matrix(0,1,1,0,520.3628,84.45509)" stroke-width=".4782" stroke-linecap="round" stroke-linejoin="round" fill="none" stroke="#000000" d="M-1.37483 1.83311C-1.26025 1.14569 0 .11455 .34369 0 0-.11455-1.26025-1.14569-1.37483-1.83311"/>
<path transform="matrix(1,0,0,-1,38.467,95.812)" stroke-width=".59776" stroke-linecap="butt" stroke-miterlimit="10" stroke-linejoin="miter" fill="none" stroke="#000000" d="M510.24259 31.75127V11.3569"/>
<path transform="matrix(0,1,1,0,548.7096,84.45509)" stroke-width=".4782" stroke-linecap="round" stroke-linejoin="round" fill="none" stroke="#000000" d="M-1.37483 1.83311C-1.26025 1.14569 0 .11455 .34369 0 0-.11455-1.26025-1.14569-1.37483-1.83311"/>
<path transform="matrix(1,0,0,-1,38.467,95.812)" stroke-width=".59776" stroke-linecap="butt" stroke-miterlimit="10" stroke-linejoin="miter" fill="none" stroke="#000000" d="M538.5894 31.75127V11.3569"/>
<path transform="matrix(0,1,1,0,577.0564,84.45509)" stroke-width=".4782" stroke-linecap="round" stroke-linejoin="round" fill="none" stroke="#000000" d="M-1.37483 1.83311C-1.26025 1.14569 0 .11455 .34369 0 0-.11455-1.26025-1.14569-1.37483-1.83311"/>
<path transform="matrix(1,0,0,-1,38.467,95.812)" stroke-width=".59776" stroke-linecap="butt" stroke-miterlimit="10" stroke-linejoin="miter" fill="none" stroke="#000000" d="M-28.3468 74.92897V53.23004"/>
<path transform="matrix(0,1,1,0,10.120199,42.581956)" stroke-width=".4782" stroke-linecap="round" stroke-linejoin="round" fill="none" stroke="#000000" d="M-1.37483 1.83311C-1.26025 1.14569 0 .11455 .34369 0 0-.11455-1.26025-1.14569-1.37483-1.83311"/>
<path transform="matrix(1,0,0,-1,38.467,95.812)" stroke-width=".59776" stroke-linecap="butt" stroke-miterlimit="10" stroke-linejoin="miter" fill="none" stroke="#000000" d="M85.04042 74.92897V53.23004"/>
<path transform="matrix(0,1,1,0,123.507419,42.581956)" stroke-width=".4782" stroke-linecap="round" stroke-linejoin="round" fill="none" stroke="#000000" d="M-1.37483 1.83311C-1.26025 1.14569 0 .11455 .34369 0 0-.11455-1.26025-1.14569-1.37483-1.83311"/>
<path transform="matrix(1,0,0,-1,38.467,95.812)" stroke-width=".59776" stroke-linecap="butt" stroke-miterlimit="10" stroke-linejoin="miter" fill="none" stroke="#000000" d="M283.4681 74.27669V53.8823"/>
<path transform="matrix(0,1,1,0,321.93513,41.929697)" stroke-width=".4782" stroke-linecap="round" stroke-linejoin="round" fill="none" stroke="#000000" d="M-1.37483 1.83311C-1.26025 1.14569 0 .11455 .34369 0 0-.11455-1.26025-1.14569-1.37483-1.83311"/>
<path transform="matrix(1,0,0,-1,38.467,95.812)" stroke-width=".59776" stroke-linecap="butt" stroke-miterlimit="10" stroke-linejoin="miter" fill="none" stroke="#000000" d="M425.20213 74.27669V53.8823"/>
<path transform="matrix(0,1,1,0,463.66914,41.929697)" stroke-width=".4782" stroke-linecap="round" stroke-linejoin="round" fill="none" stroke="#000000" d="M-1.37483 1.83311C-1.26025 1.14569 0 .11455 .34369 0 0-.11455-1.26025-1.14569-1.37483-1.83311"/>
<path transform="matrix(1,0,0,-1,38.467,95.812)" stroke-width=".59776" stroke-linecap="butt" stroke-miterlimit="10" stroke-linejoin="miter" fill="none" stroke="#000000" d="M510.24259 74.27669V53.8823"/>
<path transform="matrix(0,1,1,0,548.7096,41.929697)" stroke-width=".4782" stroke-linecap="round" stroke-linejoin="round" fill="none" stroke="#000000" d="M-1.37483 1.83311C-1.26025 1.14569 0 .11455 .34369 0 0-.11455-1.26025-1.14569-1.37483-1.83311"/>
<use data-text="3" xlink:href="#font_2_3" transform="matrix(8.9664,0,0,-8.9664,594.742,13.661995)" fill="#929292"/>
<use data-text="2" xlink:href="#font_2_2" transform="matrix(8.9664,0,0,-8.9664,594.742,56.18199)" fill="#929292"/>
<use data-text="1" xlink:href="#font_2_1" transform="matrix(8.9664,0,0,-8.9664,594.742,98.701)" fill="#929292"/>
</svg>
