<svg xmlns="http://www.w3.org/2000/svg" xmlns:xlink="http://www.w3.org/1999/xlink" version="1.1" width="487.662" height="70.651" viewBox="0 0 487.662 70.651">
<defs>
<path id="font_0_1" d="M.40899659 .6320038C.40899659 .65000918 .40899659 .6680145 .3889923 .6680145 .36898805 .6680145 .36898805 .6470032 .36898805 .6320038V.039993287H.09098816C.07598877 .039993287 .054992677 .039993287 .054992677 .019989014 .054992677 0 .07598877 0 .09098816 0H.6879883C.7049866 0 .72299197 0 .72299197 .019989014 .72299197 .039993287 .7049866 .039993287 .6879883 .039993287H.40899659V.6320038Z"/>
<path id="font_1_7" d="M.47599793 .609375C.4850006 .6213684 .4850006 .62338259 .4850006 .64437869H.24198914C.11999512 .64437869 .117996219 .65737918 .11399841 .67637637H.08898926L.055999757 .4702301H.08099365C.083999637 .48625184 .09298706 .5493469 .10598755 .56137087 .11299133 .5673828 .19099427 .5673828 .20399475 .5673828H.41099549C.3999939 .5513611 .32099916 .4421997 .29899598 .40914918 .20899964 .27394105 .17599488 .1347351 .17599488 .032577516 .17599488 .022567749 .17599488-.022460938 .22200012-.022460938 .2679901-.022460938 .2679901 .022567749 .2679901 .032577516V.08366394C.2679901 .13873291 .2709961 .19381714 .2789917 .24790955 .2829895 .27093507 .29699708 .35707093 .34098817 .41915895L.47599793 .609375Z"/>
<path id="font_1_3" d="M.2899933 .35191346C.37199403 .37893678 .42999269 .4490509 .42999269 .52809146 .42999269 .6100464 .34199525 .6660156 .24598694 .6660156 .14498902 .6660156 .068984989 .60606387 .068984989 .53009036 .068984989 .49710084 .09098816 .47808839 .11999512 .47808839 .15098572 .47808839 .17098999 .50009158 .17098999 .5290985 .17098999 .57910159 .12399292 .57910159 .10899353 .57910159 .13999939 .62802127 .20599365 .64100649 .24198914 .64100649 .2829895 .64100649 .33799745 .6190338 .33799745 .5290985 .33799745 .51708987 .33599855 .45906068 .30999757 .4149933 .27999879 .36691285 .24598694 .36390687 .22099304 .36291505 .21299744 .36190797 .18899536 .35990907 .18199158 .35990907 .17399597 .35890199 .16699219 .35791017 .16699219 .3479004 .16699219 .33691407 .17399597 .33691407 .19099427 .33691407H.23498535C.31698609 .33691407 .35398866 .2686615 .35398866 .17037964 .35398866 .034469606 .2849884 .0055389406 .24099732 .0055389406 .19799805 .0055389406 .12298584 .022491456 .08799744 .08137512 .12298584 .07637024 .1539917 .09837341 .1539917 .1363678 .1539917 .17237854 .1269989 .19238281 .09799194 .19238281 .07398987 .19238281 .041992189 .17837525 .041992189 .1343689 .041992189 .043441774 .1349945-.022460938 .24398804-.022460938 .3659973-.022460938 .45700074 .06838989 .45700074 .17037964 .45700074 .252594 .3939972 .33088685 .2899933 .35191346Z"/>
<path id="font_1_1" d="M.2939911 .64004519C.2939911 .66400149 .2939911 .6660156 .2709961 .6660156 .20899964 .60227969 .12098694 .60227969 .08898926 .60227969V.57128909C.10899353 .57128909 .16799927 .57128909 .21998596 .5972748V.07902527C.21998596 .042999269 .21699524 .0309906 .1269989 .0309906H.09498596V0C.12998963 .0029907227 .21699524 .0029907227 .25698854 .0029907227 .29699708 .0029907227 .38398744 .0029907227 .4189911 0V.0309906H.3869934C.29699708 .0309906 .2939911 .041992189 .2939911 .07902527V.64004519Z"/>
<path id="font_1_5" d="M.44898988 .20022583C.44898988 .3193512 .36698915 .41944886 .25898744 .41944886 .21099854 .41944886 .16799927 .40345765 .13198853 .36842347V.5637665C.1519928 .5577698 .18499756 .55078127 .21699524 .55078127 .33999635 .55078127 .4099884 .6417694 .4099884 .6547699 .4099884 .6607666 .40699769 .6657715 .3999939 .6657715 .39898683 .6657715 .39698792 .6657715 .3919983 .66278079 .37199403 .6537781 .32299806 .6337738 .2559967 .6337738 .21598816 .6337738 .16999817 .6407776 .12298584 .6617737 .114990238 .66477969 .11299133 .66477969 .11099243 .66477969 .100997928 .66477969 .100997928 .6567688 .100997928 .6407776V.34439088C.100997928 .32637025 .100997928 .31835938 .114990238 .31835938 .12199402 .31835938 .12399292 .32136537 .12799073 .32736207 .13899231 .3433838 .17599488 .39746095 .25698854 .39746095 .30899049 .39746095 .33399964 .35139466 .34199525 .33337403 .35798646 .29632569 .3600006 .25727845 .3600006 .20722962 .3600006 .17222595 .3600006 .11222839 .33599855 .07035828 .31199647 .031463624 .2749939 .0055389406 .22898865 .0055389406 .1559906 .0055389406 .09899902 .058380128 .08198547 .11723328 .084991458 .1162262 .08799744 .115234378 .09899902 .115234378 .13198853 .115234378 .14898682 .14022827 .14898682 .16423035 .14898682 .18823242 .13198853 .21322632 .09899902 .21322632 .084991458 .21322632 .049987794 .20622254 .049987794 .16023255 .049987794 .07434082 .11898804-.022460938 .23098755-.022460938 .34700013-.022460938 .44898988 .073349 .44898988 .20022583Z"/>
<path id="font_1_6" d="M.13198853 .327713V.35173036C.13198853 .6047821 .2559967 .64100649 .30699159 .64100649 .33099366 .64100649 .37298585 .634964 .394989 .6007538 .37998963 .6007538 .33999635 .6007538 .33999635 .5557556 .33999635 .524765 .3639984 .5097656 .38598634 .5097656 .4019928 .5097656 .43199159 .51875308 .43199159 .5577545 .43199159 .6178589 .3880005 .6660156 .30499269 .6660156 .1769867 .6660156 .041992189 .5367584 .041992189 .31570436 .041992189 .048553468 .1579895-.022460938 .25099183-.022460938 .3619995-.022460938 .45700074 .07156372 .45700074 .2036438 .45700074 .33070375 .36799623 .4267578 .25698854 .4267578 .18899536 .4267578 .1519928 .37573243 .13198853 .327713M.25099183 .0055389406C.18798828 .0055389406 .1579895 .06556702 .1519928 .080566409 .13398743 .127594 .13398743 .2076416 .13398743 .22564698 .13398743 .30369569 .1659851 .40374757 .2559967 .40374757 .27198792 .40374757 .31799317 .40374757 .34899903 .34172059 .36698915 .30470277 .36698915 .2536621 .36698915 .20463562 .36698915 .15661621 .36698915 .10658264 .34999085 .0705719 .31999208 .010528564 .27398683 .0055389406 .25099183 .0055389406Z"/>
<path id="font_1_2" d="M.1269989 .07699585 .23298645 .18003845C.3889923 .31811524 .44898988 .3721466 .44898988 .47216798 .44898988 .5860901 .35899354 .6660156 .23699951 .6660156 .12399292 .6660156 .049987794 .57411196 .049987794 .48516847 .049987794 .4291687 .099990848 .4291687 .102996829 .4291687 .11999512 .4291687 .15499878 .44117738 .15499878 .48217774 .15499878 .5081787 .13699341 .5341797 .101989749 .5341797 .09399414 .5341797 .09199524 .5341797 .08898926 .5331726 .11199951 .59806826 .1659851 .63500979 .22399903 .63500979 .31498719 .63500979 .35798646 .5541382 .35798646 .47216798 .35798646 .39215089 .30799867 .31311036 .25299073 .25108338L.06098938 .036987306C.049987794 .025985718 .049987794 .023986817 .049987794 0H.42099L.44898988 .17404175H.42399598C.4189911 .14402771 .4119873 .1000061 .4019928 .084991458 .394989 .07699585 .32899476 .07699585 .30699159 .07699585H.1269989Z"/>
<path id="font_1_8" d="M.36698915 .31781007V.28579713C.36698915 .05178833 .2630005 .0055389406 .20498657 .0055389406 .18798828 .0055389406 .13398743 .007537842 .10699463 .041778566 .15098572 .041778566 .15899658 .07078552 .15899658 .08778381 .15899658 .118774417 .1349945 .13378906 .11299133 .13378906 .09700012 .13378906 .066986087 .12478638 .066986087 .08578491 .066986087 .018615723 .12098694-.022460938 .20599365-.022460938 .33499146-.022460938 .45700074 .11378479 .45700074 .32881166 .45700074 .5979767 .34199525 .6660156 .25299073 .6660156 .19799805 .6660156 .14898682 .64801028 .10598755 .60298159 .06498718 .5579529 .041992189 .5159302 .041992189 .44088746 .041992189 .31581117 .12998963 .21777344 .24198914 .21777344 .30299378 .21777344 .34399415 .25978089 .36698915 .31781007M.24299622 .24076844C.22698975 .24076844 .18099976 .24076844 .1499939 .3038025 .13198853 .3408203 .13198853 .39085389 .13198853 .43988038 .13198853 .49391175 .13198853 .54093936 .15299988 .5779724 .17999268 .6279907 .21798706 .64100649 .25299073 .64100649 .29899598 .64100649 .33198548 .60697939 .34899903 .5619507 .36099244 .52993777 .36499024 .4669037 .36499024 .42086793 .36499024 .3378296 .33099366 .24076844 .24299622 .24076844Z"/>
<path id="font_1_4" d="M.2939911 .16503906V.07800293C.2939911 .041992189 .2919922 .0309906 .21798706 .0309906H.19699097V0C.23799134 .0029907227 .2899933 .0029907227 .33198548 .0029907227 .37399293 .0029907227 .4269867 .0029907227 .46798707 0V.0309906H.44699098C.37298585 .0309906 .37098695 .041992189 .37098695 .07800293V.16503906H.47099305V.19602967H.37098695V.65075686C.37098695 .67074587 .37098695 .6767578 .35499574 .6767578 .34599305 .6767578 .34298707 .6767578 .33499146 .66474917L.027999878 .19602967V.16503906H.2939911M.2999878 .19602967H.055999757L.2999878 .5688019V.19602967Z"/>
<path id="font_2_3" d="M.30499269 .35195924C.397995 .38697816 .44198609 .46006776 .44198609 .5290985 .44198609 .60606387 .35699464 .6660156 .25299073 .6660156 .14898682 .6660156 .070999149 .60705569 .070999149 .5310974 .070999149 .49809266 .09298706 .47909547 .12199402 .47909547 .15098572 .47909547 .17199707 .50009158 .17199707 .5290985 .17199707 .5640869 .147995 .57910159 .11399841 .57910159 .13999939 .6210327 .20098877 .64100649 .25 .64100649 .33299256 .64100649 .34899903 .5750885 .34899903 .52809146 .34899903 .49809266 .34298707 .45005799 .31799317 .41201783 .2869873 .36695863 .2519989 .36495973 .22299195 .36296083 .19799805 .36094667 .19599915 .36094667 .18798828 .36094667 .1789856 .35995484 .17098999 .35894776 .17098999 .34794618 .17098999 .33496095 .1789856 .33496095 .19599915 .33496095H.24299622C.32998658 .33496095 .36799623 .2646637 .36799623 .16937256 .36799623 .04145813 .2999878 .0055389406 .24899292 .0055389406 .22999573 .0055389406 .1329956 .010528564 .08799744 .0843811 .12399292 .07939148 .1519928 .10437012 .1519928 .13838196 .1519928 .17137146 .1269989 .19238281 .09799194 .19238281 .07299805 .19238281 .042999269 .17736817 .042999269 .13537598 .042999269 .046447755 .13598633-.022460938 .2519989-.022460938 .3769989-.022460938 .46998597 .06741333 .46998597 .16937256 .46998597 .25663758 .40098573 .33093263 .30499269 .35195924Z"/>
<path id="font_2_2" d="M.46199037 .17704773H.43399049C.43199159 .16404724 .42399598 .10501099 .41099549 .08900452 .40499879 .07998657 .33599855 .07998657 .31599427 .07998657H.13798523L.23699951 .17404175C.40098573 .3161316 .46199037 .36915589 .46199037 .4711914 .46199037 .5860901 .36698915 .6660156 .24398804 .6660156 .1289978 .6660156 .050994874 .575119 .050994874 .4841919 .050994874 .43418885 .09399414 .42919923 .102996829 .42919923 .125 .42919923 .15499878 .44519044 .15499878 .48120118 .15499878 .51119998 .13398743 .5332031 .102996829 .5332031 .09799194 .5332031 .09498596 .5332031 .09098816 .53219607 .114990238 .6030731 .1789856 .63500979 .23298645 .63500979 .33499146 .63500979 .36999513 .5401764 .36999513 .4711914 .36999513 .36915589 .29299928 .28611756 .24499512 .23408509L.06199646 .035995485C.050994874 .024993897 .050994874 .022994996 .050994874 0H.43399049L.46199037 .17704773Z"/>
<path id="font_2_1" d="M.3039856 .6392822C.3039856 .6642761 .30299378 .666275 .27799989 .666275 .21598816 .60227969 .12399292 .60227969 .09298706 .60227969V.57128909C.11199951 .57128909 .17298889 .57128909 .22698975 .5972748V.08001709C.22698975 .042999269 .22399903 .0309906 .1309967 .0309906H.09899902V0C.1349945 .0029907227 .22399903 .0029907227 .2649994 .0029907227 .30599977 .0029907227 .3959961 .0029907227 .43199159 0V.0309906H.3999939C.30699159 .0309906 .3039856 .042999269 .3039856 .08001709V.6392822Z"/>
</defs>
<path transform="matrix(1,0,0,-1,25.506,63.672)" d="M256.59205 63.47348H179.94864C177.7477 63.47348 175.96353 61.68932 175.96353 59.48837V53.89886C175.96353 51.69792 177.7477 49.91376 179.94864 49.91376H256.59205C258.79298 49.91376 260.57716 51.69792 260.57716 53.89886V59.48837C260.57716 61.68932 258.79298 63.47348 256.59205 63.47348ZM192.7667 63.47348V49.91376M209.76912 63.47348V49.91376M226.77153 63.47348V49.91376M243.77396 63.47348V49.91376" fill="#ff8000"/>
<path transform="matrix(1,0,0,-1,25.506,63.672)" stroke-width=".3985" stroke-linecap="butt" stroke-miterlimit="10" stroke-linejoin="miter" fill="none" stroke="#000000" d="M256.59205 63.47348H179.94864C177.7477 63.47348 175.96353 61.68932 175.96353 59.48837V53.89886C175.96353 51.69792 177.7477 49.91376 179.94864 49.91376H256.59205C258.79298 49.91376 260.57716 51.69792 260.57716 53.89886V59.48837C260.57716 61.68932 258.79298 63.47348 256.59205 63.47348ZM192.7667 63.47348V49.91376M209.76912 63.47348V49.91376M226.77153 63.47348V49.91376M243.77396 63.47348V49.91376"/>
<use data-text="&#x22a5;" xlink:href="#font_0_1" transform="matrix(9.9626,0,0,-9.9626,205.895,10.438)"/>
<use data-text="7" xlink:href="#font_1_7" transform="matrix(9.9626,0,0,-9.9626,224.281,10.188999)"/>
<use data-text="3" xlink:href="#font_1_3" transform="matrix(9.9626,0,0,-9.9626,238.79199,10.188999)"/>
<use data-text="1" xlink:href="#font_1_1" transform="matrix(9.9626,0,0,-9.9626,243.77329,10.188999)"/>
<use data-text="5" xlink:href="#font_1_5" transform="matrix(9.9626,0,0,-9.9626,255.795,10.188999)"/>
<use data-text="3" xlink:href="#font_1_3" transform="matrix(9.9626,0,0,-9.9626,260.7763,10.188999)"/>
<use data-text="6" xlink:href="#font_1_6" transform="matrix(9.9626,0,0,-9.9626,272.797,10.188999)"/>
<use data-text="7" xlink:href="#font_1_7" transform="matrix(9.9626,0,0,-9.9626,277.7783,10.188999)"/>
<path transform="matrix(1,0,0,-1,25.506,63.672)" d="M24.1566 35.12668H-1.4795C-3.68045 35.12668-5.46461 33.34251-5.46461 31.14157V25.55205C-5.46461 23.35112-3.68045 21.56694-1.4795 21.56694H24.1566C26.35754 21.56694 28.14171 23.35112 28.14171 25.55205V31.14157C28.14171 33.34251 26.35754 35.12668 24.1566 35.12668ZM11.33853 35.12668V21.56694" fill="#e8e8e8"/>
<path transform="matrix(1,0,0,-1,25.506,63.672)" stroke-width=".3985" stroke-linecap="butt" stroke-miterlimit="10" stroke-linejoin="miter" fill="none" stroke="#000000" d="M24.1566 35.12668H-1.4795C-3.68045 35.12668-5.46461 33.34251-5.46461 31.14157V25.55205C-5.46461 23.35112-3.68045 21.56694-1.4795 21.56694H24.1566C26.35754 21.56694 28.14171 23.35112 28.14171 25.55205V31.14157C28.14171 33.34251 26.35754 35.12668 24.1566 35.12668ZM11.33853 35.12668V21.56694"/>
<use data-text="&#x22a5;" xlink:href="#font_0_1" transform="matrix(9.9626,0,0,-9.9626,24.469,38.785005)"/>
<use data-text="3" xlink:href="#font_1_3" transform="matrix(9.9626,0,0,-9.9626,42.855,38.536)"/>
<path transform="matrix(1,0,0,-1,25.506,63.672)" d="M168.71967 34.87761H109.07869C106.87775 34.87761 105.09358 33.09344 105.09358 30.8925V25.80112C105.09358 23.60019 106.87775 21.81601 109.07869 21.81601H168.71967C170.92061 21.81601 172.70478 23.60019 172.70478 25.80112V30.8925C172.70478 33.09344 170.92061 34.87761 168.71967 34.87761ZM121.89674 34.87761V21.81601M138.89916 34.87761V21.81601M155.90158 34.87761V21.81601" fill="#ec008c"/>
<path transform="matrix(1,0,0,-1,25.506,63.672)" stroke-width=".3985" stroke-linecap="butt" stroke-miterlimit="10" stroke-linejoin="miter" fill="none" stroke="#000000" d="M168.71967 34.87761H109.07869C106.87775 34.87761 105.09358 33.09344 105.09358 30.8925V25.80112C105.09358 23.60019 106.87775 21.81601 109.07869 21.81601H168.71967C170.92061 21.81601 172.70478 23.60019 172.70478 25.80112V30.8925C172.70478 33.09344 170.92061 34.87761 168.71967 34.87761ZM121.89674 34.87761V21.81601M138.89916 34.87761V21.81601M155.90158 34.87761V21.81601"/>
<use data-text="7" xlink:href="#font_1_7" transform="matrix(9.9626,0,0,-9.9626,136.41,38.536)"/>
<use data-text="1" xlink:href="#font_1_1" transform="matrix(9.9626,0,0,-9.9626,150.921,38.536)"/>
<use data-text="3" xlink:href="#font_1_3" transform="matrix(9.9626,0,0,-9.9626,155.9023,38.536)"/>
<use data-text="2" xlink:href="#font_1_2" transform="matrix(9.9626,0,0,-9.9626,167.923,38.536)"/>
<use data-text="3" xlink:href="#font_1_3" transform="matrix(9.9626,0,0,-9.9626,172.9043,38.536)"/>
<use data-text="2" xlink:href="#font_1_2" transform="matrix(9.9626,0,0,-9.9626,184.926,38.536)"/>
<use data-text="9" xlink:href="#font_1_8" transform="matrix(9.9626,0,0,-9.9626,189.90729,38.536)"/>
<path transform="matrix(1,0,0,-1,25.506,63.672)" d="M282.10984 34.87761H239.47129C237.27034 34.87761 235.48618 33.09344 235.48618 30.8925V25.80112C235.48618 23.60019 237.27034 21.81601 239.47129 21.81601H282.10984C284.3108 21.81601 286.09495 23.60019 286.09495 25.80112V30.8925C286.09495 33.09344 284.3108 34.87761 282.10984 34.87761ZM252.28934 34.87761V21.81601M269.29176 34.87761V21.81601" fill="#00aeef"/>
<path transform="matrix(1,0,0,-1,25.506,63.672)" stroke-width=".3985" stroke-linecap="butt" stroke-miterlimit="10" stroke-linejoin="miter" fill="none" stroke="#000000" d="M282.10984 34.87761H239.47129C237.27034 34.87761 235.48618 33.09344 235.48618 30.8925V25.80112C235.48618 23.60019 237.27034 21.81601 239.47129 21.81601H282.10984C284.3108 21.81601 286.09495 23.60019 286.09495 25.80112V30.8925C286.09495 33.09344 284.3108 34.87761 282.10984 34.87761ZM252.28934 34.87761V21.81601M269.29176 34.87761V21.81601"/>
<use data-text="3" xlink:href="#font_1_3" transform="matrix(9.9626,0,0,-9.9626,264.31,38.536)"/>
<use data-text="1" xlink:href="#font_1_1" transform="matrix(9.9626,0,0,-9.9626,269.2913,38.536)"/>
<use data-text="4" xlink:href="#font_1_4" transform="matrix(9.9626,0,0,-9.9626,281.312,38.536)"/>
<use data-text="1" xlink:href="#font_1_1" transform="matrix(9.9626,0,0,-9.9626,286.2933,38.536)"/>
<use data-text="4" xlink:href="#font_1_4" transform="matrix(9.9626,0,0,-9.9626,298.31404,38.536)"/>
<use data-text="3" xlink:href="#font_1_3" transform="matrix(9.9626,0,0,-9.9626,303.29533,38.536)"/>
<path transform="matrix(1,0,0,-1,25.506,63.672)" d="M367.15318 34.87761H341.51704C339.3161 34.87761 337.53196 33.09344 337.53196 30.8925V25.80112C337.53196 23.60019 339.3161 21.81601 341.51704 21.81601H367.15318C369.3541 21.81601 371.13829 23.60019 371.13829 25.80112V30.8925C371.13829 33.09344 369.3541 34.87761 367.15318 34.87761ZM354.3351 34.87761V21.81601" fill="#ffdd88"/>
<path transform="matrix(1,0,0,-1,25.506,63.672)" stroke-width=".3985" stroke-linecap="butt" stroke-miterlimit="10" stroke-linejoin="miter" fill="none" stroke="#000000" d="M367.15318 34.87761H341.51704C339.3161 34.87761 337.53196 33.09344 337.53196 30.8925V25.80112C337.53196 23.60019 339.3161 21.81601 341.51704 21.81601H367.15318C369.3541 21.81601 371.13829 23.60019 371.13829 25.80112V30.8925C371.13829 33.09344 369.3541 34.87761 367.15318 34.87761ZM354.3351 34.87761V21.81601"/>
<use data-text="5" xlink:href="#font_1_5" transform="matrix(9.9626,0,0,-9.9626,366.354,38.536)"/>
<use data-text="3" xlink:href="#font_1_3" transform="matrix(9.9626,0,0,-9.9626,371.3353,38.536)"/>
<use data-text="6" xlink:href="#font_1_6" transform="matrix(9.9626,0,0,-9.9626,383.35603,38.536)"/>
<use data-text="1" xlink:href="#font_1_1" transform="matrix(9.9626,0,0,-9.9626,388.3373,38.536)"/>
<path transform="matrix(1,0,0,-1,25.506,63.672)" d="M429.51609 34.87761H403.87995C401.679 34.87761 399.89485 33.09344 399.89485 30.8925V25.80112C399.89485 23.60019 401.679 21.81601 403.87995 21.81601H429.51609C431.717 21.81601 433.50117 23.60019 433.50117 25.80112V30.8925C433.50117 33.09344 431.717 34.87761 429.51609 34.87761ZM416.69798 34.87761V21.81601" fill="#99f7f1"/>
<path transform="matrix(1,0,0,-1,25.506,63.672)" stroke-width=".3985" stroke-linecap="butt" stroke-miterlimit="10" stroke-linejoin="miter" fill="none" stroke="#000000" d="M429.51609 34.87761H403.87995C401.679 34.87761 399.89485 33.09344 399.89485 30.8925V25.80112C399.89485 23.60019 401.679 21.81601 403.87995 21.81601H429.51609C431.717 21.81601 433.50117 23.60019 433.50117 25.80112V30.8925C433.50117 33.09344 431.717 34.87761 429.51609 34.87761ZM416.69798 34.87761V21.81601"/>
<use data-text="6" xlink:href="#font_1_6" transform="matrix(9.9626,0,0,-9.9626,428.716,38.536)"/>
<use data-text="7" xlink:href="#font_1_7" transform="matrix(9.9626,0,0,-9.9626,433.6973,38.536)"/>
<use data-text="7" xlink:href="#font_1_7" transform="matrix(9.9626,0,0,-9.9626,445.71903,38.536)"/>
<use data-text="1" xlink:href="#font_1_1" transform="matrix(9.9626,0,0,-9.9626,450.70033,38.536)"/>
<path transform="matrix(1,0,0,-1,25.506,63.672)" d="M4.31393 6.77986H-21.32217C-23.52312 6.77986-25.30728 4.9957-25.30728 2.79475V-2.79474C-25.30728-4.99568-23.52312-6.77985-21.32217-6.77985H4.31393C6.51488-6.77985 8.29904-4.99568 8.29904-2.79474V2.79475C8.29904 4.9957 6.51488 6.77986 4.31393 6.77986ZM-8.50414 6.77986V-6.77985" fill="#fff3c7"/>
<path transform="matrix(1,0,0,-1,25.506,63.672)" stroke-width=".3985" stroke-linecap="butt" stroke-miterlimit="10" stroke-linejoin="miter" fill="none" stroke="#000000" d="M4.31393 6.77986H-21.32217C-23.52312 6.77986-25.30728 4.9957-25.30728 2.79475V-2.79474C-25.30728-4.99568-23.52312-6.77985-21.32217-6.77985H4.31393C6.51488-6.77985 8.29904-4.99568 8.29904-2.79474V2.79475C8.29904 4.9957 6.51488 6.77986 4.31393 6.77986ZM-8.50414 6.77986V-6.77985"/>
<use data-text="&#x22a5;" xlink:href="#font_0_1" transform="matrix(9.9626,0,0,-9.9626,4.6270005,67.131008)"/>
<use data-text="2" xlink:href="#font_1_2" transform="matrix(9.9626,0,0,-9.9626,23.013,66.882)"/>
<path transform="matrix(1,0,0,-1,25.506,63.672)" d="M48.25156 6.53079H22.61543C20.41449 6.53079 18.63033 4.74663 18.63033 2.54568V-2.54567C18.63033-4.74661 20.41449-6.53078 22.61543-6.53078H48.25156C50.4525-6.53078 52.23666-4.74661 52.23666-2.54567V2.54568C52.23666 4.74663 50.4525 6.53079 48.25156 6.53079ZM35.43347 6.53079V-6.53078" fill="#ccfc88"/>
<path transform="matrix(1,0,0,-1,25.506,63.672)" stroke-width=".3985" stroke-linecap="butt" stroke-miterlimit="10" stroke-linejoin="miter" fill="none" stroke="#000000" d="M48.25156 6.53079H22.61543C20.41449 6.53079 18.63033 4.74663 18.63033 2.54568V-2.54567C18.63033-4.74661 20.41449-6.53078 22.61543-6.53078H48.25156C50.4525-6.53078 52.23666-4.74661 52.23666-2.54567V2.54568C52.23666 4.74663 50.4525 6.53079 48.25156 6.53079ZM35.43347 6.53079V-6.53078"/>
<use data-text="3" xlink:href="#font_1_3" transform="matrix(9.9626,0,0,-9.9626,49.947,66.882)"/>
<use data-text="5" xlink:href="#font_1_5" transform="matrix(9.9626,0,0,-9.9626,66.95,66.882)"/>
<path transform="matrix(1,0,0,-1,25.506,63.672)" d="M90.77177 6.53079H65.13565C62.93471 6.53079 61.15054 4.74663 61.15054 2.54568V-2.54567C61.15054-4.74661 62.93471-6.53078 65.13565-6.53078H90.77177C92.97272-6.53078 94.75688-4.74661 94.75688-2.54567V2.54568C94.75688 4.74663 92.97272 6.53079 90.77177 6.53079ZM77.9537 6.53079V-6.53078" fill="#a189fa"/>
<path transform="matrix(1,0,0,-1,25.506,63.672)" stroke-width=".3985" stroke-linecap="butt" stroke-miterlimit="10" stroke-linejoin="miter" fill="none" stroke="#000000" d="M90.77177 6.53079H65.13565C62.93471 6.53079 61.15054 4.74663 61.15054 2.54568V-2.54567C61.15054-4.74661 62.93471-6.53078 65.13565-6.53078H90.77177C92.97272-6.53078 94.75688-4.74661 94.75688-2.54567V2.54568C94.75688 4.74663 92.97272 6.53079 90.77177 6.53079ZM77.9537 6.53079V-6.53078"/>
<use data-text="7" xlink:href="#font_1_7" transform="matrix(9.9626,0,0,-9.9626,92.467,66.882)"/>
<use data-text="1" xlink:href="#font_1_1" transform="matrix(9.9626,0,0,-9.9626,106.979007,66.882)"/>
<use data-text="1" xlink:href="#font_1_1" transform="matrix(9.9626,0,0,-9.9626,111.960308,66.882)"/>
<path transform="matrix(1,0,0,-1,25.506,63.672)" d="M150.29735 6.53079H107.6588C105.45786 6.53079 103.67369 4.74663 103.67369 2.54568V-2.54567C103.67369-4.74661 105.45786-6.53078 107.6588-6.53078H150.29735C152.49829-6.53078 154.28246-4.74661 154.28246-2.54567V2.54568C154.28246 4.74663 152.49829 6.53079 150.29735 6.53079ZM120.47684 6.53079V-6.53078M137.47927 6.53079V-6.53078" fill="#ffbfbf"/>
<path transform="matrix(1,0,0,-1,25.506,63.672)" stroke-width=".3985" stroke-linecap="butt" stroke-miterlimit="10" stroke-linejoin="miter" fill="none" stroke="#000000" d="M150.29735 6.53079H107.6588C105.45786 6.53079 103.67369 4.74663 103.67369 2.54568V-2.54567C103.67369-4.74661 105.45786-6.53078 107.6588-6.53078H150.29735C152.49829-6.53078 154.28246-4.74661 154.28246-2.54567V2.54568C154.28246 4.74663 152.49829 6.53079 150.29735 6.53079ZM120.47684 6.53079V-6.53078M137.47927 6.53079V-6.53078"/>
<use data-text="1" xlink:href="#font_1_1" transform="matrix(9.9626,0,0,-9.9626,132.499,66.882)"/>
<use data-text="3" xlink:href="#font_1_3" transform="matrix(9.9626,0,0,-9.9626,137.48029,66.882)"/>
<use data-text="1" xlink:href="#font_1_1" transform="matrix(9.9626,0,0,-9.9626,149.501,66.882)"/>
<use data-text="7" xlink:href="#font_1_7" transform="matrix(9.9626,0,0,-9.9626,154.4823,66.882)"/>
<use data-text="1" xlink:href="#font_1_1" transform="matrix(9.9626,0,0,-9.9626,166.50299,66.882)"/>
<use data-text="9" xlink:href="#font_1_8" transform="matrix(9.9626,0,0,-9.9626,171.48429,66.882)"/>
<path transform="matrix(1,0,0,-1,25.506,63.672)" stroke-width=".3985" stroke-linecap="butt" stroke-miterlimit="10" stroke-linejoin="miter" fill="none" stroke="#000000" d="M174.3977 6.53079H165.764C163.56307 6.53079 161.7789 4.74663 161.7789 2.54568V-2.54567C161.7789-4.74661 163.56307-6.53078 165.764-6.53078H174.3977C176.59865-6.53078 178.38282-4.74661 178.38282-2.54567V2.54568C178.38282 4.74663 176.59865 6.53079 174.3977 6.53079ZM161.7789-6.53078"/>
<use data-text="2" xlink:href="#font_1_2" transform="matrix(9.9626,0,0,-9.9626,190.603,66.882)"/>
<use data-text="3" xlink:href="#font_1_3" transform="matrix(9.9626,0,0,-9.9626,195.58429,66.882)"/>
<path transform="matrix(1,0,0,-1,25.506,63.672)" stroke-width=".3985" stroke-linecap="butt" stroke-miterlimit="10" stroke-linejoin="miter" fill="none" stroke="#000000" d="M199.90966 6.53079H191.27596C189.07501 6.53079 187.29085 4.74663 187.29085 2.54568V-2.54567C187.29085-4.74661 189.07501-6.53078 191.27596-6.53078H199.90966C202.1106-6.53078 203.89476-4.74661 203.89476-2.54567V2.54568C203.89476 4.74663 202.1106 6.53079 199.90966 6.53079ZM187.29085-6.53078"/>
<use data-text="2" xlink:href="#font_1_2" transform="matrix(9.9626,0,0,-9.9626,216.11499,66.882)"/>
<use data-text="9" xlink:href="#font_1_8" transform="matrix(9.9626,0,0,-9.9626,221.09629,66.882)"/>
<path transform="matrix(1,0,0,-1,25.506,63.672)" d="M242.42739 6.53079H216.79126C214.59032 6.53079 212.80615 4.74663 212.80615 2.54568V-2.54567C212.80615-4.74661 214.59032-6.53078 216.79126-6.53078H242.42739C244.62833-6.53078 246.41249-4.74661 246.41249-2.54567V2.54568C246.41249 4.74663 244.62833 6.53079 242.42739 6.53079ZM229.6093 6.53079V-6.53078" fill="#92f7b7"/>
<path transform="matrix(1,0,0,-1,25.506,63.672)" stroke-width=".3985" stroke-linecap="butt" stroke-miterlimit="10" stroke-linejoin="miter" fill="none" stroke="#000000" d="M242.42739 6.53079H216.79126C214.59032 6.53079 212.80615 4.74663 212.80615 2.54568V-2.54567C212.80615-4.74661 214.59032-6.53078 216.79126-6.53078H242.42739C244.62833-6.53078 246.41249-4.74661 246.41249-2.54567V2.54568C246.41249 4.74663 244.62833 6.53079 242.42739 6.53079ZM229.6093 6.53079V-6.53078"/>
<use data-text="3" xlink:href="#font_1_3" transform="matrix(9.9626,0,0,-9.9626,241.62999,66.882)"/>
<use data-text="1" xlink:href="#font_1_1" transform="matrix(9.9626,0,0,-9.9626,246.61128,66.882)"/>
<use data-text="3" xlink:href="#font_1_3" transform="matrix(9.9626,0,0,-9.9626,258.63203,66.882)"/>
<use data-text="7" xlink:href="#font_1_7" transform="matrix(9.9626,0,0,-9.9626,263.6133,66.882)"/>
<path transform="matrix(1,0,0,-1,25.506,63.672)" stroke-width=".3985" stroke-linecap="butt" stroke-miterlimit="10" stroke-linejoin="miter" fill="none" stroke="#000000" d="M267.94227 6.53079H259.30857C257.1076 6.53079 255.32346 4.74663 255.32346 2.54568V-2.54567C255.32346-4.74661 257.1076-6.53078 259.30857-6.53078H267.94227C270.1432-6.53078 271.92738-4.74661 271.92738-2.54567V2.54568C271.92738 4.74663 270.1432 6.53079 267.94227 6.53079ZM255.32346-6.53078"/>
<use data-text="4" xlink:href="#font_1_4" transform="matrix(9.9626,0,0,-9.9626,284.147,66.882)"/>
<use data-text="1" xlink:href="#font_1_1" transform="matrix(9.9626,0,0,-9.9626,289.1283,66.882)"/>
<path transform="matrix(1,0,0,-1,25.506,63.672)" d="M310.45957 6.53079H284.82344C282.62248 6.53079 280.83833 4.74663 280.83833 2.54568V-2.54567C280.83833-4.74661 282.62248-6.53078 284.82344-6.53078H310.45957C312.6605-6.53078 314.44468-4.74661 314.44468-2.54567V2.54568C314.44468 4.74663 312.6605 6.53079 310.45957 6.53079ZM297.64149 6.53079V-6.53078" fill="#f79297"/>
<path transform="matrix(1,0,0,-1,25.506,63.672)" stroke-width=".3985" stroke-linecap="butt" stroke-miterlimit="10" stroke-linejoin="miter" fill="none" stroke="#000000" d="M310.45957 6.53079H284.82344C282.62248 6.53079 280.83833 4.74663 280.83833 2.54568V-2.54567C280.83833-4.74661 282.62248-6.53078 284.82344-6.53078H310.45957C312.6605-6.53078 314.44468-4.74661 314.44468-2.54567V2.54568C314.44468 4.74663 312.6605 6.53079 310.45957 6.53079ZM297.64149 6.53079V-6.53078"/>
<use data-text="4" xlink:href="#font_1_4" transform="matrix(9.9626,0,0,-9.9626,309.661,66.882)"/>
<use data-text="3" xlink:href="#font_1_3" transform="matrix(9.9626,0,0,-9.9626,314.6423,66.882)"/>
<use data-text="4" xlink:href="#font_1_4" transform="matrix(9.9626,0,0,-9.9626,326.66404,66.882)"/>
<use data-text="7" xlink:href="#font_1_7" transform="matrix(9.9626,0,0,-9.9626,331.64533,66.882)"/>
<path transform="matrix(1,0,0,-1,25.506,63.672)" d="M352.97978 6.53079H327.34364C325.1427 6.53079 323.35856 4.74663 323.35856 2.54568V-2.54567C323.35856-4.74661 325.1427-6.53078 327.34364-6.53078H352.97978C355.18074-6.53078 356.9649-4.74661 356.9649-2.54567V2.54568C356.9649 4.74663 355.18074 6.53079 352.97978 6.53079ZM340.1617 6.53079V-6.53078" fill="#b5bfff"/>
<path transform="matrix(1,0,0,-1,25.506,63.672)" stroke-width=".3985" stroke-linecap="butt" stroke-miterlimit="10" stroke-linejoin="miter" fill="none" stroke="#000000" d="M352.97978 6.53079H327.34364C325.1427 6.53079 323.35856 4.74663 323.35856 2.54568V-2.54567C323.35856-4.74661 325.1427-6.53078 327.34364-6.53078H352.97978C355.18074-6.53078 356.9649-4.74661 356.9649-2.54567V2.54568C356.9649 4.74663 355.18074 6.53079 352.97978 6.53079ZM340.1617 6.53079V-6.53078"/>
<use data-text="5" xlink:href="#font_1_5" transform="matrix(9.9626,0,0,-9.9626,352.181,66.882)"/>
<use data-text="3" xlink:href="#font_1_3" transform="matrix(9.9626,0,0,-9.9626,357.1623,66.882)"/>
<use data-text="5" xlink:href="#font_1_5" transform="matrix(9.9626,0,0,-9.9626,369.183,66.882)"/>
<use data-text="9" xlink:href="#font_1_8" transform="matrix(9.9626,0,0,-9.9626,374.1643,66.882)"/>
<path transform="matrix(1,0,0,-1,25.506,63.672)" stroke-width=".3985" stroke-linecap="butt" stroke-miterlimit="10" stroke-linejoin="miter" fill="none" stroke="#000000" d="M379.91209 6.53079H371.27839C369.07743 6.53079 367.29328 4.74663 367.29328 2.54568V-2.54567C367.29328-4.74661 369.07743-6.53078 371.27839-6.53078H379.91209C382.113-6.53078 383.8972-4.74661 383.8972-2.54567V2.54568C383.8972 4.74663 382.113 6.53079 379.91209 6.53079ZM367.29328-6.53078"/>
<use data-text="6" xlink:href="#font_1_6" transform="matrix(9.9626,0,0,-9.9626,396.11503,66.882)"/>
<use data-text="1" xlink:href="#font_1_1" transform="matrix(9.9626,0,0,-9.9626,401.0963,66.882)"/>
<path transform="matrix(1,0,0,-1,25.506,63.672)" stroke-width=".3985" stroke-linecap="butt" stroke-miterlimit="10" stroke-linejoin="miter" fill="none" stroke="#000000" d="M408.25889 6.53079H399.62519C397.42424 6.53079 395.64009 4.74663 395.64009 2.54568V-2.54567C395.64009-4.74661 397.42424-6.53078 399.62519-6.53078H408.25889C410.4598-6.53078 412.244-4.74661 412.244-2.54567V2.54568C412.244 4.74663 410.4598 6.53079 408.25889 6.53079ZM395.64009-6.53078"/>
<use data-text="6" xlink:href="#font_1_6" transform="matrix(9.9626,0,0,-9.9626,424.462,66.882)"/>
<use data-text="7" xlink:href="#font_1_7" transform="matrix(9.9626,0,0,-9.9626,429.4433,66.882)"/>
<path transform="matrix(1,0,0,-1,25.506,63.672)" stroke-width=".3985" stroke-linecap="butt" stroke-miterlimit="10" stroke-linejoin="miter" fill="none" stroke="#000000" d="M435.1883 6.53079H426.55458C424.3536 6.53079 422.56947 4.74663 422.56947 2.54568V-2.54567C422.56947-4.74661 424.3536-6.53078 426.55458-6.53078H435.1883C437.38923-6.53078 439.1734-4.74661 439.1734-2.54567V2.54568C439.1734 4.74663 437.38923 6.53079 435.1883 6.53079ZM422.56947-6.53078"/>
<use data-text="7" xlink:href="#font_1_7" transform="matrix(9.9626,0,0,-9.9626,451.39103,66.882)"/>
<use data-text="1" xlink:href="#font_1_1" transform="matrix(9.9626,0,0,-9.9626,456.3723,66.882)"/>
<path transform="matrix(1,0,0,-1,25.506,63.672)" stroke-width=".59776" stroke-linecap="butt" stroke-miterlimit="10" stroke-linejoin="miter" fill="none" stroke="#000000" d="M192.7667 49.71451 11.91948 35.37198"/>
<path transform="matrix(-.99681,.07904,.07904,.99681,37.4255,28.300023)" stroke-width=".4782" stroke-linecap="round" stroke-linejoin="round" fill="none" stroke="#000000" d="M-1.37483 1.83311C-1.26025 1.14569 0 .11455 .34369 0 0-.11455-1.26025-1.14569-1.37483-1.83311"/>
<path transform="matrix(1,0,0,-1,25.506,63.672)" stroke-width=".59776" stroke-linecap="butt" stroke-miterlimit="10" stroke-linejoin="miter" fill="none" stroke="#000000" d="M209.76912 49.71451 139.46991 35.19473"/>
<path transform="matrix(-.97928,.20226,.20226,.97928,164.9759,28.477272)" stroke-width=".4782" stroke-linecap="round" stroke-linejoin="round" fill="none" stroke="#000000" d="M-1.37483 1.83311C-1.26025 1.14569 0 .11455 .34369 0 0-.11455-1.26025-1.14569-1.37483-1.83311"/>
<path transform="matrix(1,0,0,-1,25.506,63.672)" stroke-width=".59776" stroke-linecap="butt" stroke-miterlimit="10" stroke-linejoin="miter" fill="none" stroke="#000000" d="M226.77153 49.71451 260.25523 35.30719"/>
<path transform="matrix(.91853,.39522,.39522,-.91853,285.7612,28.36481)" stroke-width=".4782" stroke-linecap="round" stroke-linejoin="round" fill="none" stroke="#000000" d="M-1.37483 1.83311C-1.26025 1.14569 0 .11455 .34369 0 0-.11455-1.26025-1.14569-1.37483-1.83311"/>
<path transform="matrix(1,0,0,-1,25.506,63.672)" stroke-width=".59776" stroke-linecap="butt" stroke-miterlimit="10" stroke-linejoin="miter" fill="none" stroke="#000000" d="M243.77396 49.71451 353.75736 35.15334"/>
<path transform="matrix(.9913,.13124,.13124,-.9913,379.26335,28.51865)" stroke-width=".4782" stroke-linecap="round" stroke-linejoin="round" fill="none" stroke="#000000" d="M-1.37483 1.83311C-1.26025 1.14569 0 .11455 .34369 0 0-.11455-1.26025-1.14569-1.37483-1.83311"/>
<path transform="matrix(1,0,0,-1,25.506,63.672)" stroke-width=".59776" stroke-linecap="butt" stroke-miterlimit="10" stroke-linejoin="miter" fill="none" stroke="#000000" d="M260.7764 49.71451 416.11775 35.13129"/>
<path transform="matrix(.99556,.09343,.09343,-.99556,441.62376,28.540699)" stroke-width=".4782" stroke-linecap="round" stroke-linejoin="round" fill="none" stroke="#000000" d="M-1.37483 1.83311C-1.26025 1.14569 0 .11455 .34369 0 0-.11455-1.26025-1.14569-1.37483-1.83311"/>
<path transform="matrix(1,0,0,-1,25.506,63.672)" stroke-width=".59776" stroke-linecap="butt" stroke-miterlimit="10" stroke-linejoin="miter" fill="none" stroke="#000000" d="M11.33853 21.36769-8.03232 7.32123"/>
<path transform="matrix(-.80954,.58702,.58702,.80954,17.473702,56.35076)" stroke-width=".4782" stroke-linecap="round" stroke-linejoin="round" fill="none" stroke="#000000" d="M-1.37483 1.83311C-1.26025 1.14569 0 .11455 .34369 0 0-.11455-1.26025-1.14569-1.37483-1.83311"/>
<path transform="matrix(1,0,0,-1,25.506,63.672)" stroke-width=".59776" stroke-linecap="butt" stroke-miterlimit="10" stroke-linejoin="miter" fill="none" stroke="#000000" d="M28.34096 21.36769 35.17937 7.25452"/>
<path transform="matrix(.43602,.89989,.89989,-.43602,60.68537,56.41748)" stroke-width=".4782" stroke-linecap="round" stroke-linejoin="round" fill="none" stroke="#000000" d="M-1.37483 1.83311C-1.26025 1.14569 0 .11455 .34369 0 0-.11455-1.26025-1.14569-1.37483-1.83311"/>
<path transform="matrix(1,0,0,-1,25.506,63.672)" stroke-width=".59776" stroke-linecap="butt" stroke-miterlimit="10" stroke-linejoin="miter" fill="none" stroke="#000000" d="M121.89674 21.61676 78.50569 6.91704"/>
<path transform="matrix(-.9471,.32086,.32086,.9471,104.0117,56.75496)" stroke-width=".4782" stroke-linecap="round" stroke-linejoin="round" fill="none" stroke="#000000" d="M-1.37483 1.83311C-1.26025 1.14569 0 .11455 .34369 0 0-.11455-1.26025-1.14569-1.37483-1.83311"/>
<path transform="matrix(1,0,0,-1,25.506,63.672)" stroke-width=".59776" stroke-linecap="butt" stroke-miterlimit="10" stroke-linejoin="miter" fill="none" stroke="#000000" d="M138.89916 21.61676 129.30124 7.21501"/>
<path transform="matrix(-.55452,.8321,.8321,.55452,154.80724,56.45699)" stroke-width=".4782" stroke-linecap="round" stroke-linejoin="round" fill="none" stroke="#000000" d="M-1.37483 1.83311C-1.26025 1.14569 0 .11455 .34369 0 0-.11455-1.26025-1.14569-1.37483-1.83311"/>
<path transform="matrix(1,0,0,-1,25.506,63.672)" stroke-width=".59776" stroke-linecap="butt" stroke-miterlimit="10" stroke-linejoin="miter" fill="none" stroke="#000000" d="M155.90158 21.61676 169.67891 7.15205"/>
<path transform="matrix(.68965,.72408,.72408,-.68965,195.18489,56.51995)" stroke-width=".4782" stroke-linecap="round" stroke-linejoin="round" fill="none" stroke="#000000" d="M-1.37483 1.83311C-1.26025 1.14569 0 .11455 .34369 0 0-.11455-1.26025-1.14569-1.37483-1.83311"/>
<path transform="matrix(1,0,0,-1,25.506,63.672)" stroke-width=".59776" stroke-linecap="butt" stroke-miterlimit="10" stroke-linejoin="miter" fill="none" stroke="#000000" d="M172.90402 21.61676 195.10553 7.04974"/>
<path transform="matrix(.83606,.54855,.54855,-.83606,220.61151,56.622243)" stroke-width=".4782" stroke-linecap="round" stroke-linejoin="round" fill="none" stroke="#000000" d="M-1.37483 1.83311C-1.26025 1.14569 0 .11455 .34369 0 0-.11455-1.26025-1.14569-1.37483-1.83311"/>
<path transform="matrix(1,0,0,-1,25.506,63.672)" stroke-width=".59776" stroke-linecap="butt" stroke-miterlimit="10" stroke-linejoin="miter" fill="none" stroke="#000000" d="M252.28934 21.61676 230.09651 7.04985"/>
<path transform="matrix(-.83595,.54872,.54872,.83595,255.60253,56.62213)" stroke-width=".4782" stroke-linecap="round" stroke-linejoin="round" fill="none" stroke="#000000" d="M-1.37483 1.83311C-1.26025 1.14569 0 .11455 .34369 0 0-.11455-1.26025-1.14569-1.37483-1.83311"/>
<path transform="matrix(1,0,0,-1,25.506,63.672)" stroke-width=".59776" stroke-linecap="butt" stroke-miterlimit="10" stroke-linejoin="miter" fill="none" stroke="#000000" d="M269.29176 21.61676 263.83274 7.27472"/>
<path transform="matrix(-.3557,.93456,.93456,.3557,289.33876,56.39727)" stroke-width=".4782" stroke-linecap="round" stroke-linejoin="round" fill="none" stroke="#000000" d="M-1.37483 1.83311C-1.26025 1.14569 0 .11455 .34369 0 0-.11455-1.26025-1.14569-1.37483-1.83311"/>
<path transform="matrix(1,0,0,-1,25.506,63.672)" stroke-width=".59776" stroke-linecap="butt" stroke-miterlimit="10" stroke-linejoin="miter" fill="none" stroke="#000000" d="M286.2942 21.61676 297.28819 7.19354"/>
<path transform="matrix(.60619,.79527,.79527,-.60619,322.79417,56.47844)" stroke-width=".4782" stroke-linecap="round" stroke-linejoin="round" fill="none" stroke="#000000" d="M-1.37483 1.83311C-1.26025 1.14569 0 .11455 .34369 0 0-.11455-1.26025-1.14569-1.37483-1.83311"/>
<path transform="matrix(1,0,0,-1,25.506,63.672)" stroke-width=".59776" stroke-linecap="butt" stroke-miterlimit="10" stroke-linejoin="miter" fill="none" stroke="#000000" d="M354.3351 21.61676 340.56355 7.15213"/>
<path transform="matrix(-.68951,.72421,.72421,.68951,366.06956,56.51987)" stroke-width=".4782" stroke-linecap="round" stroke-linejoin="round" fill="none" stroke="#000000" d="M-1.37483 1.83311C-1.26025 1.14569 0 .11455 .34369 0 0-.11455-1.26025-1.14569-1.37483-1.83311"/>
<path transform="matrix(1,0,0,-1,25.506,63.672)" stroke-width=".59776" stroke-linecap="butt" stroke-miterlimit="10" stroke-linejoin="miter" fill="none" stroke="#000000" d="M371.33757 21.61676 375.43498 7.29039"/>
<path transform="matrix(.27495,.96143,.96143,-.27495,400.94099,56.38161)" stroke-width=".4782" stroke-linecap="round" stroke-linejoin="round" fill="none" stroke="#000000" d="M-1.37483 1.83311C-1.26025 1.14569 0 .11455 .34369 0 0-.11455-1.26025-1.14569-1.37483-1.83311"/>
<path transform="matrix(1,0,0,-1,25.506,63.672)" stroke-width=".59776" stroke-linecap="butt" stroke-miterlimit="10" stroke-linejoin="miter" fill="none" stroke="#000000" d="M416.69798 21.61676 404.3212 7.17259"/>
<path transform="matrix(-.65063,.75932,.75932,.65063,429.82725,56.4994)" stroke-width=".4782" stroke-linecap="round" stroke-linejoin="round" fill="none" stroke="#000000" d="M-1.37483 1.83311C-1.26025 1.14569 0 .11455 .34369 0 0-.11455-1.26025-1.14569-1.37483-1.83311"/>
<path transform="matrix(1,0,0,-1,25.506,63.672)" stroke-width=".59776" stroke-linecap="butt" stroke-miterlimit="10" stroke-linejoin="miter" fill="none" stroke="#000000" d="M433.7004 21.61676 430.9802 7.3026"/>
<path transform="matrix(-.18666,.98238,.98238,.18666,456.4862,56.369394)" stroke-width=".4782" stroke-linecap="round" stroke-linejoin="round" fill="none" stroke="#000000" d="M-1.37483 1.83311C-1.26025 1.14569 0 .11455 .34369 0 0-.11455-1.26025-1.14569-1.37483-1.83311"/>
<path transform="matrix(1,0,0,-1,25.506,63.672)" stroke-width=".79701" stroke-linecap="butt" stroke-dasharray=".79701,1.99255" stroke-miterlimit="10" stroke-linejoin="miter" fill="none" stroke="#000000" d="M8.49829 0H17.72371"/>
<path transform="matrix(1,0,0,-1,43.22971,63.672)" stroke-width=".6376" stroke-linecap="round" stroke-linejoin="round" fill="none" stroke="#000000" d="M-1.55415 2.0722C-1.42464 1.29512 0 .1295 .38852 0 0-.1295-1.42464-1.29512-1.55415-2.0722"/>
<path transform="matrix(1,0,0,-1,25.506,63.672)" stroke-width=".79701" stroke-linecap="butt" stroke-dasharray=".79701,1.99255" stroke-miterlimit="10" stroke-linejoin="miter" fill="none" stroke="#000000" d="M52.43591 0H60.24393"/>
<path transform="matrix(1,0,0,-1,85.74993,63.672)" stroke-width=".6376" stroke-linecap="round" stroke-linejoin="round" fill="none" stroke="#000000" d="M-1.55415 2.0722C-1.42464 1.29512 0 .1295 .38852 0 0-.1295-1.42464-1.29512-1.55415-2.0722"/>
<path transform="matrix(1,0,0,-1,25.506,63.672)" stroke-width=".79701" stroke-linecap="butt" stroke-dasharray=".79701,1.99255" stroke-miterlimit="10" stroke-linejoin="miter" fill="none" stroke="#000000" d="M94.95615 0H102.76707"/>
<path transform="matrix(1,0,0,-1,128.27307,63.672)" stroke-width=".6376" stroke-linecap="round" stroke-linejoin="round" fill="none" stroke="#000000" d="M-1.55415 2.0722C-1.42464 1.29512 0 .1295 .38852 0 0-.1295-1.42464-1.29512-1.55415-2.0722"/>
<path transform="matrix(1,0,0,-1,25.506,63.672)" stroke-width=".79701" stroke-linecap="butt" stroke-dasharray=".79701,1.99255" stroke-miterlimit="10" stroke-linejoin="miter" fill="none" stroke="#000000" d="M154.4817 0H160.87229"/>
<path transform="matrix(1,0,0,-1,186.37828,63.672)" stroke-width=".6376" stroke-linecap="round" stroke-linejoin="round" fill="none" stroke="#000000" d="M-1.55415 2.0722C-1.42464 1.29512 0 .1295 .38852 0 0-.1295-1.42464-1.29512-1.55415-2.0722"/>
<path transform="matrix(1,0,0,-1,25.506,63.672)" stroke-width=".79701" stroke-linecap="butt" stroke-dasharray=".79701,1.99255" stroke-miterlimit="10" stroke-linejoin="miter" fill="none" stroke="#000000" d="M178.58208 0H186.38423"/>
<path transform="matrix(1,0,0,-1,211.89023,63.672)" stroke-width=".6376" stroke-linecap="round" stroke-linejoin="round" fill="none" stroke="#000000" d="M-1.55415 2.0722C-1.42464 1.29512 0 .1295 .38852 0 0-.1295-1.42464-1.29512-1.55415-2.0722"/>
<path transform="matrix(1,0,0,-1,25.506,63.672)" stroke-width=".79701" stroke-linecap="butt" stroke-dasharray=".79701,1.99255" stroke-miterlimit="10" stroke-linejoin="miter" fill="none" stroke="#000000" d="M204.09401 0H211.89954"/>
<path transform="matrix(1,0,0,-1,237.40554,63.672)" stroke-width=".6376" stroke-linecap="round" stroke-linejoin="round" fill="none" stroke="#000000" d="M-1.55415 2.0722C-1.42464 1.29512 0 .1295 .38852 0 0-.1295-1.42464-1.29512-1.55415-2.0722"/>
<path transform="matrix(1,0,0,-1,25.506,63.672)" stroke-width=".79701" stroke-linecap="butt" stroke-dasharray=".79701,1.99255" stroke-miterlimit="10" stroke-linejoin="miter" fill="none" stroke="#000000" d="M246.61174 0H254.41684"/>
<path transform="matrix(1,0,0,-1,279.92286,63.672)" stroke-width=".6376" stroke-linecap="round" stroke-linejoin="round" fill="none" stroke="#000000" d="M-1.55415 2.0722C-1.42464 1.29512 0 .1295 .38852 0 0-.1295-1.42464-1.29512-1.55415-2.0722"/>
<path transform="matrix(1,0,0,-1,25.506,63.672)" stroke-width=".79701" stroke-linecap="butt" stroke-dasharray=".79701,1.99255" stroke-miterlimit="10" stroke-linejoin="miter" fill="none" stroke="#000000" d="M272.12663 0H279.9317"/>
<path transform="matrix(1,0,0,-1,305.4377,63.672)" stroke-width=".6376" stroke-linecap="round" stroke-linejoin="round" fill="none" stroke="#000000" d="M-1.55415 2.0722C-1.42464 1.29512 0 .1295 .38852 0 0-.1295-1.42464-1.29512-1.55415-2.0722"/>
<path transform="matrix(1,0,0,-1,25.506,63.672)" stroke-width=".79701" stroke-linecap="butt" stroke-dasharray=".79701,1.99255" stroke-miterlimit="10" stroke-linejoin="miter" fill="none" stroke="#000000" d="M314.6439 0H322.45195"/>
<path transform="matrix(1,0,0,-1,347.95796,63.672)" stroke-width=".6376" stroke-linecap="round" stroke-linejoin="round" fill="none" stroke="#000000" d="M-1.55415 2.0722C-1.42464 1.29512 0 .1295 .38852 0 0-.1295-1.42464-1.29512-1.55415-2.0722"/>
<path transform="matrix(1,0,0,-1,25.506,63.672)" stroke-width=".79701" stroke-linecap="butt" stroke-dasharray=".79701,1.99255" stroke-miterlimit="10" stroke-linejoin="miter" fill="none" stroke="#000000" d="M357.16416 0H366.38664"/>
<path transform="matrix(1,0,0,-1,391.89265,63.672)" stroke-width=".6376" stroke-linecap="round" stroke-linejoin="round" fill="none" stroke="#000000" d="M-1.55415 2.0722C-1.42464 1.29512 0 .1295 .38852 0 0-.1295-1.42464-1.29512-1.55415-2.0722"/>
<path transform="matrix(1,0,0,-1,25.506,63.672)" stroke-width=".79701" stroke-linecap="butt" stroke-dasharray=".79701,1.99255" stroke-miterlimit="10" stroke-linejoin="miter" fill="none" stroke="#000000" d="M384.09645 0H394.73347"/>
<path transform="matrix(1,0,0,-1,420.23948,63.672)" stroke-width=".6376" stroke-linecap="round" stroke-linejoin="round" fill="none" stroke="#000000" d="M-1.55415 2.0722C-1.42464 1.29512 0 .1295 .38852 0 0-.1295-1.42464-1.29512-1.55415-2.0722"/>
<path transform="matrix(1,0,0,-1,25.506,63.672)" stroke-width=".79701" stroke-linecap="butt" stroke-dasharray=".79701,1.99255" stroke-miterlimit="10" stroke-linejoin="miter" fill="none" stroke="#000000" d="M412.44325 0H421.66285"/>
<path transform="matrix(1,0,0,-1,447.16886,63.672)" stroke-width=".6376" stroke-linecap="round" stroke-linejoin="round" fill="none" stroke="#000000" d="M-1.55415 2.0722C-1.42464 1.29512 0 .1295 .38852 0 0-.1295-1.42464-1.29512-1.55415-2.0722"/>
<use data-text="3" xlink:href="#font_2_3" transform="matrix(8.9664,0,0,-8.9664,479.734,9.868)" fill="#929292"/>
<use data-text="2" xlink:href="#font_2_2" transform="matrix(8.9664,0,0,-8.9664,479.734,38.215)" fill="#929292"/>
<use data-text="1" xlink:href="#font_2_1" transform="matrix(8.9664,0,0,-8.9664,479.734,66.561008)" fill="#929292"/>
</svg>
