<svg xmlns="http://www.w3.org/2000/svg" xmlns:xlink="http://www.w3.org/1999/xlink" version="1.1" width="583.331" height="98.499" viewBox="0 0 583.331 98.499">
<path transform="matrix(1,0,0,-1,17.002,91.769)" stroke-width=".3985" stroke-linecap="butt" stroke-miterlimit="10" stroke-linejoin="miter" fill="none" stroke="#000000" d="M-16.80316-6.53078H16.803179V6.5308H-16.80316ZM0 6.53079V-6.53078"/>
<text xml:space="preserve" transform="matrix(1 0 -0 1 .00000047683718 98.49899)" font-size="9.9626" font-family="CMR10"><tspan y="-3.52" x="6.01">2</tspan></text>
<path transform="matrix(1,0,0,-1,17.002,91.769)" d="M24.29959-6.53078H57.90593V6.5308H24.29959ZM41.10275 6.53079V-6.53078" fill="#ccfc88"/>
<path transform="matrix(1,0,0,-1,17.002,91.769)" stroke-width=".3985" stroke-linecap="butt" stroke-miterlimit="10" stroke-linejoin="miter" fill="none" stroke="#000000" d="M24.29959-6.53078H57.90593V6.5308H24.29959ZM41.10275 6.53079V-6.53078"/>
<text xml:space="preserve" transform="matrix(1 0 -0 1 0 98.49899)" font-size="9.9626" font-family="CMR10"><tspan y="-3.52" x="47.113">3</tspan></text>
<text xml:space="preserve" transform="matrix(1 0 -0 1 0 98.49899)" font-size="9.9626" font-family="CMR10"><tspan y="-3.52" x="64.115">5</tspan></text>
<path transform="matrix(1,0,0,-1,17.002,91.769)" d="M65.40239-6.53078H99.00873V6.5308H65.40239ZM82.20554 6.53079V-6.53078" fill="#a189fa"/>
<path transform="matrix(1,0,0,-1,17.002,91.769)" stroke-width=".3985" stroke-linecap="butt" stroke-miterlimit="10" stroke-linejoin="miter" fill="none" stroke="#000000" d="M65.40239-6.53078H99.00873V6.5308H65.40239ZM82.20554 6.53079V-6.53078"/>
<text xml:space="preserve" transform="matrix(1 0 -0 1 0 98.49899)" font-size="9.9626" font-family="CMR10"><tspan y="-3.52" x="88.215">7</tspan></text>
<text xml:space="preserve" transform="matrix(1 0 -0 1 0 98.49899)" font-size="9.9626" font-family="CMR10"><tspan y="-3.52" x="102.726 107.7073">11</tspan></text>
<path transform="matrix(1,0,0,-1,17.002,91.769)" d="M106.50517-6.53078H140.11151V6.5308H106.50517ZM123.30833 6.53079V-6.53078" fill="#ffbfbf"/>
<path transform="matrix(1,0,0,-1,17.002,91.769)" stroke-width=".3985" stroke-linecap="butt" stroke-miterlimit="10" stroke-linejoin="miter" fill="none" stroke="#000000" d="M106.50517-6.53078H140.11151V6.5308H106.50517ZM123.30833 6.53079V-6.53078"/>
<text xml:space="preserve" transform="matrix(1 0 -0 1 0 98.49899)" font-size="9.9626" font-family="CMR10"><tspan y="-3.52" x="126.826 131.8073">13</tspan></text>
<text xml:space="preserve" transform="matrix(1 0 -0 1 .000015258789 98.49899)" font-size="9.9626" font-family="CMR10"><tspan y="-3.52" x="143.829 148.81029">17</tspan></text>
<path transform="matrix(1,0,0,-1,17.002,91.769)" d="M147.60797-6.53078H181.21431V6.5308H147.60797ZM164.41112 6.53079V-6.53078" fill="#ffbfbf"/>
<path transform="matrix(1,0,0,-1,17.002,91.769)" stroke-width=".3985" stroke-linecap="butt" stroke-miterlimit="10" stroke-linejoin="miter" fill="none" stroke="#000000" d="M147.60797-6.53078H181.21431V6.5308H147.60797ZM164.41112 6.53079V-6.53078"/>
<text xml:space="preserve" transform="matrix(1 0 -0 1 0 98.49899)" font-size="9.9626" font-family="CMR10"><tspan y="-3.52" x="167.929 172.9103">19</tspan></text>
<path transform="matrix(1,0,0,-1,17.002,91.769)" stroke-width=".3985" stroke-linecap="butt" stroke-miterlimit="10" stroke-linejoin="miter" fill="none" stroke="#000000" d="M188.71076-6.53078H222.3171V6.5308H188.71076ZM205.51392 6.53079V-6.53078"/>
<text xml:space="preserve" transform="matrix(1 0 -0 1 0 98.49899)" font-size="9.9626" font-family="CMR10"><tspan y="-3.52" x="209.031 214.0123">23</tspan></text>
<path transform="matrix(1,0,0,-1,17.002,91.769)" stroke-width=".3985" stroke-linecap="butt" stroke-miterlimit="10" stroke-linejoin="miter" fill="none" stroke="#000000" d="M229.81354-6.53078H263.41987V6.5308H229.81354ZM246.6167 6.53079V-6.53078"/>
<text xml:space="preserve" transform="matrix(1 0 -0 1 0 98.49899)" font-size="9.9626" font-family="CMR10"><tspan y="-3.52" x="250.133 255.11429">29</tspan></text>
<path transform="matrix(1,0,0,-1,17.002,91.769)" d="M270.91636-6.53078H304.5227V6.5308H270.91636ZM287.7195 6.53079V-6.53078" fill="#92f7b7"/>
<path transform="matrix(1,0,0,-1,17.002,91.769)" stroke-width=".3985" stroke-linecap="butt" stroke-miterlimit="10" stroke-linejoin="miter" fill="none" stroke="#000000" d="M270.91636-6.53078H304.5227V6.5308H270.91636ZM287.7195 6.53079V-6.53078"/>
<text xml:space="preserve" transform="matrix(1 0 -0 1 .000030517579 98.49899)" font-size="9.9626" font-family="CMR10"><tspan y="-3.52" x="291.235 296.21629">31</tspan></text>
<text xml:space="preserve" transform="matrix(1 0 -0 1 0 98.49899)" font-size="9.9626" font-family="CMR10"><tspan y="-3.52" x="308.238 313.2193">37</tspan></text>
<path transform="matrix(1,0,0,-1,17.002,91.769)" stroke-width=".3985" stroke-linecap="butt" stroke-miterlimit="10" stroke-linejoin="miter" fill="none" stroke="#000000" d="M312.0191-6.53078H345.62544V6.5308H312.0191ZM328.82228 6.53079V-6.53078"/>
<text xml:space="preserve" transform="matrix(1 0 -0 1 0 98.49899)" font-size="9.9626" font-family="CMR10"><tspan y="-3.52" x="332.338 337.3193">41</tspan></text>
<path transform="matrix(1,0,0,-1,17.002,91.769)" d="M353.1219-6.53078H386.7282V6.5308H353.1219ZM369.92506 6.53079V-6.53078" fill="#f79297"/>
<path transform="matrix(1,0,0,-1,17.002,91.769)" stroke-width=".3985" stroke-linecap="butt" stroke-miterlimit="10" stroke-linejoin="miter" fill="none" stroke="#000000" d="M353.1219-6.53078H386.7282V6.5308H353.1219ZM369.92506 6.53079V-6.53078"/>
<text xml:space="preserve" transform="matrix(1 0 -0 1 0 98.49899)" font-size="9.9626" font-family="CMR10"><tspan y="-3.52" x="373.44 378.4213">43</tspan></text>
<text xml:space="preserve" transform="matrix(1 0 -0 1 .000030517579 98.49899)" font-size="9.9626" font-family="CMR10"><tspan y="-3.52" x="390.442 395.42329">47</tspan></text>
<path transform="matrix(1,0,0,-1,17.002,91.769)" d="M394.2247-6.53078H427.83106V6.5308H394.2247ZM411.02787 6.53079V-6.53078" fill="#b5bfff"/>
<path transform="matrix(1,0,0,-1,17.002,91.769)" stroke-width=".3985" stroke-linecap="butt" stroke-miterlimit="10" stroke-linejoin="miter" fill="none" stroke="#000000" d="M394.2247-6.53078H427.83106V6.5308H394.2247ZM411.02787 6.53079V-6.53078"/>
<text xml:space="preserve" transform="matrix(1 0 -0 1 .000030517579 98.49899)" font-size="9.9626" font-family="CMR10"><tspan y="-3.52" x="414.542 419.5233">53</tspan></text>
<text xml:space="preserve" transform="matrix(1 0 -0 1 0 98.49899)" font-size="9.9626" font-family="CMR10"><tspan y="-3.52" x="431.544 436.5253">59</tspan></text>
<path transform="matrix(1,0,0,-1,17.002,91.769)" stroke-width=".3985" stroke-linecap="butt" stroke-miterlimit="10" stroke-linejoin="miter" fill="none" stroke="#000000" d="M435.32749-6.53078H468.93385V6.5308H435.32749ZM452.1306 6.53079V-6.53078"/>
<text xml:space="preserve" transform="matrix(1 0 -0 1 0 98.49899)" font-size="9.9626" font-family="CMR10"><tspan y="-3.52" x="455.644 460.6253">61</tspan></text>
<path transform="matrix(1,0,0,-1,17.002,91.769)" stroke-width=".3985" stroke-linecap="butt" stroke-miterlimit="10" stroke-linejoin="miter" fill="none" stroke="#000000" d="M476.43028-6.53078H510.03663V6.5308H476.43028ZM493.23344 6.53079V-6.53078"/>
<text xml:space="preserve" transform="matrix(1 0 -0 1 0 98.49899)" font-size="9.9626" font-family="CMR10"><tspan y="-3.52" x="496.747 501.7283">67</tspan></text>
<path transform="matrix(1,0,0,-1,17.002,91.769)" stroke-width=".3985" stroke-linecap="butt" stroke-miterlimit="10" stroke-linejoin="miter" fill="none" stroke="#000000" d="M517.5331-6.53078H551.1394V6.5308H517.5331ZM534.3362 6.53079V-6.53078"/>
<text xml:space="preserve" transform="matrix(1 0 -0 1 0 98.49899)" font-size="9.9626" font-family="CMR10"><tspan y="-3.52" x="537.849 542.8303">71</tspan></text>
<path transform="matrix(1,0,0,-1,17.002,91.769)" stroke-width=".3985" stroke-linecap="butt" stroke-miterlimit="10" stroke-linejoin="miter" fill="none" stroke="#000000" d="M24.29959 35.98941H57.90593V49.05099H24.29959ZM41.10275 49.051V35.98941"/>
<text xml:space="preserve" transform="matrix(1 0 -0 1 0 98.499)" font-size="9.9626" font-family="CMR10"><tspan y="-46.039" x="47.113">3</tspan></text>
<path transform="matrix(1,0,0,-1,17.002,91.769)" d="M65.40239 35.98941H99.00873V49.05099H65.40239ZM82.20554 49.051V35.98941" fill="#ec008c"/>
<path transform="matrix(1,0,0,-1,17.002,91.769)" stroke-width=".3985" stroke-linecap="butt" stroke-miterlimit="10" stroke-linejoin="miter" fill="none" stroke="#000000" d="M65.40239 35.98941H99.00873V49.05099H65.40239ZM82.20554 49.051V35.98941"/>
<text xml:space="preserve" transform="matrix(1 0 -0 1 0 98.499)" font-size="9.9626" font-family="CMR10"><tspan y="-46.039" x="88.215">7</tspan></text>
<text xml:space="preserve" transform="matrix(1 0 -0 1 0 98.499)" font-size="9.9626" font-family="CMR10"><tspan y="-46.039" x="102.726 107.7073">13</tspan></text>
<path transform="matrix(1,0,0,-1,17.002,91.769)" d="M188.71076 35.98941H222.3171V49.05099H188.71076ZM205.51392 49.051V35.98941" fill="#ec008c"/>
<path transform="matrix(1,0,0,-1,17.002,91.769)" stroke-width=".3985" stroke-linecap="butt" stroke-miterlimit="10" stroke-linejoin="miter" fill="none" stroke="#000000" d="M188.71076 35.98941H222.3171V49.05099H188.71076ZM205.51392 49.051V35.98941"/>
<text xml:space="preserve" transform="matrix(1 0 -0 1 0 98.499)" font-size="9.9626" font-family="CMR10"><tspan y="-46.039" x="209.031 214.0123">23</tspan></text>
<text xml:space="preserve" transform="matrix(1 0 -0 1 0 98.499)" font-size="9.9626" font-family="CMR10"><tspan y="-46.039" x="226.033 231.0143">29</tspan></text>
<path transform="matrix(1,0,0,-1,17.002,91.769)" d="M270.91636 35.98941H304.5227V49.05099H270.91636ZM287.7195 49.051V35.98941" fill="#00aeef"/>
<path transform="matrix(1,0,0,-1,17.002,91.769)" stroke-width=".3985" stroke-linecap="butt" stroke-miterlimit="10" stroke-linejoin="miter" fill="none" stroke="#000000" d="M270.91636 35.98941H304.5227V49.05099H270.91636ZM287.7195 49.051V35.98941"/>
<text xml:space="preserve" transform="matrix(1 0 -0 1 .000030517579 98.499)" font-size="9.9626" font-family="CMR10"><tspan y="-46.039" x="291.235 296.21629">31</tspan></text>
<text xml:space="preserve" transform="matrix(1 0 -0 1 0 98.499)" font-size="9.9626" font-family="CMR10"><tspan y="-46.039" x="308.238 313.2193">41</tspan></text>
<path transform="matrix(1,0,0,-1,17.002,91.769)" d="M353.1219 35.98941H386.7282V49.05099H353.1219ZM369.92506 49.051V35.98941" fill="#00aeef"/>
<path transform="matrix(1,0,0,-1,17.002,91.769)" stroke-width=".3985" stroke-linecap="butt" stroke-miterlimit="10" stroke-linejoin="miter" fill="none" stroke="#000000" d="M353.1219 35.98941H386.7282V49.05099H353.1219ZM369.92506 49.051V35.98941"/>
<text xml:space="preserve" transform="matrix(1 0 -0 1 0 98.499)" font-size="9.9626" font-family="CMR10"><tspan y="-46.039" x="373.44 378.4213">43</tspan></text>
<path transform="matrix(1,0,0,-1,17.002,91.769)" d="M394.2247 35.98941H427.83106V49.05099H394.2247ZM411.02787 49.051V35.98941" fill="#ffdd88"/>
<path transform="matrix(1,0,0,-1,17.002,91.769)" stroke-width=".3985" stroke-linecap="butt" stroke-miterlimit="10" stroke-linejoin="miter" fill="none" stroke="#000000" d="M394.2247 35.98941H427.83106V49.05099H394.2247ZM411.02787 49.051V35.98941"/>
<text xml:space="preserve" transform="matrix(1 0 -0 1 .000030517579 98.499)" font-size="9.9626" font-family="CMR10"><tspan y="-46.039" x="414.542 419.5233">53</tspan></text>
<text xml:space="preserve" transform="matrix(1 0 -0 1 0 98.499)" font-size="9.9626" font-family="CMR10"><tspan y="-46.039" x="431.544 436.5253">61</tspan></text>
<path transform="matrix(1,0,0,-1,17.002,91.769)" d="M476.43028 35.98941H510.03663V49.05099H476.43028ZM493.23344 49.051V35.98941" fill="#99f7f1"/>
<path transform="matrix(1,0,0,-1,17.002,91.769)" stroke-width=".3985" stroke-linecap="butt" stroke-miterlimit="10" stroke-linejoin="miter" fill="none" stroke="#000000" d="M476.43028 35.98941H510.03663V49.05099H476.43028ZM493.23344 49.051V35.98941"/>
<text xml:space="preserve" transform="matrix(1 0 -0 1 0 98.499)" font-size="9.9626" font-family="CMR10"><tspan y="-46.039" x="496.747 501.7283">67</tspan></text>
<text xml:space="preserve" transform="matrix(1 0 -0 1 0 98.499)" font-size="9.9626" font-family="CMR10"><tspan y="-46.039" x="513.749 518.73037">71</tspan></text>
<path transform="matrix(1,0,0,-1,17.002,91.769)" d="M65.40239 78.50964H99.00873V91.57122H65.40239ZM82.20554 91.57123V78.50964" fill="#ff8000"/>
<path transform="matrix(1,0,0,-1,17.002,91.769)" stroke-width=".3985" stroke-linecap="butt" stroke-miterlimit="10" stroke-linejoin="miter" fill="none" stroke="#000000" d="M65.40239 78.50964H99.00873V91.57122H65.40239ZM82.20554 91.57123V78.50964"/>
<text xml:space="preserve" transform="matrix(1 0 -0 1 0 98.49899)" font-size="9.9626" font-family="CMR10"><tspan y="-88.559" x="88.215">7</tspan></text>
<text xml:space="preserve" transform="matrix(1 0 -0 1 0 98.49899)" font-size="9.9626" font-family="CMR10"><tspan y="-88.559" x="102.726 107.7073">31</tspan></text>
<path transform="matrix(1,0,0,-1,17.002,91.769)" d="M394.2247 78.50964H427.83106V91.57122H394.2247ZM411.02787 91.57123V78.50964" fill="#ff8000"/>
<path transform="matrix(1,0,0,-1,17.002,91.769)" stroke-width=".3985" stroke-linecap="butt" stroke-miterlimit="10" stroke-linejoin="miter" fill="none" stroke="#000000" d="M394.2247 78.50964H427.83106V91.57122H394.2247ZM411.02787 91.57123V78.50964"/>
<text xml:space="preserve" transform="matrix(1 0 -0 1 .000030517579 98.49899)" font-size="9.9626" font-family="CMR10"><tspan y="-88.559" x="414.542 419.5233">53</tspan></text>
<text xml:space="preserve" transform="matrix(1 0 -0 1 0 98.49899)" font-size="9.9626" font-family="CMR10"><tspan y="-88.559" x="431.544 436.5253">67</tspan></text>
<path transform="matrix(1,0,0,-1,17.002,91.769)" stroke-width=".59776" stroke-linecap="butt" stroke-dasharray="2.98883,2.98883" stroke-miterlimit="10" stroke-linejoin="miter" fill="none" stroke="#929292" d="M140.33145 0H146.8476"/>
<path transform="matrix(1,0,0,-1,163.8496,91.769)" stroke-width=".4782" stroke-linecap="round" stroke-linejoin="round" fill="none" stroke="#929292" d="M-1.37483 1.83311C-1.26025 1.14569 0 .11455 .34369 0 0-.11455-1.26025-1.14569-1.37483-1.83311"/>
<path transform="matrix(1,0,0,-1,17.002,91.769)" stroke-width=".59776" stroke-linecap="butt" stroke-dasharray="2.98883,2.98883" stroke-miterlimit="10" stroke-linejoin="miter" fill="none" stroke="#929292" d="M99.2226 42.52615 187.95645 42.52588"/>
<path transform="matrix(1,0,0,-1,204.95845,49.24312)" stroke-width=".4782" stroke-linecap="round" stroke-linejoin="round" fill="none" stroke="#929292" d="M-1.37483 1.83311C-1.26025 1.14569 0 .11455 .34369 0 0-.11455-1.26025-1.14569-1.37483-1.83311"/>
<path transform="matrix(1,0,0,-1,17.002,91.769)" stroke-width=".59776" stroke-linecap="butt" stroke-dasharray="2.98883,2.98883" stroke-miterlimit="10" stroke-linejoin="miter" fill="none" stroke="#929292" d="M304.7668 42.52693 352.3918 42.5264"/>
<path transform="matrix(1,0,0,-1,369.39384,49.242597)" stroke-width=".4782" stroke-linecap="round" stroke-linejoin="round" fill="none" stroke="#929292" d="M-1.37483 1.83311C-1.26025 1.14569 0 .11455 .34369 0 0-.11455-1.26025-1.14569-1.37483-1.83311"/>
<path transform="matrix(1,0,0,-1,17.002,91.769)" stroke-width=".59776" stroke-linecap="butt" stroke-dasharray="2.98883,2.98883" stroke-miterlimit="10" stroke-linejoin="miter" fill="none" stroke="#929292" d="M99.2226 85.05128H393.5007"/>
<path transform="matrix(1,0,0,-1,410.50273,6.71772)" stroke-width=".4782" stroke-linecap="round" stroke-linejoin="round" fill="none" stroke="#929292" d="M-1.37483 1.83311C-1.26025 1.14569 0 .11455 .34369 0 0-.11455-1.26025-1.14569-1.37483-1.83311"/>
<path transform="matrix(1,0,0,-1,17.002,91.769)" stroke-width=".59776" stroke-linecap="butt" stroke-miterlimit="10" stroke-linejoin="miter" fill="none" stroke="#000000" d="M24.10388 35.79451-8.06741 7.11862"/>
<path transform="matrix(-.74646,.66534,.66534,.74646,8.93459,84.650379)" stroke-width=".4782" stroke-linecap="round" stroke-linejoin="round" fill="none" stroke="#000000" d="M-1.37483 1.83311C-1.26025 1.14569 0 .11455 .34369 0 0-.11455-1.26025-1.14569-1.37483-1.83311"/>
<path transform="matrix(1,0,0,-1,17.002,91.769)" stroke-width=".59776" stroke-linecap="butt" stroke-miterlimit="10" stroke-linejoin="miter" fill="none" stroke="#000000" d="M32.60635 35.79451V7.31367"/>
<path transform="matrix(0,1,1,0,49.608354,84.45533)" stroke-width=".4782" stroke-linecap="round" stroke-linejoin="round" fill="none" stroke="#000000" d="M-1.37483 1.83311C-1.26025 1.14569 0 .11455 .34369 0 0-.11455-1.26025-1.14569-1.37483-1.83311"/>
<path transform="matrix(1,0,0,-1,17.002,91.769)" stroke-width=".59776" stroke-linecap="butt" stroke-miterlimit="10" stroke-linejoin="miter" fill="none" stroke="#000000" d="M73.7152 35.79451V7.31367"/>
<path transform="matrix(0,1,1,0,90.7172,84.45533)" stroke-width=".4782" stroke-linecap="round" stroke-linejoin="round" fill="none" stroke="#000000" d="M-1.37483 1.83311C-1.26025 1.14569 0 .11455 .34369 0 0-.11455-1.26025-1.14569-1.37483-1.83311"/>
<path transform="matrix(1,0,0,-1,17.002,91.769)" stroke-width=".59776" stroke-linecap="butt" stroke-miterlimit="10" stroke-linejoin="miter" fill="none" stroke="#000000" d="M90.72011 35.79451 114.45201 7.17943"/>
<path transform="matrix(.63835,.76968,.76968,-.63835,131.45401,84.589557)" stroke-width=".4782" stroke-linecap="round" stroke-linejoin="round" fill="none" stroke="#000000" d="M-1.37483 1.83311C-1.26025 1.14569 0 .11455 .34369 0 0-.11455-1.26025-1.14569-1.37483-1.83311"/>
<path transform="matrix(1,0,0,-1,17.002,91.769)" stroke-width=".59776" stroke-linecap="butt" stroke-miterlimit="10" stroke-linejoin="miter" fill="none" stroke="#000000" d="M197.04175 35.79451V7.31367"/>
<path transform="matrix(0,1,1,0,214.04375,84.45533)" stroke-width=".4782" stroke-linecap="round" stroke-linejoin="round" fill="none" stroke="#000000" d="M-1.37483 1.83311C-1.26025 1.14569 0 .11455 .34369 0 0-.11455-1.26025-1.14569-1.37483-1.83311"/>
<path transform="matrix(1,0,0,-1,17.002,91.769)" stroke-width=".59776" stroke-linecap="butt" stroke-miterlimit="10" stroke-linejoin="miter" fill="none" stroke="#000000" d="M214.04666 35.79451 237.77857 7.17943"/>
<path transform="matrix(.63835,.76968,.76968,-.63835,254.78055,84.589557)" stroke-width=".4782" stroke-linecap="round" stroke-linejoin="round" fill="none" stroke="#000000" d="M-1.37483 1.83311C-1.26025 1.14569 0 .11455 .34369 0 0-.11455-1.26025-1.14569-1.37483-1.83311"/>
<path transform="matrix(1,0,0,-1,17.002,91.769)" stroke-width=".59776" stroke-linecap="butt" stroke-miterlimit="10" stroke-linejoin="miter" fill="none" stroke="#000000" d="M279.25947 35.79451V7.31367"/>
<path transform="matrix(0,1,1,0,296.26148,84.45533)" stroke-width=".4782" stroke-linecap="round" stroke-linejoin="round" fill="none" stroke="#000000" d="M-1.37483 1.83311C-1.26025 1.14569 0 .11455 .34369 0 0-.11455-1.26025-1.14569-1.37483-1.83311"/>
<path transform="matrix(1,0,0,-1,17.002,91.769)" stroke-width=".59776" stroke-linecap="butt" stroke-miterlimit="10" stroke-linejoin="miter" fill="none" stroke="#000000" d="M296.26438 35.79451 319.99623 7.17943"/>
<path transform="matrix(.63835,.76968,.76968,-.63835,336.99824,84.589557)" stroke-width=".4782" stroke-linecap="round" stroke-linejoin="round" fill="none" stroke="#000000" d="M-1.37483 1.83311C-1.26025 1.14569 0 .11455 .34369 0 0-.11455-1.26025-1.14569-1.37483-1.83311"/>
<path transform="matrix(1,0,0,-1,17.002,91.769)" stroke-width=".59776" stroke-linecap="butt" stroke-miterlimit="10" stroke-linejoin="miter" fill="none" stroke="#000000" d="M361.4771 35.79451V7.31367"/>
<path transform="matrix(0,1,1,0,378.47914,84.45533)" stroke-width=".4782" stroke-linecap="round" stroke-linejoin="round" fill="none" stroke="#000000" d="M-1.37483 1.83311C-1.26025 1.14569 0 .11455 .34369 0 0-.11455-1.26025-1.14569-1.37483-1.83311"/>
<path transform="matrix(1,0,0,-1,17.002,91.769)" stroke-width=".59776" stroke-linecap="butt" stroke-miterlimit="10" stroke-linejoin="miter" fill="none" stroke="#000000" d="M402.58598 35.79451V7.31367"/>
<path transform="matrix(0,1,1,0,419.58799,84.45533)" stroke-width=".4782" stroke-linecap="round" stroke-linejoin="round" fill="none" stroke="#000000" d="M-1.37483 1.83311C-1.26025 1.14569 0 .11455 .34369 0 0-.11455-1.26025-1.14569-1.37483-1.83311"/>
<path transform="matrix(1,0,0,-1,17.002,91.769)" stroke-width=".59776" stroke-linecap="butt" stroke-miterlimit="10" stroke-linejoin="miter" fill="none" stroke="#000000" d="M419.5909 35.79451 443.32279 7.17943"/>
<path transform="matrix(.63835,.76968,.76968,-.63835,460.3248,84.589557)" stroke-width=".4782" stroke-linecap="round" stroke-linejoin="round" fill="none" stroke="#000000" d="M-1.37483 1.83311C-1.26025 1.14569 0 .11455 .34369 0 0-.11455-1.26025-1.14569-1.37483-1.83311"/>
<path transform="matrix(1,0,0,-1,17.002,91.769)" stroke-width=".59776" stroke-linecap="butt" stroke-miterlimit="10" stroke-linejoin="miter" fill="none" stroke="#000000" d="M484.80369 35.79451V7.31367"/>
<path transform="matrix(0,1,1,0,501.8057,84.45533)" stroke-width=".4782" stroke-linecap="round" stroke-linejoin="round" fill="none" stroke="#000000" d="M-1.37483 1.83311C-1.26025 1.14569 0 .11455 .34369 0 0-.11455-1.26025-1.14569-1.37483-1.83311"/>
<path transform="matrix(1,0,0,-1,17.002,91.769)" stroke-width=".59776" stroke-linecap="butt" stroke-miterlimit="10" stroke-linejoin="miter" fill="none" stroke="#000000" d="M501.80863 35.79451 525.54049 7.17943"/>
<path transform="matrix(.63835,.76968,.76968,-.63835,542.5425,84.589557)" stroke-width=".4782" stroke-linecap="round" stroke-linejoin="round" fill="none" stroke="#000000" d="M-1.37483 1.83311C-1.26025 1.14569 0 .11455 .34369 0 0-.11455-1.26025-1.14569-1.37483-1.83311"/>
<path transform="matrix(1,0,0,-1,17.002,91.769)" stroke-width=".59776" stroke-linecap="butt" stroke-miterlimit="10" stroke-linejoin="miter" fill="none" stroke="#000000" d="M65.21272 78.31993 33.04138 49.64403"/>
<path transform="matrix(-.74644,.66536,.66536,.74644,50.043405,42.124959)" stroke-width=".4782" stroke-linecap="round" stroke-linejoin="round" fill="none" stroke="#000000" d="M-1.37483 1.83311C-1.26025 1.14569 0 .11455 .34369 0 0-.11455-1.26025-1.14569-1.37483-1.83311"/>
<path transform="matrix(1,0,0,-1,17.002,91.769)" stroke-width=".59776" stroke-linecap="butt" stroke-miterlimit="10" stroke-linejoin="miter" fill="none" stroke="#000000" d="M73.7152 78.31993V49.83907"/>
<path transform="matrix(0,1,1,0,90.7172,41.929929)" stroke-width=".4782" stroke-linecap="round" stroke-linejoin="round" fill="none" stroke="#000000" d="M-1.37483 1.83311C-1.26025 1.14569 0 .11455 .34369 0 0-.11455-1.26025-1.14569-1.37483-1.83311"/>
<path transform="matrix(1,0,0,-1,17.002,91.769)" stroke-width=".59776" stroke-linecap="butt" stroke-miterlimit="10" stroke-linejoin="miter" fill="none" stroke="#000000" d="M90.72011 78.31993 278.68348 49.34502"/>
<path transform="matrix(.98828,.15234,.15234,-.98828,295.68547,42.423978)" stroke-width=".4782" stroke-linecap="round" stroke-linejoin="round" fill="none" stroke="#000000" d="M-1.37483 1.83311C-1.26025 1.14569 0 .11455 .34369 0 0-.11455-1.26025-1.14569-1.37483-1.83311"/>
<path transform="matrix(1,0,0,-1,17.002,91.769)" stroke-width=".59776" stroke-linecap="butt" stroke-miterlimit="10" stroke-linejoin="miter" fill="none" stroke="#000000" d="M402.58598 78.31993V49.83907"/>
<path transform="matrix(0,1,1,0,419.58799,41.929929)" stroke-width=".4782" stroke-linecap="round" stroke-linejoin="round" fill="none" stroke="#000000" d="M-1.37483 1.83311C-1.26025 1.14569 0 .11455 .34369 0 0-.11455-1.26025-1.14569-1.37483-1.83311"/>
<path transform="matrix(1,0,0,-1,17.002,91.769)" stroke-width=".59776" stroke-linecap="butt" stroke-miterlimit="10" stroke-linejoin="miter" fill="none" stroke="#000000" d="M419.5909 78.31993 484.27137 49.49348"/>
<path transform="matrix(.91338,.40707,.40707,-.91338,501.27336,42.275499)" stroke-width=".4782" stroke-linecap="round" stroke-linejoin="round" fill="none" stroke="#000000" d="M-1.37483 1.83311C-1.26025 1.14569 0 .11455 .34369 0 0-.11455-1.26025-1.14569-1.37483-1.83311"/>
<text fill="#929292" xml:space="preserve" transform="matrix(1 0 -0 1 .000061035159 98.49899)" font-size="8.9664" font-family="CMR9"><tspan y="-88.88" x="575.402">3</tspan></text>
<text fill="#929292" xml:space="preserve" transform="matrix(1 0 -0 1 .000061035159 98.49899)" font-size="8.9664" font-family="CMR9"><tspan y="-46.36" x="575.402">2</tspan></text>
<text fill="#929292" xml:space="preserve" transform="matrix(1 0 -0 1 .000061035159 98.499)" font-size="8.9664" font-family="CMR9"><tspan y="-3.841" x="575.402">1</tspan></text>
</svg>
