<svg xmlns="http://www.w3.org/2000/svg" xmlns:xlink="http://www.w3.org/1999/xlink" version="1.1" width="583.331" height="98.997" viewBox="0 0 583.331 98.997">
<defs>
<path id="font_0_1" d="M.40899659 .6320038C.40899659 .65000918 .40899659 .6680145 .3889923 .6680145 .36898805 .6680145 .36898805 .6470032 .36898805 .6320038V.039993287H.09098816C.07598877 .039993287 .054992677 .039993287 .054992677 .019989014 .054992677 0 .07598877 0 .09098816 0H.6879883C.7049866 0 .72299197 0 .72299197 .019989014 .72299197 .039993287 .7049866 .039993287 .6879883 .039993287H.40899659V.6320038Z"/>
<path id="font_1_2" d="M.1269989 .07699585 .23298645 .18003845C.3889923 .31811524 .44898988 .3721466 .44898988 .47216798 .44898988 .5860901 .35899354 .6660156 .23699951 .6660156 .12399292 .6660156 .049987794 .57411196 .049987794 .48516847 .049987794 .4291687 .099990848 .4291687 .102996829 .4291687 .11999512 .4291687 .15499878 .44117738 .15499878 .48217774 .15499878 .5081787 .13699341 .5341797 .101989749 .5341797 .09399414 .5341797 .09199524 .5341797 .08898926 .5331726 .11199951 .59806826 .1659851 .63500979 .22399903 .63500979 .31498719 .63500979 .35798646 .5541382 .35798646 .47216798 .35798646 .39215089 .30799867 .31311036 .25299073 .25108338L.06098938 .036987306C.049987794 .025985718 .049987794 .023986817 .049987794 0H.42099L.44898988 .17404175H.42399598C.4189911 .14402771 .4119873 .1000061 .4019928 .084991458 .394989 .07699585 .32899476 .07699585 .30699159 .07699585H.1269989Z"/>
<path id="font_1_3" d="M.2899933 .35191346C.37199403 .37893678 .42999269 .4490509 .42999269 .52809146 .42999269 .6100464 .34199525 .6660156 .24598694 .6660156 .14498902 .6660156 .068984989 .60606387 .068984989 .53009036 .068984989 .49710084 .09098816 .47808839 .11999512 .47808839 .15098572 .47808839 .17098999 .50009158 .17098999 .5290985 .17098999 .57910159 .12399292 .57910159 .10899353 .57910159 .13999939 .62802127 .20599365 .64100649 .24198914 .64100649 .2829895 .64100649 .33799745 .6190338 .33799745 .5290985 .33799745 .51708987 .33599855 .45906068 .30999757 .4149933 .27999879 .36691285 .24598694 .36390687 .22099304 .36291505 .21299744 .36190797 .18899536 .35990907 .18199158 .35990907 .17399597 .35890199 .16699219 .35791017 .16699219 .3479004 .16699219 .33691407 .17399597 .33691407 .19099427 .33691407H.23498535C.31698609 .33691407 .35398866 .2686615 .35398866 .17037964 .35398866 .034469606 .2849884 .0055389406 .24099732 .0055389406 .19799805 .0055389406 .12298584 .022491456 .08799744 .08137512 .12298584 .07637024 .1539917 .09837341 .1539917 .1363678 .1539917 .17237854 .1269989 .19238281 .09799194 .19238281 .07398987 .19238281 .041992189 .17837525 .041992189 .1343689 .041992189 .043441774 .1349945-.022460938 .24398804-.022460938 .3659973-.022460938 .45700074 .06838989 .45700074 .17037964 .45700074 .252594 .3939972 .33088685 .2899933 .35191346Z"/>
<path id="font_1_5" d="M.44898988 .20022583C.44898988 .3193512 .36698915 .41944886 .25898744 .41944886 .21099854 .41944886 .16799927 .40345765 .13198853 .36842347V.5637665C.1519928 .5577698 .18499756 .55078127 .21699524 .55078127 .33999635 .55078127 .4099884 .6417694 .4099884 .6547699 .4099884 .6607666 .40699769 .6657715 .3999939 .6657715 .39898683 .6657715 .39698792 .6657715 .3919983 .66278079 .37199403 .6537781 .32299806 .6337738 .2559967 .6337738 .21598816 .6337738 .16999817 .6407776 .12298584 .6617737 .114990238 .66477969 .11299133 .66477969 .11099243 .66477969 .100997928 .66477969 .100997928 .6567688 .100997928 .6407776V.34439088C.100997928 .32637025 .100997928 .31835938 .114990238 .31835938 .12199402 .31835938 .12399292 .32136537 .12799073 .32736207 .13899231 .3433838 .17599488 .39746095 .25698854 .39746095 .30899049 .39746095 .33399964 .35139466 .34199525 .33337403 .35798646 .29632569 .3600006 .25727845 .3600006 .20722962 .3600006 .17222595 .3600006 .11222839 .33599855 .07035828 .31199647 .031463624 .2749939 .0055389406 .22898865 .0055389406 .1559906 .0055389406 .09899902 .058380128 .08198547 .11723328 .084991458 .1162262 .08799744 .115234378 .09899902 .115234378 .13198853 .115234378 .14898682 .14022827 .14898682 .16423035 .14898682 .18823242 .13198853 .21322632 .09899902 .21322632 .084991458 .21322632 .049987794 .20622254 .049987794 .16023255 .049987794 .07434082 .11898804-.022460938 .23098755-.022460938 .34700013-.022460938 .44898988 .073349 .44898988 .20022583Z"/>
<path id="font_1_7" d="M.47599793 .609375C.4850006 .6213684 .4850006 .62338259 .4850006 .64437869H.24198914C.11999512 .64437869 .117996219 .65737918 .11399841 .67637637H.08898926L.055999757 .4702301H.08099365C.083999637 .48625184 .09298706 .5493469 .10598755 .56137087 .11299133 .5673828 .19099427 .5673828 .20399475 .5673828H.41099549C.3999939 .5513611 .32099916 .4421997 .29899598 .40914918 .20899964 .27394105 .17599488 .1347351 .17599488 .032577516 .17599488 .022567749 .17599488-.022460938 .22200012-.022460938 .2679901-.022460938 .2679901 .022567749 .2679901 .032577516V.08366394C.2679901 .13873291 .2709961 .19381714 .2789917 .24790955 .2829895 .27093507 .29699708 .35707093 .34098817 .41915895L.47599793 .609375Z"/>
<path id="font_1_1" d="M.2939911 .64004519C.2939911 .66400149 .2939911 .6660156 .2709961 .6660156 .20899964 .60227969 .12098694 .60227969 .08898926 .60227969V.57128909C.10899353 .57128909 .16799927 .57128909 .21998596 .5972748V.07902527C.21998596 .042999269 .21699524 .0309906 .1269989 .0309906H.09498596V0C.12998963 .0029907227 .21699524 .0029907227 .25698854 .0029907227 .29699708 .0029907227 .38398744 .0029907227 .4189911 0V.0309906H.3869934C.29699708 .0309906 .2939911 .041992189 .2939911 .07902527V.64004519Z"/>
<path id="font_1_8" d="M.36698915 .31781007V.28579713C.36698915 .05178833 .2630005 .0055389406 .20498657 .0055389406 .18798828 .0055389406 .13398743 .007537842 .10699463 .041778566 .15098572 .041778566 .15899658 .07078552 .15899658 .08778381 .15899658 .118774417 .1349945 .13378906 .11299133 .13378906 .09700012 .13378906 .066986087 .12478638 .066986087 .08578491 .066986087 .018615723 .12098694-.022460938 .20599365-.022460938 .33499146-.022460938 .45700074 .11378479 .45700074 .32881166 .45700074 .5979767 .34199525 .6660156 .25299073 .6660156 .19799805 .6660156 .14898682 .64801028 .10598755 .60298159 .06498718 .5579529 .041992189 .5159302 .041992189 .44088746 .041992189 .31581117 .12998963 .21777344 .24198914 .21777344 .30299378 .21777344 .34399415 .25978089 .36698915 .31781007M.24299622 .24076844C.22698975 .24076844 .18099976 .24076844 .1499939 .3038025 .13198853 .3408203 .13198853 .39085389 .13198853 .43988038 .13198853 .49391175 .13198853 .54093936 .15299988 .5779724 .17999268 .6279907 .21798706 .64100649 .25299073 .64100649 .29899598 .64100649 .33198548 .60697939 .34899903 .5619507 .36099244 .52993777 .36499024 .4669037 .36499024 .42086793 .36499024 .3378296 .33099366 .24076844 .24299622 .24076844Z"/>
<path id="font_1_4" d="M.2939911 .16503906V.07800293C.2939911 .041992189 .2919922 .0309906 .21798706 .0309906H.19699097V0C.23799134 .0029907227 .2899933 .0029907227 .33198548 .0029907227 .37399293 .0029907227 .4269867 .0029907227 .46798707 0V.0309906H.44699098C.37298585 .0309906 .37098695 .041992189 .37098695 .07800293V.16503906H.47099305V.19602967H.37098695V.65075686C.37098695 .67074587 .37098695 .6767578 .35499574 .6767578 .34599305 .6767578 .34298707 .6767578 .33499146 .66474917L.027999878 .19602967V.16503906H.2939911M.2999878 .19602967H.055999757L.2999878 .5688019V.19602967Z"/>
<path id="font_1_6" d="M.13198853 .327713V.35173036C.13198853 .6047821 .2559967 .64100649 .30699159 .64100649 .33099366 .64100649 .37298585 .634964 .394989 .6007538 .37998963 .6007538 .33999635 .6007538 .33999635 .5557556 .33999635 .524765 .3639984 .5097656 .38598634 .5097656 .4019928 .5097656 .43199159 .51875308 .43199159 .5577545 .43199159 .6178589 .3880005 .6660156 .30499269 .6660156 .1769867 .6660156 .041992189 .5367584 .041992189 .31570436 .041992189 .048553468 .1579895-.022460938 .25099183-.022460938 .3619995-.022460938 .45700074 .07156372 .45700074 .2036438 .45700074 .33070375 .36799623 .4267578 .25698854 .4267578 .18899536 .4267578 .1519928 .37573243 .13198853 .327713M.25099183 .0055389406C.18798828 .0055389406 .1579895 .06556702 .1519928 .080566409 .13398743 .127594 .13398743 .2076416 .13398743 .22564698 .13398743 .30369569 .1659851 .40374757 .2559967 .40374757 .27198792 .40374757 .31799317 .40374757 .34899903 .34172059 .36698915 .30470277 .36698915 .2536621 .36698915 .20463562 .36698915 .15661621 .36698915 .10658264 .34999085 .0705719 .31999208 .010528564 .27398683 .0055389406 .25099183 .0055389406Z"/>
<path id="font_2_3" d="M.30499269 .35195924C.397995 .38697816 .44198609 .46006776 .44198609 .5290985 .44198609 .60606387 .35699464 .6660156 .25299073 .6660156 .14898682 .6660156 .070999149 .60705569 .070999149 .5310974 .070999149 .49809266 .09298706 .47909547 .12199402 .47909547 .15098572 .47909547 .17199707 .50009158 .17199707 .5290985 .17199707 .5640869 .147995 .57910159 .11399841 .57910159 .13999939 .6210327 .20098877 .64100649 .25 .64100649 .33299256 .64100649 .34899903 .5750885 .34899903 .52809146 .34899903 .49809266 .34298707 .45005799 .31799317 .41201783 .2869873 .36695863 .2519989 .36495973 .22299195 .36296083 .19799805 .36094667 .19599915 .36094667 .18798828 .36094667 .1789856 .35995484 .17098999 .35894776 .17098999 .34794618 .17098999 .33496095 .1789856 .33496095 .19599915 .33496095H.24299622C.32998658 .33496095 .36799623 .2646637 .36799623 .16937256 .36799623 .04145813 .2999878 .0055389406 .24899292 .0055389406 .22999573 .0055389406 .1329956 .010528564 .08799744 .0843811 .12399292 .07939148 .1519928 .10437012 .1519928 .13838196 .1519928 .17137146 .1269989 .19238281 .09799194 .19238281 .07299805 .19238281 .042999269 .17736817 .042999269 .13537598 .042999269 .046447755 .13598633-.022460938 .2519989-.022460938 .3769989-.022460938 .46998597 .06741333 .46998597 .16937256 .46998597 .25663758 .40098573 .33093263 .30499269 .35195924Z"/>
<path id="font_2_2" d="M.46199037 .17704773H.43399049C.43199159 .16404724 .42399598 .10501099 .41099549 .08900452 .40499879 .07998657 .33599855 .07998657 .31599427 .07998657H.13798523L.23699951 .17404175C.40098573 .3161316 .46199037 .36915589 .46199037 .4711914 .46199037 .5860901 .36698915 .6660156 .24398804 .6660156 .1289978 .6660156 .050994874 .575119 .050994874 .4841919 .050994874 .43418885 .09399414 .42919923 .102996829 .42919923 .125 .42919923 .15499878 .44519044 .15499878 .48120118 .15499878 .51119998 .13398743 .5332031 .102996829 .5332031 .09799194 .5332031 .09498596 .5332031 .09098816 .53219607 .114990238 .6030731 .1789856 .63500979 .23298645 .63500979 .33499146 .63500979 .36999513 .5401764 .36999513 .4711914 .36999513 .36915589 .29299928 .28611756 .24499512 .23408509L.06199646 .035995485C.050994874 .024993897 .050994874 .022994996 .050994874 0H.43399049L.46199037 .17704773Z"/>
<path id="font_2_1" d="M.3039856 .6392822C.3039856 .6642761 .30299378 .666275 .27799989 .666275 .21598816 .60227969 .12399292 .60227969 .09298706 .60227969V.57128909C.11199951 .57128909 .17298889 .57128909 .22698975 .5972748V.08001709C.22698975 .042999269 .22399903 .0309906 .1309967 .0309906H.09899902V0C.1349945 .0029907227 .22399903 .0029907227 .2649994 .0029907227 .30599977 .0029907227 .3959961 .0029907227 .43199159 0V.0309906H.3999939C.30699159 .0309906 .3039856 .042999269 .3039856 .08001709V.6392822Z"/>
</defs>
<path transform="matrix(1,0,0,-1,17.002,92.018009)" d="M-16.80316-6.77985H16.803179V6.77987H-16.80316ZM0 6.77986V-6.77985" fill="#fff3c7"/>
<path transform="matrix(1,0,0,-1,17.002,92.018009)" stroke-width=".3985" stroke-linecap="butt" stroke-miterlimit="10" stroke-linejoin="miter" fill="none" stroke="#000000" d="M-16.80316-6.77985H16.803179V6.77987H-16.80316ZM0 6.77986V-6.77985"/>
<use data-text="&#x22a5;" xlink:href="#font_0_1" transform="matrix(9.9626,0,0,-9.9626,4.6270005,95.477008)"/>
<use data-text="2" xlink:href="#font_1_2" transform="matrix(9.9626,0,0,-9.9626,23.013003,95.228008)"/>
<path transform="matrix(1,0,0,-1,17.002,92.018009)" d="M24.29959-6.53078H57.90593V6.5308H24.29959ZM41.10275 6.53079V-6.53078" fill="#ccfc88"/>
<path transform="matrix(1,0,0,-1,17.002,92.018009)" stroke-width=".3985" stroke-linecap="butt" stroke-miterlimit="10" stroke-linejoin="miter" fill="none" stroke="#000000" d="M24.29959-6.53078H57.90593V6.5308H24.29959ZM41.10275 6.53079V-6.53078"/>
<use data-text="3" xlink:href="#font_1_3" transform="matrix(9.9626,0,0,-9.9626,47.113,95.228008)"/>
<use data-text="5" xlink:href="#font_1_5" transform="matrix(9.9626,0,0,-9.9626,64.115,95.228008)"/>
<path transform="matrix(1,0,0,-1,17.002,92.018009)" d="M65.40239-6.53078H99.00873V6.5308H65.40239ZM82.20554 6.53079V-6.53078" fill="#a189fa"/>
<path transform="matrix(1,0,0,-1,17.002,92.018009)" stroke-width=".3985" stroke-linecap="butt" stroke-miterlimit="10" stroke-linejoin="miter" fill="none" stroke="#000000" d="M65.40239-6.53078H99.00873V6.5308H65.40239ZM82.20554 6.53079V-6.53078"/>
<use data-text="7" xlink:href="#font_1_7" transform="matrix(9.9626,0,0,-9.9626,88.215,95.228008)"/>
<use data-text="1" xlink:href="#font_1_1" transform="matrix(9.9626,0,0,-9.9626,102.726,95.228008)"/>
<use data-text="1" xlink:href="#font_1_1" transform="matrix(9.9626,0,0,-9.9626,107.7073,95.228008)"/>
<path transform="matrix(1,0,0,-1,17.002,92.018009)" d="M106.50517-6.53078H140.11151V6.5308H106.50517ZM123.30833 6.53079V-6.53078" fill="#ffbfbf"/>
<path transform="matrix(1,0,0,-1,17.002,92.018009)" stroke-width=".3985" stroke-linecap="butt" stroke-miterlimit="10" stroke-linejoin="miter" fill="none" stroke="#000000" d="M106.50517-6.53078H140.11151V6.5308H106.50517ZM123.30833 6.53079V-6.53078"/>
<use data-text="1" xlink:href="#font_1_1" transform="matrix(9.9626,0,0,-9.9626,126.826,95.228008)"/>
<use data-text="3" xlink:href="#font_1_3" transform="matrix(9.9626,0,0,-9.9626,131.8073,95.228008)"/>
<use data-text="1" xlink:href="#font_1_1" transform="matrix(9.9626,0,0,-9.9626,143.82901,95.228008)"/>
<use data-text="7" xlink:href="#font_1_7" transform="matrix(9.9626,0,0,-9.9626,148.8103,95.228008)"/>
<path transform="matrix(1,0,0,-1,17.002,92.018009)" d="M147.60797-6.53078H181.21431V6.5308H147.60797ZM164.41112 6.53079V-6.53078" fill="#ffbfbf"/>
<path transform="matrix(1,0,0,-1,17.002,92.018009)" stroke-width=".3985" stroke-linecap="butt" stroke-miterlimit="10" stroke-linejoin="miter" fill="none" stroke="#000000" d="M147.60797-6.53078H181.21431V6.5308H147.60797ZM164.41112 6.53079V-6.53078"/>
<use data-text="1" xlink:href="#font_1_1" transform="matrix(9.9626,0,0,-9.9626,167.929,95.228008)"/>
<use data-text="9" xlink:href="#font_1_8" transform="matrix(9.9626,0,0,-9.9626,172.9103,95.228008)"/>
<path transform="matrix(1,0,0,-1,17.002,92.018009)" stroke-width=".3985" stroke-linecap="butt" stroke-miterlimit="10" stroke-linejoin="miter" fill="none" stroke="#000000" d="M188.71076-6.53078H222.3171V6.5308H188.71076ZM205.51392 6.53079V-6.53078"/>
<use data-text="2" xlink:href="#font_1_2" transform="matrix(9.9626,0,0,-9.9626,209.031,95.228008)"/>
<use data-text="3" xlink:href="#font_1_3" transform="matrix(9.9626,0,0,-9.9626,214.0123,95.228008)"/>
<path transform="matrix(1,0,0,-1,17.002,92.018009)" stroke-width=".3985" stroke-linecap="butt" stroke-miterlimit="10" stroke-linejoin="miter" fill="none" stroke="#000000" d="M229.81354-6.53078H263.41987V6.5308H229.81354ZM246.6167 6.53079V-6.53078"/>
<use data-text="2" xlink:href="#font_1_2" transform="matrix(9.9626,0,0,-9.9626,250.133,95.228008)"/>
<use data-text="9" xlink:href="#font_1_8" transform="matrix(9.9626,0,0,-9.9626,255.11429,95.228008)"/>
<path transform="matrix(1,0,0,-1,17.002,92.018009)" d="M270.91636-6.53078H304.5227V6.5308H270.91636ZM287.7195 6.53079V-6.53078" fill="#92f7b7"/>
<path transform="matrix(1,0,0,-1,17.002,92.018009)" stroke-width=".3985" stroke-linecap="butt" stroke-miterlimit="10" stroke-linejoin="miter" fill="none" stroke="#000000" d="M270.91636-6.53078H304.5227V6.5308H270.91636ZM287.7195 6.53079V-6.53078"/>
<use data-text="3" xlink:href="#font_1_3" transform="matrix(9.9626,0,0,-9.9626,291.23503,95.228008)"/>
<use data-text="1" xlink:href="#font_1_1" transform="matrix(9.9626,0,0,-9.9626,296.2163,95.228008)"/>
<use data-text="3" xlink:href="#font_1_3" transform="matrix(9.9626,0,0,-9.9626,308.238,95.228008)"/>
<use data-text="7" xlink:href="#font_1_7" transform="matrix(9.9626,0,0,-9.9626,313.2193,95.228008)"/>
<path transform="matrix(1,0,0,-1,17.002,92.018009)" stroke-width=".3985" stroke-linecap="butt" stroke-miterlimit="10" stroke-linejoin="miter" fill="none" stroke="#000000" d="M312.0191-6.53078H345.62544V6.5308H312.0191ZM328.82228 6.53079V-6.53078"/>
<use data-text="4" xlink:href="#font_1_4" transform="matrix(9.9626,0,0,-9.9626,332.338,95.228008)"/>
<use data-text="1" xlink:href="#font_1_1" transform="matrix(9.9626,0,0,-9.9626,337.3193,95.228008)"/>
<path transform="matrix(1,0,0,-1,17.002,92.018009)" d="M353.1219-6.53078H386.7282V6.5308H353.1219ZM369.92506 6.53079V-6.53078" fill="#f79297"/>
<path transform="matrix(1,0,0,-1,17.002,92.018009)" stroke-width=".3985" stroke-linecap="butt" stroke-miterlimit="10" stroke-linejoin="miter" fill="none" stroke="#000000" d="M353.1219-6.53078H386.7282V6.5308H353.1219ZM369.92506 6.53079V-6.53078"/>
<use data-text="4" xlink:href="#font_1_4" transform="matrix(9.9626,0,0,-9.9626,373.44,95.228008)"/>
<use data-text="3" xlink:href="#font_1_3" transform="matrix(9.9626,0,0,-9.9626,378.4213,95.228008)"/>
<use data-text="4" xlink:href="#font_1_4" transform="matrix(9.9626,0,0,-9.9626,390.44203,95.228008)"/>
<use data-text="7" xlink:href="#font_1_7" transform="matrix(9.9626,0,0,-9.9626,395.4233,95.228008)"/>
<path transform="matrix(1,0,0,-1,17.002,92.018009)" d="M394.2247-6.53078H427.83106V6.5308H394.2247ZM411.02787 6.53079V-6.53078" fill="#b5bfff"/>
<path transform="matrix(1,0,0,-1,17.002,92.018009)" stroke-width=".3985" stroke-linecap="butt" stroke-miterlimit="10" stroke-linejoin="miter" fill="none" stroke="#000000" d="M394.2247-6.53078H427.83106V6.5308H394.2247ZM411.02787 6.53079V-6.53078"/>
<use data-text="5" xlink:href="#font_1_5" transform="matrix(9.9626,0,0,-9.9626,414.54203,95.228008)"/>
<use data-text="3" xlink:href="#font_1_3" transform="matrix(9.9626,0,0,-9.9626,419.52333,95.228008)"/>
<use data-text="5" xlink:href="#font_1_5" transform="matrix(9.9626,0,0,-9.9626,431.544,95.228008)"/>
<use data-text="9" xlink:href="#font_1_8" transform="matrix(9.9626,0,0,-9.9626,436.5253,95.228008)"/>
<path transform="matrix(1,0,0,-1,17.002,92.018009)" stroke-width=".3985" stroke-linecap="butt" stroke-miterlimit="10" stroke-linejoin="miter" fill="none" stroke="#000000" d="M435.32749-6.53078H468.93385V6.5308H435.32749ZM452.1306 6.53079V-6.53078"/>
<use data-text="6" xlink:href="#font_1_6" transform="matrix(9.9626,0,0,-9.9626,455.644,95.228008)"/>
<use data-text="1" xlink:href="#font_1_1" transform="matrix(9.9626,0,0,-9.9626,460.6253,95.228008)"/>
<path transform="matrix(1,0,0,-1,17.002,92.018009)" stroke-width=".3985" stroke-linecap="butt" stroke-miterlimit="10" stroke-linejoin="miter" fill="none" stroke="#000000" d="M476.43028-6.53078H510.03663V6.5308H476.43028ZM493.23344 6.53079V-6.53078"/>
<use data-text="6" xlink:href="#font_1_6" transform="matrix(9.9626,0,0,-9.9626,496.747,95.228008)"/>
<use data-text="7" xlink:href="#font_1_7" transform="matrix(9.9626,0,0,-9.9626,501.7283,95.228008)"/>
<path transform="matrix(1,0,0,-1,17.002,92.018009)" stroke-width=".3985" stroke-linecap="butt" stroke-miterlimit="10" stroke-linejoin="miter" fill="none" stroke="#000000" d="M517.5331-6.53078H551.1394V6.5308H517.5331ZM534.3362 6.53079V-6.53078"/>
<use data-text="7" xlink:href="#font_1_7" transform="matrix(9.9626,0,0,-9.9626,537.849,95.228008)"/>
<use data-text="1" xlink:href="#font_1_1" transform="matrix(9.9626,0,0,-9.9626,542.8303,95.228008)"/>
<path transform="matrix(1,0,0,-1,17.002,92.018009)" d="M-16.80316 35.74034H16.803179V49.30006H-16.80316ZM0 49.30006V35.74034" fill="#e8e8e8"/>
<path transform="matrix(1,0,0,-1,17.002,92.018009)" stroke-width=".3985" stroke-linecap="butt" stroke-miterlimit="10" stroke-linejoin="miter" fill="none" stroke="#000000" d="M-16.80316 35.74034H16.803179V49.30006H-16.80316ZM0 49.30006V35.74034"/>
<use data-text="&#x22a5;" xlink:href="#font_0_1" transform="matrix(9.9626,0,0,-9.9626,4.6270005,52.958009)"/>
<use data-text="3" xlink:href="#font_1_3" transform="matrix(9.9626,0,0,-9.9626,23.013003,52.708009)"/>
<path transform="matrix(1,0,0,-1,17.002,92.018009)" d="M65.40239 35.98941H99.00873V49.05099H65.40239ZM82.20554 49.051V35.98941" fill="#ec008c"/>
<path transform="matrix(1,0,0,-1,17.002,92.018009)" stroke-width=".3985" stroke-linecap="butt" stroke-miterlimit="10" stroke-linejoin="miter" fill="none" stroke="#000000" d="M65.40239 35.98941H99.00873V49.05099H65.40239ZM82.20554 49.051V35.98941"/>
<use data-text="7" xlink:href="#font_1_7" transform="matrix(9.9626,0,0,-9.9626,88.215,52.708009)"/>
<use data-text="1" xlink:href="#font_1_1" transform="matrix(9.9626,0,0,-9.9626,102.726,52.708009)"/>
<use data-text="3" xlink:href="#font_1_3" transform="matrix(9.9626,0,0,-9.9626,107.7073,52.708009)"/>
<path transform="matrix(1,0,0,-1,17.002,92.018009)" d="M188.71076 35.98941H222.3171V49.05099H188.71076ZM205.51392 49.051V35.98941" fill="#ec008c"/>
<path transform="matrix(1,0,0,-1,17.002,92.018009)" stroke-width=".3985" stroke-linecap="butt" stroke-miterlimit="10" stroke-linejoin="miter" fill="none" stroke="#000000" d="M188.71076 35.98941H222.3171V49.05099H188.71076ZM205.51392 49.051V35.98941"/>
<use data-text="2" xlink:href="#font_1_2" transform="matrix(9.9626,0,0,-9.9626,209.031,52.708009)"/>
<use data-text="3" xlink:href="#font_1_3" transform="matrix(9.9626,0,0,-9.9626,214.0123,52.708009)"/>
<use data-text="2" xlink:href="#font_1_2" transform="matrix(9.9626,0,0,-9.9626,226.033,52.708009)"/>
<use data-text="9" xlink:href="#font_1_8" transform="matrix(9.9626,0,0,-9.9626,231.0143,52.708009)"/>
<path transform="matrix(1,0,0,-1,17.002,92.018009)" d="M270.91636 35.98941H304.5227V49.05099H270.91636ZM287.7195 49.051V35.98941" fill="#00aeef"/>
<path transform="matrix(1,0,0,-1,17.002,92.018009)" stroke-width=".3985" stroke-linecap="butt" stroke-miterlimit="10" stroke-linejoin="miter" fill="none" stroke="#000000" d="M270.91636 35.98941H304.5227V49.05099H270.91636ZM287.7195 49.051V35.98941"/>
<use data-text="3" xlink:href="#font_1_3" transform="matrix(9.9626,0,0,-9.9626,291.23503,52.708009)"/>
<use data-text="1" xlink:href="#font_1_1" transform="matrix(9.9626,0,0,-9.9626,296.2163,52.708009)"/>
<use data-text="4" xlink:href="#font_1_4" transform="matrix(9.9626,0,0,-9.9626,308.238,52.708009)"/>
<use data-text="1" xlink:href="#font_1_1" transform="matrix(9.9626,0,0,-9.9626,313.2193,52.708009)"/>
<path transform="matrix(1,0,0,-1,17.002,92.018009)" d="M353.1219 35.98941H386.7282V49.05099H353.1219ZM369.92506 49.051V35.98941" fill="#00aeef"/>
<path transform="matrix(1,0,0,-1,17.002,92.018009)" stroke-width=".3985" stroke-linecap="butt" stroke-miterlimit="10" stroke-linejoin="miter" fill="none" stroke="#000000" d="M353.1219 35.98941H386.7282V49.05099H353.1219ZM369.92506 49.051V35.98941"/>
<use data-text="4" xlink:href="#font_1_4" transform="matrix(9.9626,0,0,-9.9626,373.44,52.708009)"/>
<use data-text="3" xlink:href="#font_1_3" transform="matrix(9.9626,0,0,-9.9626,378.4213,52.708009)"/>
<path transform="matrix(1,0,0,-1,17.002,92.018009)" d="M394.2247 35.98941H427.83106V49.05099H394.2247ZM411.02787 49.051V35.98941" fill="#ffdd88"/>
<path transform="matrix(1,0,0,-1,17.002,92.018009)" stroke-width=".3985" stroke-linecap="butt" stroke-miterlimit="10" stroke-linejoin="miter" fill="none" stroke="#000000" d="M394.2247 35.98941H427.83106V49.05099H394.2247ZM411.02787 49.051V35.98941"/>
<use data-text="5" xlink:href="#font_1_5" transform="matrix(9.9626,0,0,-9.9626,414.54203,52.708009)"/>
<use data-text="3" xlink:href="#font_1_3" transform="matrix(9.9626,0,0,-9.9626,419.52333,52.708009)"/>
<use data-text="6" xlink:href="#font_1_6" transform="matrix(9.9626,0,0,-9.9626,431.544,52.708009)"/>
<use data-text="1" xlink:href="#font_1_1" transform="matrix(9.9626,0,0,-9.9626,436.5253,52.708009)"/>
<path transform="matrix(1,0,0,-1,17.002,92.018009)" d="M476.43028 35.98941H510.03663V49.05099H476.43028ZM493.23344 49.051V35.98941" fill="#99f7f1"/>
<path transform="matrix(1,0,0,-1,17.002,92.018009)" stroke-width=".3985" stroke-linecap="butt" stroke-miterlimit="10" stroke-linejoin="miter" fill="none" stroke="#000000" d="M476.43028 35.98941H510.03663V49.05099H476.43028ZM493.23344 49.051V35.98941"/>
<use data-text="6" xlink:href="#font_1_6" transform="matrix(9.9626,0,0,-9.9626,496.747,52.708009)"/>
<use data-text="7" xlink:href="#font_1_7" transform="matrix(9.9626,0,0,-9.9626,501.7283,52.708009)"/>
<use data-text="7" xlink:href="#font_1_7" transform="matrix(9.9626,0,0,-9.9626,513.749,52.708009)"/>
<use data-text="1" xlink:href="#font_1_1" transform="matrix(9.9626,0,0,-9.9626,518.73037,52.708009)"/>
<path transform="matrix(1,0,0,-1,17.002,92.018009)" d="M-16.80316 78.26057H16.803179V91.82029H-16.80316ZM0 91.8203V78.26057" fill="#ff8000"/>
<path transform="matrix(1,0,0,-1,17.002,92.018009)" stroke-width=".3985" stroke-linecap="butt" stroke-miterlimit="10" stroke-linejoin="miter" fill="none" stroke="#000000" d="M-16.80316 78.26057H16.803179V91.82029H-16.80316ZM0 91.8203V78.26057"/>
<use data-text="&#x22a5;" xlink:href="#font_0_1" transform="matrix(9.9626,0,0,-9.9626,4.6270005,10.438004)"/>
<use data-text="7" xlink:href="#font_1_7" transform="matrix(9.9626,0,0,-9.9626,23.013003,10.189003)"/>
<path transform="matrix(1,0,0,-1,17.002,92.018009)" d="M270.91636 78.50964H304.5227V91.57122H270.91636ZM287.7195 91.57123V78.50964" fill="#ff8000"/>
<path transform="matrix(1,0,0,-1,17.002,92.018009)" stroke-width=".3985" stroke-linecap="butt" stroke-miterlimit="10" stroke-linejoin="miter" fill="none" stroke="#000000" d="M270.91636 78.50964H304.5227V91.57122H270.91636ZM287.7195 91.57123V78.50964"/>
<use data-text="1" xlink:href="#font_1_1" transform="matrix(9.9626,0,0,-9.9626,291.23503,10.189003)"/>
<use data-text="3" xlink:href="#font_1_3" transform="matrix(9.9626,0,0,-9.9626,296.2163,10.189003)"/>
<use data-text="5" xlink:href="#font_1_5" transform="matrix(9.9626,0,0,-9.9626,308.238,10.189003)"/>
<use data-text="3" xlink:href="#font_1_3" transform="matrix(9.9626,0,0,-9.9626,313.2193,10.189003)"/>
<path transform="matrix(1,0,0,-1,17.002,92.018009)" d="M476.43028 78.50964H510.03663V91.57122H476.43028ZM493.23344 91.57123V78.50964" fill="#ff8000"/>
<path transform="matrix(1,0,0,-1,17.002,92.018009)" stroke-width=".3985" stroke-linecap="butt" stroke-miterlimit="10" stroke-linejoin="miter" fill="none" stroke="#000000" d="M476.43028 78.50964H510.03663V91.57122H476.43028ZM493.23344 91.57123V78.50964"/>
<use data-text="6" xlink:href="#font_1_6" transform="matrix(9.9626,0,0,-9.9626,496.747,10.189003)"/>
<use data-text="7" xlink:href="#font_1_7" transform="matrix(9.9626,0,0,-9.9626,501.7283,10.189003)"/>
<path transform="matrix(1,0,0,-1,17.002,92.018009)" stroke-width=".59776" stroke-linecap="butt" stroke-dasharray="2.98883,2.98883" stroke-miterlimit="10" stroke-linejoin="miter" fill="none" stroke="#929292" d="M140.33145 0H146.8476"/>
<path transform="matrix(1,0,0,-1,163.8496,92.018009)" stroke-width=".4782" stroke-linecap="round" stroke-linejoin="round" fill="none" stroke="#929292" d="M-1.37483 1.83311C-1.26025 1.14569 0 .11455 .34369 0 0-.11455-1.26025-1.14569-1.37483-1.83311"/>
<path transform="matrix(1,0,0,-1,17.002,92.018009)" stroke-width=".59776" stroke-linecap="butt" stroke-dasharray="2.98883,2.98883" stroke-miterlimit="10" stroke-linejoin="miter" fill="none" stroke="#929292" d="M99.2226 42.52615 187.95645 42.52588"/>
<path transform="matrix(1,0,0,-1,204.95845,49.492128)" stroke-width=".4782" stroke-linecap="round" stroke-linejoin="round" fill="none" stroke="#929292" d="M-1.37483 1.83311C-1.26025 1.14569 0 .11455 .34369 0 0-.11455-1.26025-1.14569-1.37483-1.83311"/>
<path transform="matrix(1,0,0,-1,17.002,92.018009)" stroke-width=".59776" stroke-linecap="butt" stroke-dasharray="2.98883,2.98883" stroke-miterlimit="10" stroke-linejoin="miter" fill="none" stroke="#929292" d="M304.7668 42.52693 352.3918 42.5264"/>
<path transform="matrix(1,0,0,-1,369.39384,49.491605)" stroke-width=".4782" stroke-linecap="round" stroke-linejoin="round" fill="none" stroke="#929292" d="M-1.37483 1.83311C-1.26025 1.14569 0 .11455 .34369 0 0-.11455-1.26025-1.14569-1.37483-1.83311"/>
<path transform="matrix(1,0,0,-1,17.002,92.018009)" stroke-width=".59776" stroke-linecap="butt" stroke-dasharray="2.98883,2.98883" stroke-miterlimit="10" stroke-linejoin="miter" fill="none" stroke="#929292" d="M17.0049 85.05128H270.17417"/>
<path transform="matrix(1,0,0,-1,287.17619,6.966728)" stroke-width=".4782" stroke-linecap="round" stroke-linejoin="round" fill="none" stroke="#929292" d="M-1.37483 1.83311C-1.26025 1.14569 0 .11455 .34369 0 0-.11455-1.26025-1.14569-1.37483-1.83311"/>
<path transform="matrix(1,0,0,-1,17.002,92.018009)" stroke-width=".59776" stroke-linecap="butt" stroke-dasharray="2.98883,2.98883" stroke-miterlimit="10" stroke-linejoin="miter" fill="none" stroke="#929292" d="M304.7668 85.05156H475.71839"/>
<path transform="matrix(1,0,0,-1,492.7204,6.966446)" stroke-width=".4782" stroke-linecap="round" stroke-linejoin="round" fill="none" stroke="#929292" d="M-1.37483 1.83311C-1.26025 1.14569 0 .11455 .34369 0 0-.11455-1.26025-1.14569-1.37483-1.83311"/>
<path transform="matrix(1,0,0,-1,17.002,92.018009)" stroke-width=".79701" stroke-linecap="butt" stroke-dasharray=".79701,1.99255" stroke-miterlimit="10" stroke-linejoin="miter" fill="none" stroke="#000000" d="M17.0049 0H23.39651"/>
<path transform="matrix(1,0,0,-1,40.39851,92.018009)" stroke-width=".6376" stroke-linecap="round" stroke-linejoin="round" fill="none" stroke="#000000" d="M-1.55415 2.0722C-1.42464 1.29512 0 .1295 .38852 0 0-.1295-1.42464-1.29512-1.55415-2.0722"/>
<path transform="matrix(1,0,0,-1,17.002,92.018009)" stroke-width=".79701" stroke-linecap="butt" stroke-dasharray=".79701,1.99255" stroke-miterlimit="10" stroke-linejoin="miter" fill="none" stroke="#000000" d="M58.11375 0H64.50536"/>
<path transform="matrix(1,0,0,-1,81.50736,92.018009)" stroke-width=".6376" stroke-linecap="round" stroke-linejoin="round" fill="none" stroke="#000000" d="M-1.55415 2.0722C-1.42464 1.29512 0 .1295 .38852 0 0-.1295-1.42464-1.29512-1.55415-2.0722"/>
<path transform="matrix(1,0,0,-1,17.002,92.018009)" stroke-width=".79701" stroke-linecap="butt" stroke-dasharray=".79701,1.99255" stroke-miterlimit="10" stroke-linejoin="miter" fill="none" stroke="#000000" d="M99.2226 0H105.61421"/>
<path transform="matrix(1,0,0,-1,122.61621,92.018009)" stroke-width=".6376" stroke-linecap="round" stroke-linejoin="round" fill="none" stroke="#000000" d="M-1.55415 2.0722C-1.42464 1.29512 0 .1295 .38852 0 0-.1295-1.42464-1.29512-1.55415-2.0722"/>
<path transform="matrix(1,0,0,-1,17.002,92.018009)" stroke-width=".79701" stroke-linecap="butt" stroke-dasharray=".79701,1.99255" stroke-miterlimit="10" stroke-linejoin="miter" fill="none" stroke="#000000" d="M140.33145 0H146.72306"/>
<path transform="matrix(1,0,0,-1,163.72505,92.018009)" stroke-width=".6376" stroke-linecap="round" stroke-linejoin="round" fill="none" stroke="#000000" d="M-1.55415 2.0722C-1.42464 1.29512 0 .1295 .38852 0 0-.1295-1.42464-1.29512-1.55415-2.0722"/>
<path transform="matrix(1,0,0,-1,17.002,92.018009)" stroke-width=".79701" stroke-linecap="butt" stroke-dasharray=".79701,1.99255" stroke-miterlimit="10" stroke-linejoin="miter" fill="none" stroke="#000000" d="M181.4403 0H187.83191"/>
<path transform="matrix(1,0,0,-1,204.83391,92.018009)" stroke-width=".6376" stroke-linecap="round" stroke-linejoin="round" fill="none" stroke="#000000" d="M-1.55415 2.0722C-1.42464 1.29512 0 .1295 .38852 0 0-.1295-1.42464-1.29512-1.55415-2.0722"/>
<path transform="matrix(1,0,0,-1,17.002,92.018009)" stroke-width=".79701" stroke-linecap="butt" stroke-dasharray=".79701,1.99255" stroke-miterlimit="10" stroke-linejoin="miter" fill="none" stroke="#000000" d="M222.54915 0H228.94077"/>
<path transform="matrix(1,0,0,-1,245.94277,92.018009)" stroke-width=".6376" stroke-linecap="round" stroke-linejoin="round" fill="none" stroke="#000000" d="M-1.55415 2.0722C-1.42464 1.29512 0 .1295 .38852 0 0-.1295-1.42464-1.29512-1.55415-2.0722"/>
<path transform="matrix(1,0,0,-1,17.002,92.018009)" stroke-width=".79701" stroke-linecap="butt" stroke-dasharray=".79701,1.99255" stroke-miterlimit="10" stroke-linejoin="miter" fill="none" stroke="#000000" d="M263.658 0H270.0496"/>
<path transform="matrix(1,0,0,-1,287.0516,92.018009)" stroke-width=".6376" stroke-linecap="round" stroke-linejoin="round" fill="none" stroke="#000000" d="M-1.55415 2.0722C-1.42464 1.29512 0 .1295 .38852 0 0-.1295-1.42464-1.29512-1.55415-2.0722"/>
<path transform="matrix(1,0,0,-1,17.002,92.018009)" stroke-width=".79701" stroke-linecap="butt" stroke-dasharray=".79701,1.99255" stroke-miterlimit="10" stroke-linejoin="miter" fill="none" stroke="#000000" d="M304.7668 0H311.15843"/>
<path transform="matrix(1,0,0,-1,328.16044,92.018009)" stroke-width=".6376" stroke-linecap="round" stroke-linejoin="round" fill="none" stroke="#000000" d="M-1.55415 2.0722C-1.42464 1.29512 0 .1295 .38852 0 0-.1295-1.42464-1.29512-1.55415-2.0722"/>
<path transform="matrix(1,0,0,-1,17.002,92.018009)" stroke-width=".79701" stroke-linecap="butt" stroke-dasharray=".79701,1.99255" stroke-miterlimit="10" stroke-linejoin="miter" fill="none" stroke="#000000" d="M345.87568 0H352.2673"/>
<path transform="matrix(1,0,0,-1,369.26933,92.018009)" stroke-width=".6376" stroke-linecap="round" stroke-linejoin="round" fill="none" stroke="#000000" d="M-1.55415 2.0722C-1.42464 1.29512 0 .1295 .38852 0 0-.1295-1.42464-1.29512-1.55415-2.0722"/>
<path transform="matrix(1,0,0,-1,17.002,92.018009)" stroke-width=".79701" stroke-linecap="butt" stroke-dasharray=".79701,1.99255" stroke-miterlimit="10" stroke-linejoin="miter" fill="none" stroke="#000000" d="M386.9845 0H393.37614"/>
<path transform="matrix(1,0,0,-1,410.37815,92.018009)" stroke-width=".6376" stroke-linecap="round" stroke-linejoin="round" fill="none" stroke="#000000" d="M-1.55415 2.0722C-1.42464 1.29512 0 .1295 .38852 0 0-.1295-1.42464-1.29512-1.55415-2.0722"/>
<path transform="matrix(1,0,0,-1,17.002,92.018009)" stroke-width=".79701" stroke-linecap="butt" stroke-dasharray=".79701,1.99255" stroke-miterlimit="10" stroke-linejoin="miter" fill="none" stroke="#000000" d="M428.09339 0H434.485"/>
<path transform="matrix(1,0,0,-1,451.487,92.018009)" stroke-width=".6376" stroke-linecap="round" stroke-linejoin="round" fill="none" stroke="#000000" d="M-1.55415 2.0722C-1.42464 1.29512 0 .1295 .38852 0 0-.1295-1.42464-1.29512-1.55415-2.0722"/>
<path transform="matrix(1,0,0,-1,17.002,92.018009)" stroke-width=".79701" stroke-linecap="butt" stroke-dasharray=".79701,1.99255" stroke-miterlimit="10" stroke-linejoin="miter" fill="none" stroke="#000000" d="M469.2022 0H475.59385"/>
<path transform="matrix(1,0,0,-1,492.59587,92.018009)" stroke-width=".6376" stroke-linecap="round" stroke-linejoin="round" fill="none" stroke="#000000" d="M-1.55415 2.0722C-1.42464 1.29512 0 .1295 .38852 0 0-.1295-1.42464-1.29512-1.55415-2.0722"/>
<path transform="matrix(1,0,0,-1,17.002,92.018009)" stroke-width=".79701" stroke-linecap="butt" stroke-dasharray=".79701,1.99255" stroke-miterlimit="10" stroke-linejoin="miter" fill="none" stroke="#000000" d="M510.31108 0H516.7027"/>
<path transform="matrix(1,0,0,-1,533.7047,92.018009)" stroke-width=".6376" stroke-linecap="round" stroke-linejoin="round" fill="none" stroke="#000000" d="M-1.55415 2.0722C-1.42464 1.29512 0 .1295 .38852 0 0-.1295-1.42464-1.29512-1.55415-2.0722"/>
<path transform="matrix(1,0,0,-1,17.002,92.018009)" stroke-width=".79701" stroke-linecap="butt" stroke-dasharray=".79701,1.99255" stroke-miterlimit="10" stroke-linejoin="miter" fill="none" stroke="#000000" d="M17.0049 42.52693 64.50536 42.5264"/>
<path transform="matrix(1,0,0,-1,81.50736,49.491605)" stroke-width=".6376" stroke-linecap="round" stroke-linejoin="round" fill="none" stroke="#000000" d="M-1.55415 2.0722C-1.42464 1.29512 0 .1295 .38852 0 0-.1295-1.42464-1.29512-1.55415-2.0722"/>
<path transform="matrix(1,0,0,-1,17.002,92.018009)" stroke-width=".79701" stroke-linecap="butt" stroke-dasharray=".79701,1.99255" stroke-miterlimit="10" stroke-linejoin="miter" fill="none" stroke="#000000" d="M222.54915 42.52693 270.0496 42.5264"/>
<path transform="matrix(1,0,0,-1,287.0516,49.491605)" stroke-width=".6376" stroke-linecap="round" stroke-linejoin="round" fill="none" stroke="#000000" d="M-1.55415 2.0722C-1.42464 1.29512 0 .1295 .38852 0 0-.1295-1.42464-1.29512-1.55415-2.0722"/>
<path transform="matrix(1,0,0,-1,17.002,92.018009)" stroke-width=".79701" stroke-linecap="butt" stroke-dasharray=".79701,1.99255" stroke-miterlimit="10" stroke-linejoin="miter" fill="none" stroke="#000000" d="M386.9845 42.5303 393.37617 42.52771"/>
<path transform="matrix(.99998,.0004,.0004,-.99998,410.37818,49.490278)" stroke-width=".6376" stroke-linecap="round" stroke-linejoin="round" fill="none" stroke="#000000" d="M-1.55415 2.0722C-1.42464 1.29512 0 .1295 .38852 0 0-.1295-1.42464-1.29512-1.55415-2.0722"/>
<path transform="matrix(1,0,0,-1,17.002,92.018009)" stroke-width=".79701" stroke-linecap="butt" stroke-dasharray=".79701,1.99255" stroke-miterlimit="10" stroke-linejoin="miter" fill="none" stroke="#000000" d="M428.09339 42.52693 475.59385 42.5264"/>
<path transform="matrix(1,0,0,-1,492.59587,49.491605)" stroke-width=".6376" stroke-linecap="round" stroke-linejoin="round" fill="none" stroke="#000000" d="M-1.55415 2.0722C-1.42464 1.29512 0 .1295 .38852 0 0-.1295-1.42464-1.29512-1.55415-2.0722"/>
<path transform="matrix(1,0,0,-1,17.002,92.018009)" stroke-width=".59776" stroke-linecap="butt" stroke-miterlimit="10" stroke-linejoin="miter" fill="none" stroke="#000000" d="M-8.50246 35.54541V7.56277"/>
<path transform="matrix(0,1,1,0,8.499541,84.45524)" stroke-width=".4782" stroke-linecap="round" stroke-linejoin="round" fill="none" stroke="#000000" d="M-1.37483 1.83311C-1.26025 1.14569 0 .11455 .34369 0 0-.11455-1.26025-1.14569-1.37483-1.83311"/>
<path transform="matrix(1,0,0,-1,17.002,92.018009)" stroke-width=".59776" stroke-linecap="butt" stroke-miterlimit="10" stroke-linejoin="miter" fill="none" stroke="#000000" d="M8.50243 35.54541 32.2324 7.17787"/>
<path transform="matrix(.64162,.76698,.76698,-.64162,49.23439,84.84013)" stroke-width=".4782" stroke-linecap="round" stroke-linejoin="round" fill="none" stroke="#000000" d="M-1.37483 1.83311C-1.26025 1.14569 0 .11455 .34369 0 0-.11455-1.26025-1.14569-1.37483-1.83311"/>
<path transform="matrix(1,0,0,-1,17.002,92.018009)" stroke-width=".59776" stroke-linecap="butt" stroke-miterlimit="10" stroke-linejoin="miter" fill="none" stroke="#000000" d="M73.7152 35.79451V7.31367"/>
<path transform="matrix(0,1,1,0,90.7172,84.70434)" stroke-width=".4782" stroke-linecap="round" stroke-linejoin="round" fill="none" stroke="#000000" d="M-1.37483 1.83311C-1.26025 1.14569 0 .11455 .34369 0 0-.11455-1.26025-1.14569-1.37483-1.83311"/>
<path transform="matrix(1,0,0,-1,17.002,92.018009)" stroke-width=".59776" stroke-linecap="butt" stroke-miterlimit="10" stroke-linejoin="miter" fill="none" stroke="#000000" d="M90.72011 35.79451 114.45201 7.17943"/>
<path transform="matrix(.63835,.76968,.76968,-.63835,131.45401,84.83856)" stroke-width=".4782" stroke-linecap="round" stroke-linejoin="round" fill="none" stroke="#000000" d="M-1.37483 1.83311C-1.26025 1.14569 0 .11455 .34369 0 0-.11455-1.26025-1.14569-1.37483-1.83311"/>
<path transform="matrix(1,0,0,-1,17.002,92.018009)" stroke-width=".59776" stroke-linecap="butt" stroke-miterlimit="10" stroke-linejoin="miter" fill="none" stroke="#000000" d="M197.04175 35.79451V7.31367"/>
<path transform="matrix(0,1,1,0,214.04375,84.70434)" stroke-width=".4782" stroke-linecap="round" stroke-linejoin="round" fill="none" stroke="#000000" d="M-1.37483 1.83311C-1.26025 1.14569 0 .11455 .34369 0 0-.11455-1.26025-1.14569-1.37483-1.83311"/>
<path transform="matrix(1,0,0,-1,17.002,92.018009)" stroke-width=".59776" stroke-linecap="butt" stroke-miterlimit="10" stroke-linejoin="miter" fill="none" stroke="#000000" d="M214.04666 35.79451 237.77857 7.17943"/>
<path transform="matrix(.63835,.76968,.76968,-.63835,254.78055,84.83856)" stroke-width=".4782" stroke-linecap="round" stroke-linejoin="round" fill="none" stroke="#000000" d="M-1.37483 1.83311C-1.26025 1.14569 0 .11455 .34369 0 0-.11455-1.26025-1.14569-1.37483-1.83311"/>
<path transform="matrix(1,0,0,-1,17.002,92.018009)" stroke-width=".59776" stroke-linecap="butt" stroke-miterlimit="10" stroke-linejoin="miter" fill="none" stroke="#000000" d="M279.25947 35.79451V7.31367"/>
<path transform="matrix(0,1,1,0,296.26148,84.70434)" stroke-width=".4782" stroke-linecap="round" stroke-linejoin="round" fill="none" stroke="#000000" d="M-1.37483 1.83311C-1.26025 1.14569 0 .11455 .34369 0 0-.11455-1.26025-1.14569-1.37483-1.83311"/>
<path transform="matrix(1,0,0,-1,17.002,92.018009)" stroke-width=".59776" stroke-linecap="butt" stroke-miterlimit="10" stroke-linejoin="miter" fill="none" stroke="#000000" d="M296.26438 35.79451 319.99623 7.17943"/>
<path transform="matrix(.63835,.76968,.76968,-.63835,336.99824,84.83856)" stroke-width=".4782" stroke-linecap="round" stroke-linejoin="round" fill="none" stroke="#000000" d="M-1.37483 1.83311C-1.26025 1.14569 0 .11455 .34369 0 0-.11455-1.26025-1.14569-1.37483-1.83311"/>
<path transform="matrix(1,0,0,-1,17.002,92.018009)" stroke-width=".59776" stroke-linecap="butt" stroke-miterlimit="10" stroke-linejoin="miter" fill="none" stroke="#000000" d="M361.4771 35.79451V7.31367"/>
<path transform="matrix(0,1,1,0,378.47914,84.70434)" stroke-width=".4782" stroke-linecap="round" stroke-linejoin="round" fill="none" stroke="#000000" d="M-1.37483 1.83311C-1.26025 1.14569 0 .11455 .34369 0 0-.11455-1.26025-1.14569-1.37483-1.83311"/>
<path transform="matrix(1,0,0,-1,17.002,92.018009)" stroke-width=".59776" stroke-linecap="butt" stroke-miterlimit="10" stroke-linejoin="miter" fill="none" stroke="#000000" d="M402.58598 35.79451V7.31367"/>
<path transform="matrix(0,1,1,0,419.58799,84.70434)" stroke-width=".4782" stroke-linecap="round" stroke-linejoin="round" fill="none" stroke="#000000" d="M-1.37483 1.83311C-1.26025 1.14569 0 .11455 .34369 0 0-.11455-1.26025-1.14569-1.37483-1.83311"/>
<path transform="matrix(1,0,0,-1,17.002,92.018009)" stroke-width=".59776" stroke-linecap="butt" stroke-miterlimit="10" stroke-linejoin="miter" fill="none" stroke="#000000" d="M419.5909 35.79451 443.32279 7.17943"/>
<path transform="matrix(.63835,.76968,.76968,-.63835,460.3248,84.83856)" stroke-width=".4782" stroke-linecap="round" stroke-linejoin="round" fill="none" stroke="#000000" d="M-1.37483 1.83311C-1.26025 1.14569 0 .11455 .34369 0 0-.11455-1.26025-1.14569-1.37483-1.83311"/>
<path transform="matrix(1,0,0,-1,17.002,92.018009)" stroke-width=".59776" stroke-linecap="butt" stroke-miterlimit="10" stroke-linejoin="miter" fill="none" stroke="#000000" d="M484.80369 35.79451V7.31367"/>
<path transform="matrix(0,1,1,0,501.8057,84.70434)" stroke-width=".4782" stroke-linecap="round" stroke-linejoin="round" fill="none" stroke="#000000" d="M-1.37483 1.83311C-1.26025 1.14569 0 .11455 .34369 0 0-.11455-1.26025-1.14569-1.37483-1.83311"/>
<path transform="matrix(1,0,0,-1,17.002,92.018009)" stroke-width=".59776" stroke-linecap="butt" stroke-miterlimit="10" stroke-linejoin="miter" fill="none" stroke="#000000" d="M501.80863 35.79451 525.54049 7.17943"/>
<path transform="matrix(.63835,.76968,.76968,-.63835,542.5425,84.83856)" stroke-width=".4782" stroke-linecap="round" stroke-linejoin="round" fill="none" stroke="#000000" d="M-1.37483 1.83311C-1.26025 1.14569 0 .11455 .34369 0 0-.11455-1.26025-1.14569-1.37483-1.83311"/>
<path transform="matrix(1,0,0,-1,17.002,92.018009)" stroke-width=".59776" stroke-linecap="butt" stroke-miterlimit="10" stroke-linejoin="miter" fill="none" stroke="#000000" d="M-8.50246 78.07083V50.08817"/>
<path transform="matrix(0,1,1,0,8.499541,41.929838)" stroke-width=".4782" stroke-linecap="round" stroke-linejoin="round" fill="none" stroke="#000000" d="M-1.37483 1.83311C-1.26025 1.14569 0 .11455 .34369 0 0-.11455-1.26025-1.14569-1.37483-1.83311"/>
<path transform="matrix(1,0,0,-1,17.002,92.018009)" stroke-width=".59776" stroke-linecap="butt" stroke-miterlimit="10" stroke-linejoin="miter" fill="none" stroke="#000000" d="M8.50243 78.07083 73.1821 49.49176"/>
<path transform="matrix(.91466,.40413,.40413,-.91466,90.1841,42.526227)" stroke-width=".4782" stroke-linecap="round" stroke-linejoin="round" fill="none" stroke="#000000" d="M-1.37483 1.83311C-1.26025 1.14569 0 .11455 .34369 0 0-.11455-1.26025-1.14569-1.37483-1.83311"/>
<path transform="matrix(1,0,0,-1,17.002,92.018009)" stroke-width=".59776" stroke-linecap="butt" stroke-miterlimit="10" stroke-linejoin="miter" fill="none" stroke="#000000" d="M279.25947 78.31993V49.83907"/>
<path transform="matrix(0,1,1,0,296.26148,42.178937)" stroke-width=".4782" stroke-linecap="round" stroke-linejoin="round" fill="none" stroke="#000000" d="M-1.37483 1.83311C-1.26025 1.14569 0 .11455 .34369 0 0-.11455-1.26025-1.14569-1.37483-1.83311"/>
<path transform="matrix(1,0,0,-1,17.002,92.018009)" stroke-width=".59776" stroke-linecap="butt" stroke-miterlimit="10" stroke-linejoin="miter" fill="none" stroke="#000000" d="M296.26438 78.31993 402.0238 49.4099"/>
<path transform="matrix(.96455,.26366,.26366,-.96455,419.02583,42.608098)" stroke-width=".4782" stroke-linecap="round" stroke-linejoin="round" fill="none" stroke="#000000" d="M-1.37483 1.83311C-1.26025 1.14569 0 .11455 .34369 0 0-.11455-1.26025-1.14569-1.37483-1.83311"/>
<path transform="matrix(1,0,0,-1,17.002,92.018009)" stroke-width=".59776" stroke-linecap="butt" stroke-miterlimit="10" stroke-linejoin="miter" fill="none" stroke="#000000" d="M484.80369 78.31993V49.83907"/>
<path transform="matrix(0,1,1,0,501.8057,42.178937)" stroke-width=".4782" stroke-linecap="round" stroke-linejoin="round" fill="none" stroke="#000000" d="M-1.37483 1.83311C-1.26025 1.14569 0 .11455 .34369 0 0-.11455-1.26025-1.14569-1.37483-1.83311"/>
<use data-text="3" xlink:href="#font_2_3" transform="matrix(8.9664,0,0,-8.9664,575.40206,9.868004)" fill="#929292"/>
<use data-text="2" xlink:href="#font_2_2" transform="matrix(8.9664,0,0,-8.9664,575.40206,52.38701)" fill="#929292"/>
<use data-text="1" xlink:href="#font_2_1" transform="matrix(8.9664,0,0,-8.9664,575.40206,94.90701)" fill="#929292"/>
</svg>
