<svg xmlns="http://www.w3.org/2000/svg" xmlns:xlink="http://www.w3.org/1999/xlink" version="1.1" width="384.404" height="106.585" viewBox="0 0 384.404 106.585">
<path transform="matrix(1,0,0,-1,-1.218,95.812)" stroke-width=".3985" stroke-linecap="butt" stroke-miterlimit="10" stroke-linejoin="miter" fill="none" stroke="#000000" d="M21.2601 0C21.2601 5.47948 16.81824 9.92134 11.33876 9.92134 5.85927 9.92134 1.4174 5.47948 1.4174 0 1.4174-5.47948 5.85927-9.92134 11.33876-9.92134 16.81824-9.92134 21.2601-5.47948 21.2601 0ZM11.33876 0"/>
<text xml:space="preserve" transform="matrix(1 0 -0 1 -.00000047683718 106.58499)" font-size="9.9626" font-family="CMR10"><tspan y="-7.562" x="7.63">2</tspan></text>
<path transform="matrix(1,0,0,-1,-1.218,95.812)" stroke-width=".3985" stroke-linecap="butt" stroke-miterlimit="10" stroke-linejoin="miter" fill="none" stroke="#000000" d="M32.59886 42.5202C32.59886 47.99968 28.157 52.44154 22.67752 52.44154 17.19803 52.44154 12.75616 47.99968 12.75616 42.5202 12.75616 37.04073 17.19803 32.59886 22.67752 32.59886 28.157 32.59886 32.59886 37.04073 32.59886 42.5202ZM22.67752 42.5202"/>
<text xml:space="preserve" transform="matrix(1 0 -0 1 0 106.585)" font-size="9.9626" font-family="CMR10"><tspan y="-50.082" x="18.968">3</tspan></text>
<path transform="matrix(1,0,0,-1,-1.218,95.812)" stroke-width=".3985" stroke-linecap="butt" stroke-miterlimit="10" stroke-linejoin="miter" fill="none" stroke="#000000" d="M43.93762 0C43.93762 5.47948 39.49576 9.92134 34.01628 9.92134 28.53679 9.92134 24.09492 5.47948 24.09492 0 24.09492-5.47948 28.53679-9.92134 34.01628-9.92134 39.49576-9.92134 43.93762-5.47948 43.93762 0ZM34.01628 0"/>
<text xml:space="preserve" transform="matrix(1 0 -0 1 0 106.58499)" font-size="9.9626" font-family="CMR10"><tspan y="-7.562" x="30.307">5</tspan></text>
<path transform="matrix(1,0,0,-1,-1.218,95.812)" d="M55.2764 85.04042C55.2764 90.5199 50.83453 94.96176 45.35506 94.96176 39.87556 94.96176 35.4337 90.5199 35.4337 85.04042 35.4337 79.56094 39.87556 75.11908 45.35506 75.11908 50.83453 75.11908 55.2764 79.56094 55.2764 85.04042ZM45.35506 85.04042" fill="#ff8000"/>
<path transform="matrix(1,0,0,-1,-1.218,95.812)" stroke-width=".3985" stroke-linecap="butt" stroke-miterlimit="10" stroke-linejoin="miter" fill="none" stroke="#000000" d="M55.2764 85.04042C55.2764 90.5199 50.83453 94.96176 45.35506 94.96176 39.87556 94.96176 35.4337 90.5199 35.4337 85.04042 35.4337 79.56094 39.87556 75.11908 45.35506 75.11908 50.83453 75.11908 55.2764 79.56094 55.2764 85.04042ZM45.35506 85.04042"/>
<text xml:space="preserve" transform="matrix(1 0 -0 1 0 106.58499)" font-size="9.9626" font-family="CMR10"><tspan y="-92.602" x="41.646">7</tspan></text>
<path transform="matrix(1,0,0,-1,-1.218,95.812)" stroke-width=".3985" stroke-linecap="butt" stroke-miterlimit="10" stroke-linejoin="miter" fill="none" stroke="#000000" d="M78.60611 0C78.60611 5.83965 73.87224 10.57352 68.0326 10.57352 62.19293 10.57352 57.45906 5.83965 57.45906 0 57.45906-5.83965 62.19293-10.57352 68.0326-10.57352 73.87224-10.57352 78.60611-5.83965 78.60611 0ZM68.0326 0"/>
<text xml:space="preserve" transform="matrix(1 0 -0 1 0 106.58499)" font-size="9.9626" font-family="CMR10"><tspan y="-7.562" x="61.832 66.8133">11</tspan></text>
<path transform="matrix(1,0,0,-1,-1.218,95.812)" d="M89.94487 42.5202C89.94487 48.35986 85.211 53.09372 79.37135 53.09372 73.5317 53.09372 68.79782 48.35986 68.79782 42.5202 68.79782 36.68054 73.5317 31.94667 79.37135 31.94667 85.211 31.94667 89.94487 36.68054 89.94487 42.5202ZM79.37135 42.5202" fill="#ec008c"/>
<path transform="matrix(1,0,0,-1,-1.218,95.812)" stroke-width=".3985" stroke-linecap="butt" stroke-miterlimit="10" stroke-linejoin="miter" fill="none" stroke="#000000" d="M89.94487 42.5202C89.94487 48.35986 85.211 53.09372 79.37135 53.09372 73.5317 53.09372 68.79782 48.35986 68.79782 42.5202 68.79782 36.68054 73.5317 31.94667 79.37135 31.94667 85.211 31.94667 89.94487 36.68054 89.94487 42.5202ZM79.37135 42.5202"/>
<text xml:space="preserve" transform="matrix(1 0 -0 1 0 106.585)" font-size="9.9626" font-family="CMR10"><tspan y="-50.082" x="73.171 78.1523">13</tspan></text>
<path transform="matrix(1,0,0,-1,-1.218,95.812)" d="M123.96118 0C123.96118 5.83965 119.22731 10.57352 113.38766 10.57352 107.548 10.57352 102.81413 5.83965 102.81413 0 102.81413-5.83965 107.548-10.57352 113.38766-10.57352 119.22731-10.57352 123.96118-5.83965 123.96118 0ZM113.38766 0" fill="#ffbfbf"/>
<path transform="matrix(1,0,0,-1,-1.218,95.812)" stroke-width=".3985" stroke-linecap="butt" stroke-miterlimit="10" stroke-linejoin="miter" fill="none" stroke="#000000" d="M123.96118 0C123.96118 5.83965 119.22731 10.57352 113.38766 10.57352 107.548 10.57352 102.81413 5.83965 102.81413 0 102.81413-5.83965 107.548-10.57352 113.38766-10.57352 119.22731-10.57352 123.96118-5.83965 123.96118 0ZM113.38766 0"/>
<text xml:space="preserve" transform="matrix(1 0 -0 1 0 106.58499)" font-size="9.9626" font-family="CMR10"><tspan y="-7.562" x="107.187 112.1683">17</tspan></text>
<path transform="matrix(1,0,0,-1,-1.218,95.812)" d="M169.31626 0C169.31626 5.83965 164.58238 10.57352 158.74274 10.57352 152.90308 10.57352 148.1692 5.83965 148.1692 0 148.1692-5.83965 152.90308-10.57352 158.74274-10.57352 164.58238-10.57352 169.31626-5.83965 169.31626 0ZM158.74274 0" fill="#ffbfbf"/>
<path transform="matrix(1,0,0,-1,-1.218,95.812)" stroke-width=".3985" stroke-linecap="butt" stroke-miterlimit="10" stroke-linejoin="miter" fill="none" stroke="#000000" d="M169.31626 0C169.31626 5.83965 164.58238 10.57352 158.74274 10.57352 152.90308 10.57352 148.1692 5.83965 148.1692 0 148.1692-5.83965 152.90308-10.57352 158.74274-10.57352 164.58238-10.57352 169.31626-5.83965 169.31626 0ZM158.74274 0"/>
<text xml:space="preserve" transform="matrix(1 0 -0 1 0 106.58499)" font-size="9.9626" font-family="CMR10"><tspan y="-7.562" x="152.541 157.5223">19</tspan></text>
<path transform="matrix(1,0,0,-1,-1.218,95.812)" d="M135.29994 42.5202C135.29994 48.35986 130.56607 53.09372 124.72643 53.09372 118.88676 53.09372 114.1529 48.35986 114.1529 42.5202 114.1529 36.68054 118.88676 31.94667 124.72643 31.94667 130.56607 31.94667 135.29994 36.68054 135.29994 42.5202ZM124.72643 42.5202" fill="#ec008c"/>
<path transform="matrix(1,0,0,-1,-1.218,95.812)" stroke-width=".3985" stroke-linecap="butt" stroke-miterlimit="10" stroke-linejoin="miter" fill="none" stroke="#000000" d="M135.29994 42.5202C135.29994 48.35986 130.56607 53.09372 124.72643 53.09372 118.88676 53.09372 114.1529 48.35986 114.1529 42.5202 114.1529 36.68054 118.88676 31.94667 124.72643 31.94667 130.56607 31.94667 135.29994 36.68054 135.29994 42.5202ZM124.72643 42.5202"/>
<text xml:space="preserve" transform="matrix(1 0 -0 1 -.0000076293949 106.585)" font-size="9.9626" font-family="CMR10"><tspan y="-50.082" x="118.525 123.5063">23</tspan></text>
<path transform="matrix(1,0,0,-1,-1.218,95.812)" d="M180.65502 42.5202C180.65502 48.35986 175.92115 53.09372 170.0815 53.09372 164.24184 53.09372 159.50797 48.35986 159.50797 42.5202 159.50797 36.68054 164.24184 31.94667 170.0815 31.94667 175.92115 31.94667 180.65502 36.68054 180.65502 42.5202ZM170.0815 42.5202" fill="#ec008c"/>
<path transform="matrix(1,0,0,-1,-1.218,95.812)" stroke-width=".3985" stroke-linecap="butt" stroke-miterlimit="10" stroke-linejoin="miter" fill="none" stroke="#000000" d="M180.65502 42.5202C180.65502 48.35986 175.92115 53.09372 170.0815 53.09372 164.24184 53.09372 159.50797 48.35986 159.50797 42.5202 159.50797 36.68054 164.24184 31.94667 170.0815 31.94667 175.92115 31.94667 180.65502 36.68054 180.65502 42.5202ZM170.0815 42.5202"/>
<text xml:space="preserve" transform="matrix(1 0 -0 1 0 106.585)" font-size="9.9626" font-family="CMR10"><tspan y="-50.082" x="163.88 168.8613">29</tspan></text>
<path transform="matrix(1,0,0,-1,-1.218,95.812)" d="M112.6224 85.04042C112.6224 90.88008 107.88853 95.61395 102.04889 95.61395 96.20923 95.61395 91.47536 90.88008 91.47536 85.04042 91.47536 79.20076 96.20923 74.4669 102.04889 74.4669 107.88853 74.4669 112.6224 79.20076 112.6224 85.04042ZM102.04889 85.04042" fill="#ff8000"/>
<path transform="matrix(1,0,0,-1,-1.218,95.812)" stroke-width=".3985" stroke-linecap="butt" stroke-miterlimit="10" stroke-linejoin="miter" fill="none" stroke="#000000" d="M112.6224 85.04042C112.6224 90.88008 107.88853 95.61395 102.04889 95.61395 96.20923 95.61395 91.47536 90.88008 91.47536 85.04042 91.47536 79.20076 96.20923 74.4669 102.04889 74.4669 107.88853 74.4669 112.6224 79.20076 112.6224 85.04042ZM102.04889 85.04042"/>
<text xml:space="preserve" transform="matrix(1 0 -0 1 0 106.58499)" font-size="9.9626" font-family="CMR10"><tspan y="-92.602" x="95.848 100.8293">31</tspan></text>
<path transform="matrix(1,0,0,-1,-1.218,95.812)" stroke-width=".3985" stroke-linecap="butt" stroke-miterlimit="10" stroke-linejoin="miter" fill="none" stroke="#000000" d="M214.67133 0C214.67133 5.83965 209.93746 10.57352 204.09781 10.57352 198.25815 10.57352 193.52428 5.83965 193.52428 0 193.52428-5.83965 198.25815-10.57352 204.09781-10.57352 209.93746-10.57352 214.67133-5.83965 214.67133 0ZM204.09781 0"/>
<text xml:space="preserve" transform="matrix(1 0 -0 1 0 106.58499)" font-size="9.9626" font-family="CMR10"><tspan y="-7.562" x="197.896 202.87729">37</tspan></text>
<path transform="matrix(1,0,0,-1,-1.218,95.812)" d="M226.01009 42.5202C226.01009 48.35986 221.27622 53.09372 215.43657 53.09372 209.59691 53.09372 204.86304 48.35986 204.86304 42.5202 204.86304 36.68054 209.59691 31.94667 215.43657 31.94667 221.27622 31.94667 226.01009 36.68054 226.01009 42.5202ZM215.43657 42.5202" fill="#00aeef"/>
<path transform="matrix(1,0,0,-1,-1.218,95.812)" stroke-width=".3985" stroke-linecap="butt" stroke-miterlimit="10" stroke-linejoin="miter" fill="none" stroke="#000000" d="M226.01009 42.5202C226.01009 48.35986 221.27622 53.09372 215.43657 53.09372 209.59691 53.09372 204.86304 48.35986 204.86304 42.5202 204.86304 36.68054 209.59691 31.94667 215.43657 31.94667 221.27622 31.94667 226.01009 36.68054 226.01009 42.5202ZM215.43657 42.5202"/>
<text xml:space="preserve" transform="matrix(1 0 -0 1 0 106.585)" font-size="9.9626" font-family="CMR10"><tspan y="-50.082" x="209.234 214.21529">41</tspan></text>
<path transform="matrix(1,0,0,-1,-1.218,95.812)" d="M271.36515 42.5202C271.36515 48.35986 266.63127 53.09372 260.79164 53.09372 254.95197 53.09372 250.2181 48.35986 250.2181 42.5202 250.2181 36.68054 254.95197 31.94667 260.79164 31.94667 266.63127 31.94667 271.36515 36.68054 271.36515 42.5202ZM260.79164 42.5202" fill="#00aeef"/>
<path transform="matrix(1,0,0,-1,-1.218,95.812)" stroke-width=".3985" stroke-linecap="butt" stroke-miterlimit="10" stroke-linejoin="miter" fill="none" stroke="#000000" d="M271.36515 42.5202C271.36515 48.35986 266.63127 53.09372 260.79164 53.09372 254.95197 53.09372 250.2181 48.35986 250.2181 42.5202 250.2181 36.68054 254.95197 31.94667 260.79164 31.94667 266.63127 31.94667 271.36515 36.68054 271.36515 42.5202ZM260.79164 42.5202"/>
<text xml:space="preserve" transform="matrix(1 0 -0 1 0 106.585)" font-size="9.9626" font-family="CMR10"><tspan y="-50.082" x="254.589 259.5703">43</tspan></text>
<path transform="matrix(1,0,0,-1,-1.218,95.812)" stroke-width=".3985" stroke-linecap="butt" stroke-miterlimit="10" stroke-linejoin="miter" fill="none" stroke="#000000" d="M282.70393 0C282.70393 5.83965 277.97007 10.57352 272.1304 10.57352 266.29075 10.57352 261.5569 5.83965 261.5569 0 261.5569-5.83965 266.29075-10.57352 272.1304-10.57352 277.97007-10.57352 282.70393-5.83965 282.70393 0ZM272.1304 0"/>
<text xml:space="preserve" transform="matrix(1 0 -0 1 0 106.58499)" font-size="9.9626" font-family="CMR10"><tspan y="-7.562" x="265.927 270.9083">47</tspan></text>
<path transform="matrix(1,0,0,-1,-1.218,95.812)" d="M248.6876 85.04042C248.6876 90.88008 243.95374 95.61395 238.11409 95.61395 232.27443 95.61395 227.54056 90.88008 227.54056 85.04042 227.54056 79.20076 232.27443 74.4669 238.11409 74.4669 243.95374 74.4669 248.6876 79.20076 248.6876 85.04042ZM238.11409 85.04042" fill="#ff8000"/>
<path transform="matrix(1,0,0,-1,-1.218,95.812)" stroke-width=".3985" stroke-linecap="butt" stroke-miterlimit="10" stroke-linejoin="miter" fill="none" stroke="#000000" d="M248.6876 85.04042C248.6876 90.88008 243.95374 95.61395 238.11409 95.61395 232.27443 95.61395 227.54056 90.88008 227.54056 85.04042 227.54056 79.20076 232.27443 74.4669 238.11409 74.4669 243.95374 74.4669 248.6876 79.20076 248.6876 85.04042ZM238.11409 85.04042"/>
<text xml:space="preserve" transform="matrix(1 0 -0 1 0 106.58499)" font-size="9.9626" font-family="CMR10"><tspan y="-92.602" x="231.912 236.8933">53</tspan></text>
<path transform="matrix(1,0,0,-1,-1.218,95.812)" stroke-width=".3985" stroke-linecap="butt" stroke-miterlimit="10" stroke-linejoin="miter" fill="none" stroke="#000000" d="M305.38145 0C305.38145 5.83965 300.64759 10.57352 294.80796 10.57352 288.9683 10.57352 284.2344 5.83965 284.2344 0 284.2344-5.83965 288.9683-10.57352 294.80796-10.57352 300.64759-10.57352 305.38145-5.83965 305.38145 0ZM294.80796 0"/>
<text xml:space="preserve" transform="matrix(1 0 -0 1 0 106.58499)" font-size="9.9626" font-family="CMR10"><tspan y="-7.562" x="288.605 293.5863">59</tspan></text>
<path transform="matrix(1,0,0,-1,-1.218,95.812)" stroke-width=".3985" stroke-linecap="butt" stroke-miterlimit="10" stroke-linejoin="miter" fill="none" stroke="#000000" d="M316.7202 42.5202C316.7202 48.35986 311.98634 53.09372 306.1467 53.09372 300.30705 53.09372 295.57319 48.35986 295.57319 42.5202 295.57319 36.68054 300.30705 31.94667 306.1467 31.94667 311.98634 31.94667 316.7202 36.68054 316.7202 42.5202ZM306.1467 42.5202"/>
<text xml:space="preserve" transform="matrix(1 0 -0 1 .000030517579 106.585)" font-size="9.9626" font-family="CMR10"><tspan y="-50.082" x="299.943 304.9243">61</tspan></text>
<path transform="matrix(1,0,0,-1,-1.218,95.812)" d="M339.39775 85.04042C339.39775 90.88008 334.66389 95.61395 328.82423 95.61395 322.98457 95.61395 318.2507 90.88008 318.2507 85.04042 318.2507 79.20076 322.98457 74.4669 328.82423 74.4669 334.66389 74.4669 339.39775 79.20076 339.39775 85.04042ZM328.82423 85.04042" fill="#ff8000"/>
<path transform="matrix(1,0,0,-1,-1.218,95.812)" stroke-width=".3985" stroke-linecap="butt" stroke-miterlimit="10" stroke-linejoin="miter" fill="none" stroke="#000000" d="M339.39775 85.04042C339.39775 90.88008 334.66389 95.61395 328.82423 95.61395 322.98457 95.61395 318.2507 90.88008 318.2507 85.04042 318.2507 79.20076 322.98457 74.4669 328.82423 74.4669 334.66389 74.4669 339.39775 79.20076 339.39775 85.04042ZM328.82423 85.04042"/>
<text xml:space="preserve" transform="matrix(1 0 -0 1 0 106.58499)" font-size="9.9626" font-family="CMR10"><tspan y="-92.602" x="322.621 327.6023">67</tspan></text>
<path transform="matrix(1,0,0,-1,-1.218,95.812)" stroke-width=".3985" stroke-linecap="butt" stroke-miterlimit="10" stroke-linejoin="miter" fill="none" stroke="#000000" d="M362.0753 42.5202C362.0753 48.35986 357.34144 53.09372 351.50178 53.09372 345.6621 53.09372 340.92826 48.35986 340.92826 42.5202 340.92826 36.68054 345.6621 31.94667 351.50178 31.94667 357.34144 31.94667 362.0753 36.68054 362.0753 42.5202ZM351.50178 42.5202"/>
<text xml:space="preserve" transform="matrix(1 0 -0 1 0 106.585)" font-size="9.9626" font-family="CMR10"><tspan y="-50.082" x="345.298 350.2793">71</tspan></text>
<path transform="matrix(1,0,0,-1,-1.218,95.812)" stroke-width=".59776" stroke-linecap="butt" stroke-miterlimit="10" stroke-linejoin="miter" fill="none" stroke="#000000" d="M20.07106 32.74565 14.09712 10.34282"/>
<path transform="matrix(-.25764,.9662,.9662,.25764,12.87914,85.46918)" stroke-width=".4782" stroke-linecap="round" stroke-linejoin="round" fill="none" stroke="#000000" d="M-1.37483 1.83311C-1.26025 1.14569 0 .11455 .34369 0 0-.11455-1.26025-1.14569-1.37483-1.83311"/>
<path transform="matrix(1,0,0,-1,-1.218,95.812)" stroke-width=".59776" stroke-linecap="butt" stroke-miterlimit="10" stroke-linejoin="miter" fill="none" stroke="#000000" d="M25.28711 32.74565 31.26071 10.34314"/>
<path transform="matrix(.25763,.96622,.96622,-.25763,30.0427,85.46885)" stroke-width=".4782" stroke-linecap="round" stroke-linejoin="round" fill="none" stroke="#000000" d="M-1.37483 1.83311C-1.26025 1.14569 0 .11455 .34369 0 0-.11455-1.26025-1.14569-1.37483-1.83311"/>
<path transform="matrix(1,0,0,-1,-1.218,95.812)" stroke-width=".59776" stroke-linecap="butt" stroke-miterlimit="10" stroke-linejoin="miter" fill="none" stroke="#000000" d="M40.59416 76.12038 27.71497 51.97066"/>
<path transform="matrix(-.47055,.88234,.88234,.47055,26.49697,43.841337)" stroke-width=".4782" stroke-linecap="round" stroke-linejoin="round" fill="none" stroke="#000000" d="M-1.37483 1.83311C-1.26025 1.14569 0 .11455 .34369 0 0-.11455-1.26025-1.14569-1.37483-1.83311"/>
<path transform="matrix(1,0,0,-1,-1.218,95.812)" stroke-width=".59776" stroke-linecap="butt" stroke-dasharray="2.98883,2.98883" stroke-miterlimit="10" stroke-linejoin="miter" fill="none" stroke="#929292" d="M55.47838 85.05339 90.69823 85.05257"/>
<path transform="matrix(1,0,0,-1,89.480228,10.75943)" stroke-width=".4782" stroke-linecap="round" stroke-linejoin="round" fill="none" stroke="#929292" d="M-1.37483 1.83311C-1.26025 1.14569 0 .11455 .34369 0 0-.11455-1.26025-1.14569-1.37483-1.83311"/>
<path transform="matrix(1,0,0,-1,-1.218,95.812)" stroke-width=".59776" stroke-linecap="butt" stroke-miterlimit="10" stroke-linejoin="miter" fill="none" stroke="#000000" d="M76.60098 32.11493 70.96268 10.97305"/>
<path transform="matrix(-.25766,.9662,.9662,.25766,69.744678,84.83894)" stroke-width=".4782" stroke-linecap="round" stroke-linejoin="round" fill="none" stroke="#000000" d="M-1.37483 1.83311C-1.26025 1.14569 0 .11455 .34369 0 0-.11455-1.26025-1.14569-1.37483-1.83311"/>
<path transform="matrix(1,0,0,-1,-1.218,95.812)" stroke-width=".59776" stroke-linecap="butt" stroke-dasharray="2.98883,2.98883" stroke-miterlimit="10" stroke-linejoin="miter" fill="none" stroke="#929292" d="M90.14868 42.52716 113.37697 42.52634"/>
<path transform="matrix(1,0,0,-1,112.158969,53.285657)" stroke-width=".4782" stroke-linecap="round" stroke-linejoin="round" fill="none" stroke="#929292" d="M-1.37483 1.83311C-1.26025 1.14569 0 .11455 .34369 0 0-.11455-1.26025-1.14569-1.37483-1.83311"/>
<path transform="matrix(1,0,0,-1,-1.218,95.812)" stroke-width=".59776" stroke-linecap="butt" stroke-miterlimit="10" stroke-linejoin="miter" fill="none" stroke="#000000" d="M121.95941 32.11478 116.32062 10.97287"/>
<path transform="matrix(-.25768,.9662,.9662,.25768,115.102619,84.83913)" stroke-width=".4782" stroke-linecap="round" stroke-linejoin="round" fill="none" stroke="#000000" d="M-1.37483 1.83311C-1.26025 1.14569 0 .11455 .34369 0 0-.11455-1.26025-1.14569-1.37483-1.83311"/>
<path transform="matrix(1,0,0,-1,-1.218,95.812)" stroke-width=".59776" stroke-linecap="butt" stroke-dasharray="2.98883,2.98883" stroke-miterlimit="10" stroke-linejoin="miter" fill="none" stroke="#929292" d="M124.16696 0H147.3949"/>
<path transform="matrix(1,0,0,-1,146.1769,95.812)" stroke-width=".4782" stroke-linecap="round" stroke-linejoin="round" fill="none" stroke="#929292" d="M-1.37483 1.83311C-1.26025 1.14569 0 .11455 .34369 0 0-.11455-1.26025-1.14569-1.37483-1.83311"/>
<path transform="matrix(1,0,0,-1,-1.218,95.812)" stroke-width=".59776" stroke-linecap="butt" stroke-dasharray="2.98883,2.98883" stroke-miterlimit="10" stroke-linejoin="miter" fill="none" stroke="#929292" d="M135.50614 42.52716 158.73444 42.52634"/>
<path transform="matrix(1,0,0,-1,157.51644,53.285657)" stroke-width=".4782" stroke-linecap="round" stroke-linejoin="round" fill="none" stroke="#929292" d="M-1.37483 1.83311C-1.26025 1.14569 0 .11455 .34369 0 0-.11455-1.26025-1.14569-1.37483-1.83311"/>
<path transform="matrix(1,0,0,-1,-1.218,95.812)" stroke-width=".59776" stroke-linecap="butt" stroke-miterlimit="10" stroke-linejoin="miter" fill="none" stroke="#000000" d="M96.98485 75.5444 84.71931 52.54584"/>
<path transform="matrix(-.47055,.88234,.88234,.47055,83.501308,43.266157)" stroke-width=".4782" stroke-linecap="round" stroke-linejoin="round" fill="none" stroke="#000000" d="M-1.37483 1.83311C-1.26025 1.14569 0 .11455 .34369 0 0-.11455-1.26025-1.14569-1.37483-1.83311"/>
<path transform="matrix(1,0,0,-1,-1.218,95.812)" stroke-width=".59776" stroke-linecap="butt" stroke-dasharray="2.98883,2.98883" stroke-miterlimit="10" stroke-linejoin="miter" fill="none" stroke="#929292" d="M112.82742 85.0516H226.77062"/>
<path transform="matrix(1,0,0,-1,225.55261,10.760399)" stroke-width=".4782" stroke-linecap="round" stroke-linejoin="round" fill="none" stroke="#929292" d="M-1.37483 1.83311C-1.26025 1.14569 0 .11455 .34369 0 0-.11455-1.26025-1.14569-1.37483-1.83311"/>
<path transform="matrix(1,0,0,-1,-1.218,95.812)" stroke-width=".59776" stroke-linecap="butt" stroke-miterlimit="10" stroke-linejoin="miter" fill="none" stroke="#000000" d="M233.05919 75.54323 220.79286 52.5452"/>
<path transform="matrix(-.47058,.88232,.88232,.47058,219.57488,43.266786)" stroke-width=".4782" stroke-linecap="round" stroke-linejoin="round" fill="none" stroke="#000000" d="M-1.37483 1.83311C-1.26025 1.14569 0 .11455 .34369 0 0-.11455-1.26025-1.14569-1.37483-1.83311"/>
<path transform="matrix(1,0,0,-1,-1.218,95.812)" stroke-width=".59776" stroke-linecap="butt" stroke-miterlimit="10" stroke-linejoin="miter" fill="none" stroke="#000000" d="M212.67615 32.11429 207.03672 10.97255"/>
<path transform="matrix(-.2577,.9662,.9662,.2577,205.81871,84.83945)" stroke-width=".4782" stroke-linecap="round" stroke-linejoin="round" fill="none" stroke="#000000" d="M-1.37483 1.83311C-1.26025 1.14569 0 .11455 .34369 0 0-.11455-1.26025-1.14569-1.37483-1.83311"/>
<path transform="matrix(1,0,0,-1,-1.218,95.812)" stroke-width=".59776" stroke-linecap="butt" stroke-dasharray="2.98883,2.98883" stroke-miterlimit="10" stroke-linejoin="miter" fill="none" stroke="#929292" d="M226.22106 42.52716 249.44933 42.52634"/>
<path transform="matrix(1,0,0,-1,248.23133,53.285657)" stroke-width=".4782" stroke-linecap="round" stroke-linejoin="round" fill="none" stroke="#929292" d="M-1.37483 1.83311C-1.26025 1.14569 0 .11455 .34369 0 0-.11455-1.26025-1.14569-1.37483-1.83311"/>
<path transform="matrix(1,0,0,-1,-1.218,95.812)" stroke-width=".59776" stroke-linecap="butt" stroke-miterlimit="10" stroke-linejoin="miter" fill="none" stroke="#000000" d="M263.5866 32.11676 269.22239 10.97406"/>
<path transform="matrix(.25755,.96623,.96623,-.25755,268.00437,84.83791)" stroke-width=".4782" stroke-linecap="round" stroke-linejoin="round" fill="none" stroke="#000000" d="M-1.37483 1.83311C-1.26025 1.14569 0 .11455 .34369 0 0-.11455-1.26025-1.14569-1.37483-1.83311"/>
<path transform="matrix(1,0,0,-1,-1.218,95.812)" stroke-width=".59776" stroke-linecap="butt" stroke-dasharray="2.98883,2.98883" stroke-miterlimit="10" stroke-linejoin="miter" fill="none" stroke="#929292" d="M248.89978 85.05225 317.48554 85.05174"/>
<path transform="matrix(1,0,0,-1,316.26756,10.760254)" stroke-width=".4782" stroke-linecap="round" stroke-linejoin="round" fill="none" stroke="#929292" d="M-1.37483 1.83311C-1.26025 1.14569 0 .11455 .34369 0 0-.11455-1.26025-1.14569-1.37483-1.83311"/>
<path transform="matrix(1,0,0,-1,-1.218,95.812)" stroke-width=".59776" stroke-linecap="butt" stroke-miterlimit="10" stroke-linejoin="miter" fill="none" stroke="#000000" d="M323.7754 75.54259 311.50874 52.5447"/>
<path transform="matrix(-.47058,.88232,.88232,.47058,310.29078,43.26729)" stroke-width=".4782" stroke-linecap="round" stroke-linejoin="round" fill="none" stroke="#000000" d="M-1.37483 1.83311C-1.26025 1.14569 0 .11455 .34369 0 0-.11455-1.26025-1.14569-1.37483-1.83311"/>
<path transform="matrix(1,0,0,-1,-1.218,95.812)" stroke-width=".59776" stroke-linecap="butt" stroke-miterlimit="10" stroke-linejoin="miter" fill="none" stroke="#000000" d="M303.39268 32.11378 297.75263 10.97235"/>
<path transform="matrix(-.25775,.96619,.96619,.25775,296.53468,84.839649)" stroke-width=".4782" stroke-linecap="round" stroke-linejoin="round" fill="none" stroke="#000000" d="M-1.37483 1.83311C-1.26025 1.14569 0 .11455 .34369 0 0-.11455-1.26025-1.14569-1.37483-1.83311"/>
<path transform="matrix(1,0,0,-1,-1.218,95.812)" stroke-width=".59776" stroke-linecap="butt" stroke-miterlimit="10" stroke-linejoin="miter" fill="none" stroke="#000000" d="M333.917 75.54768 346.18046 52.548"/>
<path transform="matrix(.47046,.88237,.88237,-.47046,344.96247,43.263998)" stroke-width=".4782" stroke-linecap="round" stroke-linejoin="round" fill="none" stroke="#000000" d="M-1.37483 1.83311C-1.26025 1.14569 0 .11455 .34369 0 0-.11455-1.26025-1.14569-1.37483-1.83311"/>
<text fill="#929292" xml:space="preserve" transform="matrix(1 0 -0 1 0 106.58499)" font-size="8.9664" font-family="CMR9"><tspan y="-92.923" x="376.476">3</tspan></text>
<text fill="#929292" xml:space="preserve" transform="matrix(1 0 -0 1 0 106.58499)" font-size="8.9664" font-family="CMR9"><tspan y="-50.403" x="376.476">2</tspan></text>
<text fill="#929292" xml:space="preserve" transform="matrix(1 0 -0 1 0 106.585)" font-size="8.9664" font-family="CMR9"><tspan y="-7.883" x="376.476">1</tspan></text>
</svg>
